<svg width="382" height="165" viewBox="0 0 382 165" fill="none" xmlns="http://www.w3.org/2000/svg">
<rect width="382" height="165" rx="16" fill="#3E8D7A"/>
<path opacity="0.3" fill-rule="evenodd" clip-rule="evenodd" d="M38.1666 0.0961632H0.133605V27.4706H34.2264L38.1666 24.6346V0.0961632ZM42.2119 27.4706L38.3225 24.6712V0.0961632H76.3555V27.4706H42.2119ZM38.3225 30.3405L42.154 27.5828H76.3555V54.9573H38.3225V30.3405ZM34.2843 27.5828L38.1666 30.3771V54.9573H0.133605V27.5828H34.2843ZM0 0V27.4867V27.5668V54.9732V55.0534V82.4599V82.54V109.947V110.027V137.433V137.513V165H38.1889H38.3002H76.3777H76.4891H114.567H114.678H152.755H152.867H190.944H191.056H229.133H229.244H267.322H267.433H305.511H305.622H343.7H343.811H382L382 137.513V110.027V109.947V82.4599V55.0534V27.5668V27.4867V0H343.811H343.7H305.622H305.511H267.433H267.322H229.244H229.133H191.056H190.944H152.867H152.755H114.678H114.567H76.4891H76.3777H38.3002H38.1889H0ZM76.5113 0.0961632H114.544V27.4706H76.5113V0.0961632ZM152.733 0.0961632H114.7V27.4706H152.733V0.0961632ZM152.889 0.0961632H190.922V27.4706H152.889V0.0961632ZM229.111 0.0961632H191.078V27.4706H229.111V0.0961632ZM229.267 0.0961632H267.3V27.4706H229.267V0.0961632ZM305.489 0.0961632H267.456V27.4706H305.489V0.0961632ZM305.644 0.0961632H343.677V27.4706H305.644V0.0961632ZM381.866 0.0961632H343.833V27.4706H381.866V0.0961632ZM76.5113 27.5828H114.544V54.9573H76.5113V27.5828ZM152.733 27.5828H114.7V54.9573H148.908L152.733 52.2038V27.5828ZM156.653 54.9573L152.889 52.2478V27.5828H190.922V54.9573H156.653ZM152.889 57.9097L156.822 55.0788L156.809 55.0694H190.922V82.4438H152.889V57.9097ZM148.752 55.0694L148.739 55.0788L152.733 57.9538V82.4438H114.7V55.0694H148.752ZM229.111 27.5828H191.078V54.9573H229.111V27.5828ZM229.267 27.5828H267.3V54.9573H229.267V27.5828ZM305.489 27.5828H267.456V54.9573H305.489V27.5828ZM305.644 27.5828H343.677V47.3627L343.613 47.4092L333.126 54.9573H305.644V27.5828ZM332.97 55.0694H305.645V79.747L305.772 79.6551L309.647 82.4438H343.677V62.7949L343.613 62.7484L333.06 55.1531L332.957 55.0788L332.97 55.0694ZM343.677 62.6464L333.163 55.0788L333.176 55.0694H339.687L339.674 55.0788L343.677 57.9601V62.6464ZM343.833 62.7383V82.4438H381.866V55.0694H354.462L354.475 55.0788L354.372 55.1531L343.833 62.7383ZM354.256 55.0694L354.269 55.0788L343.833 62.5897V57.9035L347.758 55.0788L347.745 55.0694H354.256ZM354.306 54.9573H381.866V27.5828H343.833V47.4194L354.306 54.9573ZM343.833 47.5679L354.1 54.9573H347.589L343.833 52.2541V47.5679ZM343.677 47.5113L333.332 54.9573H339.843L343.677 52.1976V47.5113ZM305.644 85.3812L305.772 85.4732L309.814 82.5642L309.803 82.5561H343.677V109.931H305.644V85.3812ZM301.742 82.5561L301.73 82.5642L305.489 85.2691V109.931H267.456V82.5561H301.742ZM305.489 79.8592L301.898 82.4438H267.456V55.0694H305.489V79.8592ZM0.133605 55.0694H38.1666V82.4438H0.133605V55.0694ZM76.3555 55.0694H38.3225V82.4438H76.3555V55.0694ZM76.5113 55.0694H114.544V82.4438H76.5113V55.0694ZM229.111 55.0694H191.078V82.4438H229.111V55.0694ZM229.267 55.0694H267.3V82.4438H229.267V55.0694ZM0.133605 82.5561H38.1666V109.931H0.133605V82.5561ZM76.3555 82.5561H38.3225V109.931H65.8468L65.7973 109.895L65.9005 109.821L76.3555 102.296V82.5561ZM76.3555 102.444L66.0037 109.895L66.0531 109.931H72.5641L72.5146 109.895L76.3555 107.13V102.444ZM76.5113 107.018V102.332L76.5564 102.3L87.109 109.895L87.0595 109.931H80.5487L80.5981 109.895L76.5564 106.986L76.5113 107.018ZM76.5113 112.772L76.5564 112.804L80.3928 110.043H86.9036L76.5564 117.49L76.5113 117.458V112.772ZM72.72 110.043L76.3555 112.659V117.346L66.2091 110.043H72.72ZM66.0027 110.043H38.3225V137.417H76.3555V117.494L66.0027 110.043ZM76.5113 117.606V137.417H114.544V110.043H87.11L76.6595 117.565L76.5564 117.639L76.5113 117.606ZM87.2659 109.931H114.544V82.5561H76.5113V102.183L76.5564 102.151L76.6595 102.225L87.2122 109.821L87.3154 109.895L87.2659 109.931ZM152.733 82.5561H114.7V109.931H152.733V82.5561ZM152.889 82.5561H190.922V109.931H152.889V82.5561ZM229.111 82.5561H191.078V109.931H229.111V82.5561ZM229.267 82.5561H267.3V109.931H229.267V82.5561ZM381.866 82.5561H343.833V109.931H381.866V82.5561ZM0.133605 110.043H38.1666V137.417H0.133605V110.043ZM152.733 110.043H114.7V137.417H152.733V110.043ZM152.889 110.043H190.922V137.417H152.889V110.043ZM229.111 110.043H191.078V137.417H229.111V110.043ZM229.267 110.043H267.3V137.417H229.267V110.043ZM305.489 110.043H267.456V137.417H305.489V110.043ZM305.644 110.043H343.677V137.417H305.644V110.043ZM381.866 110.043H343.833V137.417H381.866V110.043ZM0.133605 137.529H38.1666V164.904H0.133605V137.529ZM76.3555 137.529H38.3225V164.904H76.3555V137.529ZM76.5113 137.529H114.544V164.904H76.5113V137.529ZM152.733 137.529H114.7V164.904H152.733V137.529ZM152.889 137.529H190.922V164.904H152.889V137.529ZM229.111 137.529H191.078V164.904H229.111V137.529ZM229.267 137.529H267.3V164.904H229.267V137.529ZM305.489 137.529H267.456V164.904H305.489V137.529ZM305.644 137.529H343.677V164.904H305.644V137.529ZM381.866 137.529H343.833V164.904H381.866V137.529Z" fill="url(#paint0_radial_2_3876)"/>
<defs>
<radialGradient id="paint0_radial_2_3876" cx="0" cy="0" r="1" gradientUnits="userSpaceOnUse" gradientTransform="translate(191 -92.61) rotate(90) scale(236.821 548.276)">
<stop stop-color="white"/>
<stop offset="1" stop-color="white" stop-opacity="0.67"/>
</radialGradient>
</defs>
</svg>
