<svg width="14" height="16" viewBox="0 0 14 16" fill="none" xmlns="http://www.w3.org/2000/svg">
<path d="M14 12.7822C13.9075 13.5302 13.867 13.8547 13.5215 14.584L8.21582 15.6787C8.33778 14.8906 8.50043 14.2826 8.76465 13.918L14 12.7822ZM6.61035 7.62207L8.19531 7.27832V2.26855C8.78602 1.60549 9.14932 1.30799 9.8623 0.931641V6.91602L14 6.01855C13.9075 6.76653 13.867 7.09106 13.5215 7.82031L9.8623 8.59375V10.2754L14 9.40039C13.9075 10.1485 13.867 10.4728 13.5215 11.2021L9.8623 11.957V11.9736L8.19531 12.3174V8.94531L6.61035 9.28027V11.4062L6.58203 11.4111C6.21741 12.0504 5.7031 12.8185 5.20703 13.4316L0 14.4238C0.0466915 13.7538 0.144281 13.376 0.447266 12.7012L4.94336 11.7266V9.63281L0.776367 10.5146C0.823059 9.84465 0.920649 9.46687 1.22363 8.79199L4.94336 7.98438V1.33691C5.5341 0.673817 5.8973 0.376376 6.61035 0V7.62207Z" fill="#0A0A0A"/>
</svg>
