<svg width="136" height="182" viewBox="0 0 136 182" fill="none" xmlns="http://www.w3.org/2000/svg">
<g clip-path="url(#clip0_316_1864)">
<path d="M86.4245 38.6625C86.4245 39.158 86.3675 39.6655 86.2475 40.1732L81.2306 61.5304C80.5192 64.5668 77.4779 66.447 74.4456 65.7292L54.3399 59.488L53.3582 59.1847C52.2143 60.0136 50.6172 60.3951 48.948 60.1007C46.0297 59.5842 44.0093 57.2085 44.4356 54.7907C44.862 52.376 47.5729 50.8353 50.4911 51.3488C52.1604 51.6432 53.5323 52.5472 54.325 53.7156L54.3399 53.7185L54.3909 53.7275L71.8908 55.893L73.3619 38.1369C73.6411 34.743 76.4752 32.1331 79.8796 32.1331C83.5724 32.1331 86.4245 35.1515 86.4245 38.6625Z" fill="#ED9DA0"/>
<path d="M86.4246 38.6625C86.4246 39.158 86.3675 39.6655 86.2475 40.1732L82.1313 62.4314C81.4199 65.4679 78.3786 67.348 75.3463 66.6302L55.2406 61.0378L56.1413 52.328L71.4525 54.4303L73.3619 38.1369C73.6411 34.743 76.4752 32.1331 79.8797 32.1331C83.5725 32.1331 86.4246 35.1515 86.4246 38.6625Z" fill="#3E8D7A"/>
<path d="M0 181.775H10.6698H20.1538H20.5351H28.8842H86.0613H99.6673H136" stroke="#3C1B20" stroke-width="1.5" stroke-miterlimit="10"/>
<path d="M112.537 155.949L107.681 159.53L111.261 164.388L116.117 160.807L112.537 155.949Z" fill="#ED9DA0"/>
<path d="M118.545 165.837L108.222 173.451C107.34 174.101 106.304 174.553 105.227 174.757L102.65 175.246C102.117 175.347 101.564 175.13 101.242 174.693C100.865 174.181 100.876 173.473 101.268 172.973L104.394 168.99L108.508 160.505L108.531 160.527C109.126 161.071 110.029 161.888 110.097 161.928C111.367 162.21 112.343 162.052 112.997 161.459C114.137 160.425 113.908 158.396 113.905 158.376L113.903 158.36L113.917 158.352C114.227 158.169 114.527 158.128 114.806 158.23C115.4 158.447 115.71 159.227 115.754 159.346C116.334 159.428 117.842 161.157 117.963 161.297C118.83 161.454 119.428 161.78 119.738 162.265C120.009 162.689 120.062 163.23 119.894 163.873C119.693 164.647 119.214 165.344 118.545 165.837Z" fill="#3C1B20"/>
<path d="M70.8919 170.125H64.8585V176.16H70.8919V170.125Z" fill="#ED9DA0"/>
<path d="M69.8621 181.651H57.0372C55.941 181.651 54.8395 181.4 53.8515 180.925L51.4872 179.788C50.9984 179.553 50.6825 179.05 50.6825 178.507C50.6825 177.871 51.1107 177.308 51.7237 177.138L56.6014 175.788L64.946 171.4L64.9522 171.432C65.1083 172.223 65.3501 173.417 65.3808 173.489C66.2366 174.47 67.1156 174.922 67.9937 174.833C69.5251 174.678 70.5432 172.909 70.5533 172.891L70.5611 172.877L70.5767 172.879C70.9353 172.916 71.2006 173.06 71.3652 173.309C71.7145 173.836 71.5014 174.647 71.4663 174.77C71.8847 175.179 72.0725 177.466 72.087 177.651C72.692 178.292 72.9795 178.909 72.9414 179.484C72.9081 179.986 72.6295 180.453 72.1134 180.871C71.4925 181.374 70.693 181.651 69.8621 181.651Z" fill="#3C1B20"/>
<path d="M95.5096 75.7731H66.5936L61.9844 171.739H72.1676L78.747 128.118L105.148 163.015L114.787 154.291L95.5096 128.118V75.7731Z" fill="#3C1B20"/>
<path d="M88.0654 12.7052C88.0654 12.7052 96.0321 12.6879 93.056 5.00844C90.0798 -2.67106 84.5381 0.767467 84.5381 0.767467C84.5381 0.767467 82.203 2.0014 82.6844 4.75445" fill="#3C1B20"/>
<path d="M88.8627 16.3888C88.8627 10.5009 84.0915 5.72778 78.206 5.72778C72.3205 5.72778 67.5492 10.5009 67.5492 16.3888C67.5492 21.1639 70.6875 25.2053 75.0132 26.5625L77.0734 40.183L87.5757 31.4276C87.5757 31.4276 85.3069 28.5366 84.0901 25.2767C86.9659 23.3674 88.8627 20.1003 88.8627 16.3888Z" fill="#ED9DA0"/>
<path d="M83.326 25.3947C83.326 25.3947 84.7412 19.9669 82.4272 17.4711C80.1184 14.981 79.8202 18.8555 79.8202 18.8555L78.1543 18.4932C78.1543 18.4932 78.444 14.7253 75.1847 14.0731L77.2851 9.58066C77.2851 9.58066 69.2434 11.1427 69.0217 10.3635C67.2777 4.23258 83.9157 -1.00468 88.5119 8.34885C95.6604 22.8967 83.326 25.3947 83.326 25.3947Z" fill="#3C1B20"/>
<path d="M89.1599 62.6178L93.8825 76.5402L67.1628 76.2398L71.1466 63.5188L89.1599 62.6178Z" fill="#ED9DA0"/>
<path d="M86.747 27.2815L74.898 31.4024L63.696 89.2557L86.747 92.0712L88.4278 83.2505L90.0302 92.0712H98.015L89.4064 34.5404C89.0211 31.9654 88.1163 29.4957 86.747 27.2815Z" fill="#3E8D7A"/>
<path d="M83.4249 95.2581L83.6311 85.7488L78.0811 85.6283L77.8749 95.1377C76.8394 96.0993 76.1558 97.5935 76.1191 99.2876C76.0548 102.252 77.9906 104.698 80.4427 104.751C82.8949 104.804 84.9348 102.445 84.9991 99.4803C85.0359 97.7863 84.4177 96.2638 83.4249 95.2581Z" fill="#ED9DA0"/>
<path d="M75.7628 47.6632V93.7561H85.4015L88.2501 48.0523" fill="#3C1B20"/>
<path d="M95.1725 96.5526C95.0033 96.5526 94.8342 96.5466 94.6644 96.5337C92.6391 96.3815 90.8964 95.2951 89.4844 93.3052C84.1708 85.8148 73.4561 61.0269 73.4561 53.978C73.4561 47.2418 74.922 31.8033 74.9727 31.572L85.7944 25.5779C90.9861 26.7972 94.5999 31.5535 94.3877 36.8872C93.869 49.9189 95.2045 79.6257 103.942 91.9364L104.014 92.0379L103.928 92.1276C103.748 92.3147 99.609 96.5526 95.1725 96.5526Z" fill="#3C1B20"/>
<path d="M42.9712 79.7353C41.3736 79.7353 39.626 79.3429 37.9072 78.9563C36.6325 78.6678 35.5078 78.5986 34.6023 78.5409C33.2353 78.4544 32.151 78.3851 31.5511 77.5831C30.9571 76.7926 30.9571 75.4482 31.5511 72.794C32.3413 69.2685 34.1005 63.6427 36.2576 59.0152C39.0376 53.0432 41.7138 50.2967 44.2055 50.8564C47.545 51.6065 48.8773 57.1803 49.3734 60.4404C50.0655 64.9871 50.0078 70.3879 49.2234 73.8787C48.1852 78.5063 45.8031 79.7295 42.9712 79.7295L42.9712 79.7353ZM43.5826 51.8258C41.7485 51.8258 39.4991 54.5031 37.1977 59.4595C35.0752 64.0178 33.3391 69.557 32.5663 73.0305C32.0645 75.2578 32.0126 76.4752 32.3875 76.9715C32.7047 77.3927 33.5295 77.4446 34.6772 77.5138C35.6174 77.5715 36.7825 77.6466 38.1379 77.9524C43.5191 79.1583 46.8875 79.5968 48.2198 73.6595C49.6445 67.2952 48.5601 52.899 43.9863 51.8719C43.8537 51.8431 43.721 51.8258 43.5884 51.8258L43.5826 51.8258Z" fill="#DFDFE0"/>
<path d="M64.7501 122.514L13.4637 122.849L5.49268 119.185L10.1357 71.8073L14.8075 72.0438L62.8583 74.4903L64.7501 122.514Z" fill="#E2E3E4"/>
<path opacity="0.2" d="M13.4637 122.849L5.49268 119.185L10.1357 71.8073L14.8075 72.0438L13.4637 122.849Z" fill="#3E8D7A"/>
<path d="M16.3106 64.7845L16.237 64.7108L16.1634 64.7845C12.5815 61.2041 6.77647 61.2085 3.19749 64.7918C-0.381488 68.3767 -0.453625 74.2561 3.1283 77.8365L16.2458 90.946L29.3545 77.8203C32.9335 74.2355 32.8584 68.356 29.2779 64.7756C25.696 61.1952 19.891 61.1996 16.3121 64.783L16.3106 64.7845Z" fill="#3E8D7A"/>
</g>
<defs>
<clipPath id="clip0_316_1864">
<rect width="136" height="182" fill="white"/>
</clipPath>
</defs>
</svg>
