<svg width="300" height="200" viewBox="0 0 300 200" fill="none" xmlns="http://www.w3.org/2000/svg">
<path d="M266.781 60.1099L262.953 78.6475L260.49 76.2455L256.297 79.2343L253.094 75.2579L245.908 80.4819L239.771 70.2135L232.921 74.2247L230.206 70.4795L221.509 75.3795L218.893 69.7783L224.988 40.2539L257.67 47.0015L266.781 60.1099Z" fill="#EBEBEB"/>
<path d="M257.669 47.002L266.78 60.1088L255.446 57.7688L257.669 47.002Z" fill="#DBDBDB"/>
<path d="M262.137 82.3526L256.523 109.551L212.505 100.465L218.077 73.4834L220.694 79.0842L229.391 74.1842L232.106 77.9298L238.956 73.9186L245.093 84.1866L252.279 78.9626L255.482 82.939L259.675 79.9506L262.137 82.3526Z" fill="#EBEBEB"/>
<path d="M199.131 79.1655L154.271 81.9415L150.708 24.3551L184.016 22.2939L196.247 32.5519L199.131 79.1655Z" fill="#EBEBEB"/>
<path d="M184.017 22.2939L196.248 32.5519L184.696 33.2667L184.017 22.2939Z" fill="#DBDBDB"/>
<path d="M171.581 61.0388L171.408 59.74C170.955 57.0476 171.692 54.0368 174.032 50.8864C176.141 48.1008 177.286 46.0736 177.159 43.8164C177.016 41.2576 175.315 39.6416 172.151 39.7684C170.345 39.8696 168.372 40.584 167.171 41.6076L165.79 38.514C167.378 37.2172 170.193 36.2544 172.852 36.1052C178.621 35.782 181.429 39.1984 181.643 43.0108C181.834 46.4228 180.065 48.9876 177.817 51.9824C175.756 54.7148 175.077 56.9676 175.371 59.5176L175.494 60.8192L171.581 61.0388ZM170.871 68.1244C170.767 66.268 171.948 64.8932 173.704 64.7948C175.46 64.6964 176.737 65.9336 176.841 67.79C176.939 69.546 175.861 70.9652 174.005 71.0692C172.249 71.1676 170.969 69.8804 170.871 68.1244Z" fill="#DBDBDB"/>
<path d="M59.3935 51.2454L54.8791 49.1982L54.2531 50.5806C54.0691 50.987 53.6703 51.2466 53.2243 51.2662C52.9779 51.277 52.7315 51.3014 52.4863 51.3386C52.0463 51.4058 51.6055 51.2286 51.3463 50.867L50.4627 49.6334L46.4319 52.5214L47.3155 53.7546C47.5747 54.1166 47.6007 54.5906 47.3959 54.9858C47.2815 55.2058 47.1795 55.4314 47.0899 55.6614C46.9279 56.0774 46.5539 56.3714 46.1099 56.415L44.5995 56.563L45.0863 61.4958L46.6019 61.345C47.0463 61.3006 47.4667 61.5218 47.7079 61.8978C47.7735 61.9998 47.8419 62.1006 47.9127 62.1998C47.9839 62.299 48.0571 62.3962 48.1327 62.491C48.4095 62.8386 48.4839 63.3054 48.3007 63.7102L47.6703 65.1026L52.1847 67.1498L52.8135 65.7646C52.9979 65.3582 53.3975 65.099 53.8435 65.0798C54.0891 65.0694 54.3343 65.0454 54.5787 65.0086C55.0183 64.9422 55.4583 65.119 55.7175 65.4806L56.6015 66.7146L60.6323 63.8266L59.7483 62.5926C59.4895 62.231 59.4631 61.7574 59.6675 61.3626C59.7811 61.1434 59.8823 60.9186 59.9711 60.6894C60.1327 60.2734 60.5063 59.9786 60.9507 59.9346L62.4643 59.7846L61.9775 54.8518L60.4631 55.0014C60.0203 55.045 59.6011 54.8246 59.3607 54.4498C59.2947 54.3474 59.2259 54.2458 59.1543 54.1454C59.0831 54.0462 59.0099 53.949 58.9343 53.8542C58.6559 53.505 58.5815 53.0358 58.7659 52.629L59.3935 51.2454ZM56.8327 55.809C58.1387 57.6318 57.7199 60.1658 55.8975 61.4718C54.0747 62.7778 51.5375 62.3614 50.2315 60.5386C48.9255 58.7158 49.3451 56.1762 51.1679 54.8702C52.9903 53.5646 55.5267 53.9866 56.8327 55.809Z" fill="#EBEBEB"/>
<path d="M263.354 116.685L260.346 118.421L260.878 119.341C261.034 119.612 261.019 119.945 260.849 120.207C260.754 120.352 260.667 120.502 260.589 120.657C260.447 120.935 260.167 121.113 259.855 121.113H258.792V124.587H259.855C260.167 124.587 260.447 124.766 260.589 125.044C260.667 125.199 260.754 125.349 260.849 125.493C261.019 125.755 261.035 126.088 260.878 126.359L260.346 127.279L263.354 129.015L263.886 128.09C264.042 127.819 264.34 127.67 264.652 127.686C264.737 127.69 264.822 127.692 264.908 127.692C264.993 127.692 265.079 127.69 265.163 127.686C265.475 127.67 265.771 127.818 265.926 128.087L266.462 129.015L269.469 127.279L268.937 126.356C268.781 126.085 268.796 125.752 268.967 125.49C269.061 125.346 269.148 125.197 269.227 125.043C269.368 124.765 269.649 124.587 269.96 124.587H271.023V121.113H269.96C269.649 121.113 269.368 120.935 269.227 120.657C269.148 120.503 269.061 120.353 268.967 120.209C268.796 119.947 268.781 119.615 268.937 119.343L269.469 118.42L266.462 116.685L265.929 117.608C265.773 117.878 265.477 118.027 265.165 118.011C265.08 118.007 264.994 118.005 264.907 118.005C264.822 118.005 264.737 118.007 264.652 118.011C264.339 118.027 264.042 117.878 263.885 117.607L263.354 116.685ZM264.908 120.006C266.479 120.006 267.751 121.278 267.751 122.849C267.751 124.42 266.479 125.695 264.908 125.695C263.337 125.695 262.062 124.42 262.062 122.849C262.062 121.278 263.337 120.006 264.908 120.006Z" fill="#EBEBEB"/>
<path d="M68.5226 36.4655L65.7642 38.5747L66.4102 39.4187C66.6002 39.6671 66.6282 39.9991 66.493 40.2807C66.4178 40.4363 66.3514 40.5963 66.2934 40.7603C66.1894 41.0539 65.9338 41.2675 65.6246 41.3079L64.5706 41.4451L65.019 44.8899L66.073 44.7527C66.3822 44.7123 66.6838 44.8535 66.8594 45.1107C66.9574 45.2543 67.0626 45.3919 67.175 45.5231C67.3782 45.7607 67.4358 46.0891 67.3158 46.3775L66.9074 47.3591L70.1138 48.6919L70.5222 47.7063C70.6422 47.4175 70.9178 47.2311 71.2298 47.2063C71.3146 47.1995 71.3994 47.1907 71.4842 47.1799C71.569 47.1687 71.6534 47.1559 71.7366 47.1403C72.043 47.0843 72.3558 47.1931 72.545 47.4403L73.1958 48.2907L75.9546 46.1815L75.3078 45.3347C75.1178 45.0863 75.0902 44.7539 75.2262 44.4723C75.301 44.3171 75.3674 44.1579 75.4254 43.9947C75.5298 43.7015 75.785 43.4883 76.0938 43.4479L77.1482 43.3107L76.6998 39.8659L75.6454 40.0031C75.3366 40.0435 75.0354 39.9027 74.8594 39.6455C74.7618 39.5027 74.6566 39.3659 74.5446 39.2351C74.341 38.9975 74.2826 38.6691 74.4026 38.3803L74.8114 37.3963L71.6046 36.0635L71.1954 37.0479C71.0758 37.3359 70.8006 37.5215 70.4898 37.5459C70.405 37.5527 70.3194 37.5615 70.2334 37.5727C70.1486 37.5839 70.0642 37.5967 69.9806 37.6119C69.6726 37.6683 69.3586 37.5587 69.1682 37.3099L68.5226 36.4655ZM70.4922 39.5575C72.0498 39.3547 73.4758 40.4523 73.6786 42.0099C73.8814 43.5675 72.7842 44.9963 71.2266 45.1991C69.669 45.4019 68.2398 44.3019 68.037 42.7443C67.8342 41.1867 68.9346 39.7603 70.4922 39.5575Z" fill="#EBEBEB"/>
<path d="M47.9275 126.713C48.0851 122.843 48.0219 118.965 47.7683 115.099C47.2451 107.127 45.9327 99.2166 44.1303 91.4378C43.1159 87.059 41.8663 82.7546 40.5647 78.4546C40.5255 78.3246 40.3183 78.3614 40.3543 78.4966C44.3799 93.655 47.6827 109.298 47.4555 125.055C47.3919 129.465 46.8815 133.796 46.4627 138.178C46.4515 138.295 46.6443 138.342 46.6711 138.222C47.5015 134.472 47.7715 130.543 47.9275 126.713Z" fill="#EBEBEB"/>
<path d="M40.3535 78.4971C40.3535 78.4971 34.2551 93.9763 35.6203 97.6147C36.9859 101.253 39.8007 102.029 39.8007 102.029C39.8007 102.029 36.0695 107.356 38.6767 112.353C41.2843 117.349 47.0775 117.113 47.4623 122.778C47.4623 122.778 47.7851 99.0903 40.3535 78.4971Z" fill="#EBEBEB"/>
<path d="M46.7996 112.997C46.8072 112.971 46.8052 112.943 46.7932 112.916C45.9368 102.391 44.0696 91.8982 40.878 81.777C40.8688 81.747 40.8196 81.7566 40.8276 81.7878C42.036 86.3158 43.1112 90.8682 44.03 95.4454C43.238 94.6298 42.202 94.161 41.1188 93.8222C41.0984 93.8158 41.0884 93.845 41.1076 93.8534C42.2356 94.341 43.316 94.9062 44.1132 95.8618C44.2912 96.759 44.4656 97.6566 44.6312 98.5554C43.2684 97.0322 41.3784 96.2766 39.4872 95.5582C39.4604 95.5482 39.4464 95.589 39.4724 95.5998C41.442 96.4018 43.404 97.435 44.7384 99.1322C45.2036 101.701 45.6108 104.279 45.9632 106.865C44.9668 105.824 43.7372 105.124 42.3268 104.781C42.2844 104.77 42.2608 104.833 42.3036 104.845C43.7528 105.263 44.9992 106.074 45.9916 107.208C45.9988 107.216 46.0064 107.22 46.0144 107.225C46.1364 108.135 46.2516 109.045 46.3596 109.957C45.5924 109.303 44.7444 108.805 43.8108 108.42C43.786 108.41 43.7728 108.448 43.7968 108.459C44.7452 108.862 45.5984 109.444 46.3496 110.148C46.3604 110.158 46.3712 110.157 46.382 110.161C46.4836 111.028 46.5848 111.895 46.6724 112.764C45.2744 111.079 43.5456 109.86 41.5 109.071C41.46 109.055 41.4396 109.116 41.478 109.133C43.4668 109.998 45.22 111.368 46.5756 113.055C46.6128 113.102 46.6612 113.109 46.704 113.096C46.836 114.428 46.954 115.762 47.0516 117.099C47.0528 117.117 47.0828 117.119 47.082 117.1C47.0056 115.732 46.91 114.364 46.7996 112.997Z" fill="white"/>
<path d="M41.9003 92.2831C40.8427 91.5563 39.4987 91.2459 38.2363 91.1407C38.2059 91.1383 38.2035 91.1831 38.2331 91.1871C39.5463 91.3823 40.6495 91.8575 41.8559 92.3703C41.9083 92.3931 41.9459 92.3147 41.9003 92.2831Z" fill="white"/>
<path d="M42.6397 108.672C41.8029 108.169 40.8481 107.886 39.8893 107.731C39.8557 107.726 39.8529 107.777 39.8857 107.783C40.8593 107.959 41.7217 108.306 42.6065 108.737C42.6441 108.756 42.6753 108.693 42.6397 108.672Z" fill="white"/>
<path d="M63.9593 97.867C61.4161 99.655 58.9753 101.717 56.9009 104.037C54.6897 106.51 53.0769 109.317 51.9505 112.432C49.6429 118.814 48.3781 125.728 48.2629 132.511C48.1981 136.313 48.5365 140.086 49.3501 143.802C49.3797 143.937 49.5817 143.899 49.5613 143.763C48.5669 137.224 48.6033 130.551 49.6717 124.025C50.7201 117.621 52.3653 110.655 56.4357 105.451C58.6521 102.617 61.4157 100.387 64.1477 98.0834C64.2905 97.9622 64.1069 97.763 63.9593 97.867Z" fill="#EBEBEB"/>
<path d="M49.1601 127.9C49.1601 127.9 51.2545 124.373 54.3053 121.323C57.3561 118.273 59.9257 116.105 60.3221 114.088C60.7189 112.071 57.2661 110.585 57.2661 110.585C57.2661 110.585 61.4881 111.343 62.6433 109.571C63.7985 107.8 64.3561 97.5371 64.3561 97.5371C64.3561 97.5371 56.6757 103.021 53.0969 110.708C49.5185 118.394 49.1601 127.9 49.1601 127.9Z" fill="#EBEBEB"/>
<path d="M61.6982 100.169C58.4666 103.343 55.2143 106.725 53.3111 110.895C52.6587 112.325 52.1034 113.808 51.6146 115.318C51.6134 115.32 51.6134 115.323 51.6122 115.325C51.5142 115.628 51.4147 115.931 51.3223 116.236C51.3131 116.251 51.3083 116.268 51.3067 116.286C50.3659 119.4 49.7007 122.621 49.1247 125.767C49.1211 125.787 49.1518 125.798 49.1558 125.777C49.4866 124.176 49.8519 122.559 50.2595 120.947C50.2739 120.947 50.2894 120.944 50.3054 120.938C50.9586 120.663 51.6159 120.491 52.3211 120.426C52.3671 120.422 52.3634 120.342 52.3166 120.344C51.6362 120.377 50.9698 120.496 50.323 120.708C50.695 119.254 51.0994 117.805 51.5542 116.376C53.037 116.013 54.5846 115.817 56.1094 115.781C56.125 115.78 56.1278 115.757 56.1114 115.756C54.5742 115.684 53.1295 115.817 51.6323 116.136C51.7115 115.891 51.7938 115.648 51.8758 115.403C52.877 115.175 53.8826 114.983 54.907 114.89C54.9254 114.888 54.9238 114.856 54.9054 114.857C53.9022 114.884 52.9135 114.989 51.9375 115.218C52.3555 113.981 52.807 112.762 53.3078 111.574C53.7222 110.592 54.215 109.659 54.7578 108.759C55.579 108.573 56.375 108.396 57.2167 108.32C57.2399 108.318 57.2374 108.281 57.2146 108.28C56.4506 108.23 55.6551 108.287 54.9159 108.507C55.3198 107.854 55.7443 107.215 56.1987 106.596C57.9211 106.214 59.6671 105.86 61.4291 106.191C61.4595 106.197 61.4706 106.146 61.4406 106.138C59.7634 105.697 58.0987 105.952 56.4299 106.282C56.6119 106.039 56.7982 105.8 56.9862 105.562C58.0434 105.235 59.095 105.077 60.2042 105.056C60.227 105.056 60.2306 105.023 60.207 105.021C59.1946 104.924 58.1851 105.022 57.2067 105.287C58.6307 103.518 60.2035 101.856 61.7583 100.213C61.8311 100.138 61.775 100.094 61.6982 100.169Z" fill="white"/>
<path d="M61.6123 107.163C61.1067 107.109 60.5927 107.053 60.0847 107.11C60.0231 107.117 60.0283 107.217 60.0903 107.219C60.5959 107.233 61.1015 107.196 61.6071 107.223C61.6459 107.225 61.6507 107.167 61.6123 107.163Z" fill="white"/>
<path d="M56.0845 117.118C55.2773 117.108 54.4713 117.326 53.7173 117.594C53.6985 117.601 53.7089 117.632 53.7285 117.627C54.5101 117.441 55.3009 117.366 56.0905 117.235C56.1553 117.225 56.1521 117.119 56.0845 117.118Z" fill="white"/>
<path d="M54.4274 113.68C54.0998 113.663 53.7454 113.72 53.4226 113.771C53.3894 113.776 53.3914 113.83 53.4258 113.831C53.7522 113.836 54.1114 113.845 54.433 113.783C54.4898 113.772 54.4874 113.683 54.4274 113.68Z" fill="white"/>
<path d="M26.6446 108.758C29.1162 109.617 31.5678 110.722 33.783 112.12C36.1442 113.61 38.0982 115.509 39.7298 117.769C43.0722 122.401 45.6938 127.704 47.355 133.166C48.2862 136.229 48.8846 139.36 49.085 142.555C49.0922 142.671 48.9198 142.687 48.905 142.572C48.1982 137.05 46.6266 131.659 44.2534 126.624C41.925 121.684 38.9834 116.426 34.4862 113.155C32.0374 111.375 29.2858 110.209 26.5422 108.976C26.3986 108.911 26.501 108.708 26.6446 108.758Z" fill="#EBEBEB"/>
<path d="M45.5636 129.642C45.5636 129.642 43.0532 127.271 39.8796 125.508C36.7056 123.745 34.1252 122.584 33.338 121.044C32.5508 119.503 35.0016 117.502 35.0016 117.502C35.0016 117.502 31.76 119.092 30.4156 117.925C29.0712 116.758 26.248 108.582 26.248 108.582C26.248 108.582 33.7312 111.244 38.4036 116.638C43.0764 122.032 45.5636 129.642 45.5636 129.642Z" fill="#EBEBEB"/>
<path d="M45.1736 127.956C41.4308 120.93 36.4368 114.575 29.5936 110.38C29.5904 110.378 29.5876 110.383 29.5904 110.385C31.392 111.533 33.052 112.857 34.5992 114.304C33.214 114.266 31.804 114.487 30.576 115.154C30.5488 115.168 30.5684 115.205 30.5964 115.196C31.9652 114.732 33.28 114.428 34.736 114.496C34.756 114.497 34.7688 114.486 34.7828 114.478C35.0256 114.709 35.2652 114.943 35.5024 115.179C34.7824 115.21 34.054 115.312 33.3524 115.464C33.3336 115.468 33.3388 115.497 33.358 115.494C34.1172 115.347 34.8584 115.296 35.6288 115.306C36.8828 116.566 38.0512 117.914 39.1584 119.314C38.6584 119.241 38.1344 119.284 37.6552 119.423C37.6196 119.434 37.6288 119.485 37.666 119.48C38.2112 119.411 38.7296 119.42 39.2708 119.458C39.4756 119.719 39.6828 119.978 39.8836 120.242C38.3448 120.149 36.8372 120.297 35.342 120.684C35.32 120.689 35.326 120.723 35.3488 120.719C36.8912 120.416 38.4464 120.319 40.0136 120.416C40.2044 120.669 40.3852 120.929 40.5724 121.185C39.6544 121.157 38.764 121.272 37.8688 121.495C37.8348 121.503 37.8444 121.557 37.8792 121.549C38.8 121.339 39.7364 121.286 40.6776 121.331C41.4828 122.44 42.254 123.574 42.9952 124.722C42.6028 124.641 42.1908 124.685 41.8084 124.793C41.788 124.799 41.7936 124.828 41.8148 124.825C42.2552 124.774 42.6664 124.83 43.0988 124.886C43.7652 125.924 44.4096 126.972 45.0268 128.026C45.0796 128.115 45.2232 128.049 45.1736 127.956Z" fill="white"/>
<path d="M39.3512 122.128C38.6196 122.066 37.876 122.18 37.1772 122.394C37.1572 122.4 37.162 122.431 37.1836 122.427C37.9032 122.294 38.6164 122.244 39.3456 122.205C39.3932 122.203 39.4024 122.133 39.3512 122.128Z" fill="white"/>
<path d="M32.8238 113.567C32.493 113.529 32.1478 113.573 31.821 113.625C31.7822 113.632 31.7942 113.689 31.8326 113.685C32.1622 113.65 32.4874 113.662 32.8174 113.652C32.871 113.651 32.8798 113.573 32.8238 113.567Z" fill="white"/>
<path d="M55.217 152.872H38.3254L40.7338 135.23L41.3494 130.706H52.193L52.8082 135.23L55.217 152.872Z" fill="#DBDBDB"/>
<path d="M52.8092 135.23H40.7348L41.3504 130.706H52.194L52.8092 135.23Z" fill="#C7C7C7"/>
<path d="M53.7426 129.137H39.7978V132.968H53.7426V129.137Z" fill="#DBDBDB"/>
<path d="M27.5885 152.872L57.9921 152.775L88.3957 152.74L149.203 152.673L210.01 152.74L240.414 152.775L270.817 152.872L240.414 152.97L210.01 153.006L149.203 153.072L88.3957 153.005L57.9921 152.97L27.5885 152.872Z" fill="#263238"/>
<path d="M149.999 182.686C213.344 182.686 264.696 177.059 264.696 170.118C264.696 163.177 213.344 157.55 149.999 157.55C86.6534 157.55 35.3019 163.177 35.3019 170.118C35.3019 177.059 86.6534 182.686 149.999 182.686Z" fill="#EBEBEB"/>
<path d="M123.304 168.034C122.371 168.35 95.6457 168.444 94.6241 167.803C94.2353 167.563 93.9949 163.671 93.8373 158.961C93.8033 157.943 93.7741 156.893 93.7509 155.826L91.5837 141.571L109.45 141.457L111.136 155.715L111.068 158.851C111.068 158.851 121.316 163.391 122.361 164.214C123.401 165.037 124.237 167.719 123.304 168.034Z" fill="#EB9481"/>
<path d="M123.303 168.034C122.371 168.349 95.6449 168.443 94.6233 167.803C94.1513 167.507 93.8937 161.824 93.7501 155.825L111.135 155.714L111.067 158.85C111.067 158.85 121.315 163.391 122.36 164.213C123.4 165.036 124.236 167.718 123.303 168.034Z" fill="white"/>
<path d="M123.303 168.035C122.371 168.35 95.6453 168.444 94.6237 167.804C94.2349 167.563 93.9945 163.671 93.8369 158.961L111.067 158.851C111.067 158.851 121.316 163.391 122.361 164.214C123.401 165.037 124.236 167.719 123.303 168.035Z" fill="#A6A6A6"/>
<path d="M122.916 166.966C118.435 166.872 100.356 166.915 95.9198 167.162C95.8838 167.164 95.8838 167.188 95.9198 167.19C100.359 167.38 118.437 167.191 122.916 167.039C123.011 167.037 123.01 166.968 122.916 166.966Z" fill="#263238"/>
<path d="M120.638 163.258C119.576 163.218 118.539 163.727 117.962 164.362C117.407 164.972 116.934 165.828 116.969 166.757C116.97 166.784 117.019 166.784 117.023 166.757C117.273 165.003 118.862 163.457 120.638 163.314C120.675 163.311 120.675 163.26 120.638 163.258Z" fill="#263238"/>
<path d="M112.807 159.289C111.014 159.271 108.937 159.911 107.828 161.381C107.785 161.438 107.866 161.499 107.919 161.471C109.537 160.63 111.076 160.002 112.838 159.51C112.963 159.475 112.935 159.291 112.807 159.289Z" fill="#263238"/>
<path d="M114.194 159.825C112.4 159.806 110.324 160.446 109.214 161.917C109.172 161.974 109.253 162.034 109.306 162.006C110.924 161.165 112.463 160.537 114.225 160.045C114.349 160.011 114.322 159.826 114.194 159.825Z" fill="#263238"/>
<path d="M115.58 160.359C113.787 160.34 111.71 160.98 110.601 162.451C110.558 162.508 110.64 162.568 110.693 162.54C112.311 161.699 113.849 161.071 115.612 160.58C115.736 160.545 115.709 160.36 115.58 160.359Z" fill="#263238"/>
<path d="M116.966 160.894C115.173 160.875 113.097 161.516 111.988 162.986C111.944 163.043 112.026 163.103 112.079 163.076C113.697 162.234 115.236 161.606 116.998 161.115C117.122 161.08 117.095 160.895 116.966 160.894Z" fill="#263238"/>
<path d="M97.047 162.902C95.0354 162.915 95.0518 166.042 97.067 166.029C99.0786 166.016 99.0622 162.89 97.047 162.902Z" fill="#263238"/>
<path d="M114.728 154.498C113.817 153.749 112.676 154.488 112.12 155.272C111.218 156.541 110.601 158.317 110.506 159.863C110.504 159.901 110.533 159.916 110.562 159.914C110.601 160.043 110.753 160.15 110.885 160.058C112.159 159.17 113.63 158.379 114.594 157.127C115.156 156.396 115.588 155.207 114.728 154.498ZM112.541 158.317C111.925 158.769 111.291 159.187 110.692 159.662C111.009 158.767 111.286 157.863 111.693 157.001C111.888 156.59 112.095 156.171 112.344 155.789C112.732 155.196 114.486 153.691 114.672 155.641C114.774 156.717 113.275 157.778 112.541 158.317Z" fill="#263238"/>
<path d="M106.054 160.543C107.616 160.777 109.226 160.327 110.758 160.084C110.918 160.059 110.953 159.876 110.892 159.756C110.914 159.737 110.925 159.706 110.897 159.681C109.757 158.632 108.081 157.779 106.551 157.491C105.607 157.312 104.272 157.57 104.135 158.741C104.006 159.849 105.142 160.406 106.054 160.543ZM104.968 159.526C103.749 157.992 106.057 157.86 106.748 158.019C107.192 158.122 107.632 158.28 108.057 158.441C108.948 158.781 109.774 159.24 110.623 159.665C109.863 159.738 109.115 159.876 108.358 159.977C107.456 160.098 105.64 160.372 104.968 159.526Z" fill="#263238"/>
<path d="M65.3297 75.6807C65.3297 75.6807 86.0777 110.977 86.6333 113.455C87.4869 117.263 92.0121 154.869 92.0121 154.869L113.6 154.48C113.6 154.48 109.88 121.323 106.356 110.4C103.817 102.531 85.5069 76.4363 85.5069 76.4363L65.3297 75.6807Z" fill="#37474F"/>
<path d="M111.638 151.17C108.537 151.147 97.551 151.023 93.4242 151.408C93.3926 151.411 93.3938 151.464 93.425 151.468C94.8454 151.672 108.54 151.354 111.639 151.255C111.697 151.253 111.696 151.17 111.638 151.17Z" fill="#263238"/>
<path d="M68.8711 78.9192C70.2307 81.0516 71.6651 83.1396 73.0551 85.2536C74.4459 87.3684 75.8315 89.4864 77.1991 91.616C79.9323 95.8724 82.5943 100.173 85.2075 104.501C86.4331 106.53 87.6003 108.579 88.4419 110.793C89.2755 112.986 89.8431 115.267 90.2631 117.567C90.6863 119.884 90.9647 122.224 91.2279 124.562C91.5079 127.052 91.7839 129.542 92.0619 132.033C92.6307 137.128 93.1995 142.224 93.7683 147.319C93.8379 147.944 93.9063 148.569 93.9691 149.195C93.9783 149.287 93.8143 149.305 93.8027 149.213C93.1675 144.15 92.6399 139.072 92.0627 134.002C91.7755 131.478 91.4883 128.954 91.2011 126.43C90.9339 124.083 90.6799 121.733 90.3159 119.398C89.9579 117.105 89.4935 114.821 88.7955 112.602C88.0663 110.282 87.0335 108.105 85.8107 105.996C83.3087 101.682 80.6615 97.4404 78.0131 93.2104C75.3419 88.944 72.6483 84.6892 69.8547 80.4976C69.5099 79.98 69.1619 79.4656 68.8043 78.956C68.7763 78.916 68.8447 78.878 68.8711 78.9192Z" fill="#263238"/>
<path d="M72.1319 170.116C71.1475 170.056 45.7335 159.759 45.0251 158.783C45.0015 158.75 44.9875 158.686 44.9863 158.595C44.9911 157.721 46.7511 154.662 48.2219 150.649C48.3139 150.392 48.9699 149.201 49.8803 147.595C52.3827 143.183 56.8107 135.626 56.8107 135.626L73.4223 142.226L65.4711 154.128L64.2335 157.009C64.2335 157.009 72.0299 165.066 72.6883 166.219C73.3427 167.372 73.1127 170.172 72.1319 170.116Z" fill="#EB9481"/>
<path d="M72.1319 170.116C71.1475 170.056 45.7335 159.759 45.0251 158.783C45.0015 158.75 44.9875 158.686 44.9863 158.595C44.9911 157.721 46.7511 154.662 48.2219 150.649C48.3139 150.392 48.9699 149.201 49.8803 147.595L65.4715 154.128L64.2339 157.009C64.2339 157.009 72.0303 165.066 72.6887 166.219C73.3427 167.372 73.1127 170.172 72.1319 170.116Z" fill="white"/>
<path d="M72.131 170.114C71.1482 170.057 45.7334 159.759 45.0266 158.782C44.7566 158.413 45.893 154.942 48.221 150.649L64.2346 157.011C64.2346 157.011 72.031 165.065 72.691 166.219C73.3454 167.372 73.1138 170.171 72.131 170.114Z" fill="#A6A6A6"/>
<path d="M72.171 168.979C68.0534 167.211 51.2778 160.469 47.073 159.033C47.039 159.022 47.0298 159.045 47.0626 159.059C51.1058 160.901 67.9354 167.508 72.1438 169.047C72.2326 169.08 72.2578 169.017 72.171 168.979Z" fill="#263238"/>
<path d="M71.4508 164.688C70.4808 164.253 69.3292 164.335 68.556 164.707C67.8132 165.064 67.0532 165.681 66.7372 166.555C66.728 166.58 66.7736 166.599 66.7876 166.575C67.6772 165.042 69.73 164.206 71.4304 164.74C71.4644 164.751 71.4844 164.703 71.4508 164.688Z" fill="#263238"/>
<path d="M65.6794 158.071C64.0242 157.381 61.859 157.196 60.279 158.142C60.2178 158.179 60.271 158.266 60.3306 158.26C62.1462 158.087 63.8078 158.082 65.6258 158.288C65.7542 158.302 65.7978 158.121 65.6794 158.071Z" fill="#263238"/>
<path d="M66.7634 159.087C65.1082 158.397 62.943 158.211 61.363 159.158C61.3018 159.195 61.355 159.281 61.4146 159.275C63.2298 159.102 64.8918 159.098 66.7098 159.303C66.8382 159.318 66.8818 159.136 66.7634 159.087Z" fill="#263238"/>
<path d="M67.8486 160.102C66.1934 159.412 64.0282 159.227 62.4482 160.174C62.387 160.21 62.4402 160.297 62.4998 160.291C64.315 160.118 65.977 160.113 67.795 160.319C67.923 160.333 67.967 160.152 67.8486 160.102Z" fill="#263238"/>
<path d="M68.9324 161.118C67.2772 160.428 65.112 160.242 63.5324 161.189C63.4712 161.226 63.524 161.312 63.584 161.307C65.3996 161.134 67.0612 161.129 68.8792 161.334C69.0072 161.349 69.0512 161.168 68.9324 161.118Z" fill="#263238"/>
<path d="M49.7143 155.508C47.8447 154.765 46.6871 157.67 48.5599 158.414C50.4299 159.157 51.5875 156.252 49.7143 155.508Z" fill="#263238"/>
<path d="M69.2587 154.349C68.6959 153.313 67.3611 153.57 66.5511 154.088C65.2391 154.925 64.0011 156.341 63.3335 157.738C63.3171 157.773 63.3383 157.797 63.3663 157.807C63.3539 157.94 63.4547 158.097 63.6119 158.061C65.1255 157.716 66.7863 157.535 68.1487 156.736C68.9439 156.269 69.7907 155.329 69.2587 154.349ZM65.7991 157.069C65.0587 157.257 64.3139 157.407 63.5807 157.622C64.2103 156.912 64.8059 156.178 65.5067 155.531C65.8411 155.223 66.1907 154.913 66.5647 154.652C67.1467 154.247 69.3379 153.511 68.7779 155.388C68.4691 156.423 66.6815 156.845 65.7991 157.069Z" fill="#263238"/>
<path d="M58.9495 156.699C60.3095 157.502 61.9699 157.689 63.4823 158.038C63.6391 158.075 63.7403 157.919 63.7287 157.785C63.7567 157.776 63.7782 157.751 63.7618 157.716C63.0982 156.317 61.8647 154.898 60.5555 154.056C59.7467 153.536 58.4127 153.275 57.8471 154.309C57.3115 155.288 58.1555 156.23 58.9495 156.699ZM58.3243 155.349C57.7703 153.47 59.959 154.213 60.5394 154.62C60.9126 154.881 61.261 155.193 61.5946 155.503C62.2934 156.151 62.8871 156.887 63.5146 157.599C62.7822 157.382 62.0379 157.229 61.2979 157.039C60.4163 156.813 58.6295 156.385 58.3243 155.349Z" fill="#263238"/>
<path d="M66.7547 153.463L48.1607 145.954C48.1607 145.954 71.2151 112.056 71.3859 109.533C71.5367 107.298 61.4107 87.8498 61.0115 82.1818C60.5807 76.065 63.5263 71.3306 66.7627 68.3926L85.9447 76.5466C85.9447 76.5466 83.9203 79.7854 80.7311 81.5882C80.7311 81.5882 90.5679 104.069 90.0099 110.981C89.4491 117.93 66.7547 153.463 66.7547 153.463Z" fill="#37474F"/>
<path d="M67.5823 149.927C64.8935 148.771 65.6815 149.065 62.9795 147.939C61.6575 147.388 52.9659 143.775 51.6427 143.477C51.6135 143.471 51.5947 143.517 51.6203 143.532C52.7771 144.241 61.5299 147.702 62.8623 148.227C65.5851 149.301 64.8151 148.963 67.5499 150.006C67.6015 150.026 67.6327 149.949 67.5823 149.927Z" fill="#263238"/>
<path d="M83.8915 81.1764C81.8931 81.606 79.9327 82.312 78.0495 83.0708C77.9755 83.1008 78.0103 83.2104 78.0895 83.1872C80.0503 82.6148 82.0447 82.08 83.9695 81.4036C84.1207 81.3504 84.0447 81.1432 83.8915 81.1764Z" fill="#263238"/>
<path d="M81.6157 80.3876C81.4265 80.7172 81.2661 81.0644 81.1229 81.4152C81.0121 81.6876 80.8697 81.9796 80.8713 82.2768C80.8717 82.3344 80.9493 82.3484 80.9849 82.3132C81.2077 82.094 81.3261 81.774 81.4669 81.5008C81.6301 81.1844 81.8005 80.8708 81.9545 80.5496C82.0565 80.3368 81.7321 80.1844 81.6157 80.3876Z" fill="#263238"/>
<path d="M81.8485 78.5841C81.9661 78.2889 82.0845 77.9941 82.2085 77.7017C82.3369 77.3989 82.4861 77.1005 82.5909 76.7889C82.6073 76.7397 82.6853 76.7729 82.6657 76.8225C82.5485 77.1181 82.4721 77.4333 82.3781 77.7373C82.2837 78.0425 82.1841 78.3457 82.0833 78.6489C81.8953 79.2133 81.6653 79.7733 81.4229 80.3181C81.7365 80.3141 82.0593 80.3001 82.3445 80.1581C82.6541 80.0037 82.8417 79.6749 82.9941 79.3777C83.1633 79.0477 83.3189 78.7101 83.4929 78.3825C83.6853 78.0201 83.8981 77.6617 84.0249 77.2693C84.0409 77.2197 84.1173 77.2529 84.0997 77.3025C83.8109 78.1125 83.5269 78.9213 83.0777 79.6677C82.9013 79.9609 82.7581 80.2661 82.4329 80.3809C82.0837 80.5041 81.7017 80.4801 81.3381 80.4537C81.2933 80.4661 81.2353 80.4373 81.2509 80.3829C81.4225 79.7793 81.6157 79.1673 81.8485 78.5841Z" fill="#263238"/>
<path d="M81.033 82.3207C81.7146 83.7659 82.3142 85.2059 82.9514 86.6459C83.5742 88.0531 84.1574 89.4767 84.7234 90.9071C85.8674 93.7979 86.8922 96.7411 87.791 99.7175C88.2358 101.19 88.6454 102.674 89.0158 104.167C89.387 105.664 89.7498 107.176 89.9038 108.714C90.0582 110.256 89.9482 111.782 89.5186 113.273C89.0826 114.786 88.5082 116.108 87.8258 117.524C87.409 118.389 87.2654 118.272 87.4674 117.835C88.0398 116.596 89.539 112.841 89.4302 109.684C89.3778 108.161 89.065 106.661 88.721 105.181C88.3698 103.67 87.9734 102.17 87.541 100.68C86.689 97.7455 85.677 94.8687 84.6358 91.9967C84.0526 90.3875 83.4266 88.7947 82.8346 87.1891C82.2382 85.5715 81.6234 84.1159 80.9618 82.3495C80.9442 82.3031 81.0118 82.2759 81.033 82.3207Z" fill="#263238"/>
<path d="M66.9142 77.5464C67.2474 77.4232 67.7093 77.6272 68.0489 77.684C68.4845 77.7572 68.925 77.8016 69.3666 77.8168C69.8018 77.8316 70.2406 77.814 70.6738 77.7716C71.107 77.7296 71.549 77.676 71.9254 77.4408C72.5598 77.0448 73.091 76.3472 73.521 75.7464C73.9934 75.086 74.4837 74.3268 74.7653 73.562C74.7825 73.5152 74.8501 73.5472 74.8353 73.5932C74.6953 74.0392 74.5914 74.4888 74.4134 74.9244C74.2458 75.3344 74.0293 75.7264 73.7997 76.104C73.3709 76.8096 72.8789 77.5628 72.1437 77.9824C71.3721 78.4228 70.3782 78.3964 69.5178 78.3468C69.0202 78.318 68.5246 78.2524 68.0366 78.1496C67.6846 78.0752 67.0922 78.0188 66.8678 77.7096C66.8274 77.6552 66.8486 77.5708 66.9142 77.5464Z" fill="#263238"/>
<path d="M53.4705 142.411C56.5269 137.786 59.5265 133.122 62.4721 128.426C65.4253 123.716 68.3241 118.973 71.1825 114.206C71.8661 113.066 72.6561 111.926 73.0965 110.663C73.5753 109.29 73.3033 107.96 72.8697 106.617C72.0745 104.154 71.0841 101.756 70.0149 99.4001C68.9425 97.0369 67.7881 94.7125 66.6521 92.3797C65.5257 90.0657 64.3269 87.7441 63.4725 85.3125C62.6565 82.9897 62.3457 80.5809 62.9721 78.1717C63.5937 75.7813 64.9381 73.6349 66.3421 71.6317C66.7125 71.1033 67.0897 70.5797 67.4613 70.0521C67.4897 70.0121 67.5505 70.0605 67.5209 70.1005C65.9737 72.1889 64.4649 74.3993 63.5577 76.8513C63.1093 78.0629 62.8189 79.3385 62.7905 80.6329C62.7613 81.9461 63.0081 83.2489 63.3949 84.4997C64.1473 86.9317 65.3349 89.2345 66.4413 91.5193C67.5725 93.8549 68.7341 96.1765 69.8249 98.5317C70.9225 100.901 71.9489 103.307 72.7925 105.78C73.1681 106.88 73.5869 108.032 73.5621 109.212C73.5349 110.504 72.9181 111.667 72.2797 112.756C69.4989 117.499 66.6121 122.182 63.6897 126.838C60.7561 131.512 57.7645 136.149 54.7265 140.755C54.3433 141.336 53.9593 141.916 53.5749 142.496C53.5273 142.567 53.4233 142.482 53.4705 142.411Z" fill="#263238"/>
<path d="M87.0074 54.9882C88.7386 58.7886 97.4846 64.0254 101.581 64.5882C104.528 64.993 113.477 65.1322 116.545 64.6638C120.139 64.115 117.393 54.4118 115.269 54.6602C109.429 55.343 104.47 56.103 102.911 56.103C101.008 56.103 90.7066 52.7966 89.4654 52.3314C86.4274 51.1926 86.0254 52.8326 87.0074 54.9882Z" fill="#EB9481"/>
<path d="M87.0581 55.9938C89.2497 59.2374 96.5365 64.5398 96.5365 64.5398L97.5477 62.2994L100.894 54.8934C100.894 54.8934 94.2025 52.7818 89.7989 51.841C89.2041 51.7134 88.6798 51.637 88.2234 51.6166C85.4122 51.465 85.1681 53.2034 87.0581 55.9938Z" fill="#3E8D7A"/>
<path d="M87.0585 55.9938C89.2501 59.2374 96.5369 64.5398 96.5369 64.5398L97.5481 62.2994C94.8309 59.1454 90.6365 54.365 88.2237 51.6166C85.4125 51.465 85.1685 53.2034 87.0585 55.9938Z" fill="#263238"/>
<path d="M95.2246 63.043C95.7798 61.6818 98.2538 56.1898 98.8678 55.0374C98.9106 54.9574 98.971 54.9638 98.937 55.0522C97.371 59.1686 95.891 61.753 95.2786 63.0614C95.2634 63.0942 95.2106 63.0774 95.2246 63.043Z" fill="#263238"/>
<path d="M114.196 54.7657C117.751 54.2993 122.147 53.5021 125.87 55.0825C126.6 55.3925 126.865 55.9369 126.865 55.9369C128.546 56.6157 128.73 57.6133 128.73 57.6133C130.103 58.7249 130.151 59.7713 130.151 59.7713C130.151 59.7713 132.116 60.5897 131.819 61.8597C131.489 63.2849 128.794 61.8565 126.831 61.9777C122.335 62.2549 116.021 63.9069 114.732 64.1157L114.196 54.7657Z" fill="#EB9481"/>
<path d="M121.915 58.9565C123.239 58.9013 124.539 58.8125 125.865 58.9369C127.319 59.0733 128.696 59.4489 130.107 59.7961C130.151 59.8069 130.171 59.7469 130.129 59.7293C127.674 58.6965 124.527 58.4253 121.911 58.8965C121.848 58.9077 121.848 58.9593 121.915 58.9565Z" fill="#263238"/>
<path d="M121.353 56.2665C122.646 56.2841 124.917 56.3301 128.717 57.6541C128.729 57.6585 128.741 57.6389 128.728 57.6321C126.375 56.4445 123.962 56.0221 121.355 56.2049C121.273 56.2105 121.268 56.2653 121.353 56.2665Z" fill="#263238"/>
<path d="M121.078 54.8159C123.274 54.9299 124.645 55.2795 126.854 55.9435C126.866 55.9471 126.876 55.9267 126.863 55.9211C124.432 54.9031 123.434 54.8091 121.072 54.7403C120.991 54.7375 120.993 54.8115 121.078 54.8159Z" fill="#263238"/>
<path d="M121.435 62.6553C120.864 62.9233 121.001 63.2249 122.094 63.4781C123.199 63.7365 127.727 63.8057 127.567 65.3873C127.41 66.9749 121.003 66.7717 119.216 66.2109C117.427 65.6541 114.733 64.1165 114.733 64.1165C115.987 63.9045 118.981 63.1017 121.435 62.6553Z" fill="#EB9481"/>
<path d="M91.7656 61.0462C91.738 61.7294 91.6708 62.425 91.5748 63.1146C91.584 63.0898 91.5948 63.0654 91.604 63.0406C91.7372 62.6806 91.8668 62.3114 92.0284 61.9634C92.0368 61.945 92.0692 61.9502 92.0652 61.9726C91.9948 62.3502 91.8625 62.7294 91.7185 63.0858C91.6497 63.2558 91.5796 63.4258 91.506 63.5942C91.4564 63.9014 91.4013 64.2066 91.3393 64.507C91.2213 65.079 90.6808 67.5122 90.558 67.9234C90.532 68.0098 90.4292 67.9902 90.4356 67.8934C90.4652 67.4454 90.9185 64.9114 91.0101 64.3378C91.1861 63.2362 91.4281 62.1122 91.7229 61.0358C91.7297 61.0102 91.7664 61.0222 91.7656 61.0462Z" fill="#263238"/>
<path d="M87.5966 79.2301C86.5298 79.7801 85.1538 80.6321 78.9542 79.4117C78.5666 79.3329 78.177 79.2377 77.7866 79.1217C71.9726 77.3753 64.9998 70.5385 64.6066 70.0565C64.6066 70.0565 73.8398 55.0841 85.6526 50.3777C87.1126 49.7961 89.5298 50.9177 90.8678 52.3137C91.3458 52.8125 92.3826 56.4861 91.9846 59.4633C91.5826 62.4361 88.671 78.6853 87.5966 79.2301Z" fill="#3E8D7A"/>
<path d="M86.7724 59.3262C86.8064 59.6478 86.7808 59.961 86.7416 60.2722C86.6948 60.5826 86.6336 60.891 86.5128 61.191C86.4784 60.8694 86.5039 60.5562 86.5435 60.245C86.5907 59.9346 86.652 59.6262 86.7724 59.3262Z" fill="white"/>
<path d="M82.7429 69.5225C82.7769 69.8441 82.7513 70.1573 82.7121 70.4689C82.6653 70.7793 82.6041 71.0877 82.4833 71.3877C82.4489 71.0661 82.4745 70.7529 82.5141 70.4413C82.5617 70.1309 82.6225 69.8225 82.7429 69.5225Z" fill="white"/>
<path d="M75.8957 61.8164C75.9297 62.138 75.9041 62.4512 75.8649 62.7624C75.8181 63.0728 75.7569 63.3812 75.6361 63.6812C75.6017 63.3596 75.6273 63.0464 75.6669 62.7348C75.7145 62.4248 75.7757 62.1164 75.8957 61.8164Z" fill="white"/>
<path d="M89.4089 69.0049C89.4429 69.3265 89.4173 69.6397 89.3781 69.9509C89.3313 70.2613 89.2701 70.5697 89.1493 70.8697C89.1149 70.5481 89.1405 70.2349 89.1801 69.9233C89.2273 69.6133 89.2885 69.3049 89.4089 69.0049Z" fill="white"/>
<path d="M80.6161 60.4944C80.9377 60.4604 81.2509 60.486 81.5625 60.5252C81.8729 60.572 82.1813 60.6332 82.4813 60.754C82.1597 60.7884 81.8465 60.7628 81.5349 60.7232C81.2245 60.676 80.9165 60.6148 80.6161 60.4944Z" fill="white"/>
<path d="M72.8511 67.8606C73.1727 67.8266 73.4859 67.8522 73.7971 67.8914C74.1075 67.9382 74.4159 67.9994 74.7159 68.1202C74.3943 68.1546 74.0811 68.129 73.7699 68.0894C73.4591 68.0422 73.1511 67.981 72.8511 67.8606Z" fill="white"/>
<path d="M81.9883 75.8332C82.3099 75.7992 82.6231 75.8248 82.9343 75.864C83.2447 75.9108 83.5531 75.972 83.8531 76.0928C83.5315 76.1272 83.2183 76.1016 82.9071 76.062C82.5967 76.0148 82.2883 75.9536 81.9883 75.8332Z" fill="white"/>
<path d="M70.4537 72.9367C70.7753 72.9027 71.0885 72.9283 71.4001 72.9675C71.7105 73.0143 72.0189 73.0755 72.3189 73.1963C71.9973 73.2307 71.6841 73.2051 71.3725 73.1655C71.0621 73.1179 70.7537 73.0567 70.4537 72.9367Z" fill="white"/>
<path d="M86.7122 52.1604C87.0338 52.1264 87.347 52.152 87.6586 52.1912C87.969 52.238 88.277 52.2992 88.577 52.42C88.2554 52.4544 87.9422 52.4288 87.631 52.3892C87.3206 52.3416 87.0122 52.2804 86.7122 52.1604Z" fill="white"/>
<path d="M84.4527 54.7119C84.2491 54.9631 84.0099 55.1667 83.7619 55.3591C83.5095 55.5455 83.2483 55.7203 82.9507 55.8467C83.1539 55.5951 83.3935 55.3915 83.6415 55.1995C83.8939 55.0135 84.1555 54.8387 84.4527 54.7119Z" fill="white"/>
<path d="M72.1357 61.9619C71.9321 62.2131 71.6929 62.4167 71.4449 62.6091C71.1925 62.7955 70.9313 62.9703 70.6337 63.0971C70.8369 62.8455 71.0765 62.6419 71.3245 62.4499C71.5773 62.2635 71.8385 62.0891 72.1357 61.9619Z" fill="white"/>
<path d="M87.5149 65.2373C87.3113 65.4885 87.0721 65.6921 86.8241 65.8845C86.5717 66.0709 86.3105 66.2457 86.0129 66.3721C86.2161 66.1205 86.4557 65.9169 86.7037 65.7249C86.9565 65.5393 87.2177 65.3645 87.5149 65.2373Z" fill="white"/>
<path d="M77.554 71.5088C77.3504 71.76 77.1112 71.9636 76.8632 72.156C76.6108 72.3424 76.3496 72.5172 76.052 72.6436C76.2552 72.392 76.4948 72.1884 76.7428 71.9964C76.9952 71.8108 77.2564 71.636 77.554 71.5088Z" fill="white"/>
<path d="M91.3298 56.667C91.1262 56.9182 90.887 57.1218 90.639 57.3142C90.3866 57.5006 90.1254 57.6754 89.8274 57.8018C90.0306 57.5502 90.2702 57.3466 90.5182 57.1546C90.7714 56.9686 91.0326 56.7938 91.3298 56.667Z" fill="white"/>
<path d="M91.1228 63.9366C90.8716 63.733 90.668 63.4938 90.4756 63.2458C90.2892 62.9934 90.1144 62.7322 89.988 62.4346C90.2396 62.6378 90.4432 62.8774 90.6352 63.1254C90.8208 63.3782 90.9956 63.6394 91.1228 63.9366Z" fill="white"/>
<path d="M68.923 68.9424C68.6718 68.7388 68.4682 68.4996 68.2758 68.2516C68.0894 67.9992 67.9146 67.738 67.7882 67.4404C68.0398 67.6436 68.2434 67.8832 68.4354 68.1312C68.6214 68.3836 68.7962 68.6448 68.923 68.9424Z" fill="white"/>
<path d="M88.4235 74.9014C88.1723 74.6978 87.9687 74.4586 87.7763 74.2106C87.5899 73.9582 87.4151 73.697 87.2883 73.3994C87.5399 73.6026 87.7435 73.8422 87.9355 74.0902C88.1219 74.3426 88.2963 74.6042 88.4235 74.9014Z" fill="white"/>
<path d="M78.6512 57.9209C78.4 57.7173 78.1964 57.4781 78.004 57.2301C77.8176 56.9777 77.6428 56.7165 77.5164 56.4189C77.768 56.6221 77.9716 56.8617 78.1636 57.1097C78.3496 57.3621 78.5244 57.6233 78.6512 57.9209Z" fill="white"/>
<path d="M78.8239 78.292C78.5727 78.0884 78.3691 77.8492 78.1767 77.6012C77.9903 77.3488 77.8155 77.0876 77.6891 76.79C77.9407 76.9932 78.1443 77.2328 78.3363 77.4808C78.5219 77.7332 78.6967 77.9944 78.8239 78.292Z" fill="white"/>
<path d="M80.4868 66.2754C80.2356 66.0718 80.032 65.8326 79.8396 65.5846C79.6532 65.3322 79.4785 65.071 79.3521 64.7734C79.6037 64.9766 79.8072 65.2162 79.9992 65.4642C80.1852 65.7166 80.36 65.9778 80.4868 66.2754Z" fill="white"/>
<path d="M88.6951 56.2989C87.1899 56.0189 85.7711 52.9033 85.5927 50.8073C85.5811 50.6637 86.2975 49.5225 87.1019 48.0945C87.5867 47.2261 88.1063 46.2477 88.5159 45.3209C88.5991 45.1301 89.0923 45.7661 89.0923 45.7661L90.1639 46.5857L93.7059 49.3017C93.7059 49.3017 92.2759 50.9925 91.5719 52.6129C91.5147 52.7489 91.4723 52.8805 91.4439 53.0109C91.4383 53.0293 91.4339 53.0525 91.4247 53.0777C91.2227 53.8525 90.1499 56.5685 88.6951 56.2989Z" fill="#EB9481"/>
<path d="M91.4441 53.011C91.4385 53.0294 91.4341 53.0526 91.4249 53.0778C91.2313 53.0234 91.0285 52.9462 90.8133 52.8454C86.9369 51.0286 88.6469 45.835 88.6469 45.835L90.1645 46.5858L93.7065 49.3018C93.7065 49.3018 92.2765 50.9926 91.5725 52.613C91.5149 52.749 91.4729 52.8806 91.4441 53.011Z" fill="#263238"/>
<path d="M97.7719 38.2324C97.7719 38.2324 99.5427 39.3572 99.5543 41.3564C99.5659 43.356 98.7695 45.312 98.5847 45.382C98.3999 45.452 97.7719 38.2324 97.7719 38.2324Z" fill="#263238"/>
<path d="M88.9806 39.2697C87.9158 41.3717 87.9694 47.9901 89.2994 49.6957C91.227 52.1681 94.9406 53.0201 97.1818 50.5757C99.3546 48.2061 99.1318 39.5821 97.5946 37.9749C95.3306 35.6077 90.5538 36.1649 88.9806 39.2697Z" fill="#EB9481"/>
<path d="M94.6277 44.5726C94.6237 44.5554 94.5929 44.5946 94.5941 44.6134C94.6189 45.0642 94.5713 45.5846 94.1665 45.7438C94.1541 45.7486 94.1557 45.7714 94.1709 45.769C94.6669 45.687 94.7233 44.9954 94.6277 44.5726Z" fill="#263238"/>
<path d="M94.2136 44.1111C93.4868 44.0727 93.464 45.5291 94.1372 45.5647C94.8 45.5995 94.8228 44.1431 94.2136 44.1111Z" fill="#263238"/>
<path d="M97.0955 44.557C97.0991 44.5398 97.1303 44.579 97.1295 44.5974C97.1079 45.0482 97.1595 45.5682 97.5651 45.7246C97.5779 45.7294 97.5759 45.7522 97.5611 45.7498C97.0643 45.6714 97.0027 44.9806 97.0955 44.557Z" fill="#263238"/>
<path d="M97.5069 44.0918C98.2333 44.0482 98.2669 45.5042 97.5941 45.5446C96.9317 45.5846 96.8977 44.1282 97.5069 44.0918Z" fill="#263238"/>
<path d="M93.7569 43.0028C93.9561 42.956 94.1321 42.8796 94.3241 42.8132C94.5409 42.738 94.7213 42.7004 94.8657 42.5096C94.9429 42.4072 94.9145 42.2208 94.8221 42.136C94.6065 41.9392 94.3185 41.9652 94.0537 42.0452C93.7665 42.132 93.5673 42.272 93.3997 42.52C93.2365 42.7604 93.4941 43.0644 93.7569 43.0028Z" fill="#263238"/>
<path d="M98.0106 43.6489C97.8094 43.6129 97.6294 43.5461 97.4342 43.4897C97.2138 43.4261 97.0314 43.3981 96.8774 43.2149C96.7946 43.1165 96.8134 42.9289 96.901 42.8397C97.1054 42.6317 97.395 42.6425 97.6634 42.7081C97.955 42.7793 98.1614 42.9089 98.3418 43.1477C98.517 43.3789 98.2762 43.6965 98.0106 43.6489Z" fill="#263238"/>
<path d="M93.6005 48.8475C93.7069 48.9547 93.8125 49.1019 93.9757 49.1183C94.1325 49.1339 94.3177 49.0659 94.4625 49.0123C94.4769 49.0071 94.4909 49.0223 94.4817 49.0359C94.3617 49.2071 94.1137 49.3115 93.9053 49.2719C93.7017 49.2331 93.6037 49.0551 93.5569 48.8675C93.5505 48.8411 93.5849 48.8319 93.6005 48.8475Z" fill="#263238"/>
<path d="M96.2195 46.9193C96.2195 46.9193 96.2387 47.5945 96.2047 47.9081C96.2015 47.9373 95.3167 47.7641 94.3631 47.9741C94.2203 48.0057 94.2343 47.8893 94.3991 47.8133C94.7291 47.6609 95.1483 47.5181 95.9643 47.6057C95.9959 47.5213 95.9155 46.5669 95.9655 46.5685C96.1387 46.5725 96.4639 46.7261 96.6603 46.8077C96.6611 45.4001 96.4363 44.0041 96.4583 42.6025C96.4599 42.5525 96.5327 42.5453 96.5423 42.5913C96.8815 44.0381 96.9159 45.6577 96.9527 47.1113C96.9595 47.2925 96.3395 46.9865 96.2195 46.9193Z" fill="#263238"/>
<path d="M95.3172 47.6678C95.3172 47.6678 95.0028 48.459 94.4772 48.6714C93.8724 48.9162 93.6652 48.3686 94.2824 47.885C94.606 47.6314 95.3172 47.6678 95.3172 47.6678Z" fill="#263238"/>
<path d="M94.6878 48.5479C94.6198 48.5999 94.5518 48.6439 94.4758 48.6719C93.9198 48.8959 93.6998 48.4519 94.1478 48.0039C94.4522 48.0279 94.7838 48.1399 94.6878 48.5479Z" fill="#FF99BA"/>
<path d="M88.6768 44.9325C89.408 45.1569 90.2497 42.9573 90.4877 42.1117C90.6973 41.3665 90.9393 39.0021 90.9749 38.8409C91.0105 38.6797 94.1637 40.9329 96.0073 40.3941C97.8509 39.8553 99.0829 38.2009 99.1085 37.4285C99.1337 36.6565 96.8449 34.6961 94.8641 34.5957C92.8832 34.4953 90.202 37.0129 90.202 37.0129C90.202 37.0129 91.1128 35.9253 91.082 35.8361C91.0512 35.7469 89.7713 36.2581 89.5361 37.1697C89.5361 37.1697 89.7892 36.0253 89.6924 36.0041C89.5956 35.9829 88.6013 36.9629 88.8257 37.7057C88.8257 37.7057 87.6753 38.7021 87.5689 39.7945C87.4621 40.8873 87.8176 44.6689 88.6768 44.9325Z" fill="#263238"/>
<path d="M97.3174 40.0088C96.757 40.2668 96.1954 40.5504 95.5758 40.632C94.9062 40.7204 94.2114 40.5524 93.5882 40.3132C92.9506 40.0692 92.3714 39.7148 91.845 39.2816C91.3838 38.902 90.975 38.444 90.4826 38.106C90.3594 38.0216 90.2166 38.1988 90.2926 38.3124C91.0402 39.434 92.363 40.3704 93.6378 40.7748C94.979 41.2 96.2398 40.9008 97.3246 40.0236C97.331 40.018 97.3266 40.0044 97.3174 40.0088Z" fill="#263238"/>
<path d="M89.4389 44.7368C89.4389 44.7368 88.3037 42.432 87.2797 42.8056C86.2557 43.1792 86.8861 46.364 87.9309 46.9472C88.9761 47.5304 89.5345 46.5736 89.5345 46.5736L89.4389 44.7368Z" fill="#EB9481"/>
<path d="M87.4824 43.7144C87.4648 43.71 87.4576 43.7344 87.472 43.7432C88.2008 44.1776 88.4992 44.9612 88.6708 45.7528C88.484 45.4296 88.1932 45.2236 87.7656 45.4396C87.7432 45.4508 87.7576 45.4856 87.7804 45.4844C88.1092 45.4652 88.3304 45.5556 88.5064 45.8436C88.6308 46.0476 88.7 46.292 88.7768 46.5172C88.8024 46.5924 88.9336 46.5744 88.9196 46.4904C88.9184 46.484 88.9172 46.4776 88.916 46.4712C89.088 45.4828 88.5312 43.9776 87.4824 43.7144Z" fill="#263238"/>
<path d="M81.9406 55.0224C81.1586 59.5536 86.051 74.8224 89.201 77.6744C93.8854 81.9156 102.547 84.7044 105.685 85.6116C107.053 86.0072 110.837 76.382 109.453 75.748C106.489 74.3904 97.2814 71.5184 96.4146 70.7808C95.5478 70.0432 90.2566 62.4304 87.9042 58.04C84.7486 52.1492 82.3362 52.7304 81.9406 55.0224Z" fill="#EB9481"/>
<path d="M107.123 74.9014C107.123 74.9014 111.208 75.9422 113.846 76.7486C115.319 77.1982 117.774 78.1946 118.704 79.0198C120.096 80.2542 125.128 86.305 123.688 87.557C122.383 88.6902 118.72 82.9426 118.72 82.9426C118.72 82.9426 122.929 88.4154 121.108 89.491C119.287 90.5666 116.011 83.5222 116.011 83.5222C116.011 83.5222 120.21 89.2422 118.156 90.0546C116.604 90.6682 113.278 84.4554 113.278 84.4554C113.278 84.4554 116.853 89.397 115.284 90.097C113.551 90.8706 110.121 85.3282 110.121 85.3282C105.834 86.4358 103.339 85.2098 101.668 84.1262C101.264 83.863 107.123 74.9014 107.123 74.9014Z" fill="#EB9481"/>
<path d="M117.385 80.9564C117.902 81.5812 118.431 82.2104 118.891 82.8792C119.351 83.548 119.789 84.2336 120.185 84.9424C121.156 86.6808 121.493 87.9212 121.464 87.8468C120.775 86.0884 119.164 83.6684 118.703 82.9992C118.244 82.3316 117.818 81.6412 117.359 80.9728C117.347 80.956 117.372 80.9416 117.385 80.9564Z" fill="#263238"/>
<path d="M114.94 82.5751C115.827 83.2783 117.688 85.8971 118.406 87.6515C118.436 87.7251 118.397 87.7191 118.353 87.6523C117.791 86.7855 115.52 83.4243 114.919 82.5887C114.91 82.5755 114.928 82.5655 114.94 82.5751Z" fill="#263238"/>
<path d="M112.591 83.587C113.618 84.6038 114.481 85.9918 115.159 87.5962C115.19 87.6686 115.132 87.6574 115.09 87.589C114.261 86.2402 113.621 85.1762 112.549 83.6226C112.532 83.5982 112.567 83.5634 112.591 83.587Z" fill="#263238"/>
<path d="M86.3931 55.3561C82.7407 50.1905 80.5583 52.1053 81.2907 57.7121C81.9755 62.9557 83.8135 69.2025 83.8135 69.2025L93.0299 64.7385C93.0299 64.7385 88.7303 58.6621 86.3931 55.3561Z" fill="#3E8D7A"/>
<path d="M88.6261 57.3867C88.7565 57.6827 88.8281 57.9887 88.8853 58.2971C88.9353 58.6071 88.9713 58.9191 88.9477 59.2419C88.8169 58.9459 88.7453 58.6399 88.6885 58.3315C88.6389 58.0211 88.6033 57.7091 88.6261 57.3867Z" fill="white"/>
<path d="M83.1725 60.5273C83.4685 60.3969 83.7745 60.3256 84.0829 60.268C84.3929 60.218 84.7049 60.1821 85.0277 60.2057C84.7317 60.3365 84.4257 60.4081 84.1173 60.4649C83.8073 60.5145 83.4949 60.5501 83.1725 60.5273Z" fill="white"/>
<path d="M83.4089 52.4951C83.2917 52.7967 83.1261 53.0635 82.9485 53.3223C82.7649 53.5767 82.5693 53.8231 82.3245 54.0343C82.4413 53.7327 82.6073 53.4655 82.7849 53.2071C82.9689 52.9527 83.1645 52.7067 83.4089 52.4951Z" fill="white"/>
<path d="M91.1868 62.9395C91.0696 63.2407 90.904 63.5079 90.7264 63.7667C90.5428 64.0211 90.3476 64.2675 90.1028 64.4787C90.2196 64.1771 90.3852 63.9099 90.5632 63.6515C90.7472 63.3975 90.9428 63.1511 91.1868 62.9395Z" fill="white"/>
<path d="M84.8092 66.0733C84.5076 65.9561 84.2408 65.7905 83.982 65.6129C83.7276 65.4293 83.4812 65.2337 83.27 64.9893C83.5716 65.1061 83.8384 65.2717 84.0972 65.4497C84.3516 65.6333 84.5976 65.8289 84.8092 66.0733Z" fill="white"/>
<path d="M87.6187 56.911C88.1091 57.5858 88.6175 58.2474 89.1239 58.9102C88.9955 58.575 88.8843 58.2362 88.7851 57.8902C88.7807 57.8742 88.8035 57.8674 88.8095 57.8826C88.9119 58.1478 89.0255 58.4094 89.1235 58.6762C89.1707 58.8046 89.2187 58.9322 89.2679 59.0598C89.2787 59.0874 89.2895 59.1146 89.3003 59.1418C89.6943 59.659 90.0867 60.1774 90.4659 60.705C90.9183 61.335 91.3551 61.9758 91.7939 62.6154C92.2471 63.2762 92.6771 64.051 93.1559 64.6934C93.1975 64.749 92.3403 65.0954 92.2603 65.1398C92.1783 65.1854 92.1227 65.1058 92.2099 65.0794C92.2903 65.055 92.9691 64.6378 92.9775 64.6294C92.5391 63.9846 92.0295 63.3882 91.5703 62.7578C91.1135 62.1302 90.6547 61.5042 90.2115 60.867C89.3115 59.5726 88.4851 58.2278 87.5919 56.9278C87.5803 56.9114 87.6067 56.8946 87.6187 56.911Z" fill="#263238"/>
<path d="M81.5173 61.4216C81.6573 61.6944 81.8081 61.9644 81.9321 62.2448C81.9833 62.3608 82.0337 62.4768 82.0849 62.5928C81.8749 61.5944 81.6689 60.5952 81.4645 59.5952C81.4621 59.5836 81.4797 59.5776 81.4829 59.5896C81.9053 61.2084 82.3321 62.8256 82.7241 64.452C83.0981 66.0024 83.5497 67.572 83.7637 69.154C83.8913 69.112 84.6085 68.8152 84.6293 68.8616C84.6501 68.9084 83.6917 69.3596 83.6789 69.322C83.1573 67.776 82.8341 66.02 82.4793 64.4288C82.3793 63.9808 82.2861 63.5316 82.1905 63.0824C82.0865 62.812 81.9605 62.5516 81.8377 62.2888C81.7077 62.0108 81.6029 61.7196 81.4889 61.4348C81.4821 61.4184 81.5089 61.4056 81.5173 61.4216Z" fill="#263238"/>
<path d="M83.959 67.6616C85.2394 66.9396 90.589 64.1704 91.7858 63.6484C91.8686 63.612 91.9122 63.6548 91.8306 63.7032C88.047 65.9576 85.2822 67.064 83.9894 67.71C83.9574 67.726 83.9266 67.68 83.959 67.6616Z" fill="#263238"/>
<path d="M230.526 172.82H108.655L126.277 72.8799H248.148L230.526 172.82Z" fill="#3E8D7A"/>
<path d="M167.988 62.5303H128.102L126.278 72.8803H168.962L167.988 62.5303Z" fill="#3E8D7A"/>
<g opacity="0.1">
<path d="M230.526 172.82H108.655L126.277 72.8799H248.148L230.526 172.82Z" fill="white"/>
<path d="M167.988 62.5303H128.102L126.278 72.8803H168.962L167.988 62.5303Z" fill="white"/>
</g>
<path d="M123.795 66.7523C123.638 66.1723 123.602 65.5919 123.595 65.0119C123.601 64.4315 123.636 63.8515 123.795 63.2715C123.954 63.8515 123.989 64.4319 123.995 65.0119C123.988 65.5923 123.953 66.1723 123.795 66.7523Z" fill="white"/>
<path d="M120.251 67.7771C119.824 67.3535 119.504 66.8687 119.208 66.3699C118.923 65.8647 118.664 65.3443 118.511 64.7627C118.938 65.1859 119.259 65.6707 119.554 66.1699C119.838 66.6755 120.098 67.1959 120.251 67.7771Z" fill="white"/>
<path d="M117.695 70.4367C117.114 70.2831 116.594 70.0239 116.088 69.7395C115.588 69.4443 115.104 69.1235 114.681 68.6963C115.262 68.8491 115.783 69.1083 116.288 69.3935C116.787 69.6895 117.272 70.0099 117.695 70.4367Z" fill="white"/>
<path d="M116.811 74.0193C116.231 74.1769 115.651 74.2125 115.071 74.2193C114.491 74.2133 113.911 74.1781 113.331 74.0193C113.911 73.8609 114.491 73.8253 115.071 73.8193C115.651 73.8261 116.231 73.8617 116.811 74.0193Z" fill="white"/>
<path d="M117.838 77.5635C117.414 77.9903 116.929 78.3111 116.43 78.6067C115.925 78.8919 115.405 79.1511 114.823 79.3039C115.246 78.8767 115.731 78.5559 116.23 78.2607C116.736 77.9763 117.256 77.7167 117.838 77.5635Z" fill="white"/>
<path d="M120.496 80.1201C120.343 80.7013 120.083 81.2217 119.799 81.7273C119.504 82.2269 119.183 82.7117 118.756 83.1345C118.909 82.5529 119.168 82.0325 119.453 81.5273C119.749 81.0285 120.069 80.5437 120.496 80.1201Z" fill="white"/>
<path d="M124.078 81.0049C124.235 81.5853 124.271 82.1653 124.278 82.7453C124.272 83.3253 124.236 83.9057 124.078 84.4857C123.919 83.9057 123.884 83.3253 123.878 82.7453C123.884 82.1653 123.92 81.5853 124.078 81.0049Z" fill="white"/>
<path d="M127.622 79.9795C128.049 80.4031 128.369 80.8879 128.665 81.3867C128.95 81.8919 129.209 82.4123 129.362 82.9939C128.935 82.5707 128.614 82.0859 128.319 81.5867C128.035 81.0807 127.775 80.5607 127.622 79.9795Z" fill="white"/>
<path d="M130.178 77.3203C130.76 77.4739 131.28 77.7331 131.786 78.0175C132.285 78.3127 132.77 78.6335 133.193 79.0607C132.611 78.9079 132.091 78.6487 131.586 78.3635C131.087 78.0679 130.602 77.7471 130.178 77.3203Z" fill="white"/>
<path d="M131.065 73.7381C131.645 73.5805 132.226 73.5449 132.806 73.5381C133.386 73.5441 133.966 73.5793 134.546 73.7381C133.966 73.8965 133.386 73.9321 132.806 73.9381C132.225 73.9313 131.645 73.8961 131.065 73.7381Z" fill="white"/>
<path d="M130.038 70.1935C130.462 69.7667 130.947 69.4459 131.446 69.1503C131.951 68.8655 132.471 68.6059 133.053 68.4531C132.63 68.8803 132.145 69.2011 131.646 69.4963C131.14 69.7807 130.62 70.0399 130.038 70.1935Z" fill="white"/>
<path d="M127.379 67.6374C127.533 67.0562 127.792 66.5358 128.076 66.0302C128.371 65.5306 128.692 65.0458 129.119 64.623C128.967 65.2046 128.707 65.725 128.422 66.2302C128.126 66.729 127.805 67.2138 127.379 67.6374Z" fill="white"/>
<path d="M230.346 172.82H108.212L90.8712 76.5078H213.005L230.346 172.82Z" fill="#3E8D7A"/>
<path d="M133.193 135.385C135.997 135.385 138.269 133.112 138.269 130.309C138.269 127.505 135.997 125.232 133.193 125.232C130.389 125.232 128.117 127.505 128.117 130.309C128.117 133.112 130.389 135.385 133.193 135.385Z" fill="white"/>
<path d="M173.323 135.385C176.127 135.385 178.399 133.112 178.399 130.309C178.399 127.505 176.127 125.232 173.323 125.232C170.519 125.232 168.247 127.505 168.247 130.309C168.247 133.112 170.519 135.385 173.323 135.385Z" fill="white"/>
<path d="M160.55 136.195L160.271 135.664C160.246 135.616 157.624 130.768 152.347 130.768C147.534 130.768 146.361 135.332 146.314 135.526L146.171 136.108L145.007 135.827L145.147 135.245C145.161 135.188 146.577 129.568 152.347 129.568C158.362 129.568 161.216 134.88 161.334 135.107L161.613 135.638L160.55 136.195Z" fill="white"/>
<path d="M222.24 129.726C222.5 129.67 222.76 129.609 223.019 129.543" stroke="#263238" stroke-width="0.4" stroke-miterlimit="10"/>
<path d="M224.554 129.088C230.672 127.022 235.796 122.209 236.278 116.586C237.341 104.186 222.239 97.3361 223.799 83.0073C225.287 69.3389 239.624 68.3637 245.371 70.2529C251.719 72.3397 249.544 78.4409 243.797 77.6537C233.833 76.2889 227.57 65.4565 232.302 53.1685C235.838 43.9881 244.651 40.5257 248.232 39.4697" stroke="#263238" stroke-width="0.4" stroke-miterlimit="10" stroke-dasharray="1.6 1.6"/>
<path d="M249.002 39.256C249.498 39.1284 249.78 39.0752 249.78 39.0752" stroke="#263238" stroke-width="0.4" stroke-miterlimit="10"/>
<path d="M256.127 36.8652C255.106 33.7036 248.274 34.8396 249.608 38.97C250.942 43.1008 257.148 40.0268 256.127 36.8652Z" fill="#263238"/>
<path d="M245.892 35.5909C245.943 34.2045 247.872 33.1377 250.598 33.6297C253.325 34.1221 255.893 35.9585 255.893 35.9585C255.893 35.9585 253.197 37.6077 250.441 37.8985C247.686 38.1897 245.841 36.9841 245.892 35.5909Z" fill="#EBEBEB"/>
<path d="M255.895 35.9585C254.479 35.9681 253.065 35.9209 251.651 35.8777C250.238 35.8173 248.825 35.7613 247.414 35.6469C248.829 35.6365 250.243 35.6845 251.657 35.7277C253.07 35.7885 254.483 35.8449 255.895 35.9585Z" fill="#263238"/>
<path d="M248.633 34.3633C249.043 34.5465 249.422 34.7789 249.803 35.0069C250.175 35.2501 250.55 35.4893 250.893 35.7777C250.484 35.5949 250.105 35.3625 249.724 35.1337C249.351 34.8909 248.977 34.6517 248.633 34.3633Z" fill="#263238"/>
<path d="M252.34 35.8281C251.982 36.1325 251.592 36.3881 251.205 36.6477C250.808 36.8925 250.414 37.1417 249.989 37.3413C250.347 37.0369 250.737 36.7809 251.124 36.5217C251.52 36.2769 251.915 36.0285 252.34 35.8281Z" fill="#263238"/>
<path d="M252.753 35.0469C252.964 35.1377 253.139 35.2733 253.317 35.4057C253.483 35.5513 253.653 35.6933 253.787 35.8809C253.575 35.7905 253.4 35.6545 253.223 35.5221C253.056 35.3761 252.886 35.2337 252.753 35.0469Z" fill="#263238"/>
<path d="M248.489 43.8206C249.341 44.9154 251.53 44.6526 253.454 42.659C255.377 40.665 256.386 37.6738 256.386 37.6738C256.386 37.6738 253.235 37.9126 250.83 39.2882C248.424 40.6634 247.632 42.7206 248.489 43.8206Z" fill="#EBEBEB"/>
<path d="M256.385 37.6729C255.231 38.4929 254.113 39.3581 252.991 40.2201C251.88 41.0957 250.766 41.9677 249.689 42.8853C250.843 42.0657 251.962 41.2001 253.083 40.3381C254.194 39.4625 255.307 38.5905 256.385 37.6729Z" fill="#263238"/>
<path d="M251.43 43.2133C251.655 42.8249 251.827 42.4153 252.003 42.0069C252.162 41.5921 252.326 41.1789 252.436 40.7441C252.211 41.1321 252.039 41.5421 251.864 41.9505C251.704 42.3653 251.541 42.7785 251.43 43.2133Z" fill="#263238"/>
<path d="M253.579 39.8579C253.11 39.8207 252.644 39.8411 252.178 39.8567C251.714 39.8899 251.248 39.9187 250.786 40.0055C251.255 40.0431 251.72 40.0227 252.186 40.0067C252.651 39.9731 253.116 39.9439 253.579 39.8579Z" fill="#263238"/>
<path d="M254.37 40.25C254.488 40.0528 254.551 39.8404 254.618 39.6292C254.668 39.4132 254.723 39.1988 254.721 38.9688C254.603 39.166 254.54 39.3784 254.473 39.5896C254.423 39.8056 254.369 40.0204 254.37 40.25Z" fill="#263238"/>
<path d="M256.126 36.8659C255.496 37.0691 254.821 36.7235 254.617 36.0935C254.414 35.4635 254.76 34.7883 255.389 34.5847C256.019 34.3811 256.695 34.7271 256.898 35.3571C257.102 35.9871 256.756 36.6627 256.126 36.8659Z" fill="#455A64"/>
<path d="M256.863 39.147C256.233 39.3502 255.558 39.0046 255.354 38.3746C255.15 37.7446 255.496 37.0694 256.126 36.8658C256.756 36.6626 257.432 37.0082 257.635 37.6382C257.838 38.2678 257.493 38.9434 256.863 39.147Z" fill="#455A64"/>
<path d="M145.149 29.7735C144.077 40.0243 134.893 47.4684 124.643 46.396C120.5 45.9625 116.818 44.2042 113.966 41.5781L104.629 42.9484L109.301 34.876C108.167 32.1181 107.69 29.0487 108.02 25.8893C109.093 15.6386 118.276 8.19447 128.526 9.2668C138.776 10.3391 146.22 19.5228 145.149 29.7735Z" fill="white"/>
<path d="M145.148 29.7737C144.758 33.1809 143.513 36.5207 141.382 39.2344C140.892 39.9451 140.261 40.5389 139.69 41.1821C139.041 41.7468 138.436 42.3668 137.721 42.8498C136.355 43.9011 134.821 44.7256 133.219 45.3569C131.623 46.0286 129.906 46.3491 128.194 46.555C127.331 46.6014 126.466 46.68 125.601 46.6044C124.734 46.5849 123.871 46.4921 123.018 46.3356C119.603 45.7171 116.368 44.1183 113.784 41.7767L114.005 41.8449L104.677 43.2766L104 43.3807L104.343 42.7839L108.987 34.6958L108.965 35.0148C106.703 29.6876 107.213 23.3435 110.115 18.3795C111.562 15.8941 113.579 13.7525 115.96 12.1552C118.34 10.5535 121.1 9.5493 123.926 9.16665C126.754 8.79149 129.665 9.04908 132.366 9.94618C135.063 10.8545 137.536 12.3821 139.563 14.3598C143.683 18.2769 145.754 24.1537 145.148 29.7737ZM145.148 29.7737C145.716 24.1492 143.603 18.3084 139.481 14.4437C137.435 12.5109 134.957 11.047 132.283 10.197C129.605 9.3591 126.741 9.15916 123.983 9.57476C121.226 9.99785 118.557 11.0245 116.274 12.6195C113.998 14.2183 112.077 16.309 110.69 18.7105C109.276 21.1067 108.543 23.852 108.321 26.6077C108.147 29.3723 108.598 32.1707 109.635 34.7385L109.702 34.9054L109.613 35.0582L104.914 43.1141L104.58 42.6214L113.926 41.3124L114.055 41.2945L114.147 41.3806C116.618 43.6997 119.744 45.3187 123.085 45.9844C123.919 46.1529 124.765 46.2585 125.616 46.2922C126.466 46.382 127.318 46.3191 128.171 46.2884C129.861 46.1147 131.564 45.8286 133.156 45.1906C134.753 44.5923 136.297 43.8083 137.658 42.7644C138.374 42.2889 138.979 41.6771 139.629 41.1192C140.201 40.4835 140.834 39.8964 141.326 39.1917C143.467 36.5019 144.735 33.1786 145.148 29.7737Z" fill="#263238"/>
<path d="M117.459 36.5343C117.459 35.4201 118.233 34.6151 119.285 34.6151C120.399 34.6151 121.111 35.4201 121.111 36.5343C121.111 37.6179 120.399 38.4528 119.285 38.4528C118.202 38.4528 117.459 37.6171 117.459 36.5343ZM118.233 32.108L117.799 17.252H120.771L120.337 32.108H118.233Z" fill="#3E8D7A"/>
<path d="M124.578 36.5343C124.578 35.4201 125.352 34.6151 126.405 34.6151C127.519 34.6151 128.231 35.4201 128.231 36.5343C128.231 37.6179 127.519 38.4528 126.405 38.4528C125.321 38.4528 124.578 37.6171 124.578 36.5343ZM125.352 32.108L124.919 17.252H127.891L127.458 32.108H125.352Z" fill="#3E8D7A"/>
<path d="M131.697 36.5343C131.697 35.4201 132.471 34.6151 133.524 34.6151C134.638 34.6151 135.35 35.4201 135.35 36.5343C135.35 37.6179 134.637 38.4528 133.524 38.4528C132.44 38.4528 131.697 37.6171 131.697 36.5343ZM132.472 32.108L132.038 17.252H135.01L134.577 32.108H132.472Z" fill="#3E8D7A"/>
</svg>
