<svg width="292" height="206" viewBox="0 0 292 206" fill="none" xmlns="http://www.w3.org/2000/svg">
<g clip-path="url(#clip0_2_5530)">
<path d="M151.528 67.3585C151.199 67.3585 150.868 67.305 150.549 67.1945L145.488 65.4464C144.478 65.0975 143.725 64.2306 143.522 63.1837L142.511 57.941C142.309 56.8945 142.685 55.811 143.494 55.1131L147.543 51.6181C148.351 50.9201 149.481 50.7038 150.491 51.0528L155.552 52.8009C156.562 53.1499 157.316 54.0167 157.518 55.0636L158.529 60.3063C158.731 61.3528 158.355 62.4359 157.546 63.1339L153.497 66.6289C152.944 67.1064 152.24 67.3585 151.528 67.3585ZM146.737 62.3898L151.465 64.023L155.249 60.7575L154.303 55.8588L149.574 54.2252L145.791 57.4907L146.737 62.3898Z" fill="#F5F5F5"/>
<path d="M210.572 52.1327C210.243 52.1327 209.912 52.0791 209.593 51.9687L207.031 51.0841C206.02 50.7348 205.267 49.8675 205.066 48.821L204.554 46.1681C204.352 45.1221 204.728 44.0389 205.536 43.3406L207.587 41.5711C208.395 40.8731 209.525 40.6568 210.535 41.0062L213.096 41.8912C214.107 42.2401 214.86 43.1074 215.062 44.1543L215.574 46.8072C215.775 47.8541 215.399 48.9368 214.592 49.6347L212.541 51.4043C211.988 51.8805 211.285 52.1327 210.572 52.1327ZM208.28 48.0271L210.51 48.7971L212.293 47.2575L211.847 44.9478L209.618 44.1774L207.834 45.717L208.28 48.0271Z" fill="#F5F5F5"/>
<path d="M281.351 90.9574C280.697 90.9574 280.066 90.662 279.651 90.1458L278.208 88.3511C277.724 87.7488 277.597 86.9272 277.878 86.2075L278.716 84.0642C278.996 83.3449 279.647 82.8249 280.412 82.7075L282.694 82.359C283.457 82.2416 284.236 82.5436 284.721 83.1459L286.164 84.9406C286.649 85.5429 286.775 86.3644 286.494 87.0842L285.656 89.2274C285.375 89.9468 284.725 90.4667 283.959 90.5837L281.678 90.9323C281.569 90.9496 281.46 90.9574 281.351 90.9574ZM283.023 83.9823C282.997 83.9823 282.971 83.9843 282.944 83.9884L280.663 84.337C280.479 84.365 280.324 84.4898 280.256 84.6625L279.418 86.8057C279.351 86.9783 279.381 87.1757 279.498 87.3203L280.941 89.115C281.057 89.2596 281.247 89.3321 281.427 89.3036L283.708 88.9551C283.892 88.9271 284.048 88.8022 284.115 88.6296L284.953 86.4864C285.02 86.3138 284.99 86.1164 284.873 85.9722V85.9718L283.431 84.1775C283.331 84.0535 283.18 83.9823 283.023 83.9823Z" fill="#E0E0E0"/>
<path d="M23.8512 108.864C23.0109 108.864 22.2008 108.484 21.6668 107.82L18.2754 103.604C17.6529 102.829 17.4905 101.774 17.8517 100.849L19.8196 95.8129C20.1813 94.888 21.0166 94.2205 22.0007 94.0702L27.36 93.2507C28.3458 93.1003 29.3424 93.488 29.9653 94.2626L33.3567 98.479C33.9796 99.2531 34.142 100.309 33.7807 101.233L31.8125 106.27C31.4512 107.195 30.6154 107.863 29.6309 108.013L24.2716 108.833C24.1319 108.853 23.9914 108.864 23.8512 108.864ZM20.5685 101.843L23.8897 105.972L29.1378 105.171L31.0647 100.239L27.7436 96.1096L22.4959 96.9117L20.5685 101.843Z" fill="#E0E0E0"/>
<path d="M37.5667 71.934H34.3708C33.5958 71.934 32.8737 71.5187 32.4864 70.8496L30.8884 68.0904C30.5007 67.4214 30.5007 66.5908 30.8884 65.9217L32.4864 63.1625C32.8737 62.4934 33.5958 62.0781 34.3708 62.0781H37.5667C38.3413 62.0781 39.0633 62.4934 39.4511 63.1621L41.0494 65.9213C41.4371 66.5904 41.4371 67.4209 41.0494 68.09L39.4511 70.8492C39.0633 71.5187 38.3413 71.934 37.5667 71.934ZM34.3704 63.7269C34.1844 63.7269 34.0108 63.8267 33.9178 63.9873L32.3198 66.7465C32.2268 66.9072 32.2268 67.1066 32.3198 67.2673L33.9178 70.0264C34.0108 70.1871 34.1844 70.2868 34.3704 70.2868H37.5662C37.7522 70.2868 37.9258 70.1871 38.0188 70.0264L39.6168 67.2673C39.7098 67.1066 39.7098 66.9072 39.6168 66.7465L38.0188 63.9873C37.9258 63.8267 37.7522 63.7269 37.5662 63.7269H34.3704Z" fill="#EBEBEB"/>
<path d="M92.0851 40.7685L85.8537 36.8595L78.2017 23.9882L67.5583 17.4922L65.4979 19.7162L66.5804 21.1643L69.9383 25.6564L83.2786 43.5042L88.7185 46.4875L92.0851 40.7685Z" fill="#EBEBEB"/>
<path d="M84.2566 50.0228L82.4714 44.0953L62.8695 21.7744L60.256 23.3157L64.3943 35.0519L75.7733 46.1924L78.3236 53.1503L84.2566 50.0228Z" fill="#EBEBEB"/>
<path d="M94.8679 41.873C94.8679 41.873 117.004 53.9817 121.463 58.0696C125.922 62.1575 136.341 79.1759 135.282 81.3497C134.224 83.5234 133.415 83.8031 131.013 81.7122C128.612 79.6213 120.852 67.9428 118.766 66.0558C116.679 64.1688 90.752 49.0068 90.752 49.0068L94.8679 41.873Z" fill="#E0E0E0"/>
<path d="M79.8632 47.0592C83.7345 47.0592 86.8729 43.9309 86.8729 40.0721C86.8729 36.2132 83.7345 33.085 79.8632 33.085C75.9918 33.085 72.8535 36.2132 72.8535 40.0721C72.8535 43.9309 75.9918 47.0592 79.8632 47.0592Z" fill="#EBEBEB"/>
<path d="M78.1046 46.8345C78.1103 46.7978 78.7072 47.0013 79.8166 47.0104C80.3696 47.0236 81.0496 46.9362 81.8014 46.7187C82.5516 46.4974 83.3745 46.113 84.1467 45.5012C84.9126 44.8902 85.6446 44.0605 86.1257 43.009C86.5977 41.9634 86.8842 40.72 86.7416 39.4288C86.6895 38.784 86.5262 38.133 86.2691 37.5072C86.153 37.1879 85.981 36.8908 85.8211 36.5847C85.6305 36.2963 85.4482 35.998 85.216 35.7315C84.336 34.6285 83.0501 33.8025 81.6047 33.4136C80.1518 33.051 78.6249 33.1482 77.3172 33.6842C76.984 33.8041 76.679 33.9763 76.3719 34.1358C76.0825 34.3253 75.787 34.5016 75.5295 34.7241C74.9992 35.146 74.5387 35.6355 74.1779 36.1735C73.4223 37.232 73.0652 38.4573 72.9668 39.6001C72.8734 40.7521 73.1074 41.8324 73.4781 42.7375C73.8538 43.6468 74.3846 44.3818 74.9318 44.9393C75.4828 45.4942 76.0333 45.9004 76.5231 46.1575C77.4969 46.6878 78.1174 46.7994 78.1046 46.8345C78.1037 46.8382 78.0661 46.8299 77.9934 46.811C77.909 46.7875 77.8028 46.7578 77.6714 46.7212C77.5288 46.6841 77.3548 46.6301 77.158 46.5423C76.9588 46.4612 76.7257 46.3726 76.4835 46.2305C75.9821 45.9816 75.4154 45.5799 74.8467 45.0233C74.2816 44.4642 73.7311 43.7214 73.338 42.796C72.9499 41.8748 72.7015 40.7698 72.7891 39.5874C72.8817 38.4148 73.2425 37.1541 74.0146 36.0611C74.3837 35.5061 74.8558 35.0002 75.4005 34.5643C75.6651 34.3348 75.9684 34.1519 76.2665 33.9562C76.5827 33.7909 76.8968 33.613 77.2394 33.4885C78.5861 32.9336 80.1621 32.831 81.6596 33.2051C83.1497 33.6051 84.4757 34.46 85.3805 35.598C85.6189 35.8728 85.8066 36.1805 86.0017 36.4784C86.1662 36.794 86.3419 37.1005 86.4609 37.4297C86.7234 38.0749 86.8887 38.7457 86.94 39.4094C87.0805 40.7389 86.78 42.0145 86.2881 43.0836C85.7872 44.1589 85.0304 45.0035 84.2413 45.6195C83.4461 46.2371 82.602 46.6186 81.8357 46.8328C81.0673 47.0429 80.3762 47.1187 79.8166 47.0928C79.5359 47.0994 79.2892 47.0635 79.0751 47.0376C78.8601 47.019 78.682 46.9815 78.539 46.9449C78.4059 46.9131 78.2992 46.8876 78.2137 46.867C78.1405 46.8493 78.1037 46.8378 78.1046 46.8345Z" fill="#E0E0E0"/>
<path d="M78.8715 43.8906C76.7556 43.3422 75.4867 41.1883 76.0364 39.0797C76.5866 36.9706 78.7475 35.7058 80.8629 36.2538C82.9788 36.8017 84.2481 38.9561 83.698 41.0647C83.1482 43.1733 80.9873 44.4386 78.8715 43.8906Z" fill="#E0E0E0"/>
<path d="M78.8697 43.8906C78.8747 43.8638 79.2132 43.9726 79.8365 43.9717C80.4483 43.9697 81.389 43.8028 82.2611 43.1115C82.6885 42.7679 83.0965 42.3023 83.3639 41.7136C83.6264 41.1281 83.7851 40.4331 83.7041 39.7125C83.6743 39.3524 83.5826 38.989 83.4387 38.64C83.3003 38.2886 83.1023 37.9512 82.8501 37.6496C82.3587 37.0345 81.6411 36.5743 80.8347 36.3571C80.0242 36.1549 79.1727 36.2088 78.4424 36.5075C78.0745 36.648 77.7368 36.847 77.4442 37.0868C77.1478 37.322 76.8903 37.5948 76.6886 37.8947C76.2657 38.4851 76.0645 39.169 76.0078 39.8076C75.9541 40.4516 76.0826 41.056 76.2885 41.5636C76.7126 42.5907 77.4524 43.1926 77.986 43.4913C78.5304 43.7954 78.8788 43.8646 78.8697 43.8906C78.8697 43.8906 78.5143 43.8522 77.9455 43.5655C77.3888 43.2833 76.6076 42.6826 76.1479 41.6229C75.9252 41.0993 75.7813 40.4701 75.8297 39.7957C75.8809 39.127 76.0851 38.4077 76.5249 37.7831C76.7353 37.4662 77.0044 37.177 77.3148 36.9278C77.6219 36.674 77.9769 36.4626 78.3642 36.3126C79.133 35.9954 80.0337 35.9361 80.8889 36.1499C81.7399 36.3782 82.4976 36.8672 83.0134 37.5173C83.2784 37.8362 83.485 38.193 83.6293 38.5638C83.7789 38.9326 83.8727 39.3153 83.9012 39.6943C83.9802 40.4532 83.8074 41.1808 83.5255 41.7894C83.2383 42.4016 82.8055 42.8816 82.355 43.231C81.4361 43.9334 80.4603 44.0788 79.8357 44.055C79.1992 44.0294 78.8697 43.8906 78.8697 43.8906Z" fill="#E0E0E0"/>
<path d="M87.6895 45.5045L90.5531 40.5374C91.3925 39.081 93.2579 38.5788 94.719 39.4155L94.9869 39.5692C96.448 40.406 96.9519 42.2653 96.1124 43.7218L93.2492 48.6888C92.4097 50.1453 90.5444 50.6475 89.0832 49.8107L88.8154 49.657C87.3539 48.8199 86.85 46.9609 87.6895 45.5045Z" fill="#EBEBEB"/>
<path d="M87.6925 45.504C87.7235 45.5148 87.4454 45.8851 87.3495 46.6642C87.309 47.0503 87.3429 47.536 87.5334 48.0531C87.6355 48.3081 87.774 48.5689 87.9616 48.8174C88.1551 49.0613 88.3952 49.2899 88.6829 49.4798C88.9759 49.662 89.2971 49.8585 89.6505 49.9734C90.0068 50.0921 90.4003 50.1469 90.8037 50.1184C91.6085 50.0657 92.4492 49.6463 92.9853 48.9138C93.9347 47.3333 94.9412 45.5255 96.0216 43.6686C96.5441 42.7642 96.5317 41.6197 96.0357 40.7698C95.8005 40.3384 95.4516 39.9849 95.0532 39.7315C94.6436 39.4715 94.2315 39.2486 93.7818 39.1691C92.891 38.9883 91.9833 39.2392 91.3563 39.7451C90.7086 40.2383 90.4205 40.991 90.0403 41.5835C89.3314 42.7844 88.7536 43.7633 88.3406 44.4633C88.1443 44.7872 87.9877 45.0455 87.869 45.2408C87.7599 45.4171 87.6991 45.5078 87.6925 45.504C87.6859 45.5003 87.7343 45.4023 87.8318 45.2185C87.9414 45.0183 88.0869 44.753 88.2683 44.4209C88.6668 43.7127 89.2243 42.7226 89.9084 41.5072C90.0833 41.1999 90.2655 40.8785 90.4557 40.544C90.6491 40.2028 90.9103 39.872 91.2451 39.6054C91.9052 39.0628 92.8683 38.7872 93.821 38.9747C94.3001 39.0562 94.7498 39.2969 95.1635 39.5581C95.5905 39.8271 95.9658 40.2053 96.2196 40.6663C96.7536 41.5752 96.7697 42.805 96.2084 43.7749C95.1226 45.6404 94.1281 47.4186 93.1452 49.0304C92.5682 49.8094 91.6688 50.2482 90.8157 50.296C90.3879 50.322 89.9717 50.2594 89.5968 50.13C89.2157 49.999 88.9007 49.7996 88.5981 49.6055C88.2985 49.402 88.0501 49.1581 87.8525 48.8998C87.6603 48.6365 87.521 48.3617 87.4206 48.0943C87.2333 47.5525 87.2122 47.0495 87.2664 46.6544C87.3201 46.2564 87.4462 45.9684 87.5289 45.7776C87.6297 45.5939 87.6863 45.5008 87.6925 45.504Z" fill="#E0E0E0"/>
<path d="M79.1426 56.6656C79.1426 56.6656 87.5291 80.4051 90.8503 85.4558C94.1718 90.5061 109.324 103.521 111.648 102.834C113.971 102.147 114.38 101.396 112.701 98.6937C111.021 95.9918 100.723 86.4611 99.1942 84.1024C97.6657 81.7437 86.8732 53.7783 86.8732 53.7783L79.1426 56.6656Z" fill="#E0E0E0"/>
<path d="M83.9059 50.1947L78.5235 52.2032C76.9454 52.792 76.1448 54.545 76.7354 56.1181L76.8437 56.4065C77.4344 57.9795 79.1931 58.7775 80.7712 58.1888L86.1536 56.1803C87.7321 55.5911 88.5324 53.8385 87.9417 52.2655L87.8334 51.9771C87.2428 50.404 85.484 49.606 83.9059 50.1947Z" fill="#EBEBEB"/>
<path d="M83.9005 50.1941C83.898 50.1875 83.9997 50.1468 84.1981 50.0779C84.4006 50.0273 84.7056 49.9502 85.1086 49.9622C85.5087 49.9729 86.0035 50.0759 86.509 50.3478C86.757 50.4904 87.0067 50.6721 87.2361 50.9036C87.4597 51.1401 87.6606 51.4244 87.8135 51.7519C87.9561 52.0811 88.1024 52.4235 88.1702 52.8194C88.2376 53.2092 88.2318 53.6286 88.1363 54.0451C87.9503 54.8765 87.37 55.6898 86.5049 56.1306C84.7499 56.8352 82.8279 57.524 80.8046 58.2887C79.7531 58.6834 78.5383 58.4675 77.7257 57.7943C77.3103 57.4701 76.997 57.0395 76.8002 56.5756C76.6088 56.1261 76.4439 55.6449 76.441 55.1604C76.41 54.193 76.8395 53.2907 77.4839 52.7296C77.8021 52.4437 78.1721 52.2405 78.5412 52.1058C78.9033 51.9732 79.2513 51.8458 79.5836 51.7243C80.898 51.2493 81.9689 50.862 82.7344 50.5851C83.0928 50.4603 83.3788 50.3606 83.595 50.2856C83.7926 50.2189 83.898 50.1875 83.9005 50.1941C83.9029 50.2011 83.8033 50.246 83.6107 50.3256C83.3983 50.4104 83.1168 50.5225 82.7642 50.663C82.0045 50.9555 80.9414 51.3642 79.6373 51.8664C78.9892 52.1441 78.1973 52.3048 77.6037 52.8618C77.0011 53.3962 76.6047 54.2482 76.6394 55.1538C76.6452 55.6086 76.7986 56.0503 76.9895 56.4953C77.1755 56.9283 77.469 57.3287 77.8575 57.6303C78.6181 58.2566 79.7493 58.4551 80.7294 58.0881C82.7435 57.3271 84.6965 56.6316 86.4156 55.9547C87.2278 55.5464 87.78 54.7879 87.9631 54.0051C88.0569 53.6133 88.0664 53.217 88.0069 52.8474C87.9503 52.4811 87.8085 52.133 87.6758 51.8154C87.5345 51.5014 87.3472 51.2278 87.1377 50.9984C86.9223 50.7734 86.6863 50.595 86.4507 50.4529C85.97 50.1818 85.4947 50.0693 85.1057 50.0462C84.3179 50.0133 83.9062 50.2267 83.9005 50.1941Z" fill="#E0E0E0"/>
<path d="M295.438 186.83C295.438 186.89 232.43 186.938 154.724 186.938C76.9917 186.938 13.998 186.889 13.998 186.83C13.998 186.771 76.9921 186.723 154.724 186.723C232.43 186.723 295.438 186.771 295.438 186.83Z" fill="#263238"/>
<path d="M35.9727 139.696C36.0871 139.351 48.9658 97.3861 48.9658 97.3861L48.6434 92.1747L52.0116 86.6465L56.1954 88.0238L55.6229 94.2211L52.6494 98.7267L39.6765 140.889L35.9727 139.696Z" fill="#E0E0E0"/>
<path d="M35.9727 139.696C35.9727 139.696 36.0595 139.719 36.2211 139.769C36.3881 139.82 36.6253 139.893 36.9365 139.99C37.5669 140.188 38.4894 140.477 39.6881 140.853L39.6402 140.878C41.7353 134.031 46.5817 118.195 52.549 98.6955L52.5535 98.6811L52.5618 98.6683C53.5034 97.2407 54.5115 95.7118 55.5341 94.1618L55.5171 94.2104C55.6994 92.2337 55.8928 90.1366 56.0888 88.0131L56.1623 88.1248C56.0532 88.0889 55.935 88.0498 55.8164 88.0111C54.5259 87.5863 53.2459 87.1648 51.9786 86.7475L52.1038 86.7013C50.9589 88.5796 49.8334 90.4262 48.7343 92.2287L48.7496 92.1673C48.8587 93.9443 48.9658 95.6833 49.0695 97.3787L49.0708 97.3977L49.0654 97.4154C45.3012 109.607 42.0412 120.166 39.7199 127.684C38.5527 131.443 37.6219 134.441 36.9804 136.506C36.6588 137.533 36.41 138.327 36.2397 138.872C36.1549 139.137 36.0905 139.341 36.0446 139.485C35.9999 139.624 35.9727 139.696 35.9727 139.696C35.9727 139.696 35.9888 139.629 36.028 139.493C36.0702 139.351 36.1293 139.15 36.207 138.888C36.3703 138.346 36.6079 137.557 36.9155 136.535C37.5421 134.471 38.4518 131.475 39.5922 127.718C41.8957 120.177 45.1309 109.585 48.8662 97.3556L48.862 97.3923C48.7566 95.6969 48.6483 93.9579 48.5376 92.1809L48.5355 92.148L48.5529 92.1195C49.6511 90.3162 50.7758 88.4692 51.9199 86.5905L51.9641 86.5176L52.0451 86.5444C53.3124 86.9613 54.5929 87.3828 55.8829 87.8075C56.0011 87.8467 56.1198 87.8854 56.2289 87.9213L56.3103 87.948L56.3025 88.0329C56.1061 90.1564 55.9123 92.253 55.7292 94.2298L55.7267 94.2566L55.7118 94.2788C54.6884 95.8284 53.6794 97.3565 52.737 98.7836L52.7499 98.7569C46.723 118.238 41.8283 134.06 39.7121 140.9L39.7005 140.937L39.6641 140.925C38.4626 140.528 37.5375 140.223 36.9056 140.014C36.6005 139.912 36.3674 139.833 36.2037 139.778C36.0479 139.725 35.9727 139.696 35.9727 139.696Z" fill="#263238"/>
<path d="M32.8679 141.736L27.0837 149.533L18.9948 178.779C18.9948 178.779 17.8317 184.745 24.443 186.44C31.8664 188.343 33.5789 182.675 33.5789 182.675L41.4438 154.111L41.326 144.198L43.2674 142.019C43.658 141.581 43.4708 140.887 42.9123 140.703L33.6247 137.645C33.0634 137.461 32.4968 137.912 32.5538 138.499L32.8679 141.736Z" fill="#3E8D7A"/>
<path d="M41.3903 144.543C41.3725 144.599 39.4257 144.034 37.0429 143.28C34.6592 142.526 32.7417 141.869 32.7599 141.812C32.7777 141.756 34.7241 142.321 37.1082 143.075C39.4906 143.829 41.4085 144.486 41.3903 144.543Z" fill="#263238"/>
<path d="M41.4392 154.111C41.4355 154.125 41.2296 154.088 40.8597 154.009C40.4893 153.931 39.957 153.805 39.301 153.641C37.9891 153.313 36.187 152.815 34.2199 152.19C32.2528 151.563 30.4945 150.927 29.2347 150.437C28.6044 150.192 28.0976 149.987 27.7504 149.837C27.4028 149.687 27.2135 149.598 27.2189 149.585C27.2242 149.571 27.4243 149.634 27.781 149.759C28.1753 149.899 28.6816 150.079 29.2884 150.295C30.5607 150.748 32.3227 151.359 34.286 151.985C36.249 152.609 38.0408 153.129 39.3407 153.494C39.9607 153.669 40.4778 153.815 40.8808 153.928C41.2437 154.032 41.4429 154.097 41.4392 154.111Z" fill="#263238"/>
<g opacity="0.3">
<path d="M21.9067 179.609L21.7083 179.55C20.9854 179.337 20.5729 178.579 20.787 177.859L28.0489 153.411C28.263 152.691 29.0227 152.279 29.7456 152.493L29.944 152.551C30.6669 152.765 31.0794 153.522 30.8653 154.243L23.6035 178.69C23.3894 179.411 22.6297 179.822 21.9067 179.609Z" fill="black"/>
</g>
<g opacity="0.3">
<path d="M26.0239 180.962L25.8255 180.904C25.1026 180.69 24.6901 179.933 24.9042 179.212L32.1661 154.765C32.3802 154.044 33.1399 153.633 33.8628 153.846L34.0612 153.905C34.7841 154.118 35.1966 154.876 34.9825 155.596L27.7207 180.044C27.507 180.764 26.7473 181.176 26.0239 180.962Z" fill="black"/>
</g>
<g opacity="0.3">
<path d="M30.4048 182.253L30.2064 182.195C29.4835 181.982 29.071 181.224 29.2851 180.504L36.5469 156.056C36.761 155.335 37.5207 154.924 38.2437 155.137L38.4421 155.196C39.165 155.409 39.5775 156.166 39.3634 156.887L32.1015 181.335C31.8878 182.056 31.1281 182.467 30.4048 182.253Z" fill="black"/>
</g>
<path d="M52.614 98.7143C52.5946 98.7703 51.7704 98.5371 50.773 98.1931C49.7756 97.8491 48.9829 97.5253 49.0023 97.4692C49.0217 97.4132 49.8459 97.6464 50.8433 97.9904C51.8407 98.3344 52.6334 98.6583 52.614 98.7143Z" fill="#263238"/>
<path d="M56.1985 88.0229C56.2109 88.027 56.1588 88.2305 56.053 88.6009C55.9336 89.001 55.7761 89.5304 55.5835 90.1764C55.1573 91.5438 54.5787 93.4007 53.9198 95.5151L53.8876 95.6181L53.7847 95.5822C53.17 95.3688 52.5335 95.1476 51.8809 94.921C51.2071 94.6853 50.5499 94.4554 49.9196 94.235L49.8262 94.2025L49.8526 94.1081C50.4507 91.9904 50.9748 90.1335 51.3609 88.7665C51.5506 88.1255 51.706 87.601 51.8234 87.2038C51.9354 86.8392 52.0028 86.6419 52.0152 86.6456C52.0276 86.6489 51.9846 86.8528 51.8945 87.2232C51.7924 87.6245 51.6572 88.1547 51.4923 88.8024C51.1249 90.1743 50.6251 92.0382 50.0556 94.1637L49.989 94.0368C50.6202 94.256 51.2778 94.4843 51.9519 94.7183C52.6042 94.9465 53.2403 95.169 53.8545 95.3837L53.7194 95.4508C54.4063 93.3451 55.0098 91.496 55.4537 90.1344C55.6707 89.4962 55.8484 88.9729 55.9832 88.5778C56.1105 88.2153 56.1861 88.0192 56.1985 88.0229Z" fill="#263238"/>
<path d="M178.099 46.1126C177.769 46.1126 177.438 46.0591 177.119 45.9487L172.058 44.2005C171.048 43.8516 170.295 42.9851 170.093 41.9387L169.081 36.6951C168.879 35.6487 169.256 34.5651 170.065 33.8672L174.114 30.3726C174.922 29.6755 176.052 29.4588 177.061 29.8073L182.122 31.5554C183.133 31.9044 183.886 32.7717 184.088 33.8186L185.1 39.0604C185.301 40.1081 184.924 41.1913 184.116 41.8884L180.067 45.3826C179.515 45.8601 178.811 46.1126 178.099 46.1126ZM173.306 41.1431L178.035 42.7763L181.819 39.5108L180.873 34.6121L176.144 32.9785L172.361 36.244L173.306 41.1431Z" fill="#E0E0E0"/>
<path d="M173.307 41.143C173.301 41.1484 173.272 41.0359 173.223 40.8171C173.171 40.5753 173.102 40.2535 173.015 39.851C172.837 38.9784 172.588 37.7568 172.283 36.2596C172.277 36.2311 172.289 36.2019 172.309 36.1842C173.384 35.2481 174.666 34.1316 176.078 32.9026C176.106 32.8779 176.145 32.8721 176.178 32.8836C177.642 33.3871 179.241 33.9375 180.908 34.511C180.845 34.4389 180.995 34.6099 180.979 34.593L180.98 34.5943L180.98 34.5967L180.981 34.6017L180.983 34.612L180.987 34.6322L180.995 34.6725L181.01 34.7533L181.041 34.914L181.103 35.2341C181.144 35.4471 181.185 35.6589 181.225 35.8694C181.306 36.2901 181.386 36.7058 181.465 37.1157C181.621 37.9348 181.773 38.7291 181.919 39.4925C181.926 39.5292 181.912 39.5655 181.886 39.5881C180.463 40.8052 179.178 41.9044 178.088 42.8371C178.067 42.8565 178.036 42.861 178.01 42.8524C176.567 42.337 175.389 41.9163 174.548 41.616C174.161 41.473 173.851 41.3589 173.619 41.2728C173.408 41.1924 173.301 41.1484 173.307 41.143C173.313 41.1381 173.432 41.1718 173.652 41.2411C173.891 41.3181 174.208 41.4207 174.607 41.5488C175.446 41.829 176.621 42.2208 178.062 42.7012L177.983 42.716C179.065 41.7742 180.341 40.6634 181.752 39.4344L181.719 39.53C181.57 38.767 181.416 37.9731 181.256 37.1548C181.177 36.7453 181.096 36.33 181.014 35.9094C180.974 35.6988 180.933 35.4875 180.892 35.2745L180.83 34.9543L180.799 34.7937L180.783 34.7133L180.775 34.673L180.771 34.6528L180.769 34.6429L180.768 34.6379L180.768 34.6355L180.768 34.6342C180.752 34.6161 180.901 34.7871 180.837 34.7146C179.171 34.1369 177.573 33.5828 176.111 33.0756L176.21 33.0567C174.788 34.2733 173.496 35.3787 172.413 36.3057L172.439 36.2303C172.71 37.7201 172.931 38.9355 173.089 39.8036C173.159 40.2144 173.216 40.5423 173.258 40.7891C173.296 41.0157 173.313 41.1381 173.307 41.143Z" fill="#263238"/>
<path d="M178.094 46.1123C178.094 46.1012 178.274 46.1082 178.606 46.0464C178.933 45.9826 179.426 45.8359 179.928 45.4396C180.909 44.583 182.31 43.3598 184.037 41.8523C184.466 41.4885 184.801 40.9768 184.962 40.3872C185.04 40.0922 185.074 39.7795 185.057 39.4631C185.038 39.15 184.954 38.8257 184.894 38.4928C184.634 37.1649 184.357 35.7472 184.066 34.2554C183.993 33.878 183.934 33.5101 183.766 33.1702C183.607 32.8291 183.378 32.5159 183.094 32.256C182.81 31.9956 182.47 31.7916 182.1 31.6602C181.715 31.5275 181.327 31.3936 180.935 31.2585C180.151 30.9882 179.352 30.713 178.542 30.4337C178.137 30.294 177.729 30.1531 177.319 30.0114C176.907 29.8556 176.509 29.7485 176.078 29.751C175.653 29.7535 175.231 29.8441 174.852 30.0213C174.464 30.1906 174.155 30.4687 173.829 30.7546C173.18 31.3137 172.542 31.8641 171.914 32.4055C171.287 32.9465 170.672 33.478 170.069 33.9983C169.496 34.5154 169.162 35.2533 169.127 35.987C169.099 36.3562 169.178 36.7109 169.249 37.0788C169.318 37.4426 169.386 37.8015 169.454 38.1554C169.589 38.8628 169.72 39.55 169.846 40.2142C169.975 40.875 170.087 41.5276 170.218 42.1287C170.377 42.7183 170.714 43.2308 171.143 43.593C171.356 43.7755 171.59 43.923 171.834 44.0338C172.076 44.1418 172.336 44.2209 172.579 44.3094C173.068 44.4816 173.53 44.644 173.963 44.7964C174.823 45.1009 175.565 45.3637 176.178 45.5809C176.788 45.7893 177.25 45.9904 177.582 46.0468C177.914 46.1082 178.095 46.1016 178.094 46.1123C178.094 46.1123 177.914 46.1383 177.575 46.0893C177.232 46.0452 176.764 45.8553 176.151 45.6596C175.535 45.4523 174.788 45.2006 173.924 44.9097C173.489 44.7622 173.025 44.6053 172.534 44.4384C172.289 44.3515 172.035 44.2781 171.774 44.1656C171.518 44.0515 171.27 43.8987 171.044 43.7087C170.591 43.3318 170.231 42.7945 170.058 42.172C169.917 41.5478 169.806 40.9129 169.671 40.2475C169.541 39.5838 169.407 38.8974 169.269 38.1908C169.2 37.8373 169.13 37.4785 169.059 37.1151C168.988 36.7579 168.901 36.371 168.929 35.9767C168.965 35.1927 169.319 34.4025 169.931 33.8467C170.534 33.3239 171.15 32.7899 171.777 32.2465C172.404 31.7043 173.042 31.153 173.69 30.5931C173.855 30.4535 174.008 30.3126 174.187 30.1725C174.366 30.0382 174.559 29.922 174.762 29.8268C175.17 29.6365 175.623 29.5388 176.079 29.5363C176.532 29.5302 176.992 29.6571 177.39 29.8091C177.801 29.9508 178.209 30.0921 178.613 30.2322C179.423 30.5124 180.221 30.7884 181.004 31.0599C181.396 31.1959 181.785 31.331 182.17 31.4645C182.567 31.6062 182.931 31.8258 183.234 32.1056C183.537 32.3845 183.782 32.7203 183.95 33.0857C184.129 33.4495 184.193 33.8512 184.262 34.2183C184.546 35.711 184.817 37.1303 185.07 38.4594C185.128 38.7911 185.211 39.1145 185.231 39.454C185.247 39.7894 185.208 40.1202 185.124 40.4313C184.95 41.053 184.59 41.5911 184.138 41.9676C182.391 43.4545 180.973 44.6609 179.981 45.5059C179.457 45.903 178.949 46.0386 178.615 46.0897C178.274 46.1379 178.094 46.1123 178.094 46.1123Z" fill="#263238"/>
<path d="M142.869 37.5352C142.215 37.5352 141.584 37.2397 141.169 36.7231L139.725 34.9288C139.241 34.3261 139.115 33.5046 139.396 32.7848L140.233 30.6416C140.515 29.9218 141.165 29.4023 141.931 29.2853L144.211 28.9367C144.978 28.8205 145.754 29.1213 146.239 29.7236L147.682 31.5183C148.166 32.1206 148.293 32.9422 148.012 33.6619L147.174 35.8056C146.893 36.5253 146.243 37.0449 145.477 37.1623L143.196 37.5108C143.087 37.5269 142.978 37.5352 142.869 37.5352ZM144.541 30.5596C144.515 30.5596 144.489 30.5616 144.462 30.5658L142.182 30.9143C141.998 30.9423 141.842 31.0672 141.774 31.2402L140.937 33.383C140.869 33.5561 140.9 33.7534 141.016 33.898L142.459 35.6923C142.576 35.8373 142.762 35.9094 142.946 35.8814L145.227 35.5328C145.411 35.5048 145.567 35.38 145.634 35.2074L146.472 33.0641C146.54 32.8915 146.509 32.6942 146.393 32.5495L144.95 30.7553C144.849 30.6304 144.698 30.5596 144.541 30.5596Z" fill="#E0E0E0"/>
<path d="M144.539 30.559C144.538 30.5541 144.601 30.5372 144.717 30.5672C144.774 30.5837 144.844 30.6134 144.911 30.6702C144.981 30.73 145.035 30.8062 145.108 30.8874C145.409 31.2483 145.805 31.7217 146.282 32.2931C146.344 32.3693 146.408 32.4472 146.473 32.5263C146.542 32.6207 146.583 32.7377 146.587 32.8596C146.596 32.9828 146.544 33.1089 146.507 33.2032C146.468 33.3058 146.428 33.41 146.388 33.5159C146.225 33.9423 146.051 34.3951 145.869 34.8702C145.823 34.9892 145.777 35.11 145.73 35.2319C145.678 35.3749 145.565 35.5051 145.422 35.5751C145.266 35.6493 145.128 35.6435 144.997 35.6715C144.861 35.6925 144.725 35.7139 144.587 35.7354C144.029 35.8186 143.483 35.9138 142.865 35.9933C142.687 35.9937 142.511 35.9158 142.395 35.7836C142.302 35.6686 142.21 35.5545 142.119 35.4412C141.939 35.2171 141.762 34.9962 141.588 34.7791C141.414 34.562 141.244 34.3486 141.077 34.1393L140.952 33.9831C140.908 33.9316 140.861 33.8571 140.836 33.7858C140.782 33.6399 140.788 33.4731 140.846 33.3363C141.034 32.8633 141.214 32.413 141.383 31.9886C141.467 31.7785 141.549 31.575 141.628 31.3785C141.67 31.2845 141.695 31.1815 141.768 31.081C141.836 30.9863 141.931 30.9158 142.034 30.8754C142.829 30.7304 143.43 30.6744 143.867 30.613C144.296 30.5602 144.538 30.538 144.539 30.559C144.538 30.5677 144.482 30.5743 144.37 30.6006C144.232 30.6274 144.071 30.6587 143.879 30.6958C143.462 30.7782 142.815 30.8709 142.091 31.0159C142.015 31.048 141.946 31.102 141.897 31.1729C141.85 31.238 141.823 31.3393 141.783 31.4386C141.708 31.6364 141.63 31.8416 141.549 32.0533C141.386 32.4798 141.213 32.9325 141.031 33.408C140.991 33.5077 140.989 33.6165 141.026 33.7162C141.056 33.8093 141.155 33.9016 141.237 34.0107C141.406 34.2188 141.578 34.4314 141.753 34.6473C141.928 34.864 142.105 35.084 142.286 35.3077C142.375 35.4181 142.465 35.529 142.555 35.6406C142.632 35.7275 142.748 35.7786 142.866 35.7786C143.444 35.6925 144.01 35.6085 144.556 35.5273C144.694 35.5067 144.83 35.4861 144.966 35.4659C145.101 35.4408 145.244 35.4379 145.331 35.3914C145.428 35.3436 145.503 35.2612 145.542 35.1586C145.59 35.037 145.638 34.9167 145.685 34.7981C145.873 34.3255 146.053 33.8748 146.222 33.4508C146.264 33.3458 146.306 33.242 146.347 33.1402C146.392 33.0322 146.425 32.9544 146.422 32.8633C146.42 32.7747 146.393 32.6878 146.344 32.6174C146.282 32.5391 146.223 32.462 146.164 32.3871C145.708 31.7979 145.331 31.3101 145.043 30.9385C144.82 30.5462 144.528 30.5784 144.539 30.559Z" fill="#263238"/>
<path d="M142.862 37.5351C142.862 37.5277 142.958 37.5133 143.138 37.4927C143.34 37.4577 143.601 37.4119 143.927 37.3555C144.278 37.2966 144.697 37.2265 145.177 37.1458C145.423 37.1042 145.68 37.0745 145.93 36.9641C146.181 36.8619 146.425 36.7004 146.634 36.4862C146.844 36.2699 147.014 36.0041 147.123 35.6893C147.245 35.3725 147.371 35.0437 147.502 34.7038C147.727 34.0146 148.189 33.3109 148.022 32.5227C147.954 32.133 147.774 31.7712 147.491 31.4532C147.221 31.1186 146.946 30.7771 146.665 30.4298C146.525 30.2559 146.383 30.0804 146.241 29.9036C146.1 29.7219 145.958 29.5679 145.779 29.4348C145.428 29.1715 144.984 29.0195 144.533 29.0203C144.31 29.0162 144.081 29.0681 143.847 29.0998C143.615 29.1353 143.384 29.1703 143.156 29.2049C142.701 29.2753 142.253 29.3445 141.813 29.4129C141.397 29.5044 141.017 29.7219 140.738 30.0219C140.598 30.1714 140.482 30.3395 140.392 30.5187C140.307 30.6947 140.236 30.899 140.159 31.0869C140.008 31.4684 139.862 31.8404 139.719 32.2022C139.584 32.568 139.408 32.9079 139.357 33.2503C139.238 33.9532 139.509 34.6079 139.921 35.0586C140.303 35.5435 140.651 35.9839 140.959 36.3745C141.115 36.5669 141.245 36.7568 141.393 36.8977C141.541 37.0415 141.696 37.1536 141.845 37.2364C142.454 37.5623 142.871 37.5038 142.862 37.5351C142.862 37.5388 142.838 37.5417 142.79 37.5442C142.743 37.5471 142.673 37.5458 142.581 37.538C142.397 37.5207 142.121 37.4725 141.805 37.3097C141.647 37.2294 141.482 37.1178 141.322 36.9715C141.159 36.8252 141.024 36.6361 140.865 36.4495C140.549 36.0647 140.194 35.6308 139.802 35.1533C139.373 34.7026 139.055 33.9812 139.18 33.2227C139.236 32.8387 139.413 32.4968 139.542 32.1334C139.682 31.7704 139.826 31.3975 139.974 31.0148C140.052 30.8224 140.114 30.6325 140.21 30.4293C140.307 30.232 140.434 30.0466 140.588 29.8814C140.893 29.5505 141.31 29.3091 141.768 29.2069C142.222 29.127 142.664 29.066 143.124 28.9931C143.352 28.9581 143.582 28.9227 143.814 28.8872C144.043 28.8563 144.279 28.8015 144.533 28.8048C145.032 28.804 145.521 28.9717 145.908 29.263C146.101 29.4051 146.271 29.5926 146.407 29.7701C146.549 29.9473 146.69 30.1232 146.83 30.2975C147.109 30.6461 147.383 30.9888 147.652 31.3242C147.941 31.6497 148.151 32.067 148.218 32.4881C148.292 32.9104 148.238 33.3422 148.086 33.7159C147.943 34.0768 147.803 34.4278 147.669 34.7673C147.534 35.106 147.404 35.4331 147.279 35.7483C147.161 36.0729 146.971 36.3663 146.744 36.5912C146.289 37.0564 145.681 37.2241 145.196 37.2628C144.713 37.3295 144.293 37.3876 143.94 37.4362C143.595 37.4807 143.328 37.5203 143.144 37.5339C142.958 37.5425 142.862 37.5425 142.862 37.5351Z" fill="#263238"/>
<path d="M183.139 32.1564C183.182 32.1935 182.721 32.8123 182.075 33.5144C181.427 34.2176 180.812 34.696 180.774 34.6515C180.734 34.6062 181.276 34.0644 181.917 33.3685C182.558 32.673 183.092 32.1156 183.139 32.1564Z" fill="#263238"/>
<path d="M175.385 29.7875C175.44 29.7685 175.725 30.4562 175.938 31.3457C176.154 32.2352 176.214 32.9764 176.157 32.9842C176.097 32.9933 175.942 32.2743 175.729 31.3959C175.518 30.5171 175.327 29.8069 175.385 29.7875Z" fill="#263238"/>
<path d="M172.302 36.1611C172.278 36.2176 171.581 35.9732 170.713 35.7071C169.846 35.4381 169.132 35.2469 169.145 35.1871C169.155 35.1307 169.898 35.2296 170.777 35.5023C171.657 35.7722 172.325 36.1084 172.302 36.1611Z" fill="#263238"/>
<path d="M171.426 43.308C171.38 43.2701 171.758 42.7436 172.271 42.1322C172.783 41.5208 173.236 41.0561 173.281 41.094C173.327 41.1319 172.949 41.6584 172.436 42.2698C171.924 42.8812 171.471 43.3464 171.426 43.308Z" fill="#263238"/>
<path d="M178.386 45.5656C178.327 45.5747 178.197 44.9798 178.095 44.2369C177.993 43.4937 177.958 42.886 178.017 42.879C178.076 42.872 178.207 43.4669 178.308 44.2077C178.41 44.9484 178.445 45.5566 178.386 45.5656Z" fill="#263238"/>
<path d="M184.264 40.2859C184.243 40.3411 183.697 40.1833 183.045 39.9336C182.393 39.684 181.882 39.4364 181.903 39.3811C181.924 39.3259 182.47 39.4833 183.122 39.7334C183.775 39.9831 184.286 40.2303 184.264 40.2859Z" fill="#263238"/>
<path d="M237.006 95.1402C236.994 95.1402 236.983 94.9272 236.974 94.5313C236.969 94.1049 236.962 93.5326 236.953 92.8235L237.047 92.8833C235.447 93.6566 233.042 95.05 230.751 97.1804L230.584 97.3362L230.571 97.1083C230.556 96.8372 230.539 96.5484 230.523 96.2567C230.355 93.2697 230.216 90.5654 230.125 88.6071C230.085 87.6513 230.053 86.8664 230.029 86.2876C230.023 86.0334 230.018 85.8249 230.014 85.6564C230.013 85.5118 230.016 85.436 230.023 85.4355C230.03 85.4351 230.042 85.5105 230.057 85.6539C230.072 85.822 230.09 86.0296 230.112 86.283C230.153 86.8611 230.209 87.6443 230.276 88.5985C230.406 90.5546 230.569 93.2574 230.737 96.2444C230.753 96.5361 230.77 96.8253 230.785 97.096L230.605 97.0235C232.918 94.8782 235.362 93.4992 236.989 92.7642L237.086 92.7205L237.084 92.8239C237.067 93.533 237.054 94.1053 237.044 94.5313C237.032 94.9276 237.019 95.1402 237.006 95.1402Z" fill="#263238"/>
<path d="M257.722 93.8701C257.724 93.8767 257.643 93.9212 257.483 93.9991C257.303 94.0843 257.071 94.1944 256.783 94.3303C256.147 94.6204 255.268 95.0217 254.192 95.5123C251.975 96.5011 248.952 97.8492 245.612 99.3382C244.181 99.9681 242.808 100.572 241.535 101.133L241.361 101.209L241.393 101.023C241.802 98.7025 241.885 96.6552 241.869 95.1593L241.966 95.2174C241.157 95.6096 240.507 95.9239 240.036 96.1522C239.826 96.2498 239.656 96.3289 239.52 96.392C239.401 96.4447 239.339 96.469 239.336 96.4637C239.333 96.4579 239.39 96.4225 239.503 96.359C239.635 96.2877 239.8 96.1983 240.004 96.0879C240.469 95.8461 241.108 95.5132 241.906 95.0983L242 95.0497L242.003 95.1564C242.05 96.6581 241.991 98.7185 241.593 101.057L241.452 100.948C242.724 100.383 244.095 99.7757 245.524 99.1417C248.874 97.6745 251.906 96.3471 254.13 95.3731C255.218 94.9079 256.106 94.5281 256.749 94.2533C257.043 94.1321 257.281 94.0345 257.465 93.9587C257.63 93.894 257.718 93.8631 257.722 93.8701Z" fill="#263238"/>
<path d="M221.179 184.064H63.7378C60.4126 184.064 57.7168 181.377 57.7168 178.063V69.402C57.7168 66.0875 60.4126 63.4004 63.7378 63.4004H221.179C224.504 63.4004 227.2 66.0875 227.2 69.402V178.063C227.2 181.377 224.505 184.064 221.179 184.064Z" fill="#455A64"/>
<path d="M227.356 186.83H58.4462C54.3836 186.83 51.0897 183.547 51.0897 179.497V176.271H234.712V179.497C234.713 183.547 231.419 186.83 227.356 186.83Z" fill="#455A64"/>
<path d="M222.169 68.1943H62.2578V170.094H222.169V68.1943Z" fill="#263238"/>
<path d="M125.75 175.141L128.029 179.043H160.091L162.207 175.141H125.75Z" fill="#263238"/>
<path d="M217.856 169.768H66.9096C66.1623 169.768 65.5568 169.164 65.5568 168.419V72.992C65.5568 72.2475 66.1623 71.6436 66.9096 71.6436H217.856C218.603 71.6436 219.209 72.2471 219.209 72.992V168.419C219.209 169.164 218.603 169.768 217.856 169.768Z" fill="#EBEBEB"/>
<path d="M219.053 169.911H65.4006L65.5651 78.9766H219.053V169.911Z" fill="#FAFAFA"/>
<path d="M78.4544 75.4332C78.4544 76.1628 77.8877 76.7545 77.1892 76.7545C76.4902 76.7545 75.924 76.1628 75.924 75.4332C75.924 74.7035 76.4902 74.1123 77.1892 74.1123C77.8877 74.1123 78.4544 74.7035 78.4544 75.4332Z" fill="#263238"/>
<path d="M70.7927 75.4332C70.7927 76.1628 70.2264 76.7545 69.5271 76.7545C68.8285 76.7545 68.2618 76.1628 68.2618 75.4332C68.2618 74.7035 68.8285 74.1123 69.5271 74.1123C70.2264 74.1123 70.7927 74.7035 70.7927 75.4332Z" fill="#263238"/>
<path d="M74.7378 75.4332C74.7378 76.1628 74.1715 76.7545 73.4726 76.7545C72.7736 76.7545 72.2073 76.1628 72.2073 75.4332C72.2073 74.7035 72.774 74.1123 73.4726 74.1123C74.1715 74.1123 74.7378 74.7035 74.7378 75.4332Z" fill="#263238"/>
<path d="M225.744 175.14C225.744 175.206 188.127 175.259 141.735 175.259C95.326 175.259 57.7168 175.206 57.7168 175.14C57.7168 175.075 95.326 175.021 141.735 175.021C188.127 175.021 225.744 175.075 225.744 175.14Z" fill="#263238"/>
<path d="M125.885 96.4207C128.412 94.898 131.103 93.7435 133.879 92.9579L135.525 85.0705L148.894 84.8369L150.818 92.6608C153.619 93.3488 156.35 94.4085 158.929 95.8419L165.686 91.4273L175.305 100.685L171.117 107.57C172.646 110.09 173.803 112.773 174.591 115.54L182.503 117.181L182.738 130.507L174.888 132.425C174.198 135.217 173.135 137.938 171.697 140.51L176.125 147.245L166.839 156.834L159.931 152.659C157.403 154.181 154.712 155.335 151.936 156.121L150.289 164.008L136.921 164.243L134.997 156.418C132.196 155.729 129.465 154.67 126.885 153.237L120.129 157.652L110.509 148.394L114.697 141.51C113.17 138.989 112.011 136.307 111.223 133.54L103.311 131.899L103.076 118.574L110.926 116.655C111.616 113.863 112.68 111.142 114.117 108.57L109.689 101.834L118.976 92.2455L125.885 96.4207ZM133.011 114.173C127.509 119.854 127.668 128.905 133.367 134.389C139.066 139.874 148.147 139.714 153.649 134.033C159.151 128.353 158.992 119.302 153.292 113.817C147.593 108.333 138.513 108.492 133.011 114.173Z" fill="#E0E0E0"/>
<path d="M179.279 101.506C179.462 100.507 179.779 99.5514 180.21 98.6582L178.545 96.4317L181.54 92.9404L184.005 94.2341C184.823 93.6709 185.722 93.2111 186.683 92.8749L187.084 90.1281L191.679 89.7705L192.504 92.4213C193.505 92.6047 194.465 92.9198 195.361 93.35L197.594 91.6904L201.097 94.6762L199.799 97.1334C200.364 97.9491 200.826 98.8444 201.162 99.8019L203.918 100.203L204.277 104.783L201.618 105.604C201.434 106.603 201.118 107.559 200.687 108.452L202.352 110.679L199.356 114.17L196.891 112.876C196.073 113.439 195.175 113.899 194.214 114.235L193.812 116.982L189.217 117.339L188.392 114.689C187.391 114.505 186.432 114.19 185.535 113.76L183.302 115.42L179.799 112.434L181.097 109.977C180.532 109.161 180.071 108.266 179.734 107.309L176.978 106.908L176.619 102.328L179.279 101.506ZM185.506 102.894C185.227 106.178 188.099 108.751 191.29 108.201C193.465 107.826 195.171 105.994 195.357 103.801C195.637 100.517 192.764 97.9421 189.572 98.4934C187.397 98.8687 185.692 100.701 185.506 102.894Z" fill="#E0E0E0"/>
<path d="M78.6174 147.506C78.6526 146.309 78.8501 145.137 79.1924 144.018L76.85 141.718L79.7182 137.11L82.8264 138.179C83.6804 137.376 84.6459 136.679 85.7065 136.116L85.6821 132.84L90.979 131.604L92.417 134.549C93.6186 134.584 94.7945 134.781 95.9171 135.123L98.2247 132.788L102.847 135.647L101.774 138.746C102.58 139.596 103.279 140.559 103.844 141.616L107.131 141.592L108.372 146.871L105.417 148.305C105.382 149.502 105.184 150.674 104.841 151.793L107.184 154.094L104.316 158.702L101.207 157.632C100.353 158.435 99.3879 159.131 98.3277 159.695L98.352 162.971L93.0552 164.208L91.6172 161.262C90.4156 161.227 89.2401 161.03 88.1171 160.688L85.809 163.023L81.1863 160.164L82.2593 157.066C81.4537 156.215 80.7552 155.252 80.1898 154.196L76.9029 154.219L75.6621 148.94L78.6174 147.506ZM86.2786 148.992C87.0139 152.121 90.1536 154.062 93.292 153.33C96.43 152.597 98.3781 149.467 97.6428 146.339C96.9074 143.211 93.7678 141.269 90.6293 142.002C87.4913 142.735 85.5433 145.864 86.2786 148.992Z" fill="#E0E0E0"/>
<path d="M88.1275 103.486C88.2659 102.733 88.5044 102.012 88.8293 101.339L87.574 99.6605L89.8325 97.0283L91.6908 98.0035C92.3079 97.5787 92.9854 97.2322 93.7095 96.9788L94.0125 94.9081L97.4767 94.6387L98.0983 96.6369C98.8535 96.7749 99.5768 97.013 100.252 97.3369L101.936 96.0856L104.577 98.3364L103.599 100.189C104.024 100.804 104.372 101.479 104.626 102.201L106.703 102.503L106.974 105.955L104.969 106.575C104.831 107.328 104.592 108.048 104.267 108.722L105.522 110.401L103.264 113.033L101.406 112.058C100.789 112.482 100.112 112.829 99.3875 113.082L99.0845 115.153L95.6204 115.423L94.9987 113.424C94.2436 113.286 93.5206 113.048 92.8448 112.725L91.1609 113.976L88.5201 111.725L89.4985 109.873C89.0728 109.258 88.7251 108.583 88.4709 107.861L86.3935 107.559L86.1228 104.106L88.1275 103.486ZM92.8196 105.163C92.98 107.209 94.7735 108.738 96.8261 108.578C98.8783 108.418 100.412 106.63 100.252 104.584C100.091 102.539 98.298 101.01 96.2453 101.17C94.1931 101.33 92.6593 103.117 92.8196 105.163Z" fill="#EBEBEB"/>
<path d="M179.459 140.668C179.578 140.021 179.783 139.402 180.062 138.824L178.983 137.382L180.923 135.121L182.519 135.959C183.049 135.594 183.631 135.296 184.253 135.079L184.514 133.3L187.489 133.068L188.023 134.785C188.672 134.903 189.293 135.108 189.873 135.386L191.319 134.311L193.588 136.244L192.748 137.836C193.113 138.364 193.412 138.943 193.63 139.564L195.415 139.823L195.647 142.789L193.925 143.321C193.806 143.968 193.601 144.587 193.322 145.166L194.4 146.608L192.461 148.869L190.864 148.031C190.334 148.395 189.753 148.693 189.13 148.911L188.87 150.689L185.894 150.921L185.36 149.204C184.712 149.085 184.091 148.881 183.51 148.603L182.064 149.678L179.796 147.744L180.636 146.153C180.27 145.625 179.972 145.045 179.753 144.425L177.969 144.165L177.737 141.199L179.459 140.668ZM183.489 142.108C183.627 143.866 185.168 145.179 186.931 145.042C188.694 144.905 190.011 143.369 189.873 141.612C189.736 139.854 188.195 138.541 186.432 138.679C184.669 138.816 183.352 140.351 183.489 142.108Z" fill="#EBEBEB"/>
<path d="M142.898 145.138H122.333C117.022 145.138 113.703 139.408 116.359 134.823L126.641 117.071L136.924 99.3191C139.579 94.7348 146.217 94.7348 148.873 99.3191L159.156 117.071L169.438 134.823C172.093 139.408 168.774 145.138 163.463 145.138H142.898Z" fill="#EB4833"/>
<path d="M165.034 136.874C165.034 136.874 165.092 136.98 165.195 137.192C165.274 137.412 165.404 137.75 165.404 138.216C165.415 138.675 165.3 139.265 164.922 139.834C164.731 140.114 164.478 140.388 164.148 140.604C163.816 140.813 163.409 140.959 162.965 140.989C159.461 141.026 154.401 141.02 148.142 141.035C141.883 141.042 134.433 141.05 126.161 141.058C125.127 141.059 124.08 141.06 123.021 141.06C121.906 141.085 120.846 140.295 120.487 139.233C120.298 138.708 120.257 138.125 120.383 137.574C120.419 137.437 120.464 137.303 120.509 137.169C120.569 137.041 120.626 136.909 120.69 136.786L121.086 136.063C121.616 135.097 122.152 134.121 122.691 133.137C124.852 129.201 127.088 125.125 129.379 120.951C131.672 116.776 133.91 112.7 136.073 108.763C137.154 106.795 138.217 104.862 139.257 102.969C139.522 102.496 139.764 102.023 140.045 101.558C140.328 101.088 140.725 100.682 141.202 100.413C142.15 99.8617 143.346 99.8234 144.312 100.274C144.793 100.498 145.225 100.832 145.54 101.253C145.851 101.684 146.066 102.136 146.314 102.574C146.797 103.456 147.273 104.326 147.743 105.183C148.682 106.897 149.594 108.562 150.476 110.172C152.238 113.391 153.879 116.389 155.377 119.127C158.367 124.602 160.786 129.034 162.462 132.102C163.292 133.633 163.937 134.822 164.378 135.635C164.593 136.037 164.758 136.344 164.872 136.556C164.983 136.765 165.034 136.874 165.034 136.874C165.034 136.874 164.97 136.772 164.853 136.567C164.735 136.356 164.564 136.053 164.341 135.656C163.892 134.847 163.235 133.665 162.389 132.142C160.699 129.082 158.259 124.661 155.245 119.2C153.739 116.466 152.09 113.471 150.32 110.257C149.435 108.649 148.52 106.986 147.578 105.273C147.107 104.417 146.629 103.548 146.144 102.667C145.898 102.231 145.672 101.766 145.385 101.371C145.087 100.975 144.681 100.663 144.228 100.453C143.321 100.03 142.192 100.068 141.304 100.586C140.857 100.839 140.485 101.22 140.219 101.663C139.948 102.112 139.7 102.597 139.438 103.067C138.399 104.961 137.338 106.895 136.258 108.864C134.097 112.801 131.859 116.878 129.568 121.054C127.276 125.227 125.038 129.302 122.876 133.238C122.336 134.222 121.8 135.197 121.269 136.163C121.016 136.654 120.692 137.107 120.585 137.621C120.468 138.133 120.505 138.674 120.681 139.164C121.016 140.154 121.991 140.88 123.021 140.859C124.08 140.86 125.127 140.861 126.161 140.861C134.433 140.87 141.883 140.878 148.142 140.885C154.394 140.894 159.455 140.901 162.96 140.906C163.389 140.881 163.784 140.743 164.109 140.543C164.431 140.336 164.68 140.071 164.87 139.8C165.244 139.246 165.365 138.67 165.361 138.217C165.344 137.292 164.995 136.881 165.034 136.874Z" fill="#263238"/>
<path d="M139.571 133.08C139.571 131.263 141.024 129.907 143.094 129.907C145.165 129.907 146.587 131.263 146.587 133.08C146.587 134.868 145.165 136.316 143.094 136.316C141.024 136.316 139.571 134.868 139.571 133.08ZM139.602 114.471H146.587L145.413 128.182H140.745L139.602 114.471Z" fill="white"/>
<path d="M143.882 97.2797C143.866 97.323 143.4 97.0494 142.573 97.0111C141.757 96.9633 140.585 97.2307 139.592 98.0044C138.6 98.7843 137.996 99.7925 137.621 100.526C137.246 101.268 137.07 101.757 137.037 101.745C137.024 101.74 137.052 101.613 137.123 101.389C137.194 101.165 137.311 100.845 137.484 100.461C137.829 99.701 138.426 98.6484 139.46 97.8355C140.499 97.0251 141.736 96.7701 142.583 96.8599C143.009 96.9003 143.345 97.0008 143.561 97.0984C143.779 97.1944 143.887 97.269 143.882 97.2797Z" fill="white"/>
<path d="M135.286 104.812C135.234 104.782 135.437 104.346 135.738 103.839C136.039 103.332 136.325 102.945 136.376 102.975C136.427 103.005 136.225 103.441 135.923 103.948C135.622 104.456 135.337 104.843 135.286 104.812Z" fill="white"/>
<g opacity="0.3">
<path d="M153.217 106.814L121.191 126.486L117.031 133.668L155.479 110.718L153.217 106.814Z" fill="white"/>
</g>
<g opacity="0.3">
<path d="M158.254 115.531L115.803 140.492C115.924 141.058 116.306 141.789 116.725 142.27L159.005 116.827L158.254 115.531Z" fill="white"/>
</g>
<path d="M263.171 162.079C259.77 158.344 254.616 157.144 250.091 158.589L246.134 154.261L245.583 153.647L214.283 119.415C216.164 115.066 215.465 109.837 212.065 106.101C209.173 102.924 205.012 101.579 201.049 102.136L199.52 102.742L204.844 106.306L204.562 112.093L200.258 115.986L194.452 115.704L190.657 111.535L189.089 112.146C188.639 115.638 190.988 120.036 193.548 122.848C196.943 126.578 202.087 127.78 206.607 126.345L238.432 161.151L239.411 162.233L242.427 165.532C240.556 169.876 241.257 175.096 244.653 178.826C247.202 181.627 250.583 183.497 254.1 183.402L255.669 182.791L251.874 178.621L252.156 172.835L256.46 168.942L262.266 169.223L264.492 174.004L266.061 173.393C267.002 169.515 266.062 165.257 263.171 162.079Z" fill="#E0E0E0"/>
<g opacity="0.3">
<path d="M263.171 162.079C259.77 158.344 254.616 157.144 250.091 158.589L246.134 154.261L245.583 153.647L214.283 119.415C216.164 115.066 215.465 109.837 212.065 106.101C209.173 102.924 205.012 101.579 201.049 102.136L199.52 102.742L204.844 106.306L204.562 112.093L200.258 115.986L194.452 115.704L190.657 111.535L189.089 112.146C188.639 115.638 190.988 120.036 193.548 122.848C196.943 126.578 202.087 127.78 206.607 126.345L238.432 161.151L239.411 162.233L242.427 165.532C240.556 169.876 241.257 175.096 244.653 178.826C247.202 181.627 250.583 183.497 254.1 183.402L255.669 182.791L251.874 178.621L252.156 172.835L256.46 168.942L262.266 169.223L264.492 174.004L266.061 173.393C267.002 169.515 266.062 165.257 263.171 162.079Z" fill="black"/>
</g>
<path d="M261.6 162.691C258.199 158.955 253.045 157.755 248.52 159.2L244.563 154.873L244.012 154.258L212.712 120.026C214.593 115.678 213.895 110.448 210.494 106.712C207.602 103.535 203.441 102.191 199.478 102.748L203.273 106.917L202.991 112.704L198.687 116.597L192.881 116.315L189.086 112.145C188.146 116.023 189.085 120.281 191.977 123.458C195.372 127.189 200.516 128.39 205.036 126.956L236.861 161.761L237.84 162.843L240.856 166.142C238.985 170.487 239.687 175.707 243.082 179.437C245.974 182.614 250.135 183.959 254.098 183.402L250.303 179.232L250.584 173.446L254.889 169.553L260.694 169.834L264.489 174.003C265.431 170.126 264.492 165.868 261.6 162.691Z" fill="#E0E0E0"/>
<path d="M261.596 162.691C261.596 162.691 261.776 162.89 262.121 163.287C262.439 163.704 262.929 164.322 263.414 165.233C263.902 166.139 264.382 167.337 264.671 168.823C264.932 170.307 264.992 172.091 264.53 174.014L264.51 174.096L264.454 174.034C263.328 172.801 262.045 171.396 260.652 169.87L260.689 169.887C258.898 169.803 256.951 169.711 254.883 169.613L254.927 169.598C253.583 170.816 252.139 172.124 250.626 173.495L250.648 173.449C250.562 175.247 250.469 177.204 250.372 179.236L250.353 179.184C251.528 180.473 252.82 181.889 254.152 183.35L254.25 183.457L254.106 183.478C252.142 183.758 250.041 183.574 248.055 182.857C246.071 182.147 244.212 180.897 242.771 179.205C241.318 177.527 240.284 175.401 239.915 173.098C239.536 170.802 239.805 168.341 240.768 166.106L240.784 166.205C230.17 154.6 217.976 141.267 204.954 127.028L205.065 127.058C202.874 127.755 200.417 127.854 198.079 127.253C195.74 126.664 193.546 125.353 191.89 123.526C190.498 121.997 189.498 120.131 189.003 118.149C188.504 116.168 188.502 114.079 188.979 112.12L189.027 111.924L189.163 112.073C190.437 113.473 191.702 114.863 192.958 116.243L192.884 116.209C194.834 116.303 196.769 116.397 198.689 116.49L198.613 116.518C200.062 115.208 201.496 113.911 202.918 112.626L202.883 112.698C202.979 110.748 203.073 108.82 203.167 106.912L203.193 106.986C201.914 105.58 200.65 104.191 199.399 102.816L199.268 102.672L199.461 102.646C201.797 102.33 204.19 102.652 206.289 103.581C208.392 104.5 210.2 105.986 211.485 107.798C212.779 109.604 213.572 111.724 213.764 113.866C213.967 116.008 213.611 118.154 212.794 120.063L212.777 119.964C228.289 136.963 240.775 150.646 248.551 159.167L248.502 159.154C250.741 158.445 252.87 158.468 254.618 158.777C256.37 159.123 257.765 159.734 258.793 160.362C259.832 160.984 260.503 161.616 260.958 162.023C261.385 162.463 261.596 162.691 261.596 162.691C261.596 162.691 261.372 162.474 260.941 162.041C260.481 161.641 259.806 161.017 258.768 160.405C257.74 159.786 256.348 159.185 254.606 158.848C252.866 158.549 250.752 158.534 248.531 159.245L248.502 159.254L248.482 159.232C240.691 150.723 228.182 137.062 212.64 120.089L212.6 120.045L212.623 119.99C213.427 118.109 213.776 115.994 213.574 113.885C213.383 111.776 212.6 109.69 211.326 107.913C210.059 106.13 208.278 104.669 206.209 103.765C204.143 102.852 201.788 102.538 199.49 102.849L199.551 102.679C200.803 104.054 202.067 105.442 203.348 106.848L203.377 106.88L203.375 106.923C203.282 108.831 203.188 110.758 203.093 112.709L203.091 112.752L203.059 112.782C201.638 114.068 200.204 115.365 198.755 116.675L198.723 116.704L198.679 116.702C196.759 116.61 194.823 116.516 192.874 116.422L192.83 116.42L192.8 116.387C191.543 115.007 190.278 113.617 189.004 112.218L189.188 112.171C188.719 114.097 188.721 116.151 189.212 118.097C189.699 120.045 190.681 121.879 192.05 123.383C193.678 125.18 195.833 126.467 198.133 127.046C200.43 127.637 202.847 127.54 205.001 126.855L205.066 126.834L205.112 126.885C218.127 141.131 230.314 154.47 240.922 166.08L240.962 166.125L240.939 166.179C239.988 168.381 239.721 170.806 240.092 173.07C240.453 175.34 241.469 177.437 242.901 179.094C244.322 180.765 246.154 182 248.111 182.704C250.07 183.414 252.145 183.599 254.085 183.326L254.038 183.454C252.709 181.991 251.42 180.572 250.246 179.281L250.226 179.259L250.228 179.229C250.329 177.197 250.426 175.24 250.516 173.443L250.517 173.415L250.537 173.397C252.053 172.029 253.5 170.723 254.846 169.509L254.865 169.492L254.89 169.493C256.957 169.596 258.904 169.692 260.695 169.782L260.717 169.783L260.732 169.8C262.12 171.33 263.399 172.739 264.521 173.975L264.445 173.995C264.911 172.086 264.858 170.313 264.605 168.836C264.325 167.357 263.854 166.162 263.376 165.256C262.899 164.345 262.416 163.724 262.104 163.303C261.764 162.9 261.596 162.691 261.596 162.691Z" fill="#263238"/>
<path d="M211.294 122.023C211.307 122.03 211.258 122.139 211.158 122.33C211.061 122.523 210.897 122.79 210.677 123.107C210.237 123.743 209.525 124.558 208.585 125.28C207.642 126 206.669 126.477 205.94 126.737C205.576 126.868 205.275 126.956 205.063 127.001C204.852 127.048 204.734 127.067 204.73 127.053C204.721 127.018 205.181 126.891 205.885 126.597C206.59 126.305 207.531 125.818 208.455 125.112C209.377 124.404 210.091 123.622 210.556 123.018C211.021 122.415 211.263 122.005 211.294 122.023Z" fill="#263238"/>
<path d="M271.151 115.106C271.199 115.14 267.639 120.196 263.2 126.397C258.759 132.601 255.121 137.6 255.073 137.566C255.025 137.531 258.584 132.476 263.025 126.273C267.464 120.071 271.102 115.071 271.151 115.106Z" fill="#263238"/>
<path d="M280.996 144.626C280.987 144.642 280.774 144.518 280.372 144.334C279.97 144.148 279.371 143.921 278.607 143.712C277.844 143.501 276.918 143.305 275.89 143.082C274.859 142.855 273.732 142.606 272.548 142.346C270.179 141.817 268.036 141.328 266.488 140.963C265.742 140.782 265.125 140.633 264.657 140.519C264.226 140.41 263.989 140.343 263.992 140.328C263.996 140.314 264.239 140.353 264.676 140.438C265.148 140.534 265.77 140.661 266.522 140.814C268.079 141.141 270.227 141.608 272.597 142.136C273.779 142.403 274.905 142.657 275.934 142.889C276.959 143.122 277.884 143.334 278.649 143.566C279.415 143.795 280.014 144.048 280.409 144.259C280.607 144.362 280.755 144.452 280.853 144.518C280.951 144.583 281 144.62 280.996 144.626Z" fill="#263238"/>
</g>
<defs>
<clipPath id="clip0_2_5530">
<rect width="292" height="206" fill="white"/>
</clipPath>
</defs>
</svg>
