<svg width="375" height="117" viewBox="0 0 375 117" fill="none" xmlns="http://www.w3.org/2000/svg">
<g clip-path="url(#clip0_26_342)">
<path d="M102.734 29.4005C105.711 27.6896 109.115 26.8341 112.949 26.8341V41.924H109.15C104.633 41.924 101.229 42.9865 98.9355 45.1056C96.6426 47.2267 95.4961 50.924 95.4961 56.1935V84.5275H81.125V27.6544H95.4961V36.4826C97.3438 33.4728 99.7559 31.1115 102.734 29.4005Z" fill="#FEFACD"/>
<path d="M118.662 40.5899C120.955 36.1427 124.068 32.7208 128.004 30.3243C131.939 27.9298 136.336 26.7306 141.195 26.7306C145.437 26.7306 149.152 27.588 152.334 29.297C155.516 31.0079 158.064 33.1642 159.982 35.7638V27.6544H174.457V84.5274H159.982V76.211C158.135 78.881 155.584 81.088 152.334 82.8321C149.082 84.5782 145.336 85.4493 141.094 85.4493C136.303 85.4493 131.939 84.2169 128.006 81.754C124.07 79.2911 120.957 75.8185 118.664 71.3341C116.371 66.8517 115.225 61.7013 115.225 55.8849C115.223 50.1368 116.369 45.0392 118.662 40.5899ZM157.93 47.1075C156.561 44.6095 154.713 42.6934 152.387 41.3595C150.059 40.0255 147.562 39.3575 144.893 39.3575C142.223 39.3575 139.76 40.0079 137.5 41.3087C135.242 42.6095 133.41 44.5079 132.008 47.006C130.604 49.506 129.904 52.4649 129.904 55.8868C129.904 59.3106 130.605 62.3028 132.008 64.8692C133.41 67.4356 135.258 69.4044 137.551 70.7716C139.844 72.1407 142.289 72.8243 144.891 72.8243C147.559 72.8243 150.057 72.1563 152.385 70.8224C154.711 69.4884 156.559 67.5724 157.928 65.0743C159.297 62.5763 159.98 59.5821 159.98 56.0919C159.982 52.5997 159.297 49.6075 157.93 47.1075Z" fill="#FEFACD"/>
<path d="M229.879 33.2501C234.053 37.5275 236.141 43.5001 236.141 51.1642V84.5275H221.768V53.1134C221.768 48.5958 220.639 45.1232 218.379 42.6935C216.121 40.2658 213.041 39.049 209.141 39.049C205.172 39.049 202.039 40.2658 199.748 42.6935C197.455 45.1232 196.309 48.5958 196.309 53.1134V84.5275H181.936V27.6544H196.309V34.7384C198.225 32.2755 200.672 30.3419 203.648 28.9376C206.625 27.5353 209.893 26.8341 213.453 26.8341C220.229 26.8341 225.703 28.9728 229.879 33.2501Z" fill="#FEFACD"/>
<path d="M244.863 40.5899C247.156 36.1427 250.287 32.7208 254.256 30.3243C258.225 27.9298 262.639 26.7305 267.498 26.7305C271.193 26.7305 274.717 27.5352 278.072 29.1427C281.424 30.752 284.094 32.8887 286.08 35.5587V8.56062H300.658V84.5274H286.08V76.1094C284.299 78.9161 281.803 81.1758 278.586 82.8848C275.369 84.5938 271.639 85.4512 267.396 85.4512C262.605 85.4512 258.225 84.2188 254.256 81.7559C250.287 79.293 247.154 75.8204 244.863 71.336C242.57 66.8536 241.424 61.7032 241.424 55.8868C241.424 50.1368 242.57 45.0391 244.863 40.5899ZM284.129 47.1075C282.76 44.6095 280.912 42.6934 278.586 41.3595C276.258 40.0255 273.762 39.3575 271.092 39.3575C268.422 39.3575 265.959 40.0079 263.699 41.3087C261.441 42.6095 259.609 44.5079 258.207 47.0059C256.803 49.5059 256.104 52.4649 256.104 55.8868C256.104 59.3106 256.805 62.3028 258.207 64.8692C259.609 67.4356 261.457 69.4044 263.75 70.7716C266.043 72.1407 268.488 72.8243 271.09 72.8243C273.76 72.8243 276.256 72.1563 278.584 70.8223C280.91 69.4883 282.758 67.5723 284.127 65.0743C285.496 62.5762 286.18 59.5821 286.18 56.0919C286.184 52.5997 285.498 49.6075 284.129 47.1075Z" fill="#FEFACD"/>
<path d="M364.51 27.6544L329.299 111.424H314.002L326.32 83.0899L303.529 27.6544H319.647L334.33 67.3829L349.215 27.6544H364.51Z" fill="#FEFACD"/>
<path d="M67.6211 45.1543C67.6836 45.1407 67.9551 45.0391 68.1367 44.8555C76.252 36.5333 76.9004 24.7657 69.6641 15.7207C64.9258 9.80669 58.5762 7.16411 51.0977 7.11528C41.4883 7.04887 31.8848 7.0352 22.2754 6.99223H11.6074H10.4883V33.8809V33.9258V36.0528L46.1094 35.8321H46.3965C47.8184 35.8321 49.2461 35.8282 50.668 35.8243C51.6055 35.8204 52.5566 35.709 53.4688 35.502C56.9609 34.7129 60.2539 29.8086 57.3125 25.9688C55.6621 23.8145 53.3984 23.2168 50.9043 23.2032C42.5547 23.1583 34.2012 23.1758 25.8516 23.1719C25.209 23.168 24.5664 23.1719 23.9141 23.1719H23.0508V19.6407H24.2891C24.3633 19.6368 24.4336 19.6309 24.5039 19.6309C25.9609 19.6348 27.4238 19.6348 28.8809 19.6407H29.8418C36.8164 19.6582 43.793 19.6797 50.7676 19.7247C52.1719 19.7344 53.6211 19.7598 54.9727 20.0938C59.3945 21.1895 62.709 26.2403 62.1113 30.7598C61.4766 35.5547 57.4043 39.25 52.6035 39.2637C39.2695 39.295 25.9316 39.3086 12.5977 39.2461C12.3145 39.2461 12.0645 39.2598 11.8437 39.2891H10.4883V52.1661L36.3984 52.1231C41.7441 52.1231 47.0898 52.1231 52.4355 52.1309C56.4199 52.1348 59.9824 54.8614 61.5117 58.9649C63.0039 62.9727 62.0879 66.5294 58.9082 69.3614C56.7773 71.2676 54.2578 71.9512 51.4746 71.9551C48.709 71.9551 45.9434 71.9551 43.1836 71.959L43.2051 71.9551L40.2949 71.959L34.9668 71.9629L25.5957 71.9766H25.4727L23.3184 71.9805V71.6368V68.2813H33.2656H35.2773C40.834 68.2852 46.3926 68.2852 51.9492 68.2676C55.5859 68.254 58.1719 65.7833 58.4746 62.168C58.7129 59.2793 56.5586 56.7383 53.1992 56.0782C52.1504 55.875 51.0586 55.8438 49.9883 55.8399C37.4648 55.8125 24.9355 55.8301 12.4082 55.7696C12.1602 55.7676 11.9473 55.7833 11.752 55.8106H10.4844V84.5235H36.2891L36.2832 84.5196C42.0449 84.5176 47.8047 84.4493 53.5566 84.2149C67.7676 83.6426 79.1328 68.3086 72.9492 53.9747C71.6504 50.9629 69.5508 48.295 67.6211 45.1543Z" fill="#FEFACD"/>
</g>
<defs>
<clipPath id="clip0_26_342">
<rect width="375" height="116.359" fill="white"/>
</clipPath>
</defs>
</svg>
