<svg width="146" height="146" viewBox="0 0 146 146" fill="none" xmlns="http://www.w3.org/2000/svg">
<path d="M131.803 87.1979C139.644 54.7219 119.673 22.0387 87.1971 14.1978C54.7212 6.35698 22.038 26.3277 14.1971 58.8036C6.35627 91.2795 26.3269 123.963 58.8029 131.804C91.2788 139.644 123.962 119.674 131.803 87.1979Z" fill="#F5F5F5"/>
<path d="M75.7156 99.6736C75.7035 102.434 73.4549 104.662 70.6944 104.649C67.9339 104.635 65.706 102.388 65.7194 99.6274C65.7316 96.8669 67.9801 94.639 70.7406 94.6524C73.5024 94.6646 75.729 96.9131 75.7156 99.6736Z" fill="#455A64"/>
<path d="M60.7282 93.2492C66.2176 87.4861 75.1388 87.3098 80.7681 92.9852C83.3194 95.5573 87.3142 91.6013 84.7617 89.0281C77.0371 81.2427 64.357 81.2889 56.771 89.2555C54.2768 91.8737 58.2267 95.8759 60.7282 93.2492Z" fill="#455A64"/>
<path d="M43.7449 69.983C51.3455 63.4125 60.4187 59.2766 70.5791 59.251C80.6495 59.2255 90.58 62.8008 97.9556 69.7276C100.591 72.2023 104.594 68.2537 101.949 65.7705C93.5011 57.8355 82.1696 53.5999 70.6046 53.6291C58.9132 53.6582 48.5217 58.4375 39.7878 65.9881C37.0455 68.3595 41.0172 72.341 43.7449 69.983Z" fill="#455A64"/>
<path d="M50.4574 82.8756C55.5528 77.3668 62.6937 73.9167 70.2407 73.7453C77.9933 73.5689 85.4783 76.7612 90.868 82.2992C93.3962 84.8956 97.3886 80.9384 94.8616 78.3421C88.4832 71.7898 79.4465 67.9141 70.2675 68.1233C61.2903 68.3288 52.5904 72.2993 46.5015 78.882C44.0462 81.5343 47.9936 85.5389 50.4574 82.8756Z" fill="#455A64"/>
<path d="M117.925 59.4159C119.4 51.0737 113.833 43.1153 105.491 41.6403C97.1487 40.1654 89.1903 45.7324 87.7153 54.0747C86.2404 62.4169 91.8074 70.3754 100.15 71.8503C108.492 73.3253 116.45 67.7582 117.925 59.4159Z" fill="#FF725E"/>
<path d="M109.147 52.457L106.973 50.2832L97.233 60.0232L99.4068 62.1971L109.147 52.457Z" fill="white"/>
<path d="M99.4222 50.2881L97.2484 52.4619L106.988 62.2019L109.162 60.0281L99.4222 50.2881Z" fill="white"/>
</svg>
