<svg width="62" height="62" viewBox="0 0 62 62" fill="none" xmlns="http://www.w3.org/2000/svg">
<path d="M49.6717 62H12.3283C5.51923 62 0 56.4801 0 49.6718V12.3283C0 5.51923 5.51992 0 12.3283 0H49.6717C56.4808 0 62 5.51992 62 12.3283V49.6718C62 56.4808 56.4801 62 49.6717 62Z" fill="#58264A"/>
<path d="M33.6299 15.6734L31.78 19.2249H12.7434C12.1964 19.2249 11.7529 19.6684 11.7529 20.2153V45.216C11.7529 45.763 12.1964 46.2058 12.7434 46.2058H49.255C49.802 46.2058 50.2455 45.7623 50.2455 45.216V21.0816V19.2249V16.1307C50.2455 15.5838 49.802 15.1403 49.255 15.1403H34.5086C34.1389 15.1403 33.8009 15.3458 33.6299 15.6734Z" fill="#969696"/>
<path d="M49.3162 15.9756H12.7432V44.1325H49.3162V15.9756Z" fill="white"/>
<path d="M33.6299 17.4371L31.78 20.9885H12.7434C12.1964 20.9885 11.7529 21.432 11.7529 21.979V46.9797C11.7529 47.5266 12.1964 47.9694 12.7434 47.9694H49.255C49.802 47.9694 50.2455 47.5259 50.2455 46.9797V22.8453V20.9885V17.8944C50.2455 17.3474 49.802 16.9046 49.255 16.9046H34.5086C34.1389 16.9039 33.8009 17.1095 33.6299 17.4371Z" fill="#EAEAEA"/>
<path d="M11.5898 24.8124V44.16" stroke="#121D30" stroke-width="0.517299" stroke-miterlimit="10"/>
<path d="M49.3858 47.9957H30.0381" stroke="#121D30" stroke-width="0.517299" stroke-miterlimit="10"/>
<path d="M26.1514 41.1418C30.0959 35.8074 35.0682 37.9966 36.329 41.1418" stroke="#121D30" stroke-width="0.517299" stroke-miterlimit="10"/>
<path d="M25.3263 29.9764C25.3263 31.369 24.7035 32.4974 23.9351 32.4974C23.1668 32.4974 22.5439 31.3683 22.5439 29.9764C22.5439 28.5838 23.1668 27.4554 23.9351 27.4554C24.7035 27.4554 25.3263 28.5838 25.3263 29.9764Z" fill="#121D30"/>
<path d="M39.9367 29.9764C39.9367 31.369 39.3138 32.4974 38.5455 32.4974C37.7771 32.4974 37.1543 31.3683 37.1543 29.9764C37.1543 29.3687 37.2729 28.8107 37.4709 28.3755C37.7261 27.8134 38.113 27.4554 38.5455 27.4554C39.3138 27.4554 39.9367 28.5838 39.9367 29.9764Z" fill="#121D30"/>
<path d="M38.0215 26.5912C39.0995 25.4028 39.9686 25.3759 40.2493 27.232L38.0215 26.5912Z" fill="#121D30"/>
<path d="M23.9749 24.6945C22.8969 23.506 22.0271 23.4791 21.7471 25.3352L23.9749 24.6945Z" fill="#121D30"/>
<path d="M44.959 17.5557C44.959 15.6093 46.5371 14.0312 48.4835 14.0312C50.4299 14.0312 52.008 15.6093 52.008 17.5557C52.008 19.5021 50.4299 21.0803 48.4835 21.0803C46.5364 21.0803 44.959 19.5021 44.959 17.5557Z" fill="#2E363D"/>
<path d="M49.9864 18.8662L48.676 17.5557L49.9864 16.2452C50.0389 16.1928 50.0396 16.1059 49.9864 16.0535C49.934 16.0011 49.8478 16.0011 49.7947 16.0535L48.4842 17.364L47.1737 16.0535C47.1213 16.0011 47.0344 16.0011 46.982 16.0535C46.9288 16.1066 46.9295 16.1928 46.982 16.2452L48.2925 17.5557L46.982 18.8662C46.9295 18.9193 46.9295 19.0055 46.982 19.058C47.0344 19.1111 47.1213 19.1111 47.1737 19.058L48.4842 17.7475L49.7947 19.058C49.8478 19.1111 49.934 19.1111 49.9864 19.058C50.0389 19.0049 50.0396 18.9186 49.9864 18.8662Z" fill="white"/>
<path d="M43.1271 35.866H40.0029V38.5361H43.1271V35.866Z" fill="#DEDEDE"/>
<path d="M53.7389 40.2548V35.866H45.3672" stroke="#121D30" stroke-width="0.240317" stroke-miterlimit="10"/>
<path d="M47.6668 45.5678H45.7702V45.3781C45.7702 45.0554 45.8067 44.7933 45.8801 44.5921C45.9532 44.3909 46.0624 44.2069 46.2069 44.0406C46.3518 43.8743 46.677 43.5815 47.1826 43.162C47.4521 42.9425 47.587 42.741 47.587 42.558C47.587 42.3751 47.5328 42.2328 47.4248 42.1312C47.3169 42.0297 47.1528 41.979 46.9333 41.979C46.6972 41.979 46.5017 42.0572 46.347 42.2136C46.1922 42.37 46.0932 42.643 46.0499 43.0323L44.1133 42.7926C44.1799 42.0806 44.4385 41.5074 44.8893 41.0732C45.3402 40.639 46.0316 40.4218 46.9631 40.4218C47.6886 40.4218 48.2743 40.5733 48.72 40.8761C49.3256 41.2853 49.6284 41.831 49.6284 42.5132C49.6284 42.7961 49.5502 43.0688 49.3938 43.3319C49.2375 43.5946 48.918 43.916 48.4355 44.2954C48.0993 44.5616 47.8872 44.7754 47.7991 44.9369C47.711 45.098 47.6668 45.3082 47.6668 45.5678ZM45.7051 46.0721H47.7366V47.8639H45.7051V46.0721Z" fill="#969696"/>
<path opacity="0.11" d="M47.2455 47.167C47.4688 47.3903 47.4688 47.7524 47.2455 47.9754C47.0221 48.1987 46.6604 48.1987 46.437 47.9754C46.2137 47.7521 46.2137 47.39 46.437 47.167C46.66 46.9436 47.0221 46.9436 47.2455 47.167Z" fill="white"/>
<path d="M59.5289 56.4887C58.8938 57.1238 57.8637 57.1238 57.2286 56.4887L52.4863 51.7465L54.7866 49.4461L59.5289 54.1884C60.164 54.8235 60.164 55.8536 59.5289 56.4887Z" fill="#DEDEDE"/>
<path d="M59.5289 54.1884C60.164 54.8235 60.164 55.8533 59.5289 56.4887C58.8938 57.1238 57.8637 57.1238 57.2286 56.4887L52.4863 51.7465" stroke="#121D30" stroke-width="0.240317" stroke-miterlimit="10"/>
<path d="M54.9162 49.9296L52.9697 51.8762C52.7204 52.1255 52.3125 52.1255 52.0632 51.8762L50.852 50.665C50.6027 50.4157 50.6027 50.0078 50.852 49.7585L52.7986 47.812C53.0479 47.5627 53.4558 47.5627 53.705 47.812L54.9162 49.0232C55.1655 49.2725 55.1655 49.6803 54.9162 49.9296Z" fill="#5C5C5C"/>
<path d="M42.2458 38.9895C39.4565 41.6596 39.3597 46.1013 42.0298 48.8905C44.6999 51.6798 49.1416 51.7766 51.9309 49.1065C54.7202 46.4361 54.8169 41.9947 52.1469 39.2054C49.4768 36.4162 45.0351 36.3191 42.2458 38.9895ZM50.8511 40.4461C52.837 42.5209 52.7649 45.8244 50.6905 47.8104C48.6158 49.7964 45.3122 49.7243 43.3263 47.6499C41.3403 45.5754 41.4121 42.2716 43.4868 40.2856C45.5612 38.2993 48.8648 38.3714 50.8511 40.4461Z" fill="#DEDEDE" stroke="#1D1615" stroke-width="0.240317" stroke-miterlimit="10"/>
<path opacity="0.19" d="M47.0156 49.5426C50.0903 49.5426 52.5829 47.05 52.5829 43.9752C52.5829 40.9005 50.0903 38.4079 47.0156 38.4079C43.9408 38.4079 41.4482 40.9005 41.4482 43.9752C41.4482 47.05 43.9408 49.5426 47.0156 49.5426Z" fill="white"/>
<path opacity="0.11" d="M46.3924 43.3645C47.2239 44.196 47.2239 45.5444 46.3924 46.3759C45.561 47.2074 44.2129 47.2074 43.3814 46.3759C42.5499 45.5444 42.5499 44.1963 43.3814 43.3645C44.2126 42.533 45.561 42.533 46.3924 43.3645Z" fill="white"/>
<path opacity="0.11" d="M49.5754 41.416C50.0352 41.8758 50.3444 42.4289 50.5053 43.0143L51.5191 42.4603C51.2929 41.7864 50.9126 41.153 50.3758 40.6159C48.5206 38.7607 45.5125 38.7607 43.6572 40.6159L44.4573 41.416C45.8704 40.0026 48.1621 40.0026 49.5754 41.416Z" fill="white"/>
<path d="M42.3179 39.2772C39.7235 41.872 39.7235 46.0785 42.3179 48.673C44.9124 51.2677 49.1192 51.2677 51.7137 48.673C54.3081 46.0785 54.3081 41.8717 51.7137 39.2772C49.1192 36.6827 44.9127 36.6827 42.3179 39.2772ZM50.9527 47.912C48.7786 50.086 45.2533 50.086 43.0792 47.912C40.9052 45.7379 40.9052 42.2126 43.0792 40.0385C45.2533 37.8645 48.7786 37.8645 50.9527 40.0385C53.1267 42.2129 53.1267 45.7379 50.9527 47.912Z" fill="#5C5C5C"/>
<g opacity="0.11">
<path d="M50.5237 44.8702C50.3686 45.4799 50.0533 46.0573 49.5762 46.5345L50.3763 47.3345C51.0751 46.6357 51.5106 45.7731 51.683 44.8702H50.5237Z" fill="white"/>
</g>
</svg>
