<svg width="20" height="20" viewBox="0 0 20 20" fill="none" xmlns="http://www.w3.org/2000/svg">
<path d="M12.0832 16.2502C12.0832 17.2857 11.1971 18.1252 10.1041 18.1252C9.01102 18.1252 8.12491 17.2857 8.12491 16.2502M4.46466 7.72291C4.46466 4.60835 6.98952 2.0835 10.1041 2.0835C13.2186 2.0835 15.7435 4.60835 15.7435 7.72291V11.606C15.7435 12.4111 15.925 13.2058 16.2745 13.9312L17.0405 15.5207C17.1567 15.762 16.9809 16.0418 16.7131 16.0418H3.49508C3.22725 16.0418 3.05143 15.762 3.1677 15.5207L3.93364 13.9312C4.28316 13.2058 4.46466 12.4111 4.46466 11.606V7.72291Z" stroke="#1C443A" stroke-width="1.25"/>
</svg>
