<svg width="26" height="18" viewBox="0 0 26 18" fill="none" xmlns="http://www.w3.org/2000/svg">
<g clip-path="url(#clip0_8_73)">
<mask id="mask0_8_73" style="mask-type:luminance" maskUnits="userSpaceOnUse" x="0" y="0" width="26" height="18">
<path d="M1.52588e-05 0H25.0973V18H1.52588e-05V0Z" fill="white"/>
</mask>
<g mask="url(#mask0_8_73)">
<path fill-rule="evenodd" clip-rule="evenodd" d="M-1.56857 0H26.6657V18H-1.56857V0Z" fill="#199D00"/>
<path fill-rule="evenodd" clip-rule="evenodd" d="M5.54692 5.10224C5.51431 5.52274 5.47523 6.26278 5.84885 6.33868C6.30079 6.38024 6.05157 5.60722 6.21517 5.46705C6.24608 5.39779 6.3031 5.39744 6.30781 5.48481V6.14047C6.30369 6.35373 6.45027 6.41652 6.56412 6.46057C6.68265 6.45181 6.76176 6.45561 6.8082 6.56586L6.86378 7.70004C6.86378 7.70004 7.13863 7.77527 7.15171 7.06209C7.16484 6.64338 7.06422 6.29287 7.12322 6.21138C7.12528 6.13133 7.23219 6.12655 7.3063 6.16557C7.42446 6.24524 7.47707 6.34364 7.66067 6.3043C7.93999 6.23068 8.10793 6.10074 8.11205 5.89564C8.09572 5.7007 8.07286 5.50576 7.98455 5.31082C7.99687 5.27534 7.93062 5.18352 7.9429 5.14804C7.99312 5.22324 8.06951 5.21698 8.08686 5.14804C8.03933 4.99824 7.96554 4.8547 7.84595 4.79254C7.74713 4.70929 7.60247 4.72631 7.54949 4.89998C7.52497 5.10009 7.62493 5.33785 7.77732 5.53167C7.80967 5.6074 7.85514 5.73322 7.83514 5.84653C7.75408 5.89079 7.67298 5.87233 7.60504 5.80374C7.60504 5.80374 7.3827 5.64427 7.3827 5.60884C7.4417 5.24757 7.39578 5.20661 7.3631 5.10635C7.34024 4.96794 7.27156 4.92357 7.21594 4.82904C7.16032 4.77264 7.08506 4.77264 7.04911 4.82904C6.9508 4.99198 6.99664 5.34172 7.06763 5.49841C7.11896 5.64248 7.19734 5.7329 7.16028 5.7329C7.1298 5.81432 7.06675 5.79552 7.02087 5.70154C6.95536 5.50731 6.94224 5.21748 6.94224 5.08701C6.9226 4.92519 6.90099 4.58006 6.78963 4.49238C6.72169 4.40393 6.621 4.44706 6.58581 4.52782C6.5785 4.68841 6.57773 4.84897 6.59666 4.99698C6.67302 5.25654 6.69702 5.48481 6.73408 5.75062C6.74437 6.10668 6.51879 5.9051 6.52909 5.72858C6.58111 5.49929 6.56762 5.13838 6.52137 5.0469C6.48475 4.95542 6.44148 4.93285 6.35237 4.9479C6.2816 4.94379 6.09951 5.13391 6.04837 5.4493C6.04837 5.4493 6.00477 5.61165 5.9862 5.75579C5.9612 5.91867 5.84908 6.03363 5.7704 5.73287C5.70246 5.5143 5.6607 4.97616 5.54688 5.1022L5.54692 5.10224Z" fill="white"/>
<path fill-rule="evenodd" clip-rule="evenodd" d="M6.77424 6.82751C6.37543 7.01394 5.98974 7.18786 5.59744 7.36804C5.61178 7.11294 6.15694 6.65246 6.5287 6.646C6.77067 6.65246 6.70987 6.73561 6.77424 6.82751Z" fill="white"/>
<path fill-rule="evenodd" clip-rule="evenodd" d="M6.56908 7.1803C5.94889 8.70914 8.02142 8.92215 8.25303 7.24292C8.27483 7.17401 8.36222 7.1051 8.37751 7.21785C8.32946 8.73829 6.77441 8.84277 6.51015 8.36443C6.44468 8.25169 6.42497 8.00106 6.41843 7.85066C6.37909 7.55204 6.21535 7.6669 6.18913 7.96344C6.16288 8.12843 6.16947 8.17445 6.16947 8.33315C6.25244 9.53405 8.25527 9.0182 8.58067 8.02613C8.7532 7.47681 8.55225 7.07167 8.64614 7.07374C8.84492 7.27842 9.12223 7.10088 9.1834 7.02987C9.20965 6.99436 9.2752 6.97144 9.32104 7.01735C9.47608 7.12395 9.74915 7.07371 9.80592 6.88576C9.83871 6.70197 9.86492 6.51191 9.87147 6.31563C9.74474 6.35325 9.65089 6.37825 9.64214 6.42842L9.61592 6.59129C9.60504 6.64354 9.49574 6.64558 9.49144 6.57874C9.44339 6.36988 9.24465 6.34274 9.12451 6.66649C9.04366 6.72914 8.89738 6.74169 8.88205 6.64772C8.90168 6.43049 8.80996 6.40124 8.62655 6.50358C8.56754 6.07334 8.50861 5.66194 8.4496 5.23166C8.52607 5.22955 8.596 5.28383 8.66592 5.2003C8.58938 4.9727 8.4278 4.50692 8.33821 4.47348C8.29454 4.42338 8.25733 4.45471 8.20064 4.46722C8.10454 4.49647 8.01499 4.57586 8.04333 4.7304C8.15693 5.39036 8.23119 5.89372 8.34479 6.55371C8.36222 6.63099 8.29454 6.73326 8.20719 6.72281C8.05866 6.62677 8.02164 6.43256 7.76823 6.44086C7.58475 6.44297 7.37501 6.63302 7.34887 6.81689C7.31828 6.963 7.30733 7.1217 7.3488 7.24917C7.47773 7.39743 7.6328 7.38287 7.7682 7.34944C7.87959 7.3056 7.97128 7.19908 8.01061 7.22411C8.03686 7.25547 8.01712 7.60626 7.4864 7.87573C7.16539 8.01354 6.90981 8.04493 6.77227 7.79427C6.68709 7.63761 6.77882 7.04238 6.56908 7.18027V7.1803Z" fill="white"/>
<path fill-rule="evenodd" clip-rule="evenodd" d="M9.19979 5.62604C9.32427 5.58217 9.91406 4.93684 9.91406 4.93684C9.88344 4.91177 9.85612 4.89296 9.82554 4.8679C9.79274 4.84076 9.79605 4.81362 9.82554 4.78644C9.97186 4.70502 9.92491 4.52642 9.84848 4.445C9.72179 4.39065 9.6115 4.40844 9.53066 4.4481C9.42802 4.5421 9.40405 4.69243 9.48489 4.78644C9.56356 4.82195 9.64213 4.8982 9.58966 4.93997C9.34839 5.18641 8.68767 5.61145 8.76414 5.62604C8.78046 5.64692 9.18674 5.64587 9.19979 5.62604ZM5.63837 7.91014C5.4172 8.24708 5.39794 8.75048 5.51999 8.90057C5.58484 8.97148 5.69138 9.00252 5.7702 8.98033C5.90917 8.92268 5.96998 8.65345 5.937 8.55494C5.8906 8.48555 5.8541 8.47454 5.80778 8.5336C5.70999 8.72345 5.6694 8.59319 5.66083 8.48709C5.64583 8.28589 5.66565 8.10058 5.68848 7.95384C5.71282 7.80344 5.68811 7.84943 5.63837 7.91014ZM15.0897 7.37049C14.8758 6.9303 14.5797 6.49532 14.4856 6.32822C14.3914 6.16105 13.6803 5.17414 13.5756 5.06315C13.3446 4.80064 13.9507 5.17249 13.4989 4.65126C13.3266 4.50994 13.3166 4.50132 13.1737 4.38601C13.1015 4.33707 12.9254 4.24767 12.8943 4.39585C12.8786 4.52653 12.887 4.59737 12.9099 4.70618C12.9276 4.77871 13.0381 4.90017 13.0924 4.97055C13.8139 5.89798 14.4536 6.83454 15.0706 8.0121C15.168 7.9678 15.1467 7.44415 15.0897 7.37049H15.0897Z" fill="white"/>
<path fill-rule="evenodd" clip-rule="evenodd" d="M14.1506 8.84305C14.1086 8.88819 14.2544 9.08127 14.444 9.08106C14.761 9.0459 15.0401 8.87561 15.2985 8.42733C15.3676 8.32278 15.4891 8.09918 15.4926 7.92576C15.5168 6.90886 15.4394 6.11756 15.2801 5.38255C15.2699 5.31097 15.2761 5.22681 15.2888 5.20537C15.3093 5.18192 15.3789 5.20547 15.4159 5.14757C15.4701 5.09466 15.272 4.65644 15.159 4.48765C15.119 4.41228 15.105 4.36193 15.0386 4.49651C14.9688 4.60585 14.9219 4.79667 14.9274 4.97499C15.0786 5.97634 15.1251 6.8523 15.2239 7.85365C15.232 7.95047 15.2171 8.0912 15.1498 8.14731C14.9008 8.39594 14.5414 8.70197 14.1506 8.84305ZM18.4332 8.83778C18.2057 8.96353 18.2054 9.1082 18.3894 9.11344C18.7064 9.07825 19.081 9.05308 19.3393 8.68C19.4085 8.57544 19.4906 8.29275 19.4942 8.11933C19.5183 7.10243 19.4803 6.34341 19.3209 5.60847C19.3108 5.53685 19.2776 5.37208 19.2903 5.3506C19.3108 5.30025 19.4142 5.35608 19.4511 5.29814C19.5053 5.24527 19.1836 4.85001 19.0706 4.68122C19.0306 4.60588 19.0166 4.55554 18.9502 4.69008C18.8804 4.79945 18.856 4.99566 18.8839 5.16859C19.0521 6.2559 19.1772 7.07276 19.203 8.03646C19.1885 8.12794 19.1849 8.17726 19.1401 8.29251C19.0408 8.41415 18.9309 8.5662 18.8278 8.63971C18.7248 8.71319 18.5049 8.78336 18.4332 8.83781V8.83778Z" fill="white"/>
<path fill-rule="evenodd" clip-rule="evenodd" d="M18.6042 7.86304C18.6016 7.60875 18.608 7.38917 18.5992 7.19953C18.5905 7.00986 18.5554 6.85542 18.4868 6.72081C18.4218 6.57646 18.4622 6.46048 18.4317 6.3067C18.4012 6.153 18.4087 5.9228 18.3626 5.74041C18.35 5.66918 18.3113 5.44105 18.3233 5.41918C18.342 5.36828 18.4136 5.42077 18.4485 5.36177C18.5008 5.30721 18.267 4.72868 18.1484 4.56348C18.1058 4.48941 18.0283 4.51479 17.9328 4.6352C17.8442 4.71448 17.8771 4.89522 17.9109 5.06713C18.1384 6.20236 18.3081 7.22987 18.271 8.31054C18.2597 8.40244 18.6066 8.0365 18.6042 7.86304ZM16.9234 6.45503C16.7803 6.45253 16.4806 6.18876 16.3932 6.03421C16.3601 5.94558 16.3813 5.8591 16.4105 5.80843C16.4634 5.77549 16.545 5.73847 16.6059 5.77398C16.6059 5.77398 16.6691 5.8585 16.6568 5.86926C16.735 5.90504 16.7681 5.88444 16.7761 5.85407C16.7814 5.80084 16.753 5.76913 16.7526 5.71052C16.7858 5.55162 16.9757 5.5269 17.0473 5.62826C17.0996 5.69003 17.1188 5.82134 17.1267 5.90997C17.1259 5.95525 17.0492 5.90213 17.0057 5.91302C16.9621 5.92392 16.9516 5.97202 16.9482 6.01551C16.9403 6.13075 16.9261 6.31567 16.9234 6.45499V6.45503ZM14.2827 8.14499C14.3221 7.79947 14.2681 7.18413 14.2645 6.98026C14.25 6.49862 14.1678 5.56832 14.1287 5.41289C14.0845 5.11993 14.2546 5.44502 14.2311 5.27473C14.1759 4.98219 14.0062 4.78388 13.8068 4.51592C13.7424 4.42873 13.7446 4.41097 13.6453 4.53729C13.5354 4.77565 13.6303 4.93965 13.6587 5.12531C13.8025 5.73021 13.8865 6.28677 13.9255 6.83697C13.9646 7.38716 13.9766 7.98208 13.9409 8.56156C14.0487 8.5656 14.2221 8.39481 14.2827 8.14499Z" fill="white"/>
<path fill-rule="evenodd" clip-rule="evenodd" d="M19.0914 7.59165C18.839 7.18683 18.4583 6.74836 18.3566 6.58534C18.2549 6.42228 17.3946 5.36085 17.285 5.25432C16.9703 4.93816 17.4294 5.20286 17.2248 4.95866C17.0517 4.77697 17.0012 4.71995 16.8532 4.61068C16.7789 4.5648 16.7339 4.47716 16.7095 4.6265C16.6998 4.75771 16.6896 4.90951 16.6989 5.02008C16.6984 5.08157 16.7653 5.19705 16.8228 5.26512C17.5858 6.1616 18.418 7.07696 19.088 8.22773C19.1833 8.17939 19.1516 7.66288 19.0914 7.59165Z" fill="white"/>
<path fill-rule="evenodd" clip-rule="evenodd" d="M7.64423 6.84473C7.62607 6.87517 7.58563 6.91462 7.5992 6.95544C7.62751 6.99214 7.65015 6.99959 7.69736 7.0016C7.73831 7.0016 7.79551 7.01084 7.80783 6.98774C7.82989 6.96454 7.84662 6.91712 7.82827 6.8724C7.78562 6.77044 7.66651 6.80841 7.64423 6.84473Z" fill="#1BA400"/>
<path fill-rule="evenodd" clip-rule="evenodd" d="M16.1573 12.7454C16.4947 12.7573 16.7156 12.7601 17.0157 12.7943C17.0157 12.7943 17.2745 12.7698 17.3669 12.7565C17.7575 12.7208 17.7748 13.29 17.7748 13.29C17.7705 13.6238 17.6358 13.6413 17.4638 13.6766C17.3655 13.6885 17.3139 13.6203 17.2622 13.5476C17.1974 13.5736 17.1093 13.5773 17.0025 13.5631C16.8619 13.5547 16.7213 13.5552 16.5807 13.5468C16.4313 13.5342 16.3519 13.5617 16.2025 13.5491C16.1717 13.5954 16.1317 13.6594 16.0403 13.6388C15.9643 13.6307 15.8743 13.4267 15.9008 13.2715C15.9557 13.1603 15.9406 13.1961 15.9349 13.1472C14.5553 13.1136 13.1625 13.0548 11.8093 13.0716C10.7505 13.0758 9.70479 13.1178 8.65913 13.1598C8.10117 13.1514 7.67501 13.0674 7.38065 12.6556C7.40701 12.6556 8.80412 12.7312 9.21275 12.706C9.96842 12.6976 10.6582 12.6388 11.427 12.6178C12.9428 12.643 14.4454 12.643 15.9611 12.7438C15.8161 12.649 15.8109 12.4249 16.034 12.3702C16.053 12.3577 16.0628 12.4816 16.0962 12.4792C16.2747 12.4664 16.1964 12.6977 16.1572 12.7454L16.1573 12.7454ZM10.0719 4.7558C9.84218 5.38366 10.2035 6.07044 10.454 6.00357C10.6347 6.07511 10.7498 5.74633 10.8238 5.38612C10.8744 5.28501 10.9127 5.27425 10.9386 5.32621C10.932 5.80522 10.9746 5.91132 11.1034 6.05672C11.3907 6.26868 11.6283 6.0838 11.647 6.06594L11.8706 5.85205C11.9204 5.80195 11.9867 5.79903 12.057 5.84315C12.1254 5.90256 12.1158 6.00515 12.2621 6.07631C12.3852 6.12342 12.6484 6.08721 12.7095 5.98574C12.7915 5.85124 12.8112 5.80504 12.8492 5.75403C12.9078 5.67946 13.0077 5.71262 13.0077 5.73617C12.9983 5.77776 12.9397 5.81938 12.9797 5.89427C13.0494 5.94422 13.0655 5.91209 13.1067 5.90098C13.2524 5.83436 13.3618 5.53121 13.3618 5.53121C13.3683 5.41843 13.3022 5.42774 13.2593 5.45098C13.2034 5.48368 13.1998 5.49412 13.1438 5.52681C13.0726 5.53694 12.9343 5.58212 12.866 5.48094C12.7962 5.35926 12.7953 5.18949 12.7419 5.0668C12.7419 5.05787 12.6494 4.87351 12.7355 4.86169C12.779 4.86943 12.8718 4.89291 12.8865 4.81821C12.9321 4.74536 12.7889 4.53914 12.6908 4.43497C12.6057 4.3456 12.4878 4.33484 12.3739 4.42607C12.2942 4.49621 12.3057 4.57457 12.29 4.64886C12.2697 4.73415 12.2741 4.83909 12.3646 4.9519C12.4442 5.10192 12.5894 5.29514 12.5417 5.56682C12.5417 5.56682 12.4569 5.69525 12.3091 5.67844C12.2475 5.66561 12.1477 5.64062 12.0943 5.26381C12.0539 4.97862 12.1039 4.57956 11.9773 4.3925C11.9315 4.27954 11.8982 4.17045 11.7867 4.36367C11.7568 4.43954 11.6283 4.55467 11.7215 4.79149C11.7978 4.9416 11.8288 5.18594 11.7942 5.45784C11.7414 5.53508 11.7296 5.56123 11.6604 5.63851C11.5631 5.73853 11.4575 5.713 11.3767 5.67563C11.3011 5.62694 11.242 5.60177 11.2075 5.44708C11.2137 5.20053 11.2281 4.7969 11.181 4.7113C11.1115 4.57869 10.9969 4.62664 10.9479 4.66672C10.7128 4.87235 10.5966 5.2193 10.5256 5.4956C10.4604 5.69694 10.3909 5.63924 10.3421 5.558C10.2234 5.45155 10.2153 4.61897 10.0719 4.75587V4.7558Z" fill="white"/>
<path fill-rule="evenodd" clip-rule="evenodd" d="M10.7637 6.1207C10.868 6.05003 10.8193 6.00068 10.9752 6.14981C11.1705 6.4691 11.2961 6.88264 11.3149 7.249C11.3067 7.33928 11.3732 7.39641 11.4036 7.3768C11.4217 7.16484 11.9607 6.86953 12.4549 6.82635C12.5305 6.81064 12.4937 6.67212 12.5061 6.6015C12.4764 6.33912 12.6603 6.10024 12.9179 6.08118C13.2685 6.13075 13.3853 6.30977 13.3912 6.58304C13.3533 7.10764 12.7818 7.19659 12.4607 7.23842C12.4115 7.25625 12.391 7.27797 12.4607 7.30367L13.8061 7.30951L13.8747 7.34741C13.883 7.3781 13.8551 7.3525 13.802 7.43614C13.7489 7.51978 13.6706 7.71264 13.6665 7.84142C13.2657 7.96468 12.8511 8.01868 12.4297 8.06741C12.2834 8.13821 12.2108 8.23253 12.2409 8.33871C12.2901 8.45648 12.6144 8.57411 12.6144 8.5797C12.6759 8.61662 12.7488 8.70282 12.5969 8.87941C11.9407 8.85181 11.4322 8.58473 11.2561 8.20778C11.2031 8.16844 11.1459 8.20757 11.1093 8.25851C10.8531 8.57436 10.601 8.85877 10.1642 9.00977C9.9037 9.072 9.63705 8.97155 9.5111 8.80843C9.4268 8.71558 9.43 8.61307 9.39904 8.59085C9.25824 8.6504 8.0467 9.14269 8.20026 8.91337C8.49511 8.61155 9.0056 8.38989 9.45643 8.09202C9.48897 7.99221 9.54812 7.6546 9.72616 7.54463C9.73646 7.54544 9.69797 7.74291 9.70183 7.82616C9.70385 7.89451 9.69657 7.9213 9.71223 7.90372C9.74264 7.88516 10.2897 7.47411 10.332 7.34807C10.3853 7.27579 10.3479 7.09273 10.3479 7.08718C10.2454 6.83434 10.1014 6.81285 10.0481 6.68724C10.0001 6.52035 10.0218 6.32988 10.1216 6.27679C10.2102 6.19991 10.315 6.2094 10.4118 6.29342C10.5223 6.38806 10.6204 6.57302 10.6488 6.7108C10.6298 6.76529 10.5042 6.67459 10.4607 6.70166C10.5378 6.77802 10.5738 6.86612 10.6016 6.97391C10.6729 7.2625 10.6512 7.37469 10.5794 7.5613C10.3366 8.04962 10.0262 8.19534 9.75462 8.37625C9.74738 8.37871 9.74256 8.50018 9.84469 8.56585C9.87991 8.60122 10.0216 8.61936 10.1881 8.56831C10.51 8.40048 10.8441 8.09128 11.01 7.74682C11.0581 7.48627 10.9914 7.20998 10.9205 6.96902C10.8138 6.73354 10.6881 6.39731 10.6881 6.39175C10.6839 6.24491 10.6964 6.19396 10.7638 6.1207H10.7637ZM7.2414 4.76261C7.39625 4.83324 7.68738 4.80318 7.67506 4.5644C7.67506 4.54331 7.66944 4.47187 7.66723 4.4525C7.63561 4.38212 7.5494 4.39952 7.52985 4.47219C7.52371 4.49599 7.5408 4.53476 7.51827 4.54672C7.50533 4.5592 7.45584 4.55185 7.4579 4.4859C7.4579 4.46487 7.44172 4.4423 7.43195 4.42894C7.42217 4.42283 7.41595 4.42114 7.39823 4.42114C7.37662 4.42195 7.37698 4.42733 7.36515 4.44469C7.36011 4.46234 7.3532 4.4796 7.3532 4.49964C7.35048 4.52313 7.34121 4.5315 7.32316 4.53498C7.30298 4.53498 7.30754 4.53709 7.29118 4.52714C7.28147 4.51694 7.26934 4.51307 7.26934 4.49574C7.26934 4.47778 7.26508 4.4487 7.25941 4.43686C7.25085 4.42603 7.23706 4.42103 7.22155 4.4172C7.13699 4.41748 7.13111 4.50973 7.136 4.54475C7.12964 4.55136 7.12607 4.71684 7.2414 4.76261Z" fill="white"/>
<path fill-rule="evenodd" clip-rule="evenodd" d="M11.7806 6.59988C11.9354 6.67051 12.304 6.62987 12.2142 6.40167C12.2142 6.38058 12.2086 6.30911 12.2064 6.28977C12.1748 6.21939 12.0886 6.23679 12.069 6.30946C12.0629 6.33326 12.08 6.37204 12.0575 6.38399C12.0445 6.39647 11.995 6.38912 11.9971 6.32317C11.9971 6.30214 11.9809 6.27957 11.9711 6.26621C11.9614 6.2601 11.9551 6.25841 11.9374 6.25841C11.9158 6.25922 11.9162 6.2646 11.9043 6.28196C11.8993 6.29961 11.8924 6.31687 11.8924 6.33691C11.8897 6.3604 11.8804 6.36877 11.8623 6.37225C11.8422 6.37225 11.8467 6.37436 11.8304 6.36441C11.8207 6.35421 11.8085 6.35034 11.8085 6.33301C11.8085 6.31505 11.8043 6.28597 11.7986 6.27412C11.79 6.2633 11.7762 6.2583 11.7607 6.25447C11.6762 6.25475 11.6703 6.347 11.6752 6.38202C11.6688 6.38863 11.6653 6.55411 11.7806 6.59988ZM14.4275 5.83945C14.5824 5.91008 14.8735 5.88002 14.8612 5.64124C14.8612 5.62015 14.8556 5.54871 14.8534 5.52934C14.8218 5.45896 14.7356 5.47636 14.716 5.54903C14.7099 5.57283 14.727 5.61161 14.7044 5.62356C14.6915 5.63604 14.642 5.62869 14.644 5.56274C14.644 5.54171 14.6279 5.51914 14.6181 5.50578C14.6083 5.49967 14.6021 5.49798 14.5844 5.49798C14.5628 5.49879 14.5631 5.50417 14.5513 5.52154C14.5463 5.53918 14.5393 5.55644 14.5393 5.57648C14.5366 5.59997 14.5274 5.60834 14.5093 5.61182C14.4891 5.61182 14.4937 5.61393 14.4773 5.60398C14.4676 5.59378 14.4555 5.58991 14.4555 5.57258C14.4555 5.55462 14.4512 5.52554 14.4456 5.5137C14.437 5.50287 14.4232 5.49787 14.4077 5.49404C14.3231 5.49432 14.3173 5.58657 14.3221 5.62159C14.3158 5.6282 14.3122 5.79368 14.4275 5.83945ZM15.7985 7.74949C15.5286 8.04034 15.6476 8.52135 15.7085 8.62499C15.7975 8.79521 15.8692 8.90437 16.0423 8.98857C16.2 9.09956 16.3228 9.0302 16.3906 8.95247C16.5493 8.79521 16.5511 8.39369 16.6256 8.31414C16.6779 8.16799 16.8094 8.19295 16.8733 8.25771C16.9352 8.34279 17.0081 8.39763 17.099 8.44397C17.247 8.56884 17.4238 8.59162 17.5979 8.47786C17.7169 8.41402 17.7942 8.33154 17.8639 8.16782C17.9413 7.96989 17.8982 7.05519 17.8827 6.51308C17.8767 6.47054 17.7289 5.76759 17.7289 5.75975C17.7289 5.75188 17.7093 5.40098 17.6931 5.31738C17.6902 5.28346 17.6814 5.27372 17.7186 5.27801C17.758 5.30975 17.7634 5.31176 17.7881 5.3222C17.8278 5.32916 17.8635 5.26437 17.8394 5.20478L17.4701 4.55323C17.4404 4.52531 17.4021 4.49466 17.3551 4.5611C17.3102 4.59875 17.2623 4.66692 17.2638 4.75457C17.2747 4.90897 17.3031 5.06605 17.314 5.22049L17.4618 6.01334C17.5084 6.57851 17.52 7.04106 17.5665 7.60623C17.56 7.84554 17.4822 8.05419 17.4092 8.08428C17.4092 8.08428 17.2982 8.14581 17.2238 8.07785C17.1696 8.05707 16.9529 7.73244 16.9529 7.73244C16.8421 7.6353 16.769 7.66308 16.6902 7.73244C16.4728 7.93322 16.3744 8.30879 16.2266 8.56786C16.1886 8.62569 16.0809 8.67516 15.9616 8.56364C15.6586 8.16785 15.8362 7.60468 15.7985 7.74949ZM14.497 4.45324C14.6357 4.50879 14.7336 4.77749 14.7017 4.90869C14.6741 5.07101 14.6005 5.2463 14.5476 5.22348C14.4901 5.20309 14.5868 5.06211 14.5316 4.91425C14.5009 4.81799 14.3116 4.6421 14.3315 4.59025C14.2924 4.48161 14.412 4.43408 14.497 4.45324Z" fill="white"/>
<path fill-rule="evenodd" clip-rule="evenodd" d="M16.2447 7.9087C16.2739 7.586 16.2247 7.38923 16.2159 7.19957C16.2072 7.0099 15.9916 5.56273 15.9479 5.41922C15.8951 5.14788 16.1574 5.38283 16.1287 5.22502C16.038 5.02603 15.8122 4.73634 15.7413 4.56352C15.6986 4.48948 15.7165 4.42359 15.621 4.54404C15.5324 4.82093 15.5017 5.04727 15.5355 5.21921C15.763 6.35441 15.9963 7.29836 15.9593 8.37902C16.0671 8.37973 16.1915 8.14295 16.2447 7.9087ZM18.6149 4.91058C18.7413 4.9707 18.8154 5.30746 18.8014 5.40368C18.7763 5.57943 18.7092 5.7692 18.661 5.74448C18.6086 5.72241 18.6715 5.48387 18.6463 5.40969C18.6184 5.30549 18.4458 5.11508 18.4639 5.05894C18.4283 4.94134 18.5373 4.88987 18.6149 4.91058ZM9.21556 7.29839C9.33652 7.34255 9.40747 7.59001 9.39409 7.66075C9.36997 7.78984 9.30574 7.92931 9.25968 7.91116C9.20954 7.89492 9.26975 7.71963 9.24567 7.66514C9.23545 7.53295 9.06756 7.4645 9.07105 7.40741C9.03973 7.30243 9.1413 7.2831 9.21556 7.29839Z" fill="white"/>
<path fill-rule="evenodd" clip-rule="evenodd" d="M12.1394 7.67002C12.2956 7.67951 12.3736 7.79665 12.2273 7.8458C12.0831 7.89302 11.9444 7.92993 11.9438 8.1293C11.9972 8.40711 11.8706 8.31176 11.7951 8.27404C11.7062 8.21297 11.4566 8.06592 11.421 7.74846C11.4157 7.67269 11.4774 7.60892 11.5769 7.60938C11.7267 7.6483 11.9477 7.65114 12.1394 7.67002H12.1394Z" fill="#1B9D00"/>
<path fill-rule="evenodd" clip-rule="evenodd" d="M5.9826 4.37309C6.16108 4.42456 6.17163 4.67543 6.15847 4.74877C6.13469 4.88264 6.07145 5.02721 6.02605 5.00836C5.97664 4.99156 6.0241 4.80983 6.00039 4.7533C5.97392 4.67392 5.82312 4.52887 5.84021 4.48612C5.80665 4.3965 5.90944 4.35727 5.9826 4.37309ZM9.50751 5.55574C9.37056 5.62658 9.31744 5.8377 9.40273 5.96067C9.48236 6.06896 9.60813 6.02881 9.62489 6.02881C9.75908 6.04487 9.83867 5.78827 9.83867 5.78827C9.83867 5.78827 9.8429 5.71613 9.68357 5.85246C9.61651 5.86449 9.60813 5.84041 9.59136 5.8043C9.57739 5.7375 9.58019 5.67071 9.61232 5.60387C9.63607 5.53975 9.58434 5.51166 9.50751 5.55574ZM10.5347 4.27606C10.4659 4.32018 10.3289 4.45588 10.3247 4.61226C10.3205 4.70046 10.3034 4.70018 10.3637 4.75633C10.4074 4.81651 10.4514 4.8111 10.5395 4.76698C10.59 4.73133 10.6071 4.70767 10.6242 4.64791C10.6452 4.54771 10.5134 4.69544 10.4966 4.58392C10.4673 4.48035 10.5519 4.43795 10.6315 4.33776C10.6342 4.2691 10.6327 4.22048 10.5347 4.27606ZM11.3622 4.41668C11.3326 4.47933 11.297 4.80667 11.3029 4.80667C11.2792 4.90419 11.4096 4.94592 11.4689 4.82056C11.5579 4.59074 11.5579 4.49325 11.5638 4.39573C11.5361 4.24723 11.4314 4.25187 11.3622 4.41668ZM16.5797 6.95567C16.5975 6.93865 17.3149 6.45107 17.3149 6.45107C17.388 6.42649 17.3722 6.70244 17.3386 6.70054C17.3524 6.75531 16.6311 7.22401 16.5796 7.20514C16.5441 7.22971 16.5085 7.01617 16.5796 6.95567H16.5797ZM17.2337 6.95145C17.3602 7.01156 17.4105 7.36534 17.3966 7.46157C17.401 7.64867 17.2747 7.79871 17.2265 7.77403C17.174 7.75196 17.2311 7.54176 17.2059 7.46758C17.1779 7.36337 17.0705 7.16727 17.0887 7.11113C17.053 6.99353 17.1561 6.93074 17.2337 6.95145ZM12.9666 8.47512C13.0165 8.40537 13.1706 8.305 13.1741 8.305C13.2452 8.27097 13.3147 8.33168 13.3105 8.32767C13.3223 8.39574 13.2655 8.45905 13.2833 8.54979C13.2988 8.58635 13.3102 8.62696 13.3803 8.61149C13.4942 8.52578 13.5998 8.52026 13.7136 8.51481C13.8009 8.51984 13.8044 8.66117 13.7492 8.66222C13.5389 8.70592 13.4446 8.75978 13.2944 8.81459C13.2233 8.85428 13.1622 8.80394 13.1622 8.79828C13.1622 8.79262 13.1206 8.75967 13.1497 8.66953C13.1548 8.59725 13.1244 8.55763 13.0614 8.56582C13.014 8.59036 12.9722 8.6066 12.9485 8.55447C12.9392 8.51597 12.9361 8.49723 12.9666 8.47512ZM17.9885 8.66567C18.0192 8.70307 18.0391 8.7377 17.986 8.79916C17.9357 8.84324 17.9002 8.86753 17.8499 8.91162C17.8262 8.95036 17.811 9.00914 17.8836 9.02788C18.0178 9.06395 18.328 8.87151 18.328 8.8675C18.3784 8.83143 18.3616 8.76326 18.3574 8.76326C18.328 8.7312 18.2619 8.75025 18.2175 8.74505C18.1963 8.74505 18.1269 8.73499 18.1599 8.67621C18.1875 8.63965 18.1974 8.61726 18.2161 8.57219C18.237 8.5281 18.219 8.49871 18.1436 8.47463C18.0667 8.46127 18.036 8.46795 17.9507 8.47463C17.9046 8.48398 17.8889 8.5037 17.8805 8.55714C17.8838 8.63821 17.9354 8.6336 17.9885 8.66567Z" fill="white"/>
<path fill-rule="evenodd" clip-rule="evenodd" d="M12.9945 6.67046C12.9748 6.70298 12.9083 6.7014 12.8459 6.66695C12.7836 6.6325 12.7489 6.57811 12.7686 6.54555C12.7883 6.513 12.8548 6.51462 12.9171 6.54914C12.9795 6.58366 13.0141 6.63794 12.9945 6.67046ZM9.71987 4.7863C9.68259 4.79502 9.63388 4.76324 9.61105 4.71532C9.58822 4.6674 9.59998 4.62149 9.63722 4.61277C9.67446 4.60405 9.72321 4.6358 9.74604 4.68371C9.76887 4.73163 9.75714 4.77758 9.71987 4.7863Z" fill="#259F00"/>
<path fill-rule="evenodd" clip-rule="evenodd" d="M16.1973 13.1826C16.5411 13.1986 16.8641 13.1863 17.2079 13.2024C17.2702 13.253 17.2257 13.3773 17.1842 13.3684C17.0724 13.3657 17.008 13.3631 16.8962 13.3604C16.8924 13.2557 16.6129 13.2728 16.6209 13.3637C16.47 13.3811 16.3339 13.3587 16.183 13.3533C16.1384 13.3002 16.1441 13.2046 16.1974 13.1826H16.1973Z" fill="#209000"/>
</g>
</g>
<defs>
<clipPath id="clip0_8_73">
<rect width="25.0971" height="18" rx="2" fill="white"/>
</clipPath>
</defs>
</svg>
