<svg width="32" height="24" viewBox="0 0 32 24" fill="none" xmlns="http://www.w3.org/2000/svg">
<g clip-path="url(#clip0_7_45)">
<path fill-rule="evenodd" clip-rule="evenodd" d="M0 0H31.8V1.84615H0V0ZM0 3.69235H31.8V5.5385H0V3.69235ZM0 7.3847H31.8V9.23085H0V7.3847ZM0 11.0771H31.8V12.9232H0V11.0771ZM0 14.7694H31.8V16.6156H0V14.7694ZM0 18.4617H31.8V20.3079H0V18.4617ZM0 22.1541H31.8V24.0003H0V22.1541Z" fill="#BD3D44"/>
<path fill-rule="evenodd" clip-rule="evenodd" d="M0 1.84619H31.8V3.69239H0V1.84619ZM0 5.53854H31.8V7.38474H0V5.53854ZM0 9.23089H31.8V11.0771H0V9.23089ZM0 12.9232H31.8V14.7694H0V12.9232ZM0 16.6156H31.8V18.4617H0V16.6156ZM0 20.3079H31.8V22.1541H0V20.3079Z" fill="white"/>
<path fill-rule="evenodd" clip-rule="evenodd" d="M0 0H12.7199V12.923H0V0Z" fill="#192F5D"/>
<path fill-rule="evenodd" clip-rule="evenodd" d="M1.06 0.553101L1.17576 1.0638H1.55024L1.24724 1.37955L1.363 1.8903L1.06 1.5746L0.756997 1.8903L0.872759 1.37955L0.569756 1.0638H0.944238L1.06 0.553101ZM3.17998 0.553101L3.29574 1.0638H3.67029L3.36725 1.37955L3.48301 1.8903L3.17998 1.5746L2.87701 1.8903L2.99274 1.37955L2.68973 1.0638H3.06425L3.17998 0.553101ZM5.30002 0.553101L5.41579 1.0638H5.7903L5.4873 1.37955L5.60306 1.8903L5.30006 1.5746L4.99706 1.8903L5.11278 1.37955L4.80978 1.0638H5.18433L5.30002 0.553101ZM7.42 0.553101L7.53569 1.0638H7.91017L7.60721 1.37955L7.72293 1.8903L7.41996 1.5746L7.11696 1.8903L7.23272 1.37955L6.92969 1.0638H7.30424L7.42 0.553101ZM9.53998 0.553101L9.65574 1.0638H10.0303L9.72725 1.37955L9.84301 1.8903L9.53998 1.5746L9.23701 1.8903L9.35273 1.37955L9.04973 1.0638H9.42425L9.53998 0.553101ZM11.66 0.553101L11.7758 1.0638H12.1503L11.8473 1.37955L11.9631 1.8903L11.6601 1.5746L11.357 1.8903L11.4728 1.37955L11.1698 1.0638H11.5443L11.66 0.553101ZM2.12006 1.8454L2.23575 2.35615H2.6103L2.3073 2.6718L2.42306 3.1826L2.12006 2.86695L1.81705 3.1826L1.93278 2.67185L1.62978 2.35615H2.00433L2.12006 1.8454ZM4.23996 1.8454L4.35573 2.35615H4.73021L4.42721 2.6718L4.54297 3.1826L4.23996 2.86695L3.93696 3.1826L4.05272 2.67185L3.74969 2.35615H4.12424L4.23996 1.8454ZM6.36001 1.8454L6.47574 2.35615H6.85029L6.54725 2.6718L6.66301 3.1826L6.35998 2.86695L6.05701 3.1826L6.17274 2.67185L5.86973 2.35615H6.24425L6.36001 1.8454ZM8.48002 1.8454L8.59578 2.35615H8.9703L8.6673 2.6718L8.78306 3.1826L8.48006 2.86695L8.17702 3.1826L8.29282 2.67185L7.98981 2.35615H8.36437L8.48002 1.8454ZM10.6 1.8454L10.7157 2.35615H11.0902L10.7872 2.6718L10.9029 3.1826L10.6 2.86695L10.297 3.1826L10.4127 2.67185L10.1097 2.35615H10.4842L10.6 1.8454ZM1.06 3.1377L1.17576 3.64845H1.55024L1.24724 3.96415L1.363 4.47495L1.06 4.1593L0.756997 4.47495L0.872759 3.9642L0.569756 3.6485H0.944238L1.06 3.1377ZM3.17998 3.1377L3.29574 3.64845H3.67029L3.36725 3.96415L3.48298 4.47495L3.17998 4.15925L2.87701 4.47495L2.99274 3.9642L2.68973 3.6485H3.06425L3.17998 3.1377ZM5.30002 3.1377L5.41579 3.64845H5.7903L5.4873 3.96415L5.60306 4.4749L5.30006 4.15925L4.99706 4.4749L5.11278 3.96415L4.80978 3.64845H5.18433L5.30002 3.1377ZM7.42 3.1377L7.53569 3.64845H7.91017L7.60721 3.96415L7.72293 4.47495L7.41996 4.1593L7.11696 4.47495L7.23272 3.9642L6.92969 3.6485H7.30424L7.42 3.1377ZM9.53998 3.1377L9.65574 3.64845H10.0303L9.72725 3.96415L9.84301 4.4749L9.53998 4.15925L9.23701 4.4749L9.35273 3.96415L9.04973 3.64845H9.42425L9.53998 3.1377ZM11.66 3.1377L11.7758 3.64845H12.1503L11.8473 3.96415L11.9631 4.4749L11.6601 4.15925L11.357 4.4749L11.4728 3.96415L11.1698 3.64845H11.5443L11.66 3.1377ZM2.12006 4.43L2.23575 4.9408H2.6103L2.3073 5.25645L2.42306 5.76725L2.12006 5.4516L1.81705 5.76725L1.93278 5.25645L1.62978 4.9408H2.00433L2.12006 4.43ZM4.23996 4.43L4.35573 4.9408H4.73021L4.42721 5.25645L4.54297 5.76725L4.23996 5.4516L3.93696 5.76725L4.05272 5.25645L3.74969 4.9408H4.12424L4.23996 4.43ZM6.36001 4.43L6.47574 4.9408H6.85029L6.54725 5.25645L6.66301 5.76725L6.35998 5.4516L6.05701 5.76725L6.17274 5.25645L5.86973 4.9408H6.24425L6.36001 4.43ZM8.48002 4.43L8.59578 4.9408H8.9703L8.6673 5.25645L8.78306 5.76725L8.48006 5.4516L8.17702 5.76725L8.29278 5.25645L7.98978 4.9408H8.36433L8.48002 4.43ZM10.6 4.43L10.7157 4.9408H11.0902L10.7872 5.25645L10.9029 5.76725L10.6 5.4516L10.297 5.76725L10.4127 5.25645L10.1097 4.9408H10.4842L10.6 4.43ZM1.06 5.72235L1.17576 6.2331H1.55024L1.24724 6.5488L1.363 7.05955L1.06 6.7439L0.756997 7.05955L0.872759 6.5488L0.569756 6.2331H0.944238L1.06 5.72235ZM3.17998 5.72235L3.29574 6.2331H3.67029L3.36725 6.5488L3.48301 7.05955L3.17998 6.7439L2.87701 7.05955L2.99274 6.5488L2.68973 6.2331H3.06425L3.17998 5.72235ZM5.30002 5.72235L5.41579 6.2331H5.7903L5.4873 6.5488L5.60306 7.05955L5.30006 6.7439L4.99706 7.05955L5.11278 6.5488L4.80978 6.2331H5.18433L5.30002 5.72235ZM7.42 5.72235L7.53569 6.2331H7.91017L7.60721 6.5488L7.72293 7.05955L7.41996 6.7439L7.11696 7.05955L7.23272 6.5488L6.92969 6.2331H7.30424L7.42 5.72235ZM9.53998 5.72235L9.65574 6.2331H10.0303L9.72725 6.5488L9.84301 7.05955L9.53998 6.7439L9.23701 7.05955L9.35273 6.5488L9.04973 6.2331H9.42425L9.53998 5.72235ZM11.66 5.72235L11.7758 6.2331H12.1503L11.8473 6.5488L11.9631 7.05955L11.6601 6.7439L11.357 7.05955L11.4728 6.5488L11.1698 6.2331H11.5443L11.66 5.72235ZM2.12006 7.01465L2.23575 7.52545H2.6103L2.3073 7.8411L2.42306 8.3519L2.12006 8.03625L1.81705 8.3519L1.93278 7.8411L1.62978 7.52545H2.00433L2.12006 7.01465ZM4.23996 7.01465L4.35573 7.52545H4.73021L4.42721 7.8411L4.54297 8.3519L4.23996 8.03625L3.93696 8.3519L4.05272 7.8411L3.74969 7.52545H4.12424L4.23996 7.01465ZM6.36001 7.01465L6.47574 7.52545H6.85029L6.54725 7.8411L6.66301 8.3519L6.35998 8.03625L6.05701 8.3519L6.17274 7.8411L5.86973 7.52545H6.24425L6.36001 7.01465ZM8.48002 7.01465L8.59578 7.52545H8.9703L8.6673 7.8411L8.78306 8.3519L8.48006 8.03625L8.17702 8.3519L8.29278 7.8411L7.98978 7.52545H8.36433L8.48002 7.01465ZM10.6 7.01465L10.7157 7.52545H11.0902L10.7872 7.8411L10.9029 8.3519L10.6 8.03625L10.297 8.3519L10.4127 7.8411L10.1097 7.52545H10.4842L10.6 7.01465ZM1.06 8.307L1.17576 8.81775H1.55024L1.24724 9.13345L1.363 9.6442L1.06 9.32855L0.756997 9.6442L0.872759 9.13345L0.569756 8.81775H0.944238L1.06 8.307ZM3.17998 8.307L3.29574 8.81775H3.67029L3.36725 9.13345L3.48301 9.6442L3.17998 9.32855L2.87701 9.6442L2.99274 9.13345L2.68973 8.81775H3.06425L3.17998 8.307ZM5.30002 8.307L5.41579 8.81775H5.7903L5.4873 9.13345L5.60306 9.6442L5.30006 9.32855L4.99706 9.6442L5.11278 9.13345L4.80978 8.81775H5.18433L5.30002 8.307ZM7.42 8.307L7.53569 8.81775H7.91017L7.60721 9.13345L7.72293 9.6442L7.41996 9.32855L7.11696 9.6442L7.23272 9.13345L6.92969 8.81775H7.30424L7.42 8.307ZM9.53998 8.307L9.65574 8.81775H10.0303L9.72725 9.13345L9.84301 9.6442L9.53998 9.32855L9.23701 9.6442L9.35273 9.13345L9.04973 8.81775H9.42425L9.53998 8.307ZM11.66 8.307L11.7758 8.81775H12.1503L11.8473 9.13345L11.9631 9.6442L11.6601 9.32855L11.357 9.6442L11.4728 9.13345L11.1698 8.81775H11.5443L11.66 8.307ZM2.12006 9.5993L2.23575 10.1101H2.6103L2.3073 10.4258L2.42306 10.9366L2.12006 10.6209L1.81705 10.9366L1.93278 10.4258L1.62978 10.1101H2.00433L2.12006 9.5993ZM4.23996 9.5993L4.35573 10.1101H4.73021L4.42721 10.4258L4.54297 10.9366L4.23996 10.6209L3.93696 10.9366L4.05272 10.4258L3.74969 10.1101H4.12424L4.23996 9.5993ZM6.36001 9.5993L6.47574 10.1101H6.85029L6.54725 10.4258L6.66301 10.9366L6.35998 10.6209L6.05701 10.9366L6.17274 10.4258L5.86973 10.1101H6.24425L6.36001 9.5993ZM8.48002 9.5993L8.59578 10.1101H8.9703L8.6673 10.4258L8.78306 10.9366L8.48006 10.6209L8.17702 10.9366L8.29278 10.4258L7.98978 10.1101H8.36433L8.48002 9.5993ZM10.6 9.5993L10.7157 10.1101H11.0902L10.7872 10.4258L10.9029 10.9366L10.6 10.6209L10.297 10.9366L10.4127 10.4258L10.1097 10.1101H10.4842L10.6 9.5993ZM1.06 10.8917L1.17576 11.4024H1.55024L1.24724 11.7181L1.363 12.2289L1.06 11.9132L0.756997 12.2289L0.872759 11.7181L0.569756 11.4024H0.944238L1.06 10.8917ZM3.17998 10.8917L3.29574 11.4024H3.67029L3.36725 11.7181L3.48301 12.2289L3.17998 11.9132L2.87701 12.2289L2.99274 11.7181L2.68973 11.4024H3.06425L3.17998 10.8917ZM5.30002 10.8917L5.41579 11.4024H5.7903L5.4873 11.7181L5.60306 12.2289L5.30006 11.9132L4.99706 12.2289L5.11278 11.7181L4.80978 11.4024H5.18433L5.30002 10.8917ZM7.42 10.8917L7.53569 11.4024H7.91017L7.60721 11.7181L7.72293 12.2289L7.41996 11.9132L7.11696 12.2289L7.23272 11.7181L6.92969 11.4024H7.30424L7.42 10.8917ZM9.53998 10.8917L9.65574 11.4024H10.0303L9.72725 11.7181L9.84301 12.2289L9.53998 11.9132L9.23701 12.2289L9.35273 11.7181L9.04973 11.4024H9.42425L9.53998 10.8917ZM11.66 10.8917L11.7758 11.4024H12.1503L11.8473 11.7181L11.9631 12.2289L11.6601 11.9132L11.357 12.2289L11.4728 11.7181L11.1698 11.4024H11.5443L11.66 10.8917Z" fill="white"/>
</g>
<defs>
<clipPath id="clip0_7_45">
<rect width="32" height="24" fill="white"/>
</clipPath>
</defs>
</svg>
