<svg width="24" height="24" viewBox="0 0 24 24" fill="none" xmlns="http://www.w3.org/2000/svg">
<path d="M3 11.2498C3 11.4487 3.07902 11.6395 3.21967 11.7801C3.36032 11.9208 3.55109 11.9998 3.75 11.9998H18.4395L15.2205 15.2188C15.0839 15.3603 15.0083 15.5497 15.01 15.7464C15.0117 15.943 15.0906 16.1311 15.2296 16.2702C15.3687 16.4092 15.5568 16.4881 15.7534 16.4898C15.9501 16.4915 16.1395 16.4159 16.281 16.2793L20.781 11.7793C20.8504 11.7103 20.9055 11.6283 20.9431 11.5379C20.9806 11.4476 21 11.3507 21 11.2528V11.2498C21 11.1523 20.9805 11.0548 20.9415 10.9633C20.9041 10.8724 20.8491 10.7898 20.7795 10.7203L16.2795 6.2203C16.138 6.08368 15.9486 6.00809 15.7519 6.00979C15.5553 6.0115 15.3672 6.09038 15.2281 6.22944C15.0891 6.36849 15.0102 6.5566 15.0085 6.75325C15.0068 6.9499 15.0824 7.13935 15.219 7.2808L18.4395 10.4998H3.75C3.55109 10.4998 3.36032 10.5788 3.21967 10.7195C3.07902 10.8601 3 11.0509 3 11.2498Z" fill="black"/>
</svg>
