<svg width="20" height="20" viewBox="0 0 20 20" fill="none" xmlns="http://www.w3.org/2000/svg">
<path d="M16.3794 9.55781C16.4375 9.61586 16.4836 9.68479 16.5151 9.76066C16.5465 9.83653 16.5627 9.91786 16.5627 10C16.5627 10.0821 16.5465 10.1635 16.5151 10.2393C16.4836 10.3152 16.4375 10.3841 16.3794 10.4422L9.96925 16.8484C9.14863 17.669 8.03568 18.1299 6.87522 18.1298C5.71477 18.1297 4.60187 17.6687 3.78136 16.848C2.96085 16.0274 2.49993 14.9145 2.5 13.754C2.50007 12.5936 2.96113 11.4807 3.78175 10.6602L11.5364 2.7914C12.1223 2.20492 12.9171 1.8752 13.7461 1.87476C14.5751 1.87432 15.3703 2.2032 15.9568 2.78906C16.5432 3.37492 16.873 4.16976 16.8734 4.99873C16.8738 5.8277 16.545 6.62289 15.9591 7.20937L8.20284 15.0781C7.8506 15.4304 7.37286 15.6283 6.87472 15.6283C6.37657 15.6283 5.89883 15.4304 5.54659 15.0781C5.19435 14.7259 4.99647 14.2481 4.99647 13.75C4.99647 13.2519 5.19435 12.7741 5.54659 12.4219L12.0544 5.81094C12.1114 5.75012 12.18 5.70133 12.2562 5.66742C12.3323 5.63351 12.4145 5.61518 12.4978 5.6135C12.5811 5.61183 12.664 5.62684 12.7414 5.65765C12.8189 5.68847 12.8894 5.73446 12.9488 5.79293C13.0082 5.8514 13.0553 5.92117 13.0874 5.99812C13.1194 6.07507 13.1357 6.15765 13.1354 6.24101C13.135 6.32437 13.118 6.40681 13.0853 6.48349C13.0526 6.56016 13.0049 6.62953 12.945 6.6875L6.43644 13.3055C6.37816 13.3633 6.33185 13.432 6.30013 13.5077C6.26842 13.5834 6.25193 13.6646 6.2516 13.7467C6.25127 13.8288 6.26712 13.9102 6.29823 13.9861C6.32934 14.0621 6.37511 14.1312 6.43292 14.1895C6.49073 14.2477 6.55946 14.294 6.63517 14.3258C6.71088 14.3575 6.7921 14.374 6.87419 14.3743C6.95627 14.3746 7.03762 14.3588 7.11358 14.3277C7.18954 14.2965 7.25863 14.2508 7.31691 14.193L15.0724 6.32812C15.4246 5.97661 15.6228 5.49956 15.6233 5.00193C15.6238 4.5043 15.4266 4.02685 15.0751 3.67461C14.7236 3.32237 14.2465 3.12419 13.7489 3.12368C13.2513 3.12317 12.7738 3.32036 12.4216 3.67187L4.66847 11.5375C4.37802 11.8275 4.14754 12.1718 3.99017 12.5509C3.8328 12.93 3.75164 13.3363 3.75131 13.7467C3.75099 14.1572 3.8315 14.5636 3.98827 14.9429C4.14503 15.3223 4.37497 15.667 4.66495 15.9574C4.95494 16.2479 5.29929 16.4784 5.67835 16.6357C6.05741 16.7931 6.46376 16.8742 6.87419 16.8746C7.28461 16.8749 7.69109 16.7944 8.0704 16.6376C8.44971 16.4809 8.79443 16.2509 9.08488 15.9609L15.4958 9.55469C15.6134 9.43798 15.7726 9.37275 15.9383 9.37333C16.1039 9.37392 16.2626 9.44027 16.3794 9.55781Z" fill="#6E6E6E"/>
</svg>
