<svg width="20" height="20" viewBox="0 0 20 20" fill="none" xmlns="http://www.w3.org/2000/svg">
<path d="M17.4999 5.55452C17.3528 5.63071 17.1815 5.64536 17.0235 5.59526C16.8656 5.54516 16.734 5.4344 16.6577 5.28733C16.0612 4.10881 15.1582 3.11273 14.0437 2.40374C13.9742 2.35993 13.9141 2.30287 13.8667 2.23582C13.8193 2.16877 13.7855 2.09303 13.7674 2.01294C13.7493 1.93285 13.7471 1.84997 13.761 1.76904C13.7749 1.6881 13.8046 1.6107 13.8484 1.54124C13.8922 1.47178 13.9492 1.41164 14.0163 1.36423C14.0833 1.31683 14.1591 1.28309 14.2392 1.26496C14.3193 1.24682 14.4021 1.24464 14.4831 1.25853C14.564 1.27242 14.6414 1.30212 14.7109 1.34593C16.0098 2.1776 17.0645 3.33934 17.7671 4.71234C17.8433 4.85946 17.858 5.03081 17.8079 5.18874C17.7578 5.34666 17.647 5.47823 17.4999 5.55452ZM2.78978 5.62484C2.90428 5.62479 3.01657 5.59329 3.11439 5.53377C3.21221 5.47425 3.29179 5.389 3.34447 5.28733C3.94103 4.10881 4.84401 3.11273 5.95853 2.40374C6.0988 2.31527 6.19818 2.17469 6.23481 2.01294C6.27144 1.85119 6.24231 1.68152 6.15384 1.54124C6.06537 1.40097 5.92479 1.30158 5.76304 1.26496C5.60129 1.22833 5.43161 1.25745 5.29134 1.34593C3.99244 2.1776 2.93773 3.33934 2.23509 4.71234C2.18574 4.80758 2.16175 4.91393 2.1654 5.02114C2.16906 5.12835 2.20025 5.23282 2.25597 5.32448C2.31169 5.41615 2.39007 5.49193 2.48356 5.54453C2.57705 5.59714 2.6825 5.62479 2.78978 5.62484ZM17.3288 13.7451C17.4396 13.935 17.4983 14.1507 17.499 14.3705C17.4998 14.5903 17.4426 14.8065 17.3331 14.9971C17.2237 15.1877 17.066 15.3461 16.8758 15.4563C16.6856 15.5666 16.4697 15.6247 16.2499 15.6248H13.0624C12.919 16.3313 12.5357 16.9664 11.9776 17.4226C11.4195 17.8788 10.7208 18.128 9.99993 18.128C9.27909 18.128 8.58041 17.8788 8.02227 17.4226C7.46414 16.9664 7.08088 16.3313 6.93743 15.6248H3.74993C3.53026 15.6244 3.31459 15.5661 3.12463 15.4558C2.93467 15.3454 2.77714 15.187 2.6679 14.9964C2.55867 14.8058 2.50159 14.5898 2.50241 14.3702C2.50323 14.1505 2.56193 13.9349 2.67259 13.7451C3.3765 12.5303 3.74993 10.803 3.74993 8.74984C3.74993 7.09223 4.40841 5.50252 5.58052 4.33042C6.75262 3.15832 8.34233 2.49984 9.99993 2.49984C11.6575 2.49984 13.2472 3.15832 14.4194 4.33042C15.5915 5.50252 16.2499 7.09223 16.2499 8.74984C16.2499 10.8022 16.6234 12.5295 17.3288 13.7451ZM11.7671 15.6248H8.23275C8.36223 15.99 8.60166 16.3061 8.91811 16.5296C9.23456 16.7532 9.61249 16.8732 9.99993 16.8732C10.3874 16.8732 10.7653 16.7532 11.0818 16.5296C11.3982 16.3061 11.6376 15.99 11.7671 15.6248ZM16.2499 14.3748C15.4187 12.9475 14.9999 11.0553 14.9999 8.74984C14.9999 7.42375 14.4731 6.15198 13.5355 5.2143C12.5978 4.27662 11.326 3.74984 9.99993 3.74984C8.67385 3.74984 7.40208 4.27662 6.4644 5.2143C5.52672 6.15198 4.99993 7.42375 4.99993 8.74984C4.99993 11.0561 4.57962 12.9483 3.74993 14.3748H16.2499Z" fill="#0A0A0A"/>
</svg>
