<svg width="24" height="24" viewBox="0 0 24 24" fill="none" xmlns="http://www.w3.org/2000/svg">
<g clip-path="url(#clip0_351_2315)">
<path d="M6.24 0.47998C5.45088 0.47998 4.8 1.13086 4.8 1.91998V2.39998H1.632C0.7104 2.39998 0 3.20638 0 4.14046V21.7805C0 22.7136 0.7104 23.52 1.632 23.52H22.368C23.2896 23.52 24 22.7136 24 21.7795V4.14046C24 3.20638 23.2896 2.39998 22.368 2.39998H19.2V1.91998C19.2 1.13086 18.5491 0.47998 17.76 0.47998C16.9709 0.47998 16.32 1.13086 16.32 1.91998V2.39998H7.68V1.91998C7.68 1.13086 7.02912 0.47998 6.24 0.47998ZM6.24 1.43998C6.51456 1.43998 6.72 1.64542 6.72 1.91998V4.79998C6.72 5.07454 6.51456 5.27998 6.24 5.27998C6.17653 5.28156 6.11341 5.27023 6.05446 5.24666C5.99551 5.2231 5.94196 5.1878 5.89707 5.14291C5.85218 5.09802 5.81688 5.04447 5.79332 4.98552C5.76975 4.92657 5.75842 4.86345 5.76 4.79998V1.91998C5.76 1.64542 5.96544 1.43998 6.24 1.43998ZM17.76 1.43998C18.0346 1.43998 18.24 1.64542 18.24 1.91998V4.79998C18.24 5.07454 18.0346 5.27998 17.76 5.27998C17.6965 5.28156 17.6334 5.27023 17.5745 5.24666C17.5155 5.2231 17.462 5.1878 17.4171 5.14291C17.3722 5.09802 17.3369 5.04447 17.3133 4.98552C17.2898 4.92657 17.2784 4.86345 17.28 4.79998V1.91998C17.28 1.64542 17.4854 1.43998 17.76 1.43998ZM1.632 3.35998H4.8V4.79998C4.8 5.5891 5.45088 6.23998 6.24 6.23998C7.02912 6.23998 7.68 5.5891 7.68 4.79998V3.35998H16.32V4.79998C16.32 5.5891 16.9709 6.23998 17.76 6.23998C18.5491 6.23998 19.2 5.5891 19.2 4.79998V3.35998H22.368C22.7251 3.35998 23.04 3.67678 23.04 4.14046V21.7805C23.04 22.2432 22.7251 22.56 22.368 22.56H1.632C1.27488 22.56 0.96 22.2432 0.96 21.7795V4.14046C0.96 3.67678 1.27488 3.35998 1.632 3.35998ZM12.96 8.15998C12.8327 8.15998 12.7106 8.21055 12.6206 8.30057C12.5306 8.39059 12.48 8.51268 12.48 8.63998V11.52C12.48 11.6473 12.5306 11.7694 12.6206 11.8594C12.7106 11.9494 12.8327 12 12.96 12H15.84C15.9673 12 16.0894 11.9494 16.1794 11.8594C16.2694 11.7694 16.32 11.6473 16.32 11.52V8.63998C16.32 8.51268 16.2694 8.39059 16.1794 8.30057C16.0894 8.21055 15.9673 8.15998 15.84 8.15998H12.96ZM17.76 8.15998C17.6327 8.15998 17.5106 8.21055 17.4206 8.30057C17.3306 8.39059 17.28 8.51268 17.28 8.63998V11.52C17.28 11.6473 17.3306 11.7694 17.4206 11.8594C17.5106 11.9494 17.6327 12 17.76 12H20.64C20.7673 12 20.8894 11.9494 20.9794 11.8594C21.0694 11.7694 21.12 11.6473 21.12 11.52V8.63998C21.12 8.51268 21.0694 8.39059 20.9794 8.30057C20.8894 8.21055 20.7673 8.15998 20.64 8.15998H17.76ZM13.44 9.11998H15.36V11.04H13.44V9.11998ZM18.24 9.11998H20.16V11.04H18.24V9.11998ZM3.36 12.96C3.2327 12.96 3.11061 13.0106 3.02059 13.1006C2.93057 13.1906 2.88 13.3127 2.88 13.44V16.32C2.88 16.4473 2.93057 16.5694 3.02059 16.6594C3.11061 16.7494 3.2327 16.8 3.36 16.8H6.24C6.3673 16.8 6.48939 16.7494 6.57941 16.6594C6.66943 16.5694 6.72 16.4473 6.72 16.32V13.44C6.72 13.3127 6.66943 13.1906 6.57941 13.1006C6.48939 13.0106 6.3673 12.96 6.24 12.96H3.36ZM8.16 12.96C8.0327 12.96 7.91061 13.0106 7.82059 13.1006C7.73057 13.1906 7.68 13.3127 7.68 13.44V16.32C7.68 16.4473 7.73057 16.5694 7.82059 16.6594C7.91061 16.7494 8.0327 16.8 8.16 16.8H11.04C11.1673 16.8 11.2894 16.7494 11.3794 16.6594C11.4694 16.5694 11.52 16.4473 11.52 16.32V13.44C11.52 13.3127 11.4694 13.1906 11.3794 13.1006C11.2894 13.0106 11.1673 12.96 11.04 12.96H8.16ZM12.96 12.96C12.8327 12.96 12.7106 13.0106 12.6206 13.1006C12.5306 13.1906 12.48 13.3127 12.48 13.44V16.32C12.48 16.4473 12.5306 16.5694 12.6206 16.6594C12.7106 16.7494 12.8327 16.8 12.96 16.8H15.84C15.9673 16.8 16.0894 16.7494 16.1794 16.6594C16.2694 16.5694 16.32 16.4473 16.32 16.32V13.44C16.32 13.3127 16.2694 13.1906 16.1794 13.1006C16.0894 13.0106 15.9673 12.96 15.84 12.96H12.96ZM17.76 12.96C17.6327 12.96 17.5106 13.0106 17.4206 13.1006C17.3306 13.1906 17.28 13.3127 17.28 13.44V16.32C17.28 16.4473 17.3306 16.5694 17.4206 16.6594C17.5106 16.7494 17.6327 16.8 17.76 16.8H20.64C20.7673 16.8 20.8894 16.7494 20.9794 16.6594C21.0694 16.5694 21.12 16.4473 21.12 16.32V13.44C21.12 13.3127 21.0694 13.1906 20.9794 13.1006C20.8894 13.0106 20.7673 12.96 20.64 12.96H17.76ZM3.84 13.92H5.76V15.84H3.84V13.92ZM8.64 13.92H10.56V15.84H8.64V13.92ZM13.44 13.92H15.36V15.84H13.44V13.92ZM18.24 13.92H20.16V15.84H18.24V13.92ZM3.36 17.76C3.2327 17.76 3.11061 17.8106 3.02059 17.9006C2.93057 17.9906 2.88 18.1127 2.88 18.24V21.12C2.88 21.2473 2.93057 21.3694 3.02059 21.4594C3.11061 21.5494 3.2327 21.6 3.36 21.6H6.24C6.3673 21.6 6.48939 21.5494 6.57941 21.4594C6.66943 21.3694 6.72 21.2473 6.72 21.12V18.24C6.72 18.1127 6.66943 17.9906 6.57941 17.9006C6.48939 17.8106 6.3673 17.76 6.24 17.76H3.36ZM8.16 17.76C8.0327 17.76 7.91061 17.8106 7.82059 17.9006C7.73057 17.9906 7.68 18.1127 7.68 18.24V21.12C7.68 21.2473 7.73057 21.3694 7.82059 21.4594C7.91061 21.5494 8.0327 21.6 8.16 21.6H11.04C11.1673 21.6 11.2894 21.5494 11.3794 21.4594C11.4694 21.3694 11.52 21.2473 11.52 21.12V18.24C11.52 18.1127 11.4694 17.9906 11.3794 17.9006C11.2894 17.8106 11.1673 17.76 11.04 17.76H8.16ZM12.96 17.76C12.8327 17.76 12.7106 17.8106 12.6206 17.9006C12.5306 17.9906 12.48 18.1127 12.48 18.24V21.12C12.48 21.2473 12.5306 21.3694 12.6206 21.4594C12.7106 21.5494 12.8327 21.6 12.96 21.6H15.84C15.9673 21.6 16.0894 21.5494 16.1794 21.4594C16.2694 21.3694 16.32 21.2473 16.32 21.12V18.24C16.32 18.1127 16.2694 17.9906 16.1794 17.9006C16.0894 17.8106 15.9673 17.76 15.84 17.76H12.96ZM3.84 18.72H5.76V20.64H3.84V18.72ZM8.64 18.72H10.56V20.64H8.64V18.72ZM13.44 18.72H15.36V20.64H13.44V18.72Z" fill="#686868"/>
</g>
<defs>
<clipPath id="clip0_351_2315">
<rect width="24" height="24" fill="white"/>
</clipPath>
</defs>
</svg>
