<svg width="20" height="20" viewBox="0 0 20 20" fill="none" xmlns="http://www.w3.org/2000/svg">
<path d="M16.1754 10.8332C15.9921 10.8332 15.8004 10.7748 15.6171 10.7332C15.2461 10.6502 14.8813 10.5416 14.5254 10.4082C14.1388 10.2675 13.7138 10.2748 13.3323 10.4287C12.9508 10.5825 12.6396 10.872 12.4587 11.2415L12.2754 11.6248C11.4661 11.1658 10.7184 10.6058 10.0504 9.95817C9.40276 9.29015 8.84272 8.54248 8.38372 7.73317L8.76705 7.55817C9.13653 7.37727 9.42604 7.06611 9.57988 6.68458C9.73373 6.30305 9.74103 5.8781 9.60039 5.4915C9.46804 5.13236 9.35948 4.7649 9.27539 4.3915C9.23372 4.20817 9.20039 4.0165 9.17539 3.83317C9.07419 3.24619 8.76674 2.71462 8.30841 2.3342C7.85007 1.95378 7.27097 1.74951 6.67539 1.75817H4.16705C3.81476 1.75771 3.46635 1.83171 3.14465 1.97532C2.82296 2.11894 2.53525 2.32892 2.30039 2.5915C2.06065 2.86122 1.88215 3.17963 1.77714 3.52487C1.67213 3.87011 1.6431 4.23398 1.69205 4.5915C2.14504 8.05995 3.72973 11.282 6.20039 13.7582C8.67651 16.2288 11.8986 17.8135 15.3671 18.2665C15.4752 18.2748 15.5839 18.2748 15.6921 18.2665C16.3066 18.2674 16.8999 18.0419 17.3587 17.6332C17.6213 17.3983 17.8313 17.1106 17.9749 16.7889C18.1185 16.4672 18.1925 16.1188 18.1921 15.7665V13.2665C18.1876 12.6907 17.9844 12.1341 17.617 11.6908C17.2496 11.2474 16.7403 10.9445 16.1754 10.8332ZM16.5837 15.8332C16.5834 15.9495 16.5588 16.0644 16.5115 16.1706C16.4641 16.2768 16.395 16.3719 16.3087 16.4498C16.2174 16.533 16.1087 16.5949 15.9905 16.6309C15.8723 16.667 15.7476 16.6763 15.6254 16.6582C12.5156 16.252 9.6256 14.8348 7.40039 12.6248C5.17328 10.3977 3.74375 7.49764 3.33372 4.37484C3.31562 4.25262 3.32492 4.1279 3.36095 4.00971C3.39698 3.89153 3.45884 3.78284 3.54205 3.6915C3.6209 3.60413 3.71737 3.53445 3.82509 3.48705C3.93282 3.43965 4.04936 3.41561 4.16705 3.4165H6.66705C6.85969 3.4118 7.048 3.47399 7.19994 3.5925C7.35188 3.71102 7.45805 3.87852 7.50039 4.0665C7.50039 4.2915 7.57539 4.52484 7.62539 4.74984C7.7217 5.18639 7.84982 5.61531 8.00872 6.03317L6.84205 6.58317C6.64152 6.67522 6.48569 6.84305 6.40872 7.04984C6.32537 7.25272 6.32537 7.48029 6.40872 7.68317C7.60805 10.2521 9.67309 12.3172 12.2421 13.5165C12.4449 13.5999 12.6725 13.5999 12.8754 13.5165C13.0822 13.4395 13.25 13.2837 13.3421 13.0832L13.8671 11.9165C14.297 12.0733 14.7368 12.2013 15.1837 12.2998C15.4004 12.3498 15.6337 12.3915 15.8587 12.4248C16.0467 12.4672 16.2142 12.5733 16.3327 12.7253C16.4512 12.8772 16.5134 13.0655 16.5087 13.2582L16.5837 15.8332ZM11.6671 1.6665C11.4754 1.6665 11.2754 1.6665 11.0837 1.6665C10.8627 1.68529 10.6582 1.7911 10.5152 1.96067C10.3722 2.13023 10.3024 2.34966 10.3212 2.57067C10.34 2.79168 10.4458 2.99618 10.6154 3.13918C10.7849 3.28218 11.0044 3.35196 11.2254 3.33317H11.6671C12.9931 3.33317 14.2649 3.85995 15.2026 4.79764C16.1403 5.73532 16.6671 7.00709 16.6671 8.33317C16.6671 8.48317 16.6671 8.62484 16.6671 8.77484C16.6486 8.99468 16.718 9.21288 16.8602 9.38159C17.0023 9.5503 17.2056 9.65576 17.4254 9.67484H17.4921C17.7007 9.67568 17.902 9.59825 18.0563 9.45785C18.2106 9.31744 18.3066 9.12427 18.3254 8.9165C18.3254 8.72484 18.3254 8.52484 18.3254 8.33317C18.3254 6.5665 17.6242 4.87207 16.3757 3.62207C15.1273 2.37207 13.4337 1.66871 11.6671 1.6665ZM13.3337 8.33317C13.3337 8.55418 13.4215 8.76615 13.5778 8.92243C13.7341 9.07871 13.946 9.1665 14.1671 9.1665C14.3881 9.1665 14.6 9.07871 14.7563 8.92243C14.9126 8.76615 15.0004 8.55418 15.0004 8.33317C15.0004 7.44912 14.6492 6.60127 14.0241 5.97615C13.399 5.35103 12.5511 4.99984 11.6671 4.99984C11.446 4.99984 11.2341 5.08763 11.0778 5.24392C10.9215 5.4002 10.8337 5.61216 10.8337 5.83317C10.8337 6.05418 10.9215 6.26615 11.0778 6.42243C11.2341 6.57871 11.446 6.6665 11.6671 6.6665C12.1091 6.6665 12.533 6.8421 12.8456 7.15466C13.1581 7.46722 13.3337 7.89114 13.3337 8.33317Z" fill="#6D6D6D"/>
</svg>
