<svg width="28" height="28" viewBox="0 0 28 28" fill="none" xmlns="http://www.w3.org/2000/svg">
<path fill-rule="evenodd" clip-rule="evenodd" d="M4.05027 9.63044C2.6279 9.63044 1.54356 10.9571 1.78416 12.346L3.77512 23.8389C4.01882 25.2457 5.26391 26.2554 6.67527 26.2554H21.3469C22.7597 26.2554 23.9833 25.2395 24.2436 23.8509C24.2442 23.8469 24.2448 23.8429 24.2453 23.8389L26.2346 12.358V12.3562C26.4957 10.9574 25.3951 9.63037 23.9719 9.63037L4.05027 9.63044ZM4.05027 11.3804H23.9719C24.3357 11.3804 24.5824 11.6774 24.5154 12.035C24.5148 12.039 24.5142 12.043 24.5137 12.047L22.5227 23.5331C22.4139 24.1028 21.9274 24.5055 21.3469 24.5055H6.67527C6.09199 24.5055 5.59626 24.1002 5.49949 23.5416L3.50852 12.047C3.444 11.6745 3.68502 11.3804 4.05027 11.3804Z" fill="#686868"/>
<path fill-rule="evenodd" clip-rule="evenodd" d="M9.89155 1.81345C9.784 1.85453 9.68562 1.91645 9.60204 1.99563C9.51846 2.07481 9.45133 2.1697 9.40449 2.27487L5.90449 10.1499C5.85778 10.2549 5.83222 10.3681 5.82927 10.483C5.82632 10.5979 5.84604 10.7123 5.8873 10.8196C5.92857 10.9269 5.99056 11.0249 6.06975 11.1083C6.14894 11.1916 6.24377 11.2585 6.34883 11.3051C6.45385 11.3519 6.56706 11.3774 6.68197 11.3804C6.79687 11.3833 6.91124 11.3636 7.01852 11.3223C7.12581 11.2811 7.22391 11.2191 7.30723 11.1399C7.39055 11.0607 7.45745 10.9659 7.5041 10.8608L11.0041 2.98581C11.0508 2.88078 11.0764 2.76759 11.0793 2.65268C11.0823 2.53777 11.0626 2.4234 11.0213 2.31612C10.98 2.20883 10.918 2.11072 10.8388 2.0274C10.7596 1.94409 10.6648 1.87719 10.5598 1.83054C10.3481 1.73664 10.1078 1.73048 9.89155 1.81345ZM18.1306 1.81345C17.9143 1.73048 17.6741 1.73662 17.4624 1.83051C17.3573 1.87717 17.2625 1.94406 17.1833 2.02738C17.1041 2.11069 17.0421 2.2088 17.0008 2.31609C16.9596 2.42337 16.9398 2.53774 16.9428 2.65265C16.9457 2.76756 16.9713 2.88076 17.018 2.98578L20.518 10.8608C20.6123 11.0725 20.7866 11.2382 21.0029 11.3215C21.2192 11.4048 21.4597 11.3989 21.6716 11.3051C21.7766 11.2585 21.8715 11.1916 21.9507 11.1082C22.0298 11.0249 22.0918 10.9268 22.1331 10.8196C22.1744 10.7123 22.1941 10.5979 22.1911 10.483C22.1882 10.3681 22.1626 10.2549 22.1159 10.1498L18.6159 2.27485C18.5217 2.06276 18.3471 1.89681 18.1306 1.81345ZM14 13.1303C13.7679 13.1303 13.5453 13.2225 13.3812 13.3866C13.2171 13.5507 13.125 13.7733 13.125 14.0053V21.0053C13.125 21.2374 13.2171 21.46 13.3812 21.624C13.5453 21.7881 13.7679 21.8803 14 21.8803C14.232 21.8803 14.4546 21.7881 14.6187 21.624C14.7828 21.46 14.875 21.2374 14.875 21.0053V14.0053C14.875 13.7733 14.7828 13.5507 14.6187 13.3866C14.4546 13.2225 14.232 13.1303 14 13.1303ZM10.5 13.1303C10.2679 13.1303 10.0453 13.2225 9.88123 13.3866C9.71714 13.5507 9.62495 13.7733 9.62495 14.0053V21.0053C9.62495 21.2374 9.71714 21.46 9.88123 21.624C10.0453 21.7881 10.2679 21.8803 10.5 21.8803C10.732 21.8803 10.9546 21.7881 11.1187 21.624C11.2828 21.46 11.375 21.2374 11.375 21.0053V14.0053C11.375 13.7733 11.2828 13.5507 11.1187 13.3866C10.9546 13.2225 10.732 13.1303 10.5 13.1303ZM17.5 13.1303C17.2679 13.1303 17.0453 13.2225 16.8812 13.3866C16.7171 13.5507 16.625 13.7733 16.625 14.0053V21.0053C16.625 21.2374 16.7171 21.46 16.8812 21.624C17.0453 21.7881 17.2679 21.8803 17.5 21.8803C17.732 21.8803 17.9546 21.7881 18.1187 21.624C18.2828 21.46 18.375 21.2374 18.375 21.0053V14.0053C18.375 13.7733 18.2828 13.5507 18.1187 13.3866C17.9546 13.2225 17.732 13.1303 17.5 13.1303Z" fill="#686868"/>
</svg>
