<svg width="28" height="26" viewBox="0 0 28 26" fill="none" xmlns="http://www.w3.org/2000/svg">
<path d="M24.5 8.03223V14.8747C24.5 16.035 24.0391 17.1478 23.2186 17.9683C22.3981 18.7888 21.2853 19.2497 20.125 19.2497H8.75V20.1247C8.75208 20.8203 9.02931 21.4868 9.52114 21.9786C10.013 22.4704 10.6794 22.7476 11.375 22.7497H21.4638C21.6006 22.7515 21.7353 22.7844 21.8575 22.846L24.9812 24.4035C25.1035 24.465 25.2381 24.498 25.375 24.4997C25.5387 24.4996 25.6992 24.4542 25.8388 24.3685C25.9648 24.2897 26.0688 24.18 26.1407 24.0499C26.2127 23.9198 26.2503 23.7734 26.25 23.6247V10.4997C26.2485 9.95815 26.0795 9.4303 25.7662 8.98854C25.4529 8.54679 25.0106 8.21275 24.5 8.03223Z" fill="#FAFFFE"/>
<path d="M22.75 14.875V4.375C22.75 3.67881 22.4734 3.01113 21.9812 2.51884C21.4889 2.02656 20.8212 1.75 20.125 1.75H4.375C3.67881 1.75 3.01113 2.02656 2.51884 2.51884C2.02656 3.01113 1.75 3.67881 1.75 4.375V20.125C1.74994 20.2899 1.79646 20.4514 1.88421 20.591C1.97196 20.7306 2.09736 20.8425 2.24597 20.914C2.39457 20.9854 2.56033 21.0134 2.72415 20.9947C2.88796 20.976 3.04317 20.9114 3.17188 20.8084L7.06737 17.6916C7.22214 17.5679 7.41433 17.5003 7.6125 17.5H20.125C20.8212 17.5 21.4889 17.2234 21.9812 16.7312C22.4734 16.2389 22.75 15.5712 22.75 14.875ZM17.5 12.25H7C6.76794 12.25 6.54538 12.1578 6.38128 11.9937C6.21719 11.8296 6.125 11.6071 6.125 11.375C6.125 11.1429 6.21719 10.9204 6.38128 10.7563C6.54538 10.5922 6.76794 10.5 7 10.5H17.5C17.7321 10.5 17.9546 10.5922 18.1187 10.7563C18.2828 10.9204 18.375 11.1429 18.375 11.375C18.375 11.6071 18.2828 11.8296 18.1187 11.9937C17.9546 12.1578 17.7321 12.25 17.5 12.25ZM17.5 8.75H7C6.76794 8.75 6.54538 8.65781 6.38128 8.49372C6.21719 8.32962 6.125 8.10706 6.125 7.875C6.125 7.64294 6.21719 7.42038 6.38128 7.25628C6.54538 7.09219 6.76794 7 7 7H17.5C17.7321 7 17.9546 7.09219 18.1187 7.25628C18.2828 7.42038 18.375 7.64294 18.375 7.875C18.375 8.10706 18.2828 8.32962 18.1187 8.49372C17.9546 8.65781 17.7321 8.75 17.5 8.75Z" fill="#FAFFFE"/>
</svg>
