<svg width="20" height="20" viewBox="0 0 20 20" fill="none" xmlns="http://www.w3.org/2000/svg">
<path d="M17.4438 7.36875C17.5537 7.86375 17.6175 8.3725 17.6175 8.895C17.6175 12.93 14.1925 16.2937 9.6825 17.0162C10.6362 17.4012 11.705 17.6262 12.8438 17.6262C13.9175 17.6262 14.9312 17.4288 15.8463 17.085C17.005 17.48 18.27 17.5825 19.3162 17.5825C18.8438 17.0159 18.4437 16.3928 18.125 15.7275C19.285 14.6925 20 13.3212 20 11.8113C20 10.0263 19.0037 8.435 17.4438 7.36875ZM15.7425 8.895C15.7425 5.36375 12.2188 2.5 7.87125 2.5C3.52375 2.5 0 5.36375 0 8.895C0 10.7375 0.96375 12.3925 2.49875 13.56C2.1138 14.546 1.57132 15.4629 0.8925 16.275C2.465 16.275 4.49 16.0687 6.04875 15.1112C6.635 15.225 7.24375 15.2913 7.87125 15.2913C12.2188 15.29 15.7425 12.4275 15.7425 8.895Z" fill="#3E8D7A"/>
</svg>
