<svg width="24" height="24" viewBox="0 0 24 24" fill="none" xmlns="http://www.w3.org/2000/svg">
<g clip-path="url(#clip0_18_202)">
<path d="M6.71358 5.23423C6.70588 5.92153 6.8346 6.60352 7.09229 7.24073C7.34997 7.87794 7.73151 8.4577 8.2148 8.94643C8.69809 9.43517 9.27354 9.82318 9.90782 10.088C10.5421 10.3528 11.2226 10.4892 11.9099 10.4892C12.5973 10.4892 13.2778 10.3528 13.9121 10.088C14.5464 9.82319 15.1218 9.43518 15.6051 8.94644C16.0884 8.45771 16.4699 7.87795 16.7276 7.24074C16.9853 6.60354 17.114 5.92154 17.1063 5.23424C17.1063 3.34397 16.0008 1.45148 14.3342 0.587748C13.6565 0.241433 12.9129 0.0435527 12.1527 0.0072998C11.3926 -0.0289531 10.6335 0.0972542 9.92594 0.377508C8.97227 0.781498 8.15889 1.4577 7.58752 2.32155C7.01615 3.18539 6.71217 4.19853 6.71358 5.23423ZM11.6899 0.735606C11.9094 0.757256 12.1133 0.858986 12.2625 1.02137C12.3948 1.16738 12.4681 1.35734 12.4681 1.55435C12.4681 1.75135 12.3948 1.94132 12.2625 2.08732C12.2217 2.13129 12.1722 2.16637 12.1172 2.19035C12.0622 2.21433 12.0029 2.22671 11.9429 2.22671C11.8829 2.22671 11.8235 2.21433 11.7685 2.19035C11.7135 2.16637 11.6641 2.13129 11.6232 2.08732C11.59 2.05154 11.55 2.02272 11.5055 2.00254C11.461 1.98236 11.4129 1.97122 11.3641 1.96977C11.3153 1.96832 11.2667 1.97659 11.2211 1.9941C11.1755 2.0116 11.1338 2.038 11.0985 2.07175C11.0268 2.14049 10.985 2.23465 10.9822 2.33391C10.9793 2.43317 11.0156 2.52958 11.0831 2.60234C11.1921 2.72197 11.3249 2.81753 11.4729 2.88292C11.621 2.94831 11.781 2.98209 11.9429 2.98209C12.1047 2.98209 12.2648 2.94831 12.4128 2.88292C12.5609 2.81753 12.6936 2.72197 12.8026 2.60234C13.0102 2.37278 13.1452 2.08681 13.1903 1.78059C13.2354 1.47437 13.1888 1.16164 13.0562 0.881924C13.3649 0.965391 13.6636 1.08233 13.9469 1.23065C14.1004 1.43774 14.1952 1.76842 14.0956 1.97497C14.0857 1.9973 14.0721 2.01785 14.0556 2.03582C14.0496 2.03088 14.044 2.02549 14.0389 2.01969C14.0061 1.98349 13.9665 1.95418 13.9222 1.93344C13.878 1.91271 13.8301 1.90098 13.7813 1.89893C13.7325 1.89689 13.6838 1.90457 13.638 1.92152C13.5922 1.93848 13.5502 1.96437 13.5145 1.9977C13.442 2.06555 13.399 2.1592 13.3949 2.25843C13.3909 2.35767 13.426 2.45453 13.4927 2.52811C13.563 2.60975 13.6497 2.67565 13.7472 2.72154C13.8447 2.76742 13.9507 2.79225 14.0585 2.79441C14.0921 2.79443 14.1256 2.79198 14.1589 2.78708C14.2916 2.76261 14.4162 2.7057 14.5216 2.62141C14.627 2.53711 14.7099 2.42806 14.7629 2.30396C14.8267 2.17007 14.865 2.02552 14.876 1.87764C15.6388 2.56726 16.1387 3.50018 16.2904 4.51724C16.4421 5.53431 16.2362 6.5725 15.7078 7.4547C15.1794 8.3369 14.3614 9.00844 13.3931 9.35476C12.4249 9.70108 11.3665 9.70072 10.3984 9.35373C9.43044 9.00675 8.61281 8.33464 8.08506 7.45208C7.55731 6.56952 7.35213 5.53118 7.50453 4.51422C7.65693 3.49726 8.15747 2.56468 8.92075 1.87559C9.68402 1.1865 10.6627 0.783593 11.6899 0.735606Z" fill="#8D8D8D"/>
<path d="M9.49734 5.23411H9.86852C9.96739 5.23307 10.0619 5.19307 10.1314 5.12279C10.2009 5.05251 10.24 4.95763 10.24 4.85875C10.24 4.75988 10.2009 4.665 10.1314 4.59472C10.0619 4.52444 9.96739 4.48443 9.86852 4.4834H9.49734C9.39848 4.48443 9.30401 4.52444 9.23446 4.59472C9.16491 4.665 9.1259 4.75988 9.1259 4.85875C9.1259 4.95763 9.16491 5.05251 9.23446 5.12279C9.30401 5.19307 9.39848 5.23307 9.49734 5.23411ZM13.9514 5.23411H14.3225C14.4214 5.23307 14.5159 5.19307 14.5854 5.12279C14.655 5.05251 14.694 4.95763 14.694 4.85875C14.694 4.75988 14.655 4.665 14.5854 4.59472C14.5159 4.52444 14.4214 4.48443 14.3225 4.4834H13.9514C13.8525 4.48443 13.758 4.52444 13.6885 4.59472C13.6189 4.665 13.5799 4.75988 13.5799 4.85875C13.5799 4.95763 13.6189 5.05251 13.6885 5.12279C13.758 5.19307 13.8525 5.23307 13.9514 5.23411ZM10.9678 7.89679C11.2553 8.05879 11.5798 8.14388 11.9098 8.14385C12.2398 8.14381 12.5642 8.05866 12.8517 7.89661C12.935 7.84245 12.9935 7.75772 13.0148 7.66073C13.036 7.56374 13.0182 7.46228 12.9653 7.37829C12.9394 7.33687 12.9055 7.301 12.8656 7.27277C12.8258 7.24453 12.7807 7.2245 12.733 7.21383C12.6854 7.20315 12.636 7.20205 12.5879 7.21059C12.5398 7.21912 12.4939 7.23713 12.4528 7.26355C12.2843 7.34754 12.0985 7.3913 11.9102 7.39139C11.7219 7.39149 11.5361 7.34792 11.3674 7.2641C11.3263 7.23762 11.2804 7.21957 11.2323 7.21098C11.1842 7.2024 11.1349 7.20346 11.0872 7.2141C11.0395 7.22474 10.9944 7.24475 10.9545 7.27297C10.9146 7.30119 10.8807 7.33705 10.8548 7.37848C10.8018 7.46239 10.7839 7.56381 10.805 7.6608C10.8262 7.7578 10.8846 7.84257 10.9678 7.89679ZM19.9313 17.5142L19.3687 17.0472C19.1124 16.8344 18.8146 16.6775 18.4941 16.5865C18.1737 16.4954 17.8379 16.4723 17.508 16.5186C17.1746 16.5677 16.8552 16.6859 16.5702 16.8658C16.2852 17.0456 16.0409 17.283 15.8531 17.5628L14.2422 20.1868C14.0947 20.3854 13.9775 20.6048 13.8944 20.8378C13.6255 20.8859 13.3627 20.9634 13.1107 21.0689C12.9302 21.144 12.7439 21.2045 12.5537 21.2498C12.122 21.3269 11.6798 21.3248 11.2489 21.2436C10.9958 21.1949 10.7463 21.1291 10.502 21.0467C10.3833 21.0098 10.261 20.9732 10.1374 20.9384C10.0549 20.668 9.92649 20.4137 9.75787 20.1868L8.13718 17.5477C7.95062 17.271 7.70812 17.0365 7.42532 16.8594C7.14252 16.6822 6.82572 16.5663 6.49536 16.5191C6.16499 16.4719 5.82841 16.4946 5.50733 16.5855C5.18626 16.6765 4.88782 16.8338 4.63128 17.0472L4.06863 17.5142C3.81 17.7305 3.59863 17.9976 3.44765 18.2991C3.29668 18.6006 3.20934 18.9298 3.19106 19.2665C3.17277 19.6032 3.22394 19.94 3.34139 20.256C3.45883 20.572 3.64003 20.8605 3.87372 21.1035L6.26203 23.4184C6.66018 23.7919 7.18558 23.9998 7.73149 23.9999C8.29562 23.9905 8.84227 23.8026 9.29291 23.4631L9.30179 23.4559C9.56429 23.2492 9.78189 22.9912 9.94128 22.6975C10.1007 22.4039 10.1985 22.0809 10.2289 21.7481C10.2476 21.7539 10.2649 21.7584 10.2838 21.7642C10.56 21.8569 10.8423 21.9305 11.1286 21.9844C11.6481 22.0804 12.1806 22.0809 12.7002 21.9858C12.9302 21.933 13.1553 21.8612 13.3733 21.771C13.5078 21.7196 13.6377 21.6712 13.7649 21.6334C13.779 21.9867 13.8697 22.3327 14.0309 22.6474C14.1921 22.9621 14.4198 23.238 14.6982 23.4559L14.7071 23.4631C15.1564 23.8017 15.7016 23.989 16.2642 23.9981C16.8158 23.9974 17.3464 23.7867 17.7482 23.4088L20.1366 21.0933C20.3679 20.8497 20.5469 20.5613 20.6625 20.2459C20.7781 19.9305 20.8278 19.5947 20.8086 19.2593C20.7893 18.9239 20.7016 18.596 20.5507 18.2959C20.3998 17.9957 20.189 17.7297 19.9313 17.5142ZM19.8069 16.4425C19.8185 16.4136 19.8264 16.3833 19.8305 16.3524C20.3237 12.2464 17.6053 9.96998 16.3902 9.16949C16.2257 9.36113 16.0494 9.54224 15.8621 9.71174C16.8392 10.3055 19.4508 12.2609 19.1168 16.0217C19.3641 16.1315 19.596 16.273 19.8069 16.4425ZM3.98935 16.3524C3.99761 16.422 4.02524 16.488 4.06908 16.5427L4.16034 16.4669C4.33039 16.3259 4.51487 16.2033 4.71071 16.1011C4.33256 12.2878 6.97464 10.3091 7.9578 9.71177C7.77055 9.54226 7.59415 9.36114 7.42965 9.16949C6.21456 9.96998 3.49623 12.2464 3.98935 16.3524Z" fill="#8D8D8D"/>
<path d="M11.91 17.2463C12.0091 17.2455 12.1039 17.2053 12.1735 17.1347C12.2431 17.064 12.2818 16.9686 12.2812 16.8695V14.777C13.9481 14.5276 15.2512 12.6151 15.2512 10.3013C15.2512 10.2973 15.2499 10.2937 15.2497 10.2898C14.2692 10.9245 13.1244 11.2583 11.9565 11.2499C10.7886 11.2416 9.64863 10.8916 8.6773 10.243C8.64358 10.239 8.61072 10.2295 8.57998 10.2151C8.57335 10.2434 8.56958 10.2723 8.56873 10.3013C8.56873 12.6151 9.86998 14.5276 11.5387 14.777V16.8695C11.5381 16.9686 11.5768 17.064 11.6464 17.1347C11.716 17.2053 11.8108 17.2455 11.91 17.2463ZM11.91 11.6157C11.9843 11.615 12.0572 11.6363 12.1193 11.6771C12.1815 11.7178 12.2302 11.7761 12.2591 11.8446C12.2881 11.913 12.2961 11.9886 12.282 12.0616C12.268 12.1346 12.2325 12.2017 12.1803 12.2546C12.128 12.3074 12.0611 12.3435 11.9883 12.3582C11.9154 12.373 11.8398 12.3658 11.7711 12.3375C11.7024 12.3093 11.6436 12.2612 11.6022 12.1995C11.5608 12.1377 11.5387 12.065 11.5387 11.9907C11.5385 11.9417 11.5478 11.8931 11.5664 11.8477C11.5849 11.8024 11.6121 11.7611 11.6466 11.7263C11.6811 11.6914 11.7221 11.6637 11.7673 11.6448C11.8125 11.6258 11.861 11.6159 11.91 11.6157ZM11.91 12.7407C11.9846 12.7398 12.0578 12.7611 12.1202 12.8018C12.1827 12.8426 12.2316 12.9011 12.2608 12.9697C12.2899 13.0384 12.298 13.1142 12.2839 13.1874C12.2699 13.2607 12.2343 13.3281 12.1819 13.3812C12.1294 13.4342 12.0623 13.4704 11.9892 13.4852C11.9161 13.4999 11.8402 13.4926 11.7713 13.4642C11.7023 13.4357 11.6434 13.3874 11.602 13.3253C11.5606 13.2633 11.5385 13.1903 11.5387 13.1157C11.5385 13.0168 11.5774 12.9219 11.647 12.8516C11.7165 12.7813 11.8111 12.7415 11.91 12.7407Z" fill="#8D8D8D"/>
</g>
<defs>
<clipPath id="clip0_18_202">
<rect width="24" height="24" fill="white"/>
</clipPath>
</defs>
</svg>
