<svg width="20" height="20" viewBox="0 0 20 20" fill="none" xmlns="http://www.w3.org/2000/svg">
<path fill-rule="evenodd" clip-rule="evenodd" d="M11.875 2.5V8.09688H9.375V5.59687H8.125V4.97187H5.625V5.59687H4.375V7.47188H2.5625V3.72187H0V18.7219H0.625V12.7844H1.21875V14.0344H3.125V18.75H3.75V11.2219H5.2575V9.97188H6.67938V11.2219H8.125V10.5969H7.30438V9.34688H4.6325V10.5969H3.125V13.4094H1.84375V12.1594H0.625V4.34687H1.9375V8.09688H5V6.22187H6.25V5.59687H7.5V6.22187H8.75V8.72188H12.5V3.125H15V9.34688H17.5V4.97187H19.375V11.8469H17.8125V10.5969H15V11.2219H17.1875V12.4719H19.375V18.7219H20V4.34687H16.875V8.72188H15.625V2.5H11.875ZM10.6394 9.34562C10.6289 9.34552 10.6185 9.34594 10.6081 9.34688C10.5354 9.35036 10.4663 9.37909 10.4125 9.42812L6.35125 13.1781C6.30451 13.2206 6.27174 13.2763 6.25726 13.3378C6.24278 13.3992 6.24727 13.4637 6.27015 13.5225C6.29302 13.5814 6.3332 13.632 6.3854 13.6676C6.43758 13.7032 6.49933 13.7221 6.5625 13.7219H6.875V18.4081C6.875 18.491 6.90792 18.5705 6.96653 18.6291C7.02513 18.6877 7.10462 18.7206 7.1875 18.7206H14.0625C14.1454 18.7206 14.2249 18.6877 14.2835 18.6291C14.3421 18.5705 14.375 18.491 14.375 18.4081V13.7219H14.6875C14.7508 13.7223 14.8127 13.7036 14.8651 13.6681C14.9175 13.6326 14.9579 13.5821 14.9809 13.5231C15.0039 13.4642 15.0085 13.3997 14.9941 13.3381C14.9796 13.2765 14.9468 13.2207 14.9 13.1781L14.375 12.6944V10.9131C14.3755 10.8713 14.3676 10.8299 14.3518 10.7912C14.336 10.7525 14.3127 10.7174 14.2831 10.6879C14.2535 10.6584 14.2182 10.6352 14.1795 10.6196C14.1408 10.6039 14.0993 10.5962 14.0575 10.5969C13.9748 10.5982 13.8961 10.6322 13.8384 10.6915C13.7808 10.7508 13.749 10.8305 13.75 10.9131V12.1169L10.8375 9.42875C10.7834 9.3785 10.7132 9.34905 10.6394 9.34562ZM10.625 10.0856L13.8875 13.0969H7.3625L10.625 10.0856ZM7.5 13.8562H13.75V18.0956H11.875V15.9081C11.875 15.8252 11.8421 15.7458 11.7835 15.6872C11.7249 15.6285 11.6454 15.5956 11.5625 15.5956H9.6875C9.60462 15.5956 9.52513 15.6285 9.46653 15.6872C9.40792 15.7458 9.375 15.8252 9.375 15.9081V18.0956H7.5V13.8562ZM10 16.2206H11.25V18.0956H10V16.2206Z" fill="#2C2C2C"/>
</svg>
