<svg width="24" height="24" viewBox="0 0 24 24" fill="none" xmlns="http://www.w3.org/2000/svg">
<path d="M10.6465 21.9845H2.40011C2.29827 21.9845 2.2006 21.944 2.12858 21.872C2.05657 21.8 2.01611 21.7023 2.01611 21.6005V17.8056C2.01611 16.0646 3.43211 14.6481 5.17355 14.6481H7.87331C9.61427 14.6481 11.0305 16.0641 11.0305 17.8056V21.6005C11.0305 21.7023 10.9901 21.8 10.918 21.872C10.846 21.944 10.7484 21.9845 10.6465 21.9845ZM2.78411 21.2164H10.2625V17.8056C10.2618 17.1721 10.0099 16.5648 9.56198 16.1168C9.11407 15.6689 8.50678 15.4169 7.87331 15.4161H5.17355C4.54005 15.4168 3.93269 15.6688 3.48474 16.1168C3.03678 16.5647 2.78481 17.1721 2.78411 17.8056V21.2164ZM6.52331 14.3227C6.01356 14.3227 5.51525 14.1715 5.09141 13.8883C4.66756 13.6051 4.33722 13.2026 4.14214 12.7316C3.94707 12.2607 3.89603 11.7425 3.99548 11.2425C4.09492 10.7426 4.34039 10.2833 4.70084 9.92286C5.06129 9.56241 5.52054 9.31694 6.02049 9.21749C6.52045 9.11805 7.03867 9.16909 7.50963 9.36416C7.98058 9.55923 8.38311 9.88958 8.66631 10.3134C8.94951 10.7373 9.10067 11.2356 9.10067 11.7453C9.09991 12.4287 8.82812 13.0838 8.34494 13.567C7.86176 14.0501 7.20664 14.3219 6.52331 14.3227ZM6.52331 9.93621C6.16545 9.93621 5.81561 10.0423 5.51806 10.2412C5.22051 10.44 4.9886 10.7226 4.85166 11.0532C4.71472 11.3838 4.6789 11.7477 4.74874 12.0986C4.81857 12.4496 4.99092 12.772 5.24399 13.0251C5.49705 13.2781 5.81947 13.4504 6.17047 13.5202C6.52147 13.59 6.88528 13.5541 7.21589 13.4171C7.5465 13.2801 7.82907 13.0482 8.02786 12.7506C8.22664 12.453 8.33272 12.1032 8.33267 11.7453C8.33204 11.2657 8.14119 10.8059 7.80199 10.4668C7.4628 10.1277 7.00295 9.93696 6.52331 9.93645V9.93621ZM21.6001 21.9845H13.3537C13.2519 21.9845 13.1542 21.944 13.0822 21.872C13.0102 21.8 12.9697 21.7023 12.9697 21.6005V17.8056C12.9697 16.0646 14.3857 14.6481 16.1269 14.6481H18.8267C20.5676 14.6481 21.9841 16.0641 21.9841 17.8056V21.6005C21.9841 21.7023 21.9437 21.8 21.8716 21.872C21.7996 21.944 21.702 21.9845 21.6001 21.9845ZM13.7377 21.2164H21.2161V17.8056C21.2154 17.1721 20.9634 16.5647 20.5155 16.1168C20.0675 15.6688 19.4602 15.4168 18.8267 15.4161H16.1281C15.4947 15.4169 14.8874 15.6689 14.4395 16.1168C13.9915 16.5648 13.7396 17.1721 13.7389 17.8056L13.7377 21.2164ZM17.4769 14.3227C16.9671 14.3227 16.4688 14.1716 16.0449 13.8884C15.6211 13.6053 15.2907 13.2028 15.0956 12.7318C14.9005 12.2609 14.8494 11.7426 14.9488 11.2427C15.0482 10.7427 15.2937 10.2834 15.6541 9.92295C16.0146 9.56247 16.4738 9.31698 16.9738 9.21751C17.4737 9.11804 17.992 9.16907 18.4629 9.36414C18.9339 9.5592 19.3364 9.88955 19.6197 10.3134C19.9029 10.7373 20.054 11.2356 20.054 11.7453C20.0532 12.4286 19.7814 13.0836 19.2983 13.5668C18.8152 14.05 18.1602 14.3218 17.4769 14.3227ZM17.4769 9.93621C17.119 9.93616 16.7692 10.0422 16.4716 10.241C16.174 10.4398 15.9421 10.7224 15.8051 11.053C15.6681 11.3837 15.6323 11.7475 15.7021 12.0985C15.7719 12.4495 15.9442 12.7719 16.1973 13.025C16.4503 13.278 16.7727 13.4504 17.1237 13.5202C17.4747 13.59 17.8386 13.5541 18.1692 13.4172C18.4998 13.2802 18.7824 13.0482 18.9812 12.7506C19.18 12.4531 19.2861 12.1032 19.286 11.7453C19.2854 11.2657 19.0946 10.806 18.7554 10.4669C18.4163 10.1278 17.9565 9.93702 17.4769 9.93645V9.93621Z" fill="black"/>
<path d="M4.24997 21.9844C4.14812 21.9844 4.05045 21.9439 3.97844 21.8719C3.90642 21.7999 3.86597 21.7022 3.86597 21.6004V19.1497C3.86597 19.0479 3.90642 18.9502 3.97844 18.8782C4.05045 18.8062 4.14812 18.7657 4.24997 18.7657C4.35181 18.7657 4.44948 18.8062 4.5215 18.8782C4.59351 18.9502 4.63397 19.0479 4.63397 19.1497V21.6004C4.63397 21.7022 4.59351 21.7999 4.5215 21.8719C4.44948 21.9439 4.35181 21.9844 4.24997 21.9844ZM8.79677 21.9844C8.69492 21.9844 8.59725 21.9439 8.52524 21.8719C8.45322 21.7999 8.41277 21.7022 8.41277 21.6004V19.1497C8.41277 19.0479 8.45322 18.9502 8.52524 18.8782C8.59725 18.8062 8.69492 18.7657 8.79677 18.7657C8.89861 18.7657 8.99628 18.8062 9.0683 18.8782C9.14031 18.9502 9.18077 19.0479 9.18077 19.1497V21.6004C9.18077 21.7022 9.14031 21.7999 9.0683 21.8719C8.99628 21.9439 8.89861 21.9844 8.79677 21.9844ZM15.2033 21.9844C15.1015 21.9844 15.0038 21.9439 14.9318 21.8719C14.8598 21.7999 14.8193 21.7022 14.8193 21.6004V19.1497C14.8193 19.0479 14.8598 18.9502 14.9318 18.8782C15.0038 18.8062 15.1015 18.7657 15.2033 18.7657C15.3052 18.7657 15.4028 18.8062 15.4749 18.8782C15.5469 18.9502 15.5873 19.0479 15.5873 19.1497V21.6004C15.5873 21.7022 15.5469 21.7999 15.4749 21.8719C15.4028 21.9439 15.3052 21.9844 15.2033 21.9844ZM19.7501 21.9844C19.6483 21.9844 19.5506 21.9439 19.4786 21.8719C19.4066 21.7999 19.3661 21.7022 19.3661 21.6004V19.1497C19.3661 19.0479 19.4066 18.9502 19.4786 18.8782C19.5506 18.8062 19.6483 18.7657 19.7501 18.7657C19.852 18.7657 19.9496 18.8062 20.0217 18.8782C20.0937 18.9502 20.1341 19.0479 20.1341 19.1497V21.6004C20.1341 21.7022 20.0937 21.7999 20.0217 21.8719C19.9496 21.9439 19.852 21.9844 19.7501 21.9844ZM8.77973 9.26774C8.69625 9.26769 8.61506 9.24045 8.54846 9.19012C8.48185 9.1398 8.43346 9.06915 8.41061 8.98886L7.81325 6.8939H7.23509C6.85616 6.89352 6.49285 6.74282 6.22491 6.47487C5.95697 6.20693 5.80627 5.84363 5.80589 5.4647V3.44702C5.80627 3.06807 5.95696 2.70474 6.2249 2.43676C6.49283 2.16877 6.85613 2.01802 7.23509 2.01758H16.765C17.144 2.01802 17.5073 2.16877 17.7752 2.43676C18.0431 2.70474 18.1938 3.06807 18.1942 3.44702V5.4647C18.1938 5.84363 18.0431 6.20693 17.7752 6.47487C17.5072 6.74282 17.1439 6.89352 16.765 6.8939H11.5016L9.04013 9.16574C8.96923 9.23126 8.87626 9.26768 8.77973 9.26774ZM7.23509 2.78558C7.05974 2.78577 6.89164 2.85552 6.76767 2.97953C6.64371 3.10354 6.57401 3.27167 6.57389 3.44702V5.4647C6.57408 5.64 6.6438 5.80807 6.76776 5.93203C6.89172 6.05598 7.05978 6.12571 7.23509 6.1259H8.10293C8.1864 6.12594 8.26759 6.15319 8.3342 6.20351C8.4008 6.25383 8.44919 6.32449 8.47205 6.40478L8.97773 8.17814L11.0909 6.2279C11.162 6.16221 11.2553 6.12578 11.352 6.1259H16.765C16.9403 6.12571 17.1084 6.05598 17.2323 5.93203C17.3563 5.80807 17.426 5.64 17.4262 5.4647V3.44702C17.4261 3.27167 17.3564 3.10354 17.2324 2.97953C17.1085 2.85552 16.9404 2.78577 16.765 2.78558H7.23509Z" fill="black"/>
</svg>
