<svg width="20" height="20" viewBox="0 0 20 20" fill="none" xmlns="http://www.w3.org/2000/svg">
<path d="M15.6617 4.38047C14.9286 3.63952 14.0564 3.0506 13.0951 2.64747C12.1339 2.24433 11.1025 2.03493 10.0602 2.03125H10C7.88656 2.03125 5.85967 2.87081 4.36524 4.36524C2.87081 5.85967 2.03125 7.88656 2.03125 10V14.375C2.03125 14.8308 2.21233 15.268 2.53466 15.5903C2.85699 15.9127 3.29416 16.0938 3.75 16.0938H5C5.45584 16.0938 5.89301 15.9127 6.21534 15.5903C6.53767 15.268 6.71875 14.8308 6.71875 14.375V11.25C6.71875 10.7942 6.53767 10.357 6.21534 10.0347C5.89301 9.71233 5.45584 9.53125 5 9.53125H2.98438C3.10329 7.75156 3.89413 6.08357 5.19673 4.8651C6.49934 3.64662 8.21634 2.96875 10 2.96875H10.0531C11.8293 2.97663 13.5363 3.65862 14.8289 4.87684C16.1215 6.09506 16.9034 7.75864 17.0164 9.53125H15C14.5442 9.53125 14.107 9.71233 13.7847 10.0347C13.4623 10.357 13.2812 10.7942 13.2812 11.25V14.375C13.2812 14.8308 13.4623 15.268 13.7847 15.5903C14.107 15.9127 14.5442 16.0938 15 16.0938H17.0312V16.25C17.0312 16.7887 16.8172 17.3054 16.4363 17.6863C16.0554 18.0672 15.5387 18.2812 15 18.2812H10.625C10.5007 18.2812 10.3815 18.3306 10.2935 18.4185C10.2056 18.5065 10.1562 18.6257 10.1562 18.75C10.1562 18.8743 10.2056 18.9935 10.2935 19.0815C10.3815 19.1694 10.5007 19.2188 10.625 19.2188H15C15.7874 19.2188 16.5425 18.906 17.0992 18.3492C17.656 17.7925 17.9688 17.0374 17.9688 16.25V10C17.9727 8.95762 17.7709 7.9247 17.375 6.96041C16.9792 5.99612 16.3969 5.1194 15.6617 4.38047ZM5 10.4688C5.2072 10.4688 5.40591 10.5511 5.55243 10.6976C5.69894 10.8441 5.78125 11.0428 5.78125 11.25V14.375C5.78125 14.5822 5.69894 14.7809 5.55243 14.9274C5.40591 15.0739 5.2072 15.1562 5 15.1562H3.75C3.5428 15.1562 3.34409 15.0739 3.19757 14.9274C3.05106 14.7809 2.96875 14.5822 2.96875 14.375V10.4688H5ZM14.2188 14.375V11.25C14.2188 11.0428 14.3011 10.8441 14.4476 10.6976C14.5941 10.5511 14.7928 10.4688 15 10.4688H17.0312V15.1562H15C14.7928 15.1562 14.5941 15.0739 14.4476 14.9274C14.3011 14.7809 14.2188 14.5822 14.2188 14.375Z" fill="#0A0A0A"/>
</svg>
