<svg width="24" height="24" viewBox="0 0 24 24" fill="none" xmlns="http://www.w3.org/2000/svg">
<path fill-rule="evenodd" clip-rule="evenodd" d="M12.011 12.586L18.582 6.015C18.789 5.808 19.077 5.702 19.369 5.726C19.661 5.749 19.928 5.899 20.1 6.137C20.1 6.137 20.125 6.173 20.127 6.175C21.305 7.816 22 9.827 22 12C22 17.519 17.519 22 12 22C6.481 22 2 17.519 2 12C2 6.481 6.481 2 12 2C13.596 2 15.106 2.375 16.445 3.042C16.94 3.287 17.141 3.888 16.895 4.382C16.649 4.876 16.049 5.078 15.555 4.832C14.484 4.299 13.276 4 12 4C7.585 4 4 7.585 4 12C4 16.415 7.585 20 12 20C16.415 20 20 16.415 20 12C20 10.674 19.677 9.422 19.104 8.321L12.719 14.707C12.328 15.098 11.695 15.098 11.304 14.707L8.304 11.707C7.914 11.317 7.914 10.683 8.304 10.293C8.695 9.903 9.328 9.903 9.719 10.293L12.011 12.586Z" fill="#27AE60"/>
</svg>
