<svg width="12" height="12" viewBox="0 0 12 12" fill="none" xmlns="http://www.w3.org/2000/svg">
<path d="M9.07519 4.57272L8.92519 9.11285C8.91242 9.50168 8.74862 9.87023 8.46856 10.1403C8.1885 10.4103 7.81424 10.5606 7.42519 10.5592H4.57519C4.1864 10.5606 3.81235 10.4105 3.53234 10.1408C3.25232 9.87109 3.08835 9.50292 3.07519 9.11435L2.92519 4.57272C2.92191 4.47327 2.95827 4.37658 3.02628 4.30393C3.09428 4.23129 3.18836 4.18863 3.28782 4.18535C3.38727 4.18207 3.48396 4.21843 3.55661 4.28643C3.62926 4.35444 3.67191 4.44852 3.67519 4.54797L3.82519 9.08922C3.83266 9.28309 3.91497 9.46652 4.05482 9.60098C4.19467 9.73545 4.38118 9.81049 4.57519 9.81035H7.42519C7.61945 9.81048 7.80618 9.73523 7.94608 9.60044C8.08597 9.46566 8.1681 9.28185 8.17519 9.08772L8.32519 4.54797C8.32848 4.44852 8.37113 4.35444 8.44378 4.28643C8.51643 4.21843 8.61311 4.18207 8.71257 4.18535C8.81203 4.18863 8.9061 4.23129 8.97411 4.30393C9.04211 4.37658 9.07848 4.47327 9.07519 4.57272ZM9.57132 3.06185C9.57132 3.1613 9.53181 3.25669 9.46148 3.32701C9.39116 3.39734 9.29578 3.43685 9.19632 3.43685H2.80444C2.70499 3.43685 2.6096 3.39734 2.53928 3.32701C2.46895 3.25669 2.42944 3.1613 2.42944 3.06185C2.42944 2.96239 2.46895 2.86701 2.53928 2.79668C2.6096 2.72636 2.70499 2.68685 2.80444 2.68685H3.96694C4.08576 2.68717 4.20045 2.64327 4.28869 2.5637C4.37692 2.48412 4.4324 2.37457 4.44432 2.25635C4.47199 1.97903 4.60192 1.72195 4.80878 1.53519C5.01564 1.34843 5.28462 1.24537 5.56332 1.2461H6.43707C6.71576 1.24537 6.98475 1.34843 7.19161 1.53519C7.39847 1.72195 7.5284 1.97903 7.55607 2.25635C7.56799 2.37457 7.62346 2.48412 7.7117 2.5637C7.79994 2.64327 7.91463 2.68717 8.03344 2.68685H9.19594C9.2954 2.68685 9.39078 2.72636 9.46111 2.79668C9.53144 2.86701 9.57094 2.96239 9.57094 3.06185H9.57132ZM5.09532 2.68685H6.90582C6.85654 2.57425 6.82431 2.45494 6.81019 2.33285C6.8009 2.24041 6.75763 2.15472 6.68877 2.09236C6.6199 2.03001 6.53034 1.99544 6.43744 1.99535H5.56369C5.47079 1.99544 5.38123 2.03001 5.31237 2.09236C5.2435 2.15472 5.20023 2.24041 5.19094 2.33285C5.17671 2.45496 5.14473 2.57427 5.09532 2.68685ZM5.47294 8.36847V5.17535C5.47294 5.07589 5.43343 4.98051 5.36311 4.91018C5.29278 4.83986 5.1974 4.80035 5.09794 4.80035C4.99849 4.80035 4.9031 4.83986 4.83278 4.91018C4.76245 4.98051 4.72294 5.07589 4.72294 5.17535V8.36997C4.72294 8.46943 4.76245 8.56481 4.83278 8.63514C4.9031 8.70546 4.99849 8.74497 5.09794 8.74497C5.1974 8.74497 5.29278 8.70546 5.36311 8.63514C5.43343 8.56481 5.47294 8.46943 5.47294 8.36997V8.36847ZM7.27819 8.36847V5.17535C7.27819 5.07589 7.23869 4.98051 7.16836 4.91018C7.09803 4.83986 7.00265 4.80035 6.90319 4.80035C6.80374 4.80035 6.70835 4.83986 6.63803 4.91018C6.5677 4.98051 6.52819 5.07589 6.52819 5.17535V8.36997C6.52819 8.46943 6.5677 8.56481 6.63803 8.63514C6.70835 8.70546 6.80374 8.74497 6.90319 8.74497C7.00265 8.74497 7.09803 8.70546 7.16836 8.63514C7.23869 8.56481 7.27819 8.46943 7.27819 8.36997V8.36847Z" fill="#FF3131"/>
</svg>
