<svg width="16" height="16" viewBox="0 0 16 16" fill="none" xmlns="http://www.w3.org/2000/svg">
<path d="M15.7456 11.5004L2.00656 11.4982C1.9726 11.4982 1.93902 11.4912 1.90783 11.4778C1.87665 11.4643 1.84852 11.4447 1.82516 11.4201C1.8018 11.3954 1.7837 11.3663 1.77195 11.3344C1.7602 11.3026 1.75504 11.2687 1.75681 11.2348C1.79247 10.5726 1.96672 9.92523 2.26829 9.33462C2.56987 8.744 2.99205 8.22325 3.50754 7.80606C3.5591 7.76457 3.62501 7.74522 3.69082 7.75225C3.75663 7.75929 3.81696 7.79213 3.85859 7.84358C3.90022 7.89504 3.91974 7.9609 3.91288 8.02672C3.90602 8.09255 3.87334 8.15297 3.82199 8.19473C2.96101 8.89165 2.40707 9.89794 2.27876 10.9982L15.4833 11.0004C15.4402 10.5704 15.2714 10.1626 14.9981 9.82781C14.7247 9.49305 14.3589 9.24613 13.9462 9.11782C13.8965 9.1022 13.8529 9.07143 13.8215 9.02979C13.7901 8.98816 13.7725 8.93776 13.7712 8.88564C13.7305 7.24909 13.2907 5.64725 12.4899 4.21939L12.2592 4.56289L12.6728 8.21255C12.6766 8.24541 12.6738 8.2787 12.6645 8.31047C12.6553 8.34224 12.6399 8.37186 12.6191 8.39761L11.1989 10.1566C11.1755 10.1857 11.1458 10.2091 11.1122 10.2252C11.0785 10.2413 11.0417 10.2496 11.0043 10.2497H8.00435C7.94341 10.2497 7.88458 10.2274 7.8389 10.1871C7.79322 10.1468 7.76385 10.0911 7.7563 10.0307L7.50703 8.02969C7.49887 7.9639 7.51718 7.89757 7.55793 7.84528C7.59868 7.79299 7.65853 7.75904 7.72432 7.75088C7.7901 7.74272 7.85644 7.76103 7.90872 7.80178C7.96101 7.84253 7.99497 7.90238 8.00313 7.96816L8.22505 9.74966H10.885L12.1642 8.16495L11.7521 4.52773C11.7454 4.46883 11.7599 4.40947 11.7929 4.36025L12.2968 3.61025C12.3204 3.57575 12.3522 3.5476 12.3893 3.52831C12.4264 3.50902 12.4677 3.49917 12.5095 3.49965C12.5514 3.50057 12.5923 3.51199 12.6287 3.53284C12.665 3.5537 12.6955 3.58333 12.7175 3.61904C13.6583 5.15319 14.1911 6.90246 14.2653 8.70058C14.7795 8.89884 15.2209 9.24957 15.5301 9.70575C15.8394 10.1619 16.0018 10.7017 15.9956 11.2528C15.9949 11.3187 15.9683 11.3817 15.9215 11.428C15.8747 11.4744 15.8114 11.5004 15.7456 11.5004Z" fill="#6D6D6D"/>
<path d="M11.2459 11.5004C11.1908 11.5004 11.1372 11.4822 11.0935 11.4487C11.0498 11.4151 11.0184 11.3681 11.0042 11.3148C10.99 11.2616 10.9938 11.2052 11.015 11.1543C11.0362 11.1034 11.0736 11.061 11.1214 11.0336C12.1593 10.4387 13.0768 9.6549 13.8264 8.72255C13.868 8.67088 13.9284 8.63784 13.9943 8.63069C14.0603 8.62355 14.1263 8.64289 14.178 8.68446C14.2297 8.72603 14.2627 8.78643 14.2699 8.85236C14.277 8.91829 14.2577 8.98436 14.2161 9.03603C13.4273 10.0169 12.462 10.8414 11.3699 11.4672C11.3322 11.4889 11.2894 11.5004 11.2459 11.5004ZM2.09255 10.8348C2.04678 10.8349 2.00188 10.8224 1.96274 10.7987C1.9236 10.775 1.89173 10.7409 1.87062 10.7003L0.523944 8.11585C0.508778 8.08674 0.499495 8.05492 0.496624 8.02222C0.493754 7.98953 0.497352 7.95658 0.507213 7.92527C0.517074 7.89396 0.533005 7.8649 0.554097 7.83975C0.575189 7.8146 0.601028 7.79385 0.63014 7.77869C0.659251 7.76352 0.691065 7.75424 0.723764 7.75137C0.756463 7.7485 0.789407 7.75209 0.820716 7.76195C0.852024 7.77182 0.881084 7.78775 0.906235 7.80884C0.931387 7.82993 0.952138 7.85577 0.967304 7.88488L2.31398 10.4694C2.33381 10.5074 2.34349 10.55 2.3421 10.5929C2.34071 10.6358 2.32829 10.6777 2.30604 10.7144C2.28379 10.7511 2.25246 10.7815 2.21507 10.8026C2.17768 10.8237 2.13548 10.8348 2.09255 10.8348ZM13.1531 5.23938C13.0951 5.23937 13.0389 5.21919 12.9941 5.1823C12.9494 5.1454 12.9188 5.09409 12.9078 5.03716C12.8967 4.98023 12.9057 4.92121 12.9334 4.87022C12.9611 4.81924 13.0056 4.77946 13.0593 4.75769C13.3083 4.65819 13.513 4.47214 13.6358 4.23377C13.704 4.07774 13.7366 3.90852 13.7314 3.73832C13.7263 3.56813 13.6833 3.40121 13.6057 3.24963H12.2544C12.1881 3.24963 12.1245 3.22329 12.0776 3.17641C12.0308 3.12953 12.0044 3.06594 12.0044 2.99963C12.0044 2.93333 12.0308 2.86974 12.0776 2.82286C12.1245 2.77597 12.1881 2.74963 12.2544 2.74963H13.7544C13.7963 2.74963 13.8374 2.76013 13.8742 2.78018C13.9109 2.80023 13.942 2.82918 13.9646 2.86438C14.113 3.09906 14.2017 3.36654 14.2227 3.64341C14.2438 3.92028 14.1967 4.19809 14.0855 4.45252C13.9101 4.80319 13.6115 5.07684 13.2468 5.22107C13.2171 5.23316 13.1852 5.23938 13.1531 5.23938Z" fill="#6D6D6D"/>
<path d="M13.5022 13.2496C12.9721 13.249 12.4639 13.0382 12.0891 12.6634C11.7142 12.2886 11.5033 11.7804 11.5027 11.2503C11.5027 11.184 11.529 11.1205 11.5759 11.0736C11.6228 11.0267 11.6864 11.0003 11.7527 11.0003C11.819 11.0003 11.8826 11.0267 11.9295 11.0736C11.9764 11.1205 12.0027 11.184 12.0027 11.2503C12.0027 11.6484 12.1608 12.0301 12.4423 12.3116C12.7238 12.5931 13.1055 12.7512 13.5036 12.7512C13.9016 12.7512 14.2834 12.5931 14.5648 12.3116C14.8463 12.0301 15.0044 11.6484 15.0044 11.2503C15.0044 11.184 15.0307 11.1205 15.0776 11.0736C15.1245 11.0267 15.1881 11.0003 15.2544 11.0003C15.3207 11.0003 15.3843 11.0267 15.4312 11.0736C15.4781 11.1205 15.5044 11.184 15.5044 11.2503C15.5034 11.7808 15.292 12.2892 14.9167 12.664C14.5413 13.0388 14.0326 13.2494 13.5022 13.2496ZM8.75439 8.25037H0.504395C0.371839 8.25019 0.244762 8.19746 0.151031 8.10373C0.0573002 8.01 0.00456652 7.88292 0.00439453 7.75037V7.00037C0.00456652 6.86781 0.0573002 6.74073 0.151031 6.647C0.244762 6.55327 0.371839 6.50054 0.504395 6.50037H6.00439C6.00457 6.36781 6.0573 6.24073 6.15103 6.147C6.24476 6.05327 6.37184 6.00054 6.50439 6.00037H8.75439C8.88695 6.00054 9.01403 6.05327 9.10776 6.147C9.20149 6.24073 9.25422 6.36781 9.25439 6.50037V7.75037C9.25422 7.88292 9.20149 8.01 9.10776 8.10373C9.01403 8.19746 8.88695 8.25019 8.75439 8.25037ZM0.504395 7.00037V7.75037H8.75439V6.50037H6.50439C6.50422 6.63292 6.45149 6.76 6.35776 6.85373C6.26403 6.94746 6.13695 7.00019 6.00439 7.00037H0.504395ZM5.00317 13.2501C4.47308 13.2494 3.9649 13.0385 3.59014 12.6636C3.21537 12.2887 3.00463 11.7805 3.00415 11.2504C3.00415 11.1841 3.03049 11.1205 3.07737 11.0736C3.12426 11.0267 3.18785 11.0004 3.25415 11.0004C3.32045 11.0004 3.38404 11.0267 3.43093 11.0736C3.47781 11.1205 3.50415 11.1841 3.50415 11.2504C3.50466 11.648 3.66296 12.0291 3.94428 12.31C4.2256 12.591 4.60693 12.7488 5.00452 12.7488C5.4021 12.7488 5.78343 12.591 6.06475 12.31C6.34607 12.0291 6.50437 11.648 6.50488 11.2504C6.50488 11.1841 6.53122 11.1205 6.57811 11.0736C6.62499 11.0267 6.68858 11.0004 6.75488 11.0004C6.82119 11.0004 6.88477 11.0267 6.93166 11.0736C6.97854 11.1205 7.00488 11.1841 7.00488 11.2504C7.00404 11.7808 6.79282 12.2893 6.41755 12.6642C6.04228 13.0391 5.53362 13.2498 5.00317 13.2501Z" fill="#6D6D6D"/>
<path d="M5.25439 7.00037C5.22156 7.00039 5.18904 6.99393 5.1587 6.98138C5.12836 6.96882 5.10079 6.9504 5.07758 6.92719C5.05436 6.90397 5.03594 6.8764 5.02339 6.84606C5.01083 6.81572 5.00438 6.7832 5.00439 6.75037V3.25037H1.25439V6.75037C1.25439 6.81667 1.22806 6.88026 1.18117 6.92714C1.13429 6.97403 1.0707 7.00037 1.00439 7.00037C0.93809 7.00037 0.874502 6.97403 0.827618 6.92714C0.780734 6.88026 0.754395 6.81667 0.754395 6.75037V3.00037C0.754376 2.96753 0.760829 2.93501 0.773386 2.90467C0.785943 2.87433 0.804357 2.84677 0.827575 2.82355C0.850794 2.80033 0.878361 2.78191 0.908701 2.76936C0.939041 2.7568 0.971559 2.75035 1.00439 2.75037H5.25439C5.28723 2.75035 5.31975 2.7568 5.35009 2.76936C5.38043 2.78192 5.40799 2.80033 5.43121 2.82355C5.45443 2.84677 5.47285 2.87433 5.4854 2.90467C5.49796 2.93501 5.50441 2.96753 5.50439 3.00037V6.75037C5.50441 6.7832 5.49796 6.81572 5.4854 6.84606C5.47285 6.8764 5.45443 6.90397 5.43121 6.92719C5.408 6.9504 5.38043 6.96882 5.35009 6.98138C5.31975 6.99393 5.28723 7.00039 5.25439 7.00037Z" fill="#6D6D6D"/>
<path d="M3.7544 4.99962H2.5044C2.47156 4.99964 2.43904 4.99318 2.4087 4.98063C2.37836 4.96807 2.3508 4.94965 2.32758 4.92644C2.30436 4.90322 2.28595 4.87565 2.27339 4.84531C2.26083 4.81497 2.25438 4.78245 2.2544 4.74962V3.00037C2.2544 2.93406 2.28074 2.87047 2.32762 2.82359C2.37451 2.77671 2.43809 2.75037 2.5044 2.75037C2.5707 2.75037 2.63429 2.77671 2.68117 2.82359C2.72806 2.87047 2.7544 2.93406 2.7544 3.00037V4.49962H3.5044V3.00037C3.5044 2.93406 3.53074 2.87047 3.57762 2.82359C3.62451 2.77671 3.68809 2.75037 3.7544 2.75037C3.8207 2.75037 3.88429 2.77671 3.93117 2.82359C3.97806 2.87047 4.0044 2.93406 4.0044 3.00037V4.74962C4.00442 4.78245 3.99796 4.81497 3.98541 4.84531C3.97285 4.87565 3.95444 4.90322 3.93122 4.92644C3.908 4.94965 3.88043 4.96807 3.85009 4.98063C3.81975 4.99318 3.78723 4.99964 3.7544 4.99962ZM1.7544 6.25037C1.72157 6.25038 1.68905 6.24393 1.65872 6.23138C1.62838 6.21884 1.60081 6.20043 1.57758 6.17723C1.55436 6.15403 1.53593 6.12648 1.52335 6.09615C1.51077 6.06583 1.50429 6.03332 1.50427 6.00049C1.50426 5.96766 1.51071 5.93515 1.52325 5.90481C1.5358 5.87447 1.5542 5.8469 1.57741 5.82368C1.62427 5.77677 1.68784 5.7504 1.75415 5.75037L2.75415 5.74963H2.7544C2.78723 5.74962 2.81974 5.75607 2.85008 5.76862C2.88042 5.78116 2.90798 5.79957 2.93121 5.82277C2.95444 5.84597 2.97287 5.87352 2.98544 5.90385C2.99802 5.93417 3.00451 5.96668 3.00452 5.99951C3.00454 6.03234 2.99809 6.06485 2.98554 6.09519C2.97299 6.12553 2.95459 6.1531 2.93139 6.17632C2.90818 6.19955 2.88063 6.21798 2.85031 6.23056C2.81998 6.24313 2.78748 6.24962 2.75465 6.24963L1.7544 6.25037Z" fill="#6D6D6D"/>
</svg>
