<svg width="14" height="14" viewBox="0 0 14 14" fill="none" xmlns="http://www.w3.org/2000/svg">
<path d="M3.56738 2.62598H3.57087C4.81775 2.62598 5.82838 3.64973 5.82838 4.91848C5.8276 5.46841 5.63039 5.99997 5.27231 6.41735C5.26042 6.43106 5.25028 6.4462 5.24213 6.46241L4.01538 7.87335C3.98169 7.91229 3.94363 7.96129 3.94275 8.01248L3.96156 7.94423L3.57656 8.3791L3.20031 7.9451L3.21869 8.01685C3.21869 7.96391 3.18063 7.91229 3.14519 7.87248L2.00725 6.57616C2.00553 6.57424 2.00378 6.57234 2.002 6.57048C1.995 6.5591 1.99106 6.55166 1.97881 6.53854L1.97575 6.53373C1.55116 6.10292 1.31295 5.52247 1.3125 4.9176C1.3125 3.64973 2.32225 2.62816 3.56738 2.62598ZM3.57087 3.7171C2.91637 3.7171 2.38306 4.25916 2.38306 4.9176C2.38306 5.57648 2.91681 6.11898 3.57087 6.11898C4.22538 6.11898 4.75781 5.57648 4.75781 4.9176C4.75781 4.25916 4.22538 3.7171 3.57087 3.7171ZM3.57087 4.1546C3.98475 4.1546 4.32031 4.49323 4.32031 4.9176C4.32031 5.34198 3.98475 5.68148 3.57087 5.68148C3.157 5.68148 2.82056 5.34241 2.82056 4.9176C2.82056 4.49323 3.15744 4.1546 3.57087 4.1546ZM10.6964 5.35335C11.9433 5.35335 12.9548 6.3771 12.9548 7.64585C12.9537 8.19588 12.7562 8.72743 12.3979 9.14473C12.3863 9.15835 12.3765 9.17334 12.3686 9.18935L11.1409 10.6016C11.1072 10.6404 11.0881 10.6898 11.0871 10.7412L11.1418 10.6025L10.7034 11.1069L10.3268 10.6738L10.3399 10.711C10.3399 10.658 10.3071 10.641 10.2721 10.6007L9.13369 9.30485L9.12931 9.2996C9.12231 9.28779 9.11881 9.28035 9.10481 9.26548C8.67783 8.83533 8.43844 8.25368 8.43894 7.6476C8.43894 6.37885 9.44956 5.3551 10.6964 5.3551V5.35335ZM10.6964 6.44448C10.0419 6.44448 9.50863 6.98741 9.50863 7.64629C9.50863 8.30473 10.0424 8.84679 10.6964 8.84679C11.3509 8.84679 11.8843 8.30473 11.8843 7.64629C11.8843 6.98741 11.3509 6.44448 10.6964 6.44448ZM10.6964 6.88198C11.1103 6.88198 11.4468 7.22148 11.4468 7.64629C11.4468 8.07066 11.1103 8.40929 10.6964 8.40929C10.597 8.40866 10.4987 8.3884 10.4071 8.34968C10.3155 8.31096 10.2325 8.25453 10.1628 8.18364C10.0931 8.11275 10.0381 8.02878 10.0009 7.93657C9.96369 7.84436 9.94509 7.74571 9.94613 7.64629C9.94613 7.22191 10.283 6.88198 10.6964 6.88198ZM4.34175 8.6381V9.0756H4.77925V8.6381H4.34175ZM5.21675 8.6381V9.0756H5.65425V8.6381H5.21675ZM6.09175 8.6381V8.63941H5.94913V9.08698H6.38663V8.6381H6.16788H6.09175ZM5.94913 9.65573V10.0932H6.38663V9.65573H5.94913ZM5.94913 10.5307V10.9682H6.38663V10.5307H5.94913ZM5.94913 11.4932V11.9434H6.28731V11.9399L6.38663 11.9417V11.4932H5.94913ZM6.72481 11.5059V11.9434H7.16231V11.5059H6.72481ZM7.59981 11.5059V11.9434H8.03731V11.5059H7.59981ZM8.47481 11.5059V11.9434H8.91231V11.5059H8.47481ZM9.34981 11.5059V11.9434H9.78731V11.5059H9.34981Z" fill="#433E3F"/>
</svg>
