<svg width="20" height="20" viewBox="0 0 20 20" fill="none" xmlns="http://www.w3.org/2000/svg">
<path d="M5.09625 3.75098H5.10125C6.8825 3.75098 8.32625 5.21348 8.32625 7.02598C8.32514 7.81159 8.04342 8.57097 7.53187 9.16723C7.51488 9.18681 7.5004 9.20844 7.48875 9.2316L5.73625 11.2472C5.68812 11.3029 5.63375 11.3729 5.6325 11.446L5.65937 11.3485L5.10937 11.9697L4.57187 11.3497L4.59812 11.4522C4.59812 11.3766 4.54375 11.3029 4.49312 11.246L2.8675 9.3941C2.86505 9.39135 2.86255 9.38864 2.86 9.38598C2.85 9.36973 2.84437 9.3591 2.82687 9.34035L2.8225 9.33348C2.21594 8.71804 1.87564 7.88883 1.875 7.02473C1.875 5.21348 3.3175 3.7541 5.09625 3.75098ZM5.10125 5.30973C4.16625 5.30973 3.40437 6.0841 3.40437 7.02473C3.40437 7.96598 4.16687 8.74098 5.10125 8.74098C6.03625 8.74098 6.79687 7.96598 6.79687 7.02473C6.79687 6.0841 6.03625 5.30973 5.10125 5.30973ZM5.10125 5.93473C5.6925 5.93473 6.17187 6.41848 6.17187 7.02473C6.17187 7.63098 5.6925 8.11598 5.10125 8.11598C4.51 8.11598 4.02937 7.6316 4.02937 7.02473C4.02937 6.41848 4.51062 5.93473 5.10125 5.93473ZM15.2806 7.64723C17.0619 7.64723 18.5069 9.10973 18.5069 10.9222C18.5053 11.708 18.2231 12.4673 17.7112 13.0635C17.6947 13.0829 17.6807 13.1043 17.6694 13.1272L15.9156 15.1447C15.8674 15.2001 15.8401 15.2707 15.8387 15.3441L15.9169 15.146L15.2906 15.8666L14.7525 15.2479L14.7712 15.301C14.7712 15.2254 14.7244 15.201 14.6744 15.1435L13.0481 13.2922L13.0419 13.2847C13.0319 13.2679 13.0269 13.2572 13.0069 13.236C12.3969 12.6215 12.0549 11.7906 12.0556 10.9247C12.0556 9.11223 13.4994 7.64973 15.2806 7.64973V7.64723ZM15.2806 9.20598C14.3456 9.20598 13.5837 9.9816 13.5837 10.9229C13.5837 11.8635 14.3462 12.6379 15.2806 12.6379C16.2156 12.6379 16.9775 11.8635 16.9775 10.9229C16.9775 9.9816 16.2156 9.20598 15.2806 9.20598ZM15.2806 9.83098C15.8719 9.83098 16.3525 10.316 16.3525 10.9229C16.3525 11.5291 15.8719 12.0129 15.2806 12.0129C15.1386 12.012 14.9981 11.983 14.8673 11.9277C14.7365 11.8724 14.6179 11.7918 14.5183 11.6905C14.4187 11.5892 14.3401 11.4693 14.287 11.3375C14.2338 11.2058 14.2073 11.0649 14.2087 10.9229C14.2087 10.3166 14.69 9.83098 15.2806 9.83098ZM6.2025 12.3397V12.9647H6.8275V12.3397H6.2025ZM7.4525 12.3397V12.9647H8.0775V12.3397H7.4525ZM8.7025 12.3397V12.3416H8.49875V12.981H9.12375V12.3397H8.81125H8.7025ZM8.49875 13.7935V14.4185H9.12375V13.7935H8.49875ZM8.49875 15.0435V15.6685H9.12375V15.0435H8.49875ZM8.49875 16.4185V17.0616H8.98187V17.0566L9.12375 17.0591V16.4185H8.49875ZM9.60687 16.4366V17.0616H10.2319V16.4366H9.60687ZM10.8569 16.4366V17.0616H11.4819V16.4366H10.8569ZM12.1069 16.4366V17.0616H12.7319V16.4366H12.1069ZM13.3569 16.4366V17.0616H13.9819V16.4366H13.3569Z" fill="#1C443A"/>
</svg>
