<svg width="20" height="20" viewBox="0 0 20 20" fill="none" xmlns="http://www.w3.org/2000/svg">
<path d="M10.7813 14.0625C10.7813 14.217 10.7354 14.3681 10.6496 14.4965C10.5637 14.625 10.4417 14.7252 10.299 14.7843C10.1562 14.8434 9.99914 14.8589 9.84759 14.8287C9.69604 14.7986 9.55684 14.7242 9.44758 14.6149C9.33832 14.5057 9.26391 14.3665 9.23377 14.2149C9.20362 14.0634 9.21909 13.9063 9.27822 13.7635C9.33735 13.6208 9.43749 13.4988 9.56596 13.4129C9.69444 13.3271 9.84549 13.2812 10 13.2812C10.2072 13.2812 10.4059 13.3636 10.5524 13.5101C10.6989 13.6566 10.7813 13.8553 10.7813 14.0625ZM10 5.78125C8.35938 5.78125 7.03125 6.97266 7.03125 8.4375V8.75C7.03125 8.87432 7.08064 8.99355 7.16855 9.08146C7.25646 9.16936 7.37568 9.21875 7.5 9.21875C7.62432 9.21875 7.74355 9.16936 7.83146 9.08146C7.91937 8.99355 7.96875 8.87432 7.96875 8.75V8.4375C7.96875 7.48984 8.87969 6.71875 10 6.71875C11.1203 6.71875 12.0313 7.48984 12.0313 8.4375C12.0313 9.38516 11.1203 10.1562 10 10.1562C9.87568 10.1562 9.75646 10.2056 9.66855 10.2935C9.58064 10.3815 9.53125 10.5007 9.53125 10.625V11.25C9.53125 11.3743 9.58064 11.4935 9.66855 11.5815C9.75646 11.6694 9.87568 11.7188 10 11.7188C10.1243 11.7188 10.2436 11.6694 10.3315 11.5815C10.4194 11.4935 10.4688 11.3743 10.4688 11.25V11.0609C11.8836 10.8594 12.9688 9.75938 12.9688 8.4375C12.9688 6.97266 11.6406 5.78125 10 5.78125ZM17.9688 10C17.9688 11.5761 17.5014 13.1167 16.6258 14.4272C15.7502 15.7377 14.5056 16.759 13.0495 17.3622C11.5934 17.9653 9.99116 18.1231 8.44538 17.8156C6.89959 17.5082 5.4797 16.7492 4.36525 15.6348C3.2508 14.5203 2.49185 13.1004 2.18437 11.5546C1.87689 10.0088 2.0347 8.40659 2.63784 6.95049C3.24097 5.49439 4.26235 4.24984 5.5728 3.37423C6.88326 2.49861 8.42393 2.03125 10 2.03125C12.1127 2.03373 14.1381 2.87409 15.632 4.36798C17.1259 5.86188 17.9663 7.88732 17.9688 10ZM17.0313 10C17.0313 8.60935 16.6189 7.24993 15.8463 6.09365C15.0737 4.93736 13.9755 4.03615 12.6907 3.50397C11.406 2.97179 9.9922 2.83255 8.62827 3.10385C7.26435 3.37516 6.0115 4.04482 5.02816 5.02816C4.04482 6.01149 3.37516 7.26434 3.10386 8.62827C2.83255 9.9922 2.9718 11.406 3.50398 12.6907C4.03615 13.9755 4.93737 15.0737 6.09365 15.8463C7.24993 16.6189 8.60935 17.0312 10 17.0312C11.8642 17.0292 13.6514 16.2877 14.9696 14.9696C16.2877 13.6514 17.0292 11.8642 17.0313 10Z" fill="#0A0A0A"/>
</svg>
