<svg width="24" height="24" viewBox="0 0 24 24" fill="none" xmlns="http://www.w3.org/2000/svg">
<g clip-path="url(#clip0_361_1859)">
<path d="M3.84128 2.85345C3.89068 2.85331 3.89068 2.85331 3.94108 2.85316C4.05199 2.85289 4.1629 2.85296 4.27381 2.85303C4.35391 2.85291 4.43401 2.85277 4.51411 2.85261C4.73467 2.85223 4.95523 2.85215 5.17578 2.85211C5.41349 2.85202 5.65119 2.85167 5.8889 2.85135C6.40888 2.85072 6.92887 2.85044 7.44885 2.85023C7.77346 2.8501 8.09806 2.8499 8.42267 2.84969C9.32119 2.84912 10.2197 2.84864 11.1182 2.84848C11.1758 2.84847 11.2333 2.84846 11.2926 2.84845C11.3502 2.84844 11.4079 2.84843 11.4673 2.84842C11.5841 2.84839 11.701 2.84837 11.8178 2.84835C11.9048 2.84834 11.9048 2.84834 11.9935 2.84832C12.9327 2.84814 13.8719 2.84732 14.8111 2.84623C15.7751 2.84511 16.7391 2.84453 17.7031 2.84448C18.2445 2.84443 18.7858 2.84416 19.3272 2.84331C19.7882 2.84259 20.2491 2.84235 20.7101 2.84274C20.9453 2.84292 21.1805 2.84288 21.4157 2.84222C21.6311 2.84162 21.8465 2.84168 22.0619 2.84225C22.1398 2.84234 22.2176 2.84219 22.2955 2.84179C23.2432 2.83713 23.2432 2.83713 23.5898 3.14379C23.9962 3.55104 24.0301 3.95039 24.0317 4.5017C24.0313 4.59621 24.0308 4.69073 24.0303 4.78524C24.0306 4.88569 24.031 4.98614 24.0315 5.08658C24.0326 5.35844 24.0322 5.63028 24.0314 5.90213C24.0308 6.18713 24.0314 6.47212 24.0318 6.75711C24.0322 7.23563 24.0316 7.71415 24.0305 8.19267C24.0292 8.74529 24.0296 9.29789 24.0309 9.85051C24.032 10.3256 24.0322 10.8008 24.0315 11.2759C24.0312 11.5594 24.0311 11.8429 24.0319 12.1264C24.0326 12.3929 24.0321 12.6595 24.0308 12.926C24.0304 13.0236 24.0305 13.1212 24.031 13.2189C24.036 14.2454 24.036 14.2454 23.6825 14.6194C23.389 14.8948 23.0718 15.0071 22.6734 15.0048C22.6276 15.0047 22.5818 15.0045 22.5347 15.0044C22.4874 15.004 22.4402 15.0036 22.3916 15.0032C22.3434 15.003 22.2953 15.0027 22.2457 15.0025C22.1273 15.002 22.009 15.0012 21.8906 15.0002C21.8911 15.0426 21.8916 15.0849 21.8922 15.1286C21.8969 15.5279 21.9004 15.9272 21.9027 16.3266C21.9039 16.5319 21.9056 16.7372 21.9083 16.9425C21.9108 17.1406 21.9122 17.3388 21.9128 17.5369C21.9132 17.6125 21.9141 17.6881 21.9154 17.7636C21.9171 17.8696 21.9173 17.9754 21.9172 18.0814C21.9177 18.1417 21.9182 18.2019 21.9188 18.264C21.8831 18.4639 21.8128 18.5316 21.6562 18.6565C21.4542 18.7268 21.3324 18.6997 21.1401 18.6133C20.9578 18.5144 20.8005 18.3821 20.6396 18.2522C20.5351 18.1689 20.4306 18.086 20.3244 18.0048C20.2031 17.9065 20.2031 17.9065 20.0983 17.7986C19.6323 17.3636 19.0929 17.424 18.4871 17.4278C18.37 17.427 18.2529 17.426 18.1358 17.4249C17.8517 17.4226 17.5677 17.4223 17.2836 17.4231C17.0525 17.4236 16.8214 17.4234 16.5902 17.4227C16.5407 17.4225 16.5407 17.4225 16.4902 17.4224C16.4231 17.4222 16.356 17.4219 16.2889 17.4217C15.661 17.4198 15.0331 17.4205 14.4052 17.4222C13.8322 17.4236 13.2593 17.4217 12.6863 17.4184C12.0964 17.4149 11.5066 17.4136 10.9167 17.4145C10.5861 17.415 10.2556 17.4147 9.92504 17.4122C9.61397 17.4099 9.30301 17.4106 8.99194 17.4133C8.87827 17.4138 8.76458 17.4134 8.65092 17.4119C7.93829 17.4033 7.48787 17.478 6.9627 17.9797C6.8594 18.0763 6.74709 18.1593 6.63332 18.243C6.55793 18.3008 6.48255 18.3585 6.40718 18.4163C6.09118 18.6578 5.77313 18.8962 5.4521 19.1311C5.1267 19.3692 4.80727 19.6139 4.49005 19.8628C4.19501 20.0935 3.89465 20.3164 3.59203 20.5371C3.55756 20.5622 3.52308 20.5874 3.48757 20.6133C3.43682 20.6503 3.43682 20.6503 3.38505 20.688C3.23951 20.7971 3.09888 20.9121 2.95863 21.0279C2.79495 21.1369 2.63113 21.1612 2.43746 21.1409C2.26541 21.0677 2.21373 21.0162 2.10933 20.8596C2.09806 20.7128 2.09806 20.7128 2.09869 20.5295C2.09867 20.4961 2.09866 20.4627 2.09865 20.4283C2.09871 20.318 2.09944 20.2077 2.10018 20.0973C2.10035 20.0208 2.10048 19.9443 2.10058 19.8678C2.10094 19.6664 2.10186 19.4651 2.10289 19.2637C2.10385 19.0582 2.10428 18.8527 2.10475 18.6472C2.10576 18.2441 2.10736 17.8409 2.10933 17.4377C2.07629 17.439 2.04324 17.4402 2.0092 17.4415C1.85704 17.4464 1.7049 17.4494 1.55269 17.4524C1.50072 17.4544 1.44876 17.4563 1.39522 17.4583C0.989873 17.4643 0.671419 17.3914 0.368112 17.11C0.0692624 16.7958 -0.0213111 16.4988 -0.0182165 16.0757C-0.0184689 16.034 -0.0187214 15.9923 -0.0189815 15.9493C-0.01965 15.8101 -0.019318 15.6709 -0.018984 15.5316C-0.0192514 15.4316 -0.0195778 15.3316 -0.0199589 15.2315C-0.0207997 14.9601 -0.0207448 14.6888 -0.0204774 14.4174C-0.0203325 14.1907 -0.0206178 13.964 -0.0209008 13.7373C-0.0215593 13.2025 -0.021486 12.6676 -0.0209523 12.1327C-0.0204143 11.5813 -0.0210738 11.0298 -0.0223303 10.4783C-0.0233693 10.0046 -0.0236801 9.53079 -0.023405 9.05702C-0.023247 8.77419 -0.02336 8.49136 -0.0241667 8.20853C-0.0248923 7.94252 -0.024706 7.67651 -0.0238245 7.41049C-0.0236518 7.31301 -0.0237967 7.21552 -0.0242876 7.11804C-0.0249078 6.98466 -0.0243646 6.85133 -0.023538 6.71796C-0.0239882 6.67965 -0.0244385 6.64134 -0.0249023 6.60187C-0.0206085 6.26368 0.0791949 5.98453 0.301714 5.72778C0.341352 5.69394 0.380991 5.6601 0.421831 5.62524C0.460503 5.5914 0.499175 5.55756 0.539019 5.5227C0.926973 5.24143 1.4174 5.29078 1.87496 5.29418C1.95626 5.2945 1.95626 5.2945 2.0392 5.29482C2.17196 5.29537 2.3047 5.29614 2.43746 5.29711C2.43672 5.25981 2.43598 5.2225 2.43522 5.18407C2.43228 5.01277 2.43046 4.84148 2.42867 4.67016C2.42749 4.61149 2.42631 4.55282 2.4251 4.49236C2.42093 3.96205 2.47566 3.57428 2.85036 3.18371C3.14885 2.923 3.45274 2.85384 3.84128 2.85345ZM3.42183 4.07836C3.39875 4.21899 3.39008 4.33292 3.39207 4.47334C3.3917 4.513 3.39134 4.55265 3.39096 4.59351C3.39003 4.72635 3.39077 4.85913 3.3915 4.99197C3.39119 5.08722 3.39077 5.18247 3.39026 5.27772C3.38919 5.5364 3.38961 5.79507 3.39035 6.05375C3.39094 6.32434 3.39039 6.59493 3.39002 6.86552C3.3896 7.31995 3.39016 7.77437 3.39128 8.22879C3.39255 8.75433 3.39214 9.27985 3.39085 9.80539C3.38978 10.2564 3.38963 10.7075 3.39025 11.1585C3.39061 11.428 3.39066 11.6974 3.38989 11.9669C3.38921 12.2202 3.38968 12.4735 3.39103 12.7268C3.39134 12.8199 3.39125 12.9129 3.39074 13.0059C3.3901 13.1328 3.3909 13.2596 3.39207 13.3865C3.39155 13.4234 3.39102 13.4603 3.39048 13.4984C3.39383 13.6853 3.41467 13.7723 3.53087 13.9216C3.69602 14.0458 3.79635 14.0444 4.00182 14.0431C4.03577 14.0432 4.06971 14.0433 4.10469 14.0434C4.17809 14.0435 4.2515 14.0431 4.3249 14.0422C4.44118 14.0407 4.55738 14.0408 4.67367 14.0412C4.92046 14.0419 5.16723 14.0407 5.41402 14.0393C5.70007 14.0377 5.98609 14.0368 6.27214 14.0378C6.38655 14.0378 6.50088 14.0365 6.61528 14.035C6.68559 14.0351 6.7559 14.0353 6.82622 14.0355C6.91806 14.035 6.91806 14.035 7.01176 14.0344C7.2124 14.0699 7.28094 14.1399 7.40621 14.2971C7.44549 14.4418 7.43659 14.5725 7.40621 14.719C7.31826 14.8363 7.25438 14.8887 7.12496 14.9534C7.01497 14.9584 6.90483 14.9603 6.79472 14.9609C6.76072 14.9612 6.72671 14.9614 6.69167 14.9616C6.57877 14.9623 6.46588 14.9626 6.35298 14.9629C6.27437 14.9632 6.19575 14.9634 6.11714 14.9637C5.95195 14.9642 5.78676 14.9645 5.62157 14.9646C5.4109 14.9649 5.20024 14.966 4.98957 14.9673C4.82694 14.9682 4.66431 14.9685 4.50168 14.9685C4.42409 14.9687 4.3465 14.969 4.26891 14.9697C3.71963 14.9737 3.21612 14.9763 2.79799 14.5767C2.5368 14.2733 2.47904 13.9506 2.47691 13.5588C2.47657 13.512 2.47657 13.512 2.47621 13.4642C2.47549 13.36 2.4751 13.2558 2.47471 13.1515C2.47426 13.0767 2.47379 13.0019 2.4733 12.927C2.47203 12.724 2.47105 12.5211 2.47011 12.3181C2.46909 12.1059 2.4678 11.8937 2.46655 11.6815C2.46421 11.2797 2.4621 10.878 2.46008 10.4762C2.45776 10.0188 2.45519 9.56141 2.45259 9.104C2.44726 8.16317 2.44225 7.22233 2.43746 6.28149C2.24703 6.2774 2.05662 6.2749 1.86617 6.2727C1.81224 6.27152 1.75831 6.27034 1.70275 6.26913C1.65063 6.26868 1.59851 6.26822 1.54482 6.26776C1.49695 6.26702 1.44908 6.26628 1.39976 6.26552C1.24154 6.28435 1.15714 6.3253 1.03121 6.42211C0.901924 6.58941 0.924387 6.78966 0.925551 6.99183C0.925405 7.03069 0.925259 7.06954 0.925108 7.10957C0.924734 7.23994 0.92503 7.37031 0.925325 7.50068C0.925198 7.59408 0.925031 7.68748 0.924827 7.78087C0.924399 8.03471 0.924566 8.28855 0.924863 8.54239C0.9251 8.80785 0.92488 9.07331 0.924733 9.33877C0.924562 9.78464 0.924787 10.2305 0.925234 10.6764C0.925744 11.1921 0.925579 11.7077 0.925062 12.2234C0.924637 12.6658 0.924577 13.1083 0.924822 13.5508C0.924968 13.8152 0.924988 14.0796 0.924678 14.3439C0.924407 14.5925 0.924595 14.8411 0.925137 15.0897C0.925261 15.181 0.925225 15.2723 0.925019 15.3635C0.924763 15.4881 0.925083 15.6126 0.925551 15.7371C0.925342 15.7733 0.925133 15.8095 0.924917 15.8468C0.926721 16.0939 0.946652 16.2751 1.12496 16.4534C1.2391 16.4632 1.34836 16.4675 1.4626 16.4678C1.53151 16.469 1.60042 16.4702 1.66933 16.4714C1.77784 16.4727 1.88635 16.4739 1.99487 16.4748C2.09969 16.4758 2.20447 16.4776 2.30928 16.4795C2.35742 16.4796 2.35742 16.4796 2.40653 16.4796C2.62172 16.484 2.77574 16.5168 2.95308 16.6409C3.03211 16.8303 3.05905 16.9951 3.06178 17.1993C3.06271 17.2528 3.06364 17.3063 3.0646 17.3613C3.06514 17.4183 3.06568 17.4753 3.06624 17.5341C3.06715 17.593 3.06806 17.6519 3.06899 17.7126C3.07131 17.8684 3.07325 18.0242 3.075 18.18C3.07688 18.3393 3.07927 18.4986 3.08162 18.658C3.08612 18.97 3.09011 19.282 3.09371 19.594C3.22545 19.5295 3.3417 19.4612 3.45973 19.3739C3.49423 19.3485 3.52873 19.323 3.56428 19.2968C3.60138 19.2692 3.63848 19.2416 3.67671 19.2131C3.71584 19.1842 3.75497 19.1552 3.79529 19.1253C4.12745 18.8786 4.45672 18.6282 4.78541 18.3769C5.10205 18.1348 5.42041 17.8951 5.73977 17.6567C5.94811 17.5009 6.15535 17.3439 6.36141 17.1851C6.42793 17.1339 6.42793 17.1339 6.49581 17.0817C6.58104 17.016 6.66614 16.9502 6.75105 16.8841C6.78973 16.8544 6.8284 16.8246 6.86824 16.7939C6.91894 16.7546 6.91894 16.7546 6.97067 16.7145C7.25672 16.5184 7.46926 16.4797 7.80779 16.4815C7.85263 16.4812 7.89747 16.4809 7.94367 16.4806C8.09374 16.4797 8.24378 16.4799 8.39385 16.48C8.5015 16.4795 8.60914 16.4791 8.71679 16.4785C9.00896 16.4772 9.30112 16.4768 9.59329 16.4765C9.89865 16.4761 10.204 16.4748 10.5094 16.4737C11.0219 16.4719 11.5344 16.4706 12.0469 16.4696C12.5747 16.4686 13.1025 16.4673 13.6303 16.4657C13.6629 16.4656 13.6954 16.4655 13.729 16.4654C13.8923 16.4648 14.0556 16.4643 14.2189 16.4638C15.573 16.4594 16.9271 16.4561 18.2812 16.4534C18.1603 16.3308 18.0414 16.2216 17.902 16.1205C17.8655 16.0939 17.829 16.0672 17.7914 16.0398C17.7337 15.998 17.7337 15.998 17.6748 15.9553C17.3511 15.7191 17.0306 15.4797 16.714 15.2341C16.6545 15.1879 16.6545 15.1879 16.5937 15.1409C16.5649 15.1161 16.5361 15.0913 16.5064 15.0658C16.3875 14.988 16.3233 14.9826 16.1824 14.9825C16.1375 14.9821 16.0926 14.9817 16.0464 14.9813C15.973 14.9818 15.973 14.9818 15.8981 14.9822C15.8463 14.982 15.7946 14.9817 15.7412 14.9814C15.6288 14.981 15.5163 14.9808 15.4039 14.981C15.226 14.9812 15.0481 14.9805 14.8703 14.9797C14.4926 14.9779 14.1149 14.9773 13.7373 14.9768C13.2998 14.9762 12.8624 14.9752 12.425 14.9731C12.2496 14.9724 12.0743 14.9726 11.8989 14.9728C11.7915 14.9724 11.6841 14.9719 11.5766 14.9714C11.5278 14.9717 11.479 14.972 11.4287 14.9723C11.0156 14.9687 11.0156 14.9687 10.8281 14.8127C10.7088 14.6664 10.7305 14.5226 10.7448 14.344C10.8039 14.1919 10.8752 14.1477 11.0156 14.0627C11.1943 14.0323 11.372 14.0323 11.553 14.031C11.6074 14.03 11.6618 14.0289 11.7178 14.0278C11.8979 14.0245 12.078 14.0228 12.2581 14.0214C12.3199 14.0207 12.3817 14.0201 12.4453 14.0194C12.739 14.0163 13.0327 14.0141 13.3264 14.0129C13.6633 14.0116 13.9999 14.0075 14.3367 14.001C14.5983 13.9961 14.8599 13.9938 15.1215 13.9934C15.2772 13.9931 15.4326 13.9914 15.5882 13.9876C16.4104 13.9691 16.9187 14.0673 17.5309 14.6343C17.6848 14.7729 17.8513 14.8945 18.0175 15.0178C18.083 15.068 18.1485 15.1182 18.2138 15.1685C18.8368 15.6474 19.4622 16.1223 20.096 16.5868C20.3201 16.7513 20.5419 16.9188 20.763 17.0873C20.8459 17.161 20.8459 17.161 20.9062 17.1565C20.9065 17.1237 20.9068 17.091 20.907 17.0573C20.9098 16.7476 20.9131 16.438 20.9173 16.1284C20.9193 15.9692 20.9212 15.8101 20.9224 15.6509C20.9239 15.4676 20.9265 15.2844 20.9291 15.1011C20.9294 15.0444 20.9297 14.9876 20.93 14.9292C20.935 14.6385 20.9442 14.4097 21.0937 14.1565C21.2618 14.0444 21.3855 14.0481 21.5799 14.0466C21.6135 14.0459 21.6472 14.0453 21.6819 14.0445C21.7896 14.0424 21.8972 14.0408 22.0048 14.0393C22.1464 14.0374 22.2879 14.0349 22.4295 14.032C22.4781 14.0316 22.4781 14.0316 22.5277 14.0312C22.7645 14.0276 22.7645 14.0276 22.9687 13.9221C23.0755 13.7194 23.0758 13.5239 23.0747 13.3002C23.0749 13.2613 23.075 13.2225 23.0752 13.1824C23.0757 13.0523 23.0755 12.9222 23.0753 12.7921C23.0755 12.6988 23.0758 12.6054 23.0761 12.5121C23.0767 12.2587 23.0767 12.0052 23.0766 11.7518C23.0765 11.5402 23.0768 11.3287 23.077 11.1171C23.0775 10.6181 23.0775 10.119 23.0773 9.61999C23.077 9.10506 23.0775 8.59013 23.0785 8.07519C23.0794 7.63315 23.0797 7.1911 23.0795 6.74906C23.0794 6.48502 23.0795 6.22098 23.0802 5.95694C23.0808 5.70866 23.0807 5.46039 23.0801 5.21211C23.08 5.121 23.0801 5.02988 23.0805 4.93876C23.081 4.81437 23.0806 4.69 23.08 4.56561C23.0803 4.52956 23.0807 4.49352 23.081 4.45638C23.0788 4.23374 23.0409 4.07956 22.9218 3.89086C22.7863 3.82312 22.6693 3.83785 22.5178 3.83757C22.4854 3.83744 22.453 3.83732 22.4196 3.83719C22.3099 3.83683 22.2002 3.8368 22.0905 3.83677C22.0116 3.83659 21.9326 3.83638 21.8536 3.83615C21.6356 3.83559 21.4177 3.83533 21.1998 3.83511C20.9651 3.83483 20.7304 3.83429 20.4957 3.83379C19.9285 3.83264 19.3613 3.83195 18.7941 3.83135C18.634 3.83117 18.4739 3.83099 18.3138 3.83079C17.3203 3.82961 16.3269 3.82858 15.3334 3.82799C15.1032 3.82786 14.873 3.82772 14.6428 3.82758C14.5856 3.82754 14.5283 3.82751 14.4694 3.82747C13.5418 3.82688 12.6143 3.82532 11.6868 3.82337C10.7353 3.82138 9.78381 3.82028 8.83231 3.82003C8.29776 3.81987 7.76322 3.81932 7.22867 3.81778C6.77355 3.81647 6.31844 3.81595 5.86332 3.81647C5.63098 3.81672 5.39865 3.81657 5.16631 3.81542C4.95376 3.81437 4.74123 3.81439 4.52867 3.81529C4.45164 3.81542 4.37461 3.81515 4.29758 3.81445C4.19308 3.81356 4.08869 3.81411 3.9842 3.81502C3.9261 3.81495 3.868 3.81489 3.80814 3.81483C3.61245 3.85239 3.54284 3.92287 3.42183 4.07836Z" fill="black"/>
<path d="M19.9686 6.00017C20.6575 6.63788 21.0061 7.47499 21.0482 8.40984C21.0428 9.03042 20.9365 9.69054 20.6073 10.2277C20.5217 10.3472 20.5217 10.3472 20.5381 10.4491C20.5908 10.5785 20.6653 10.6494 20.7655 10.7466C20.8032 10.7837 20.8409 10.8207 20.8798 10.8589C20.9194 10.8971 20.959 10.9354 20.9999 10.9748C21.0781 11.051 21.1562 11.1273 21.2343 11.2037C21.2691 11.2373 21.3039 11.271 21.3397 11.3057C21.4762 11.4473 21.4878 11.5649 21.4846 11.7609C21.4548 11.9454 21.3748 12.0182 21.2343 12.1408C21.0571 12.1956 20.9553 12.2052 20.7803 12.1428C20.5177 11.981 20.3231 11.747 20.114 11.5225C20.0799 11.487 20.0459 11.4515 20.0107 11.415C19.9801 11.3822 19.9495 11.3495 19.918 11.3158C19.8333 11.2388 19.8333 11.2388 19.7304 11.2595C19.6102 11.3097 19.4973 11.3699 19.3827 11.4318C18.7061 11.7718 17.9837 11.829 17.264 11.5926C16.5356 11.3047 15.9313 10.7502 15.6093 10.0314C15.2478 9.11308 15.1607 8.05524 15.5529 7.13083C15.8991 6.35365 16.4824 5.74753 17.2849 5.43804C18.2506 5.13891 19.2033 5.34497 19.9686 6.00017ZM16.993 6.75933C16.4326 7.34322 16.2821 7.98782 16.2977 8.76909C16.3249 9.36457 16.617 9.91271 17.0459 10.3209C17.4613 10.6431 17.9022 10.7854 18.4218 10.7345C18.6333 10.6758 18.8348 10.5984 19.0311 10.5002C18.9646 10.3483 18.8843 10.249 18.7658 10.1336C18.7325 10.1008 18.6992 10.068 18.6648 10.0342C18.6301 10.0004 18.5953 9.96662 18.5595 9.93181C18.4904 9.86441 18.4215 9.79691 18.3527 9.7293C18.3221 9.69956 18.2916 9.66983 18.2601 9.63919C18.1522 9.5256 18.1409 9.47349 18.1259 9.31365C18.1428 9.11383 18.1883 9.04611 18.328 8.90642C18.4738 8.83354 18.5888 8.84612 18.7499 8.85955C18.9957 8.9984 19.1809 9.18565 19.3768 9.38689C19.4069 9.41735 19.4369 9.4478 19.4678 9.47918C19.5412 9.55367 19.6144 9.62838 19.6874 9.7033C19.9676 9.44017 20.0424 8.99355 20.0638 8.62096C20.0563 7.91399 19.8522 7.3101 19.3593 6.79705C18.659 6.15489 17.7167 6.11883 16.993 6.75933Z" fill="black"/>
<path d="M12.2812 5.71912C12.5294 5.91324 12.6243 6.1633 12.7441 6.44861C12.7661 6.49978 12.7881 6.55094 12.8108 6.60366C12.8851 6.77725 12.9583 6.95122 13.0312 7.12537C13.044 7.15586 13.0568 7.18635 13.07 7.21777C13.1962 7.51866 13.3218 7.81978 13.4468 8.12118C13.737 8.82112 14.032 9.519 14.3275 10.2167C14.3459 10.2601 14.3643 10.3036 14.3833 10.3484C14.4174 10.4291 14.4517 10.5099 14.4859 10.5906C14.517 10.664 14.5478 10.7374 14.5785 10.8109C14.6113 10.8896 14.6446 10.968 14.6783 11.0463C14.6955 11.0872 14.7126 11.1281 14.7303 11.1703C14.746 11.2071 14.7617 11.244 14.7778 11.2819C14.8359 11.4648 14.829 11.6324 14.7656 11.8129C14.6465 11.949 14.5632 11.9911 14.3906 12.0414C14.2315 12.048 14.1532 12.0332 14.0156 11.9535C13.8511 11.7744 13.7576 11.5804 13.6663 11.3579C13.6535 11.3277 13.6408 11.2975 13.6277 11.2664C13.5808 11.1548 13.5346 11.0429 13.4883 10.931C13.3839 10.6806 13.2795 10.4302 13.1719 10.1722C12.4294 10.1568 11.6869 10.1413 10.9219 10.1254C10.8755 10.2646 10.8291 10.4038 10.7812 10.5472C10.7015 10.7561 10.6154 10.9621 10.5293 11.1683C10.5073 11.2226 10.4853 11.2769 10.4626 11.3328C10.2528 11.8349 10.2528 11.8349 10.0312 12.0004C9.84321 12.0551 9.73795 12.058 9.55078 12.0004C9.37921 11.8756 9.33494 11.7832 9.28125 11.5785C9.33563 11.2961 9.43415 11.0429 9.54767 10.7796C9.56489 10.739 9.58211 10.6985 9.59986 10.6567C9.65649 10.5234 9.7135 10.3903 9.77051 10.2572C9.81036 10.1636 9.85017 10.07 9.88996 9.97631C9.97299 9.78098 10.0561 9.58571 10.1394 9.39048C10.3218 8.96259 10.5028 8.53416 10.6838 8.10567C10.7383 7.97658 10.793 7.84754 10.8476 7.71851C10.8649 7.67767 10.8821 7.63684 10.8999 7.59477C10.934 7.5141 10.9682 7.43346 11.0024 7.35284C11.0937 7.13699 11.1821 6.92035 11.2677 6.70219C11.2863 6.6554 11.3048 6.60861 11.3239 6.56039C11.3594 6.47064 11.3943 6.38069 11.4287 6.29052C11.5242 6.0498 11.6087 5.88221 11.8125 5.71912C11.9928 5.65903 12.0969 5.67462 12.2812 5.71912ZM12.0469 7.50037C11.8616 7.85291 11.7089 8.21387 11.5635 8.58436C11.491 8.76805 11.4185 8.95174 11.3438 9.141C11.8078 9.141 12.2719 9.141 12.75 9.141C12.666 8.88909 12.5861 8.65312 12.4828 8.41132C12.46 8.35769 12.4372 8.30407 12.4137 8.24882C12.3786 8.16693 12.3786 8.16693 12.3428 8.08338C12.3188 8.02715 12.2949 7.97093 12.2702 7.913C12.2115 7.77539 12.1527 7.63785 12.0938 7.50037C12.0783 7.50037 12.0628 7.50037 12.0469 7.50037Z" fill="black"/>
<path d="M5.85054 5.65343C5.88166 5.65318 5.91279 5.65293 5.94487 5.65268C6.04726 5.65206 6.14961 5.65247 6.25201 5.65295C6.32351 5.65285 6.39502 5.65271 6.46653 5.65254C6.61622 5.65233 6.7659 5.65263 6.91559 5.65329C7.107 5.65409 7.29837 5.65363 7.48977 5.65279C7.6374 5.65228 7.78502 5.65244 7.93265 5.6528C8.0032 5.6529 8.07375 5.65278 8.14429 5.65246C8.24313 5.6521 8.34192 5.65265 8.44075 5.65343C8.49687 5.65354 8.553 5.65365 8.61083 5.65377C8.78567 5.6739 8.89786 5.72002 9.04711 5.81225C9.17269 6.00062 9.17349 6.15333 9.14086 6.37475C9.05677 6.50929 9.00105 6.58528 8.85961 6.656C8.77296 6.66026 8.68615 6.66151 8.59939 6.66132C8.54497 6.66132 8.49055 6.66131 8.43447 6.66131C8.37549 6.66107 8.3165 6.66082 8.25573 6.66058C8.19552 6.66051 8.1353 6.66044 8.07327 6.66037C7.91313 6.6602 7.753 6.65973 7.59286 6.65922C7.42948 6.65874 7.2661 6.65852 7.10271 6.65829C6.78209 6.65781 6.46148 6.65689 6.14086 6.656C6.14086 7.151 6.14086 7.646 6.14086 8.156C6.43117 8.15273 6.43117 8.15273 6.72735 8.14941C6.88196 8.1482 7.03658 8.14718 7.1912 8.14629C7.35426 8.14531 7.5173 8.14399 7.68035 8.14185C7.86757 8.13942 8.05477 8.13851 8.242 8.13769C8.32939 8.13624 8.32939 8.13624 8.41854 8.13475C8.47295 8.13474 8.52737 8.13473 8.58343 8.13471C8.6551 8.13409 8.6551 8.13409 8.72821 8.13345C8.89483 8.16204 8.97302 8.22792 9.09399 8.3435C9.1755 8.50653 9.16851 8.68126 9.14086 8.85912C9.01554 9.02622 8.92218 9.10463 8.71899 9.14037C8.63308 9.14439 8.54704 9.14589 8.46104 9.14569C8.40943 9.14569 8.35783 9.14569 8.30467 9.14568C8.24924 9.14544 8.19382 9.1452 8.13671 9.14495C8.07975 9.14488 8.02279 9.14482 7.96411 9.14475C7.78214 9.14449 7.60017 9.1439 7.4182 9.1433C7.29485 9.14307 7.1715 9.14285 7.04815 9.14266C6.74572 9.14214 6.44329 9.14136 6.14086 9.14037C6.14138 9.17381 6.1419 9.20725 6.14244 9.24169C6.14714 9.55754 6.15071 9.87337 6.153 10.1892C6.15422 10.3516 6.15588 10.514 6.15854 10.6763C6.16159 10.8632 6.16271 11.05 6.16375 11.2369C6.16496 11.2949 6.16617 11.353 6.16741 11.4127C6.16756 11.863 6.16756 11.863 6.03231 12.0355C5.87394 12.1675 5.78383 12.1909 5.57836 12.1872C5.35247 12.1091 5.26184 12.0234 5.15649 11.8122C5.13879 11.694 5.13879 11.694 5.13863 11.5668C5.13823 11.5183 5.13784 11.4698 5.13743 11.4198C5.13771 11.3671 5.138 11.3144 5.13829 11.2601C5.13804 11.2042 5.1378 11.1483 5.13754 11.0907C5.13703 10.9378 5.13715 10.7849 5.1376 10.632C5.13795 10.4717 5.13762 10.3115 5.1374 10.1513C5.13715 9.8822 5.13748 9.61315 5.13815 9.3441C5.13892 9.03328 5.13867 8.72248 5.1379 8.41166C5.13726 8.14453 5.13717 7.87741 5.13754 7.61029C5.13775 7.45086 5.13778 7.29144 5.13732 7.13201C5.13696 6.95426 5.13751 6.77653 5.13829 6.59878C5.138 6.54608 5.13772 6.49337 5.13743 6.43907C5.13782 6.39058 5.13822 6.34208 5.13863 6.29212C5.13868 6.25012 5.13873 6.20812 5.13879 6.16485C5.16767 5.97188 5.25165 5.84818 5.40315 5.72842C5.56076 5.65867 5.67827 5.65377 5.85054 5.65343Z" fill="black"/>
<path d="M9.28125 14.0161C9.41297 14.1001 9.49263 14.1576 9.5625 14.2973C9.58222 14.4407 9.58524 14.5761 9.5625 14.7192C9.46024 14.8483 9.38101 14.9271 9.23438 15.0004C9.05302 15.021 8.96453 15.0063 8.80078 14.9213C8.66282 14.8053 8.6147 14.7533 8.57812 14.5786C8.57812 14.3627 8.60206 14.2767 8.74512 14.1127C8.92605 13.9814 9.06276 13.9848 9.28125 14.0161Z" fill="black"/>
</g>
<defs>
<clipPath id="clip0_361_1859">
<rect width="24" height="24" fill="white"/>
</clipPath>
</defs>
</svg>
