<svg width="17" height="18" viewBox="0 0 17 18" fill="none" xmlns="http://www.w3.org/2000/svg">
<path d="M10.2071 17.7551C10.0955 17.7552 9.98464 17.7372 9.87879 17.7018L5.71212 16.313C5.50474 16.2438 5.32437 16.1112 5.19657 15.9338C5.06877 15.7564 5.00002 15.5433 5.00005 15.3247V12.9142C5.00117 12.0283 4.80696 11.1531 4.43126 10.3509C4.05555 9.5486 3.50759 8.83904 2.82638 8.27271L2.62416 8.10466C1.80182 7.42118 1.14031 6.56479 0.686737 5.59647C0.233163 4.62815 -0.00131362 3.57173 5.53538e-06 2.50244V1.04167C0.000261482 0.765478 0.11009 0.500675 0.305385 0.30538C0.50068 0.110085 0.765484 0.000255947 1.04167 0H15.2083C15.4845 0.000255947 15.7493 0.110085 15.9446 0.30538C16.1399 0.500675 16.2498 0.765478 16.25 1.04167V3.33578C16.2514 4.40496 16.0169 5.46129 15.5634 6.42954C15.1099 7.39779 14.4485 8.25413 13.6263 8.93758L13.4241 9.10604C12.7428 9.67227 12.1948 10.3817 11.819 11.1839C11.4432 11.9861 11.249 12.8613 11.25 13.7471V16.7135C11.25 16.8504 11.2231 16.9859 11.1707 17.1124C11.1183 17.2389 11.0414 17.3538 10.9446 17.4505C10.8477 17.5473 10.7327 17.624 10.6062 17.6763C10.4796 17.7285 10.344 17.7553 10.2071 17.7551ZM6.25001 15.175L10 16.4246V13.7471C9.99864 12.678 10.2331 11.6217 10.6867 10.6535C11.1402 9.68528 11.8018 8.82904 12.6241 8.14575L12.8263 7.97729C13.5075 7.41096 14.0555 6.7014 14.4312 5.89914C14.8069 5.09688 15.0011 4.22165 15 3.33578V1.25H1.25001V2.50244C1.24888 3.38832 1.44309 4.26354 1.8188 5.0658C2.1945 5.86806 2.74247 6.57762 3.42367 7.14396L3.6259 7.31201C4.44822 7.99549 5.10973 8.85188 5.56329 9.8202C6.01686 10.7885 6.25133 11.8449 6.25001 12.9142V15.175Z" fill="#686868"/>
<path d="M10.2084 4.5835H6.04175C5.87599 4.5835 5.71702 4.51765 5.59981 4.40044C5.4826 4.28323 5.41675 4.12426 5.41675 3.9585C5.41675 3.79274 5.4826 3.63376 5.59981 3.51655C5.71702 3.39934 5.87599 3.3335 6.04175 3.3335H10.2084C10.3742 3.3335 10.5331 3.39934 10.6504 3.51655C10.7676 3.63376 10.8334 3.79274 10.8334 3.9585C10.8334 4.12426 10.7676 4.28323 10.6504 4.40044C10.5331 4.51765 10.3742 4.5835 10.2084 4.5835Z" fill="#686868"/>
</svg>
