<svg width="20" height="18" viewBox="0 0 20 18" fill="none" xmlns="http://www.w3.org/2000/svg">
<path d="M3.75588 6.84375V0.75C3.75588 0.551088 3.67686 0.360322 3.53621 0.21967C3.39556 0.0790178 3.20479 0 3.00588 0C2.80697 0 2.6162 0.0790178 2.47555 0.21967C2.3349 0.360322 2.25588 0.551088 2.25588 0.75V6.84375C1.61057 7.00898 1.0386 7.38428 0.630153 7.91048C0.221701 8.43669 0 9.08387 0 9.75C0 10.4161 0.221701 11.0633 0.630153 11.5895C1.0386 12.1157 1.61057 12.491 2.25588 12.6562V17.25C2.25588 17.4489 2.3349 17.6397 2.47555 17.7803C2.6162 17.921 2.80697 18 3.00588 18C3.20479 18 3.39556 17.921 3.53621 17.7803C3.67686 17.6397 3.75588 17.4489 3.75588 17.25V12.6562C4.40119 12.491 4.97316 12.1157 5.38161 11.5895C5.79006 11.0633 6.01176 10.4161 6.01176 9.75C6.01176 9.08387 5.79006 8.43669 5.38161 7.91048C4.97316 7.38428 4.40119 7.00898 3.75588 6.84375ZM3.00588 11.25C2.70921 11.25 2.4192 11.162 2.17253 10.9972C1.92585 10.8324 1.73359 10.5981 1.62006 10.324C1.50653 10.0499 1.47683 9.74834 1.5347 9.45737C1.59258 9.16639 1.73544 8.89912 1.94522 8.68934C2.155 8.47956 2.42228 8.3367 2.71325 8.27882C3.00422 8.22094 3.30582 8.25065 3.57991 8.36418C3.854 8.47771 4.08826 8.66997 4.25309 8.91665C4.41791 9.16332 4.50588 9.45333 4.50588 9.75C4.50588 10.1478 4.34785 10.5294 4.06654 10.8107C3.78524 11.092 3.40371 11.25 3.00588 11.25ZM10.5059 2.34375V0.75C10.5059 0.551088 10.4269 0.360322 10.2862 0.21967C10.1456 0.0790178 9.95479 0 9.75588 0C9.55697 0 9.3662 0.0790178 9.22555 0.21967C9.0849 0.360322 9.00588 0.551088 9.00588 0.75V2.34375C8.36057 2.50898 7.7886 2.88428 7.38015 3.41048C6.9717 3.93669 6.75 4.58387 6.75 5.25C6.75 5.91613 6.9717 6.56331 7.38015 7.08952C7.7886 7.61572 8.36057 7.99102 9.00588 8.15625V17.25C9.00588 17.4489 9.0849 17.6397 9.22555 17.7803C9.3662 17.921 9.55697 18 9.75588 18C9.95479 18 10.1456 17.921 10.2862 17.7803C10.4269 17.6397 10.5059 17.4489 10.5059 17.25V8.15625C11.1512 7.99102 11.7232 7.61572 12.1316 7.08952C12.5401 6.56331 12.7618 5.91613 12.7618 5.25C12.7618 4.58387 12.5401 3.93669 12.1316 3.41048C11.7232 2.88428 11.1512 2.50898 10.5059 2.34375ZM9.75588 6.75C9.45921 6.75 9.1692 6.66203 8.92253 6.4972C8.67585 6.33238 8.48359 6.09811 8.37006 5.82403C8.25653 5.54994 8.22683 5.24834 8.2847 4.95736C8.34258 4.66639 8.48544 4.39912 8.69522 4.18934C8.905 3.97956 9.17228 3.8367 9.46325 3.77882C9.75422 3.72094 10.0558 3.75065 10.3299 3.86418C10.604 3.97771 10.8383 4.16997 11.0031 4.41665C11.1679 4.66332 11.2559 4.95333 11.2559 5.25C11.2559 5.64782 11.0978 6.02936 10.8165 6.31066C10.5352 6.59196 10.1537 6.75 9.75588 6.75ZM19.5059 12.75C19.5053 12.0849 19.284 11.4388 18.8769 10.9129C18.4697 10.387 17.8996 10.011 17.2559 9.84375V0.75C17.2559 0.551088 17.1769 0.360322 17.0362 0.21967C16.8956 0.0790178 16.7048 0 16.5059 0C16.307 0 16.1162 0.0790178 15.9756 0.21967C15.8349 0.360322 15.7559 0.551088 15.7559 0.75V9.84375C15.1106 10.009 14.5386 10.3843 14.1302 10.9105C13.7217 11.4367 13.5 12.0839 13.5 12.75C13.5 13.4161 13.7217 14.0633 14.1302 14.5895C14.5386 15.1157 15.1106 15.491 15.7559 15.6562V17.25C15.7559 17.4489 15.8349 17.6397 15.9756 17.7803C16.1162 17.921 16.307 18 16.5059 18C16.7048 18 16.8956 17.921 17.0362 17.7803C17.1769 17.6397 17.2559 17.4489 17.2559 17.25V15.6562C17.8996 15.489 18.4697 15.113 18.8769 14.5871C19.284 14.0612 19.5053 13.4151 19.5059 12.75ZM16.5059 14.25C16.2092 14.25 15.9192 14.162 15.6725 13.9972C15.4259 13.8324 15.2336 13.5981 15.1201 13.324C15.0065 13.0499 14.9768 12.7483 15.0347 12.4574C15.0926 12.1664 15.2354 11.8991 15.4452 11.6893C15.655 11.4796 15.9223 11.3367 16.2132 11.2788C16.5042 11.2209 16.8058 11.2506 17.0799 11.3642C17.354 11.4777 17.5883 11.67 17.7531 11.9166C17.9179 12.1633 18.0059 12.4533 18.0059 12.75C18.0059 13.1478 17.8478 13.5294 17.5665 13.8107C17.2852 14.092 16.9037 14.25 16.5059 14.25Z" fill="black"/>
</svg>
