<svg width="18" height="18" viewBox="0 0 18 18" fill="none" xmlns="http://www.w3.org/2000/svg">
<path d="M3.00656 3.51572C2.94605 3.56817 2.89743 3.63294 2.86397 3.7057C2.8305 3.77845 2.81295 3.85751 2.8125 3.9376V15.7501C2.8125 15.8993 2.87176 16.0424 2.97725 16.1478C3.08274 16.2533 3.22582 16.3126 3.375 16.3126C3.52418 16.3126 3.66726 16.2533 3.77275 16.1478C3.87824 16.0424 3.9375 15.8993 3.9375 15.7501V12.6402C5.82117 11.1524 7.44398 11.9546 9.31289 12.8799C10.466 13.4502 11.7077 14.0647 13.0395 14.0647C14.0189 14.0647 15.0462 13.7307 16.1205 12.7991C16.1811 12.7466 16.2297 12.6819 16.2631 12.6091C16.2966 12.5363 16.3142 12.4573 16.3146 12.3772V3.9376C16.3144 3.82963 16.283 3.72401 16.2244 3.63337C16.1657 3.54272 16.0822 3.47086 15.9839 3.42638C15.8855 3.3819 15.7764 3.36667 15.6696 3.38251C15.5628 3.39835 15.4628 3.4446 15.3816 3.51572C13.4128 5.21939 11.745 4.39392 9.81211 3.43697C7.80961 2.44416 5.53922 1.32127 3.00656 3.51572ZM15.1875 12.1114C13.3038 13.5992 11.681 12.7963 9.81211 11.8717C8.0543 11.0033 6.09891 10.0344 3.9375 11.281V4.20408C5.82117 2.71627 7.44398 3.51853 9.31289 4.44314C11.0707 5.3115 13.0268 6.28041 15.1875 5.03377V12.1114Z" fill="black"/>
</svg>
