<svg width="20" height="20" viewBox="0 0 20 20" fill="none" xmlns="http://www.w3.org/2000/svg">
<path d="M10 2.03125C8.42393 2.03125 6.88326 2.49861 5.5728 3.37423C4.26235 4.24984 3.24097 5.49439 2.63784 6.95049C2.0347 8.40659 1.87689 10.0088 2.18437 11.5546C2.49185 13.1004 3.2508 14.5203 4.36525 15.6348C5.4797 16.7492 6.89959 17.5082 8.44538 17.8156C9.99116 18.1231 11.5934 17.9653 13.0495 17.3622C14.5056 16.759 15.7502 15.7377 16.6258 14.4272C17.5014 13.1167 17.9688 11.5761 17.9688 10C17.9663 7.88732 17.1259 5.86188 15.632 4.36798C14.1381 2.87409 12.1127 2.03373 10 2.03125ZM16.3727 7.03125H13.218C12.8419 5.58194 12.1561 4.23138 11.2078 3.07266C12.3233 3.26934 13.375 3.73175 14.274 4.42079C15.173 5.10983 15.8928 6.00522 16.3727 7.03125ZM17.0313 10C17.0318 10.6881 16.931 11.3725 16.732 12.0312H13.4227C13.6508 10.6867 13.6508 9.31331 13.4227 7.96875H16.732C16.931 8.62747 17.0318 9.3119 17.0313 10ZM10 16.8617C9.54868 16.4013 9.15061 15.8916 8.81328 15.3422C8.35807 14.6017 8.00439 13.8034 7.76172 12.9688H12.2383C11.9956 13.8034 11.6419 14.6017 11.1867 15.3422C10.8494 15.8916 10.4513 16.4013 10 16.8617ZM7.53516 12.0312C7.27994 10.6891 7.27994 9.31089 7.53516 7.96875H12.4648C12.7201 9.31089 12.7201 10.6891 12.4648 12.0312H7.53516ZM2.96875 10C2.96823 9.3119 3.06905 8.62747 3.26797 7.96875H6.57735C6.34922 9.31331 6.34922 10.6867 6.57735 12.0312H3.26797C3.06905 11.3725 2.96823 10.6881 2.96875 10ZM10 3.13828C10.4513 3.59867 10.8494 4.10839 11.1867 4.65781C11.6419 5.3983 11.9956 6.19659 12.2383 7.03125H7.76172C8.00439 6.19659 8.35807 5.3983 8.81328 4.65781C9.15061 4.10839 9.54868 3.59867 10 3.13828ZM8.79219 3.07266C7.84389 4.23138 7.15809 5.58194 6.78203 7.03125H3.62735C4.10717 6.00522 4.82702 5.10983 5.72601 4.42079C6.62501 3.73175 7.67672 3.26934 8.79219 3.07266ZM3.62735 12.9688H6.78203C7.15809 14.4181 7.84389 15.7686 8.79219 16.9273C7.67672 16.7307 6.62501 16.2682 5.72601 15.5792C4.82702 14.8902 4.10717 13.9948 3.62735 12.9688ZM11.2055 16.9273C12.1546 15.7688 12.8412 14.4183 13.218 12.9688H16.3727C15.8928 13.9948 15.173 14.8902 14.274 15.5792C13.375 16.2682 12.3233 16.7307 11.2078 16.9273H11.2055Z" fill="#0A0A0A"/>
</svg>
