<svg width="16" height="16" viewBox="0 0 16 16" fill="none" xmlns="http://www.w3.org/2000/svg">
<path d="M10.0937 1.15622C10.1299 1.16725 10.1299 1.16725 10.1669 1.1785C11.485 1.58688 12.7102 2.41166 13.5625 3.49997C13.5875 3.53111 13.6126 3.56225 13.6384 3.59433C14.1866 4.28193 14.5784 5.07027 14.8437 5.90622C14.852 5.93214 14.8602 5.95805 14.8687 5.98475C14.9213 6.15478 14.9635 6.3258 15 6.49997C15.0061 6.52847 15.0121 6.55696 15.0184 6.58632C15.2512 7.72993 15.1899 8.98072 14.8437 10.0937C14.8364 10.1179 14.829 10.142 14.8215 10.1669C14.4131 11.485 13.5883 12.7102 12.5 13.5625C12.4688 13.5875 12.4377 13.6126 12.4056 13.6384C11.718 14.1866 10.9297 14.5784 10.0937 14.8437C10.0678 14.852 10.0419 14.8602 10.0152 14.8687C9.84517 14.9213 9.67415 14.9635 9.49998 15C9.47148 15.0061 9.44299 15.0121 9.41363 15.0184C7.62499 15.3825 5.64419 15.027 4.11753 14.0184C3.48812 13.59 2.90823 13.1011 2.43748 12.5C2.41242 12.4688 2.38737 12.4377 2.36155 12.4056C1.81334 11.718 1.42158 10.9297 1.15623 10.0937C1.14798 10.0678 1.13973 10.0419 1.13123 10.0152C1.07863 9.84517 1.03644 9.67415 0.999978 9.49997C0.993895 9.47148 0.987812 9.44298 0.981545 9.41362C0.748753 8.27001 0.810078 7.01922 1.15623 5.90622C1.16358 5.88208 1.17093 5.85793 1.17851 5.83306C1.58688 4.515 2.41166 3.28971 3.49998 2.43747C3.53112 2.41242 3.56226 2.38736 3.59434 2.36155C4.48783 1.64918 5.54206 1.20104 6.65623 0.968723C6.6821 0.963164 6.70798 0.957605 6.73464 0.951877C7.81565 0.730985 9.04664 0.830573 10.0937 1.15622Z" fill="#FCAA17"/>
<path d="M10.0937 1.15622C10.1299 1.16725 10.1299 1.16725 10.1669 1.1785C11.485 1.58688 12.7102 2.41166 13.5625 3.49997C13.5875 3.53111 13.6126 3.56225 13.6384 3.59433C14.1866 4.28193 14.5784 5.07027 14.8437 5.90622C14.852 5.93214 14.8602 5.95805 14.8687 5.98475C14.9213 6.15478 14.9635 6.3258 15 6.49997C15.0061 6.52847 15.0121 6.55696 15.0184 6.58632C15.2512 7.72993 15.1899 8.98072 14.8437 10.0937C14.8364 10.1179 14.829 10.142 14.8215 10.1669C14.4131 11.485 13.5883 12.7102 12.5 13.5625C12.4688 13.5875 12.4377 13.6126 12.4056 13.6384C11.718 14.1866 10.9297 14.5784 10.0937 14.8437C10.0678 14.852 10.0419 14.8602 10.0152 14.8687C9.84517 14.9213 9.67415 14.9635 9.49998 15C9.47148 15.0061 9.44299 15.0121 9.41363 15.0184C7.62499 15.3825 5.64419 15.027 4.11753 14.0184C3.48812 13.59 2.90823 13.1011 2.43748 12.5C2.41242 12.4688 2.38737 12.4377 2.36155 12.4056C1.81334 11.718 1.42158 10.9297 1.15623 10.0937C1.14798 10.0678 1.13973 10.0419 1.13123 10.0152C1.07863 9.84517 1.03644 9.67415 0.999978 9.49997C0.993895 9.47148 0.987812 9.44298 0.981545 9.41362C0.748753 8.27001 0.810078 7.01922 1.15623 5.90622C1.16358 5.88208 1.17093 5.85793 1.17851 5.83306C1.58688 4.515 2.41166 3.28971 3.49998 2.43747C3.53112 2.41242 3.56226 2.38736 3.59434 2.36155C4.48783 1.64918 5.54206 1.20104 6.65623 0.968723C6.6821 0.963164 6.70798 0.957605 6.73464 0.951877C7.81565 0.730985 9.04664 0.830573 10.0937 1.15622ZM3.87498 4.34372C3.24855 5.06989 2.77568 5.96102 2.59373 6.90622C2.5891 6.92985 2.58447 6.95349 2.5797 6.97783C2.415 7.8549 2.4515 8.81037 2.74998 9.65622C2.75835 9.68031 2.76673 9.7044 2.77535 9.72922C3.28507 11.1804 4.29471 12.3279 5.68681 12.9996C6.91378 13.5731 8.36727 13.6924 9.65623 13.25C9.67801 13.2428 9.69978 13.2356 9.72222 13.2282C11.1279 12.7606 12.277 11.7534 12.9461 10.4323C13.2118 9.88095 13.3784 9.29135 13.4687 8.68747C13.4777 8.62916 13.4777 8.62916 13.4869 8.56968C13.6537 7.16075 13.2032 5.73785 12.3437 4.62497C11.7011 3.81006 10.8808 3.20453 9.91209 2.832C9.87296 2.81692 9.87296 2.81692 9.83304 2.80154C7.73403 2.02298 5.36183 2.71855 3.87498 4.34372Z" fill="#FED92B"/>
<path d="M7.96875 3.8125C7.98938 3.8125 8.01 3.8125 8.03125 3.8125C8.70477 5.15358 8.70477 5.15358 8.92188 5.60938C8.93537 5.63688 8.94887 5.66439 8.96278 5.69273C9.01662 5.80325 9.06572 5.90924 9.09912 6.02771C9.13694 6.1435 9.16178 6.19692 9.25 6.28125C9.35277 6.31672 9.45743 6.33095 9.56482 6.34619C9.59649 6.35118 9.62815 6.35616 9.66078 6.36129C9.76333 6.37712 9.86599 6.39184 9.96875 6.40625C10.0193 6.41341 10.0193 6.41341 10.0709 6.4207C10.349 6.45962 10.6275 6.49557 10.906 6.53133C11.6726 6.63018 11.6726 6.63018 12.0312 6.71875C11.9141 6.86086 11.7914 6.99011 11.6543 7.11328C11.356 7.38596 11.0735 7.67483 10.7892 7.96193C10.4434 8.3105 10.4434 8.3105 10.2732 8.45234C10.2553 8.46807 10.2373 8.4838 10.2188 8.5C10.1905 8.5234 10.1622 8.5468 10.1331 8.57091C10.0536 8.65006 10.0536 8.65006 10.056 8.75129C10.0624 8.78829 10.0688 8.82528 10.0753 8.8634C10.0804 8.89524 10.0804 8.89524 10.0856 8.92772C10.0935 8.97639 10.1018 9.025 10.1104 9.07354C10.1264 9.1644 10.1411 9.25543 10.1556 9.34654C10.1905 9.56391 10.227 9.78097 10.2637 9.99805C10.2762 10.0726 10.2886 10.1471 10.3011 10.2216C10.3133 10.2945 10.3255 10.3674 10.3378 10.4403C10.3437 10.4754 10.3495 10.5106 10.3556 10.5468C10.3818 10.7019 10.4084 10.8569 10.4371 11.0116C10.4417 11.0364 10.4463 11.0612 10.451 11.0868C10.4594 11.1316 10.4679 11.1763 10.4767 11.2209C10.4951 11.3196 10.5012 11.3715 10.4688 11.4688C10.0721 11.2648 9.67579 11.0609 9.28516 10.8457C9.20132 10.7999 9.11742 10.7541 9.03348 10.7085C8.96317 10.6702 8.89293 10.6318 8.82272 10.5934C8.72022 10.5374 8.61734 10.4821 8.51422 10.4272C8.4738 10.4056 8.4335 10.3837 8.39333 10.3616C8.33706 10.3307 8.28042 10.3007 8.22363 10.2708C8.19102 10.2532 8.15841 10.2356 8.12482 10.2175C7.97974 10.171 7.89396 10.2265 7.76166 10.2884C7.73429 10.3027 7.70691 10.317 7.67871 10.3318C7.63207 10.3561 7.63207 10.3561 7.58449 10.3809C7.55145 10.3983 7.51841 10.4157 7.48438 10.4336C7.43234 10.4608 7.43234 10.4608 7.37926 10.4886C7.13155 10.6187 6.88577 10.752 6.64067 10.8869C6.27447 11.0877 5.90264 11.2778 5.53125 11.4688C5.5024 11.3748 5.49966 11.3076 5.51643 11.2111C5.52083 11.185 5.52524 11.1589 5.52979 11.132C5.53482 11.1038 5.53986 11.0756 5.54504 11.0465C5.55014 11.0168 5.55523 10.9872 5.56047 10.9566C5.57718 10.8597 5.59425 10.7629 5.61133 10.666C5.62286 10.5995 5.63438 10.5329 5.64587 10.4663C5.69858 10.1622 5.7526 9.85843 5.80847 9.55493C5.81287 9.53099 5.81727 9.50705 5.8218 9.48238C5.84207 9.37234 5.86257 9.26236 5.88349 9.15244C5.89068 9.11402 5.89787 9.0756 5.90527 9.03601C5.91467 8.9867 5.91467 8.9867 5.92426 8.93639C5.95426 8.76284 5.95426 8.76284 5.90417 8.60114C5.88103 8.57917 5.88103 8.57917 5.85742 8.55676C5.84022 8.54003 5.82302 8.52329 5.8053 8.50604C5.77793 8.48081 5.77793 8.48081 5.75 8.45508C5.73272 8.43838 5.71544 8.42168 5.69763 8.40448C5.60549 8.31626 5.51053 8.23183 5.41382 8.14867C5.2861 8.0371 5.16597 7.91949 5.04688 7.79883C5.02563 7.77746 5.00438 7.75609 4.98248 7.73408C4.89274 7.64383 4.80319 7.5534 4.71362 7.46298C4.64769 7.39648 4.58166 7.33007 4.51562 7.26367C4.48593 7.23358 4.48593 7.23358 4.45563 7.20289C4.33633 7.08295 4.21331 6.97021 4.0838 6.86134C4.03125 6.8125 4.03125 6.8125 3.96875 6.71875C4.27144 6.6576 4.57391 6.60889 4.88003 6.56863C5.14157 6.53399 5.40208 6.49383 5.66265 6.45259C5.83377 6.42584 6.00477 6.4012 6.17676 6.38074C6.20979 6.37677 6.24283 6.3728 6.27686 6.36871C6.33954 6.36136 6.40226 6.35434 6.46502 6.34772C6.49296 6.34443 6.5209 6.34115 6.54968 6.33777C6.57413 6.33513 6.59858 6.33249 6.62377 6.32977C6.70433 6.30794 6.72996 6.28459 6.78125 6.21875C6.81629 6.15676 6.84923 6.09358 6.88086 6.02979C6.8902 6.01107 6.89953 5.99235 6.90915 5.97306C6.93962 5.91182 6.96982 5.85045 7 5.78906C7.02118 5.74633 7.04237 5.7036 7.06358 5.66087C7.20098 5.38341 7.33553 5.10463 7.46818 4.82485C7.62976 4.48479 7.79922 4.14865 7.96875 3.8125Z" fill="#FDD92B"/>
</svg>
