<svg width="24" height="24" viewBox="0 0 24 24" fill="none" xmlns="http://www.w3.org/2000/svg">
<path d="M16.3875 3C14.6813 3 13.0726 3.78478 12 5.06002C10.9274 3.78478 9.31875 3 7.6125 3C4.58991 3 2.25 5.35411 2.25 8.39508C2.25 12.1224 5.56491 15.1145 10.5861 19.7245L12 21L13.4139 19.7245C18.435 15.1145 21.75 12.1223 21.75 8.39508C21.75 5.35411 19.4101 3 16.3875 3ZM12.6017 18.4339L12.4039 18.6155L12 18.9798L11.5961 18.6155L11.3986 18.4342C9.03525 16.2647 6.99417 14.391 5.64488 12.7157C4.33439 11.0885 3.75 9.756 3.75 8.39508C3.75 7.32328 4.14478 6.33581 4.86164 5.61464C5.57611 4.89586 6.55303 4.5 7.6125 4.5C8.83753 4.5 10.0486 5.07033 10.852 6.02555L12 7.39036L13.1479 6.02555C13.9514 5.07033 15.1624 4.5 16.3875 4.5C17.447 4.5 18.4239 4.89586 19.1384 5.61459C19.8552 6.33581 20.25 7.32323 20.25 8.39508C20.25 9.756 19.6656 11.0885 18.3552 12.7156C17.006 14.3909 14.965 16.2645 12.6017 18.4339Z" fill="#6D6D6D"/>
</svg>
