<svg width="28" height="28" viewBox="0 0 28 28" fill="none" xmlns="http://www.w3.org/2000/svg">
<g clip-path="url(#clip0_351_2325)">
<path d="M17.5 27.125H10.5C10.2679 27.125 10.0454 27.0328 9.88128 26.8687C9.71719 26.7046 9.625 26.4821 9.625 26.25V15.75C9.625 15.0538 9.90156 14.3861 10.3938 13.8938C10.8861 13.4016 11.5538 13.125 12.25 13.125H15.75C16.4462 13.125 17.1139 13.4016 17.6062 13.8938C18.0984 14.3861 18.375 15.0538 18.375 15.75V26.25C18.375 26.4821 18.2828 26.7046 18.1187 26.8687C17.9546 27.0328 17.7321 27.125 17.5 27.125ZM11.375 25.375H16.625V15.75C16.625 15.5179 16.5328 15.2954 16.3687 15.1313C16.2046 14.9672 15.9821 14.875 15.75 14.875H12.25C12.0179 14.875 11.7954 14.9672 11.6313 15.1313C11.4672 15.2954 11.375 15.5179 11.375 15.75V25.375Z" fill="#1C443A"/>
<path d="M11.375 25.375H16.625V15.75C16.625 15.5179 16.5328 15.2954 16.3687 15.1313C16.2046 14.9672 15.9821 14.875 15.75 14.875H12.25C12.0179 14.875 11.7954 14.9672 11.6313 15.1313C11.4672 15.2954 11.375 15.5179 11.375 15.75V25.375Z" fill="#1C443A"/>
<path d="M21.875 27.1248H6.12496C5.42877 27.1248 4.76109 26.8483 4.2688 26.356C3.77652 25.8637 3.49996 25.196 3.49996 24.4998V13.9998H0.874959C0.695336 14.0017 0.519506 13.9481 0.371345 13.8466C0.223185 13.745 0.109874 13.6003 0.046801 13.4321C-0.0162719 13.2639 -0.0260505 13.0804 0.0187931 12.9064C0.0636368 12.7325 0.16093 12.5766 0.297459 12.4598L13.4225 1.08483C13.5821 0.944551 13.7874 0.867188 14 0.867188C14.2125 0.867188 14.4178 0.944551 14.5775 1.08483L27.7025 12.4598C27.839 12.5766 27.9363 12.7325 27.9811 12.9064C28.026 13.0804 28.0162 13.2639 27.9531 13.4321C27.89 13.6003 27.7767 13.745 27.6286 13.8466C27.4804 13.9481 27.3046 14.0017 27.125 13.9998H23.625C23.3929 13.9998 23.1703 13.9076 23.0062 13.7435C22.8421 13.5795 22.75 13.3569 22.75 13.1248C22.75 12.8928 22.8421 12.6702 23.0062 12.5061C23.1703 12.342 23.3929 12.2498 23.625 12.2498H24.78L14 2.90483L3.21996 12.2498H4.37496C4.60702 12.2498 4.82958 12.342 4.99368 12.5061C5.15777 12.6702 5.24996 12.8928 5.24996 13.1248V24.4998C5.24996 24.7319 5.34215 24.9545 5.50624 25.1185C5.67033 25.2826 5.89289 25.3748 6.12496 25.3748H21.875C22.107 25.3748 22.3296 25.2826 22.4937 25.1185C22.6578 24.9545 22.75 24.7319 22.75 24.4998V16.6248C22.75 16.3928 22.8421 16.1702 23.0062 16.0061C23.1703 15.842 23.3929 15.7498 23.625 15.7498C23.857 15.7498 24.0796 15.842 24.2437 16.0061C24.4078 16.1702 24.5 16.3928 24.5 16.6248V24.4998C24.5 25.196 24.2234 25.8637 23.7311 26.356C23.2388 26.8483 22.5712 27.1248 21.875 27.1248Z" fill="#1C443A"/>
</g>
<defs>
<clipPath id="clip0_351_2325">
<rect width="28" height="28" fill="white"/>
</clipPath>
</defs>
</svg>
