<svg width="20" height="20" viewBox="0 0 20 20" fill="none" xmlns="http://www.w3.org/2000/svg">
<g clip-path="url(#clip0_458_35)">
<path d="M9.16927 14.5837C5.26344 14.5837 2.08594 11.4062 2.08594 7.50033C2.08594 3.59449 5.26344 0.416992 9.16927 0.416992C13.0751 0.416992 16.2526 3.59449 16.2526 7.50033C16.2526 11.4062 13.0751 14.5837 9.16927 14.5837ZM9.16927 1.25033C5.72302 1.25033 2.91927 4.05408 2.91927 7.50033C2.91927 10.9466 5.72302 13.7503 9.16927 13.7503C12.6155 13.7503 15.4193 10.9466 15.4193 7.50033C15.4193 4.05408 12.6155 1.25033 9.16927 1.25033Z" fill="#3E8D7A"/>
<path d="M9.16927 1.25033C5.72302 1.25033 2.91927 4.05408 2.91927 7.50033C2.91927 10.9466 5.72302 13.7503 9.16927 13.7503C12.6155 13.7503 15.4193 10.9466 15.4193 7.50033C15.4193 4.05408 12.6155 1.25033 9.16927 1.25033Z" fill="#3E8D7A"/>
<path d="M9.16958 16.6627C6.82208 16.6627 4.47458 15.769 2.6875 13.9823L3.27667 13.3931C6.52625 16.6419 11.8129 16.6423 15.0617 13.3931C18.3108 10.144 18.3108 4.85689 15.0617 1.60772L15.6508 1.01855C19.225 4.59272 19.225 10.4081 15.6508 13.9823C13.8642 15.769 11.5171 16.6627 9.16958 16.6627Z" fill="#3E8D7A"/>
<path d="M8.33594 16.2402H9.16927V17.9277H8.33594V16.2402ZM9.16927 16.2402H10.0026V17.9277H9.16927V16.2402Z" fill="#3E8D7A"/>
<path d="M15.4062 20.0005H2.93415L3.9354 19.2505C5.46373 18.1055 7.27415 17.5005 9.16998 17.5005C11.0658 17.5005 12.8762 18.1055 14.4041 19.2505L15.4062 20.0005ZM5.6454 19.1671H12.6954C11.605 18.6192 10.4079 18.3338 9.1704 18.3338C7.9329 18.3338 6.7354 18.6192 5.6454 19.1671ZM2.39373 14.6938C2.31125 14.694 2.23057 14.6697 2.16193 14.6239C2.0933 14.5782 2.03981 14.513 2.00824 14.4368C1.97668 14.3606 1.96847 14.2768 1.98465 14.1959C2.00084 14.115 2.04069 14.0407 2.09915 13.9826L3.27748 12.8042C3.31617 12.7655 3.36209 12.7348 3.41264 12.7139C3.46318 12.693 3.51736 12.6822 3.57207 12.6822C3.62677 12.6822 3.68095 12.693 3.73149 12.7139C3.78204 12.7348 3.82796 12.7655 3.86665 12.8042C3.90533 12.8429 3.93602 12.8888 3.95696 12.9394C3.97789 12.9899 3.98867 13.0441 3.98867 13.0988C3.98867 13.1535 3.97789 13.2077 3.95696 13.2582C3.93602 13.3088 3.90533 13.3547 3.86665 13.3934L2.68832 14.5717C2.64967 14.6105 2.60376 14.6412 2.5532 14.6622C2.50265 14.6831 2.44846 14.6939 2.39373 14.6938ZM14.7679 2.31922C14.6854 2.3194 14.6047 2.29507 14.5361 2.24932C14.4675 2.20357 14.414 2.13846 14.3824 2.06225C14.3508 1.98604 14.3426 1.90218 14.3588 1.8213C14.375 1.74041 14.4149 1.66616 14.4733 1.60797L15.6516 0.429638C15.6903 0.390952 15.7363 0.360266 15.7868 0.339329C15.8373 0.318393 15.8915 0.307617 15.9462 0.307617C16.0009 0.307617 16.0551 0.318393 16.1057 0.339329C16.1562 0.360266 16.2021 0.390952 16.2408 0.429638C16.2795 0.468323 16.3102 0.514249 16.3311 0.564794C16.3521 0.615338 16.3628 0.669512 16.3628 0.724221C16.3628 0.77893 16.3521 0.833104 16.3311 0.883648C16.3102 0.934193 16.2795 0.980119 16.2408 1.0188L15.0625 2.19714C15.0239 2.23596 14.978 2.26674 14.9274 2.2877C14.8769 2.30865 14.8226 2.31937 14.7679 2.31922Z" fill="#3E8D7A"/>
</g>
<defs>
<clipPath id="clip0_458_35">
<rect width="20" height="20" fill="white"/>
</clipPath>
</defs>
</svg>
