<svg width="16" height="16" viewBox="0 0 16 16" fill="none" xmlns="http://www.w3.org/2000/svg">
<path d="M13.0375 12.3031C12.2551 11.9905 11.194 11.7558 10.0139 11.6316C11.5405 9.57212 13.2306 6.94675 13.2306 5.23C13.2306 2.34616 10.8845 0 8.00061 0C5.1168 0 2.77064 2.34616 2.77064 5.23C2.77064 6.28775 3.43583 7.841 4.74767 9.84659C5.15005 10.4618 5.57886 11.0678 5.99436 11.6308C4.81239 11.7548 3.74948 11.9895 2.9657 12.3022C1.71717 12.8005 1.45508 13.3724 1.45508 13.7644C1.45508 15.2165 4.82748 16 8.00061 16C11.1737 16 14.5462 15.2165 14.5462 13.7645C14.5461 13.3727 14.2844 12.8012 13.0375 12.3031ZM3.27064 5.23C3.27064 2.62188 5.39248 0.5 8.00061 0.5C10.6087 0.5 12.7306 2.62188 12.7306 5.23C12.7306 6.19934 12.1016 7.65303 10.8612 9.55066C9.87805 11.0546 8.73626 12.4922 8.00073 13.4094C6.53386 11.5767 3.27064 7.411 3.27064 5.23ZM7.80561 13.9655C7.82903 13.9947 7.85872 14.0182 7.89247 14.0344C7.92622 14.0506 7.96317 14.059 8.00061 14.059C8.03804 14.059 8.075 14.0506 8.10875 14.0344C8.1425 14.0182 8.17218 13.9947 8.19561 13.9655L8.26936 13.8736C8.45095 13.6477 8.63185 13.4213 8.81205 13.1943C10.0545 13.3 10.5523 13.6038 10.5928 13.7074C10.5723 13.7568 10.4064 13.9107 9.87151 14.0498C9.36426 14.1818 8.69983 14.2545 8.00061 14.2545C7.30139 14.2545 6.63698 14.1818 6.1297 14.0498C5.59486 13.9107 5.42895 13.7568 5.40842 13.7074C5.44889 13.6038 5.94714 13.2998 7.19067 13.1942C7.42448 13.4904 7.63358 13.751 7.80561 13.9655ZM12.377 14.93C11.2116 15.2976 9.65739 15.5 8.00061 15.5C6.34383 15.5 4.78961 15.2976 3.6242 14.93C2.57905 14.6004 1.95508 14.1647 1.95508 13.7645C1.95508 13.1273 3.59364 12.3386 6.3443 12.0994C6.51042 12.3193 6.67242 12.5304 6.82748 12.7302C6.07545 12.8242 4.90745 13.0725 4.90745 13.7075C4.90745 14.534 6.85177 14.7545 8.00064 14.7545C9.14952 14.7545 11.0938 14.534 11.0938 13.7075C11.0938 13.0733 9.92827 12.8248 9.17686 12.7306C9.34012 12.5214 9.50201 12.3112 9.66251 12.0999C12.4097 12.3397 14.0461 13.1279 14.0461 13.7644C14.0461 14.1647 13.4222 14.6004 12.377 14.93ZM10.6634 5.22394C10.6634 3.75569 9.46886 2.56116 8.00061 2.56116C6.53233 2.56116 5.3378 3.75569 5.3378 5.22394C5.3378 6.69222 6.53233 7.88672 8.00061 7.88672C9.46889 7.88672 10.6634 6.69222 10.6634 5.22394ZM8.00061 7.38672C6.80801 7.38672 5.8378 6.4165 5.8378 5.22394C5.8378 4.03137 6.80805 3.06116 8.00061 3.06116C9.19317 3.06116 10.1634 4.03137 10.1634 5.22394C10.1634 6.4165 9.1932 7.38672 8.00061 7.38672Z" fill="#1C443A"/>
</svg>
