<svg width="14" height="14" viewBox="0 0 14 14" fill="none" xmlns="http://www.w3.org/2000/svg">
<g clip-path="url(#clip0_2_815)">
<path d="M11.0495 1.64066C9.96683 0.584235 8.51268 -0.00490331 7.00001 3.07438e-05C5.41626 3.07438e-05 3.98476 0.628281 2.95051 1.64066C2.42022 2.15481 1.99852 2.77017 1.71039 3.45028C1.42227 4.13039 1.27358 4.86141 1.27313 5.60003C1.27313 7.23628 2.86301 9.42728 3.89813 10.5L7.00001 14L10.0231 10.5C11.0583 9.42641 12.7278 7.23628 12.7278 5.60003C12.727 4.86138 12.578 4.1304 12.2898 3.45032C12.0015 2.77025 11.5798 2.15489 11.0495 1.64066ZM7.00001 7.63616C6.74908 7.63662 6.50053 7.58752 6.26862 7.49168C6.03672 7.39584 5.82602 7.25514 5.64863 7.07767C5.47123 6.90019 5.33063 6.68943 5.2349 6.45748C5.13917 6.22553 5.09018 5.97696 5.09076 5.72603C5.09076 4.66991 5.94301 3.81766 7.00001 3.81766C8.05701 3.81766 8.90926 4.66991 8.90926 5.72603C8.90983 5.97696 8.86085 6.22553 8.76512 6.45748C8.66938 6.68943 8.52878 6.90019 8.35139 7.07767C8.174 7.25514 7.9633 7.39584 7.73139 7.49168C7.49949 7.58752 7.25094 7.63662 7.00001 7.63616Z" fill="#433E3F"/>
</g>
<defs>
<clipPath id="clip0_2_815">
<rect width="14" height="14" fill="white"/>
</clipPath>
</defs>
</svg>
