<svg width="18" height="18" viewBox="0 0 18 18" fill="none" xmlns="http://www.w3.org/2000/svg">
<rect width="18" height="18" rx="4" fill="white"/>
<path d="M8.5 7.44998V12C8.5 12.1326 8.55268 12.2598 8.64645 12.3535C8.74021 12.4473 8.86739 12.5 9 12.5C9.13261 12.5 9.25979 12.4473 9.35355 12.3535C9.44732 12.2598 9.5 12.1326 9.5 12V7.44998C10.107 7.32607 10.6464 6.98118 11.0136 6.48218C11.3808 5.98318 11.5496 5.36562 11.4873 4.74922C11.4251 4.13281 11.1361 3.56149 10.6766 3.14601C10.217 2.73053 9.61954 2.50049 9 2.50049C8.38046 2.50049 7.78299 2.73053 7.32342 3.14601C6.86385 3.56149 6.57493 4.13281 6.51266 4.74922C6.45039 5.36562 6.61921 5.98318 6.9864 6.48218C7.35359 6.98118 7.89298 7.32607 8.5 7.44998ZM9 3.49998C9.29667 3.49998 9.58668 3.58795 9.83335 3.75277C10.08 3.9176 10.2723 4.15186 10.3858 4.42595C10.4994 4.70004 10.5291 5.00164 10.4712 5.29261C10.4133 5.58359 10.2704 5.85086 10.0607 6.06064C9.85088 6.27042 9.58361 6.41328 9.29264 6.47116C9.00166 6.52903 8.70006 6.49933 8.42597 6.3858C8.15189 6.27227 7.91762 6.08001 7.7528 5.83333C7.58797 5.58666 7.5 5.29665 7.5 4.99998C7.5 4.60215 7.65804 4.22062 7.93934 3.93932C8.22064 3.65801 8.60218 3.49998 9 3.49998ZM16 12C16 13.9487 12.3931 15 9 15C5.60687 15 2 13.9487 2 12C2 11.5162 2.23812 10.8044 3.375 10.1619C4.14125 9.7281 5.195 9.39498 6.42312 9.1981C6.48809 9.18784 6.55444 9.19048 6.61838 9.20586C6.68232 9.22124 6.74261 9.24907 6.7958 9.28775C6.84899 9.32643 6.89405 9.37521 6.92838 9.4313C6.96272 9.4874 6.98568 9.5497 6.99594 9.61467C7.0062 9.67963 7.00356 9.74598 6.98818 9.80992C6.9728 9.87387 6.94497 9.93415 6.90629 9.98735C6.86761 10.0405 6.81883 10.0856 6.76274 10.1199C6.70664 10.1543 6.64434 10.1772 6.57937 10.1875C5.48312 10.3637 4.51687 10.6644 3.86562 11.0344C3.31562 11.3437 3 11.6962 3 12C3 12.835 5.2825 14 9 14C12.7175 14 15 12.835 15 12C15 11.6962 14.6844 11.3437 14.1344 11.0319C13.4806 10.6619 12.5169 10.3612 11.4206 10.185C11.3543 10.1763 11.2904 10.1544 11.2326 10.1206C11.1749 10.0868 11.1245 10.0417 11.0846 9.98807C11.0446 9.93443 11.0157 9.87332 10.9998 9.80834C10.9838 9.74336 10.9811 9.67584 10.9917 9.60978C11.0024 9.54372 11.0261 9.48047 11.0617 9.42377C11.0972 9.36707 11.1437 9.31807 11.1985 9.27968C11.2533 9.24129 11.3152 9.21429 11.3807 9.20028C11.4461 9.18627 11.5137 9.18553 11.5794 9.1981C12.8075 9.39498 13.8612 9.7281 14.6275 10.1619C15.7619 10.8044 16 11.5162 16 12Z" fill="black"/>
</svg>
