<svg width="20" height="20" viewBox="0 0 20 20" fill="none" xmlns="http://www.w3.org/2000/svg">
<g clip-path="url(#clip0_2_3329)">
<path d="M5.83337 4.99967C6.05439 4.99967 6.26635 4.91188 6.42263 4.7556C6.57891 4.59932 6.66671 4.38735 6.66671 4.16634C6.66671 3.94533 6.57891 3.73337 6.42263 3.57709C6.26635 3.42081 6.05439 3.33301 5.83337 3.33301H4.16671C3.94569 3.33301 3.73373 3.42081 3.57745 3.57709C3.42117 3.73337 3.33337 3.94533 3.33337 4.16634V15.833C3.33337 16.054 3.42117 16.266 3.57745 16.4223C3.73373 16.5785 3.94569 16.6663 4.16671 16.6663H5.83337C6.05439 16.6663 6.26635 16.5785 6.42263 16.4223C6.57891 16.266 6.66671 16.054 6.66671 15.833C6.66671 15.612 6.57891 15.4 6.42263 15.2438C6.26635 15.0875 6.05439 14.9997 5.83337 14.9997H5.00004V4.99967H5.83337ZM17.35 9.51634L15 6.18301C14.8726 6.00335 14.6792 5.88146 14.4621 5.84398C14.2451 5.8065 14.022 5.85649 13.8417 5.98301C13.7516 6.04616 13.6749 6.12654 13.616 6.21951C13.5571 6.31248 13.5172 6.41619 13.4986 6.52466C13.48 6.63313 13.4831 6.74421 13.5076 6.85149C13.5322 6.95876 13.5778 7.06011 13.6417 7.14967L15.075 9.16634H8.33337C8.11236 9.16634 7.9004 9.25414 7.74412 9.41042C7.58784 9.5667 7.50004 9.77866 7.50004 9.99967C7.50004 10.2207 7.58784 10.4326 7.74412 10.5889C7.9004 10.7452 8.11236 10.833 8.33337 10.833H15L13.5 12.833C13.4344 12.9206 13.3866 13.0202 13.3594 13.1262C13.3323 13.2322 13.3263 13.3425 13.3417 13.4509C13.3572 13.5592 13.3939 13.6634 13.4496 13.7576C13.5054 13.8518 13.5792 13.934 13.6667 13.9997C13.811 14.1079 13.9864 14.1663 14.1667 14.1663C14.2961 14.1663 14.4237 14.1362 14.5394 14.0784C14.6551 14.0205 14.7558 13.9365 14.8334 13.833L17.3334 10.4997C17.4401 10.3587 17.4992 10.1875 17.5022 10.0107C17.5052 9.83396 17.4519 9.66082 17.35 9.51634Z" fill="#2C2C2C"/>
</g>
<defs>
<clipPath id="clip0_2_3329">
<rect width="20" height="20" fill="white"/>
</clipPath>
</defs>
</svg>
