<svg width="19" height="20" viewBox="0 0 19 20" fill="none" xmlns="http://www.w3.org/2000/svg">
<g clip-path="url(#clip0_458_42)">
<ellipse cx="9.5" cy="19.1045" rx="2.67188" ry="0.895522" fill="#3E8D7A"/>
<path d="M15.4078 5.9403C15.4078 9.22388 9.49998 19.1045 9.49998 19.1045C9.49998 19.1045 3.59216 9.22388 3.59216 5.9403C3.59216 2.65672 6.23435 0 9.49998 0C12.7656 0 15.4078 2.65672 15.4078 5.9403Z" fill="#3E8D7A"/>
<path d="M13.0473 6.79047C13.5108 4.81696 12.2954 2.83933 10.3326 2.37332C8.36991 1.90731 6.4031 3.12938 5.93964 5.1029C5.47617 7.07642 6.69157 9.05405 8.65429 9.52006C10.617 9.98607 12.5838 8.76399 13.0473 6.79047Z" fill="white"/>
</g>
<defs>
<clipPath id="clip0_458_42">
<rect width="19" height="20" fill="white"/>
</clipPath>
</defs>
</svg>
