<svg width="24" height="24" viewBox="0 0 24 24" fill="none" xmlns="http://www.w3.org/2000/svg">
<g clip-path="url(#clip0_18_244)">
<path d="M23.0061 5.74681L18.3721 3.09883C18.3703 3.09778 18.3684 3.09705 18.3665 3.09599C18.3517 3.08766 18.3363 3.0802 18.3209 3.07287C18.3136 3.06942 18.3065 3.0656 18.2991 3.06239C18.2851 3.0563 18.2707 3.05113 18.2563 3.04589C18.247 3.04248 18.2378 3.0387 18.2284 3.03568C18.2172 3.03211 18.2057 3.02939 18.1943 3.02632C18.1813 3.02282 18.1683 3.01907 18.1553 3.0163C18.1472 3.0146 18.1389 3.01355 18.1307 3.01211C18.114 3.00916 18.0973 3.00627 18.0806 3.00446C18.074 3.00375 18.0673 3.00359 18.0607 3.00307C18.0422 3.00158 18.0238 3.00039 18.0054 3.00027C18.0036 3.00027 18.0018 3 18 3H15C14.9015 3 14.804 3.01939 14.713 3.05708C14.622 3.09477 14.5393 3.15002 14.4697 3.21966C14.4 3.28931 14.3448 3.37199 14.3071 3.46298C14.2694 3.55398 14.25 3.65151 14.25 3.75C14.25 4.34674 14.013 4.91903 13.591 5.34099C13.169 5.76295 12.5967 6 12 6C11.4033 6 10.831 5.76295 10.409 5.34099C9.98706 4.91903 9.75 4.34674 9.75 3.75C9.75001 3.65151 9.73061 3.55398 9.69292 3.46298C9.65523 3.37199 9.59998 3.28931 9.53034 3.21966C9.4607 3.15002 9.37801 3.09477 9.28702 3.05708C9.19602 3.01939 9.0985 3 9 3H6C5.99759 3 5.99527 3.00034 5.99285 3.00037C5.97709 3.0005 5.96135 3.0016 5.94558 3.00275C5.93637 3.00341 5.92708 3.00371 5.91797 3.00469C5.90378 3.00625 5.88966 3.00879 5.8755 3.01117C5.86485 3.01295 5.85409 3.01435 5.84359 3.01659C5.83261 3.01893 5.82175 3.02216 5.81083 3.02502C5.7974 3.02852 5.78389 3.03177 5.77076 3.03598C5.76275 3.03857 5.75488 3.04184 5.74693 3.04472C5.73125 3.05033 5.71562 3.05598 5.70045 3.0626C5.69366 3.06557 5.68701 3.06915 5.68026 3.07233C5.66441 3.07983 5.64867 3.08748 5.63345 3.09602C5.63162 3.09705 5.62972 3.09778 5.62789 3.09883L0.993854 5.74681C0.661094 5.93718 0.413804 6.24767 0.30272 6.61459C0.191635 6.98151 0.22518 7.37703 0.396473 7.72L2.12188 11.1708C2.24569 11.4205 2.43701 11.6306 2.67415 11.7772C2.91129 11.9238 3.18476 12.0009 3.46354 12H5.25V19.5C5.25046 19.8977 5.40864 20.2789 5.68985 20.5602C5.97105 20.8414 6.35232 20.9995 6.75 21H17.25C17.6477 20.9995 18.029 20.8414 18.3102 20.5602C18.5914 20.2789 18.7495 19.8977 18.75 19.5V12H20.5365C20.8152 12.0009 21.0887 11.9238 21.3258 11.7772C21.563 11.6306 21.7543 11.4206 21.8781 11.1708L23.6036 7.71995C23.7749 7.37698 23.8084 6.98146 23.6973 6.61455C23.5862 6.24764 23.3389 5.93716 23.0061 5.74681ZM3.46354 10.5L1.73813 7.04915L5.25 5.04238V10.5H3.46354ZM20.5365 10.5H18.75V5.04238L22.2619 7.04919L20.5365 10.5Z" fill="#8D8D8D"/>
</g>
<defs>
<clipPath id="clip0_18_244">
<rect width="24" height="24" fill="white"/>
</clipPath>
</defs>
</svg>
