<svg width="12" height="12" viewBox="0 0 12 12" fill="none" xmlns="http://www.w3.org/2000/svg">
<path d="M6 4.5C5.70333 4.5 5.41332 4.58797 5.16665 4.7528C4.91997 4.91762 4.72771 5.15189 4.61418 5.42597C4.50065 5.70006 4.47094 6.00166 4.52882 6.29264C4.5867 6.58361 4.72956 6.85088 4.93934 7.06066C5.14912 7.27044 5.41639 7.4133 5.70737 7.47118C5.99834 7.52906 6.29994 7.49935 6.57403 7.38582C6.84811 7.27229 7.08238 7.08003 7.2472 6.83336C7.41203 6.58668 7.5 6.29667 7.5 6C7.5 5.60218 7.34197 5.22064 7.06066 4.93934C6.77936 4.65804 6.39783 4.5 6 4.5ZM6 6.75C5.85166 6.75 5.70666 6.70601 5.58332 6.6236C5.45999 6.54119 5.36386 6.42406 5.30709 6.28701C5.25033 6.14997 5.23547 5.99917 5.26441 5.85368C5.29335 5.7082 5.36478 5.57456 5.46967 5.46967C5.57456 5.36478 5.7082 5.29335 5.85368 5.26441C5.99917 5.23547 6.14997 5.25032 6.28701 5.30709C6.42406 5.36386 6.54119 5.45999 6.6236 5.58332C6.70601 5.70666 6.75 5.85166 6.75 6C6.75 6.19891 6.67098 6.38968 6.53033 6.53033C6.38968 6.67098 6.19891 6.75 6 6.75ZM2.25 4.5C1.95333 4.5 1.66332 4.58797 1.41665 4.7528C1.16997 4.91762 0.977713 5.15189 0.864181 5.42597C0.75065 5.70006 0.720945 6.00166 0.778823 6.29264C0.836701 6.58361 0.979562 6.85088 1.18934 7.06066C1.39912 7.27044 1.66639 7.4133 1.95737 7.47118C2.24834 7.52906 2.54994 7.49935 2.82403 7.38582C3.09811 7.27229 3.33238 7.08003 3.49721 6.83336C3.66203 6.58668 3.75 6.29667 3.75 6C3.75 5.60218 3.59197 5.22064 3.31066 4.93934C3.02936 4.65804 2.64783 4.5 2.25 4.5ZM2.25 6.75C2.10166 6.75 1.95666 6.70601 1.83332 6.6236C1.70999 6.54119 1.61386 6.42406 1.55709 6.28701C1.50033 6.14997 1.48547 5.99917 1.51441 5.85368C1.54335 5.7082 1.61478 5.57456 1.71967 5.46967C1.82456 5.36478 1.9582 5.29335 2.10368 5.26441C2.24917 5.23547 2.39997 5.25032 2.53701 5.30709C2.67406 5.36386 2.79119 5.45999 2.8736 5.58332C2.95601 5.70666 3 5.85166 3 6C3 6.19891 2.92098 6.38968 2.78033 6.53033C2.63968 6.67098 2.44891 6.75 2.25 6.75ZM9.75 4.5C9.45333 4.5 9.16332 4.58797 8.91665 4.7528C8.66997 4.91762 8.47771 5.15189 8.36418 5.42597C8.25065 5.70006 8.22094 6.00166 8.27882 6.29264C8.3367 6.58361 8.47956 6.85088 8.68934 7.06066C8.89912 7.27044 9.16639 7.4133 9.45737 7.47118C9.74834 7.52906 10.0499 7.49935 10.324 7.38582C10.5981 7.27229 10.8324 7.08003 10.9972 6.83336C11.162 6.58668 11.25 6.29667 11.25 6C11.25 5.60218 11.092 5.22064 10.8107 4.93934C10.5294 4.65804 10.1478 4.5 9.75 4.5ZM9.75 6.75C9.60166 6.75 9.45666 6.70601 9.33332 6.6236C9.20999 6.54119 9.11386 6.42406 9.05709 6.28701C9.00033 6.14997 8.98547 5.99917 9.01441 5.85368C9.04335 5.7082 9.11478 5.57456 9.21967 5.46967C9.32456 5.36478 9.4582 5.29335 9.60368 5.26441C9.74917 5.23547 9.89997 5.25032 10.037 5.30709C10.1741 5.36386 10.2912 5.45999 10.3736 5.58332C10.456 5.70666 10.5 5.85166 10.5 6C10.5 6.19891 10.421 6.38968 10.2803 6.53033C10.1397 6.67098 9.94891 6.75 9.75 6.75Z" fill="#6E6E6E"/>
</svg>
