<svg width="28" height="28" viewBox="0 0 28 28" fill="none" xmlns="http://www.w3.org/2000/svg">
<path d="M14 11.375C13.4808 11.375 12.9733 11.529 12.5416 11.8174C12.11 12.1058 11.7735 12.5158 11.5748 12.9955C11.3761 13.4751 11.3242 14.0029 11.4254 14.5121C11.5267 15.0213 11.7767 15.489 12.1438 15.8562C12.511 16.2233 12.9787 16.4733 13.4879 16.5746C13.9971 16.6758 14.5249 16.6239 15.0045 16.4252C15.4842 16.2265 15.8942 15.8901 16.1826 15.4584C16.471 15.0267 16.625 14.5192 16.625 14C16.625 13.3038 16.3484 12.6361 15.8562 12.1438C15.3639 11.6516 14.6962 11.375 14 11.375ZM14 15.3125C13.7404 15.3125 13.4867 15.2355 13.2708 15.0913C13.055 14.9471 12.8867 14.7421 12.7874 14.5023C12.6881 14.2624 12.6621 13.9985 12.7127 13.7439C12.7634 13.4893 12.8884 13.2555 13.0719 13.0719C13.2555 12.8884 13.4893 12.7634 13.7439 12.7127C13.9985 12.6621 14.2624 12.6881 14.5023 12.7874C14.7421 12.8867 14.9471 13.055 15.0913 13.2708C15.2355 13.4867 15.3125 13.7404 15.3125 14C15.3125 14.3481 15.1742 14.6819 14.9281 14.9281C14.6819 15.1742 14.3481 15.3125 14 15.3125ZM22.75 11.375C22.2308 11.375 21.7233 11.529 21.2916 11.8174C20.86 12.1058 20.5235 12.5158 20.3248 12.9955C20.1261 13.4751 20.0742 14.0029 20.1754 14.5121C20.2767 15.0213 20.5267 15.489 20.8938 15.8562C21.261 16.2233 21.7287 16.4733 22.2379 16.5746C22.7471 16.6758 23.2749 16.6239 23.7545 16.4252C24.2342 16.2265 24.6442 15.8901 24.9326 15.4584C25.221 15.0267 25.375 14.5192 25.375 14C25.375 13.3038 25.0984 12.6361 24.6062 12.1438C24.1139 11.6516 23.4462 11.375 22.75 11.375ZM22.75 15.3125C22.4904 15.3125 22.2367 15.2355 22.0208 15.0913C21.805 14.9471 21.6368 14.7421 21.5374 14.5023C21.4381 14.2624 21.4121 13.9985 21.4627 13.7439C21.5134 13.4893 21.6384 13.2555 21.8219 13.0719C22.0055 12.8884 22.2393 12.7634 22.4939 12.7127C22.7485 12.6621 23.0124 12.6881 23.2523 12.7874C23.4921 12.8867 23.6971 13.055 23.8413 13.2708C23.9855 13.4867 24.0625 13.7404 24.0625 14C24.0625 14.3481 23.9242 14.6819 23.6781 14.9281C23.4319 15.1742 23.0981 15.3125 22.75 15.3125ZM5.25 11.375C4.73083 11.375 4.22331 11.529 3.79163 11.8174C3.35995 12.1058 3.0235 12.5158 2.82482 12.9955C2.62614 13.4751 2.57415 14.0029 2.67544 14.5121C2.77673 15.0213 3.02673 15.489 3.39385 15.8562C3.76096 16.2233 4.22869 16.4733 4.73789 16.5746C5.24709 16.6758 5.77489 16.6239 6.25455 16.4252C6.7342 16.2265 7.14417 15.8901 7.43261 15.4584C7.72105 15.0267 7.875 14.5192 7.875 14C7.875 13.3038 7.59844 12.6361 7.10616 12.1438C6.61387 11.6516 5.94619 11.375 5.25 11.375ZM5.25 15.3125C4.99041 15.3125 4.73665 15.2355 4.52082 15.0913C4.30498 14.9471 4.13675 14.7421 4.03741 14.5023C3.93807 14.2624 3.91208 13.9985 3.96272 13.7439C4.01336 13.4893 4.13837 13.2555 4.32192 13.0719C4.50548 12.8884 4.73935 12.7634 4.99395 12.7127C5.24855 12.6621 5.51245 12.6881 5.75227 12.7874C5.9921 12.8867 6.19709 13.055 6.34131 13.2708C6.48552 13.4867 6.5625 13.7404 6.5625 14C6.5625 14.3481 6.42422 14.6819 6.17808 14.9281C5.93194 15.1742 5.5981 15.3125 5.25 15.3125Z" fill="#686868"/>
</svg>
