<svg width="20" height="20" viewBox="0 0 20 20" fill="none" xmlns="http://www.w3.org/2000/svg">
<path d="M15.4167 12.1167V3.75008C15.4167 3.41856 15.285 3.10062 15.0506 2.8662C14.8161 2.63178 14.4982 2.50008 14.1667 2.50008H11.25C11.25 2.27907 11.1622 2.06711 11.0059 1.91083C10.8497 1.75455 10.6377 1.66675 10.4167 1.66675H7.91669C7.69567 1.66675 7.48371 1.75455 7.32743 1.91083C7.17115 2.06711 7.08335 2.27907 7.08335 2.50008H4.16669C3.83517 2.50008 3.51722 2.63178 3.2828 2.8662C3.04838 3.10062 2.91669 3.41856 2.91669 3.75008V16.2501C2.91669 16.5816 3.04838 16.8995 3.2828 17.134C3.51722 17.3684 3.83517 17.5001 4.16669 17.5001H11.5542C11.9025 17.8139 12.3132 18.0508 12.7593 18.1951C13.2054 18.3395 13.677 18.3881 14.1432 18.3377C14.6094 18.2874 15.0597 18.1393 15.4647 17.9031C15.8698 17.6668 16.2204 17.3478 16.4938 16.9669C16.7671 16.5859 16.957 16.1515 17.051 15.6922C17.1451 15.2328 17.1411 14.7588 17.0395 14.301C16.9378 13.8433 16.7408 13.4121 16.4611 13.0358C16.1815 12.6594 15.8256 12.3462 15.4167 12.1167ZM7.91669 2.50008H10.4167V2.91675V3.33341H7.91669V2.50008ZM3.75002 16.2501V3.75008C3.75002 3.63957 3.79392 3.53359 3.87206 3.45545C3.9502 3.37731 4.05618 3.33341 4.16669 3.33341H7.08335C7.08335 3.55443 7.17115 3.76639 7.32743 3.92267C7.48371 4.07895 7.69567 4.16675 7.91669 4.16675H10.4167C10.6377 4.16675 10.8497 4.07895 11.0059 3.92267C11.1622 3.76639 11.25 3.55443 11.25 3.33341H14.1667C14.2772 3.33341 14.3832 3.37731 14.4613 3.45545C14.5395 3.53359 14.5834 3.63957 14.5834 3.75008V11.7751C14.3111 11.705 14.0312 11.6686 13.75 11.6667C13.1652 11.6673 12.5908 11.8218 12.0846 12.1146C11.5783 12.4074 11.158 12.8283 10.8658 13.3349C10.5737 13.8415 10.42 14.4161 10.4201 15.0009C10.4203 15.5858 10.5743 16.1603 10.8667 16.6667H4.16669C4.05618 16.6667 3.9502 16.6228 3.87206 16.5447C3.79392 16.4666 3.75002 16.3606 3.75002 16.2501ZM13.75 17.5001C13.0983 17.5012 12.4725 17.2451 12.0084 16.7876C11.5938 16.3822 11.333 15.8453 11.2707 15.2688C11.2083 14.6923 11.3483 14.1121 11.6667 13.6274C11.9851 13.1428 12.4621 12.7839 13.0159 12.6122C13.5698 12.4405 14.1661 12.4667 14.7028 12.6862C15.2394 12.9058 15.6831 13.3051 15.9578 13.8157C16.2325 14.3264 16.3212 14.9166 16.2086 15.4855C16.096 16.0543 15.7892 16.5663 15.3407 16.9338C14.8922 17.3013 14.3299 17.5015 13.75 17.5001Z" fill="#8D8D8D"/>
<path d="M3.75002 16.2501V3.75008C3.75002 3.63957 3.79392 3.53359 3.87206 3.45545C3.9502 3.37731 4.05618 3.33341 4.16669 3.33341H7.08335C7.08335 3.55443 7.17115 3.76639 7.32743 3.92267C7.48371 4.07895 7.69567 4.16675 7.91669 4.16675H10.4167C10.6377 4.16675 10.8497 4.07895 11.0059 3.92267C11.1622 3.76639 11.25 3.55443 11.25 3.33341H14.1667C14.2772 3.33341 14.3832 3.37731 14.4613 3.45545C14.5395 3.53359 14.5834 3.63957 14.5834 3.75008V11.7751C14.3111 11.705 14.0312 11.6686 13.75 11.6667C13.1652 11.6673 12.5908 11.8218 12.0846 12.1146C11.5783 12.4074 11.158 12.8283 10.8658 13.3349C10.5737 13.8415 10.42 14.4161 10.4201 15.0009C10.4203 15.5858 10.5743 16.1603 10.8667 16.6667H4.16669C4.05618 16.6667 3.9502 16.6228 3.87206 16.5447C3.79392 16.4666 3.75002 16.3606 3.75002 16.2501Z" fill="#8D8D8D"/>
<path d="M15 14.5834H14.1666V13.3334C14.1666 13.2229 14.1227 13.1169 14.0446 13.0388C13.9665 12.9606 13.8605 12.9167 13.75 12.9167C13.6395 12.9167 13.5335 12.9606 13.4554 13.0388C13.3772 13.1169 13.3333 13.2229 13.3333 13.3334V15.0001C13.3333 15.1106 13.3772 15.2166 13.4554 15.2947C13.5335 15.3728 13.6395 15.4167 13.75 15.4167H15C15.1105 15.4167 15.2165 15.3728 15.2946 15.2947C15.3727 15.2166 15.4166 15.1106 15.4166 15.0001C15.4166 14.8896 15.3727 14.7836 15.2946 14.7055C15.2165 14.6273 15.1105 14.5834 15 14.5834Z" fill="#8D8D8D"/>
<path d="M5.41667 10.8334H12.9167C13.0272 10.8334 13.1332 10.7895 13.2113 10.7114C13.2894 10.6332 13.3333 10.5273 13.3333 10.4167C13.3333 10.3062 13.2894 10.2003 13.2113 10.1221C13.1332 10.044 13.0272 10.0001 12.9167 10.0001H5.41667C5.30616 10.0001 5.20018 10.044 5.12204 10.1221C5.0439 10.2003 5 10.3062 5 10.4167C5 10.5273 5.0439 10.6332 5.12204 10.7114C5.20018 10.7895 5.30616 10.8334 5.41667 10.8334ZM5.41667 7.50008H12.9167C13.0272 7.50008 13.1332 7.45618 13.2113 7.37804C13.2894 7.2999 13.3333 7.19392 13.3333 7.08341C13.3333 6.97291 13.2894 6.86693 13.2113 6.78879C13.1332 6.71065 13.0272 6.66675 12.9167 6.66675H5.41667C5.30616 6.66675 5.20018 6.71065 5.12204 6.78879C5.0439 6.86693 5 6.97291 5 7.08341C5 7.19392 5.0439 7.2999 5.12204 7.37804C5.20018 7.45618 5.30616 7.50008 5.41667 7.50008ZM8.75 13.3334H5.41667C5.30616 13.3334 5.20018 13.3773 5.12204 13.4555C5.0439 13.5336 5 13.6396 5 13.7501C5 13.8606 5.0439 13.9666 5.12204 14.0447C5.20018 14.1228 5.30616 14.1667 5.41667 14.1667H8.75C8.86051 14.1667 8.96649 14.1228 9.04463 14.0447C9.12277 13.9666 9.16667 13.8606 9.16667 13.7501C9.16667 13.6396 9.12277 13.5336 9.04463 13.4555C8.96649 13.3773 8.86051 13.3334 8.75 13.3334Z" fill="#8D8D8D"/>
</svg>
