<svg width="20" height="20" viewBox="0 0 20 20" fill="none" xmlns="http://www.w3.org/2000/svg">
<path d="M11.6667 15.8334H8.33333C8.11232 15.8334 7.90036 15.7456 7.74408 15.5893C7.5878 15.4331 7.5 15.2211 7.5 15.0001C7.5 14.7791 7.5878 14.5671 7.74408 14.4108C7.90036 14.2545 8.11232 14.1667 8.33333 14.1667H11.6667C11.8877 14.1667 12.0996 14.2545 12.2559 14.4108C12.4122 14.5671 12.5 14.7791 12.5 15.0001C12.5 15.2211 12.4122 15.4331 12.2559 15.5893C12.0996 15.7456 11.8877 15.8334 11.6667 15.8334Z" fill="black"/>
<path d="M7.49935 9.16667C7.49935 9.27717 7.45545 9.38315 7.37731 9.46129C7.29917 9.53944 7.19319 9.58333 7.08268 9.58333C6.97218 9.58333 6.86619 9.53944 6.78805 9.46129C6.70991 9.38315 6.66602 9.27717 6.66602 9.16667C6.66602 9.05616 6.70991 8.95018 6.78805 8.87204C6.86619 8.7939 6.97218 8.75 7.08268 8.75C7.19319 8.75 7.29917 8.7939 7.37731 8.87204C7.45545 8.95018 7.49935 9.05616 7.49935 9.16667ZM7.49935 10.8333C7.49935 10.9438 7.45545 11.0498 7.37731 11.128C7.29917 11.2061 7.19319 11.25 7.08268 11.25C6.97218 11.25 6.86619 11.2061 6.78805 11.128C6.70991 11.0498 6.66602 10.9438 6.66602 10.8333C6.66602 10.7228 6.70991 10.6168 6.78805 10.5387C6.86619 10.4606 6.97218 10.4167 7.08268 10.4167C7.19319 10.4167 7.29917 10.4606 7.37731 10.5387C7.45545 10.6168 7.49935 10.7228 7.49935 10.8333ZM7.49935 12.5C7.49935 12.6105 7.45545 12.7165 7.37731 12.7946C7.29917 12.8728 7.19319 12.9167 7.08268 12.9167C6.97218 12.9167 6.86619 12.8728 6.78805 12.7946C6.70991 12.7165 6.66602 12.6105 6.66602 12.5C6.66602 12.3895 6.70991 12.2835 6.78805 12.2054C6.86619 12.1272 6.97218 12.0833 7.08268 12.0833C7.19319 12.0833 7.29917 12.1272 7.37731 12.2054C7.45545 12.2835 7.49935 12.3895 7.49935 12.5ZM2.49935 10.4167C2.49935 10.5272 2.45545 10.6332 2.37731 10.7113C2.29917 10.7894 2.19319 10.8333 2.08268 10.8333C1.97218 10.8333 1.86619 10.7894 1.78805 10.7113C1.70991 10.6332 1.66602 10.5272 1.66602 10.4167C1.66602 10.3062 1.70991 10.2002 1.78805 10.122C1.86619 10.0439 1.97218 10 2.08268 10C2.19319 10 2.29917 10.0439 2.37731 10.122C2.45545 10.2002 2.49935 10.3062 2.49935 10.4167ZM2.49935 12.0833C2.49935 12.1938 2.45545 12.2998 2.37731 12.378C2.29917 12.4561 2.19319 12.5 2.08268 12.5C1.97218 12.5 1.86619 12.4561 1.78805 12.378C1.70991 12.2998 1.66602 12.1938 1.66602 12.0833C1.66602 11.9728 1.70991 11.8668 1.78805 11.7887C1.86619 11.7106 1.97218 11.6667 2.08268 11.6667C2.19319 11.6667 2.29917 11.7106 2.37731 11.7887C2.45545 11.8668 2.49935 11.9728 2.49935 12.0833ZM2.49935 13.75C2.49935 13.8605 2.45545 13.9665 2.37731 14.0446C2.29917 14.1228 2.19319 14.1667 2.08268 14.1667C1.97218 14.1667 1.86619 14.1228 1.78805 14.0446C1.70991 13.9665 1.66602 13.8605 1.66602 13.75C1.66602 13.6395 1.70991 13.5335 1.78805 13.4554C1.86619 13.3772 1.97218 13.3333 2.08268 13.3333C2.19319 13.3333 2.29917 13.3772 2.37731 13.4554C2.45545 13.5335 2.49935 13.6395 2.49935 13.75ZM12.916 9.58333H8.74935C8.63884 9.58333 8.53286 9.53944 8.45472 9.46129C8.37658 9.38315 8.33268 9.27717 8.33268 9.16667C8.33268 9.05616 8.37658 8.95018 8.45472 8.87204C8.53286 8.7939 8.63884 8.75 8.74935 8.75H12.916C13.0265 8.75 13.1325 8.7939 13.2106 8.87204C13.2888 8.95018 13.3327 9.05616 13.3327 9.16667C13.3327 9.27717 13.2888 9.38315 13.2106 9.46129C13.1325 9.53944 13.0265 9.58333 12.916 9.58333ZM12.916 11.25H8.74935C8.63884 11.25 8.53286 11.2061 8.45472 11.128C8.37658 11.0498 8.33268 10.9438 8.33268 10.8333C8.33268 10.7228 8.37658 10.6168 8.45472 10.5387C8.53286 10.4606 8.63884 10.4167 8.74935 10.4167H12.916C13.0265 10.4167 13.1325 10.4606 13.2106 10.5387C13.2888 10.6168 13.3327 10.7228 13.3327 10.8333C13.3327 10.9438 13.2888 11.0498 13.2106 11.128C13.1325 11.2061 13.0265 11.25 12.916 11.25ZM12.916 12.9167H8.74935C8.63884 12.9167 8.53286 12.8728 8.45472 12.7946C8.37658 12.7165 8.33268 12.6105 8.33268 12.5C8.33268 12.3895 8.37658 12.2835 8.45472 12.2054C8.53286 12.1272 8.63884 12.0833 8.74935 12.0833H12.916C13.0265 12.0833 13.1325 12.1272 13.2106 12.2054C13.2888 12.2835 13.3327 12.3895 13.3327 12.5C13.3327 12.6105 13.2888 12.7165 13.2106 12.7946C13.1325 12.8728 13.0265 12.9167 12.916 12.9167Z" fill="black"/>
<path d="M12.916 4.1665H7.08268C6.85256 4.1665 6.66602 4.35305 6.66602 4.58317V7.08317C6.66602 7.31329 6.85256 7.49984 7.08268 7.49984H12.916C13.1461 7.49984 13.3327 7.31329 13.3327 7.08317V4.58317C13.3327 4.35305 13.1461 4.1665 12.916 4.1665Z" fill="black"/>
<path d="M17.9173 5.4165H15.0007C14.7705 5.4165 14.584 5.60305 14.584 5.83317V8.33317C14.584 8.56329 14.7705 8.74984 15.0007 8.74984H17.9173C18.1474 8.74984 18.334 8.56329 18.334 8.33317V5.83317C18.334 5.60305 18.1474 5.4165 17.9173 5.4165Z" fill="black"/>
<path d="M4.99935 5.4165H2.08268C1.85256 5.4165 1.66602 5.60305 1.66602 5.83317V8.33317C1.66602 8.56329 1.85256 8.74984 2.08268 8.74984H4.99935C5.22947 8.74984 5.41602 8.56329 5.41602 8.33317V5.83317C5.41602 5.60305 5.22947 5.4165 4.99935 5.4165Z" fill="black"/>
<path d="M18.75 3.33325H15.4167C15.4167 3.00173 15.285 2.68379 15.0505 2.44937C14.8161 2.21495 14.4982 2.08325 14.1667 2.08325H5.83333C5.50181 2.08325 5.18387 2.21495 4.94945 2.44937C4.71503 2.68379 4.58333 3.00173 4.58333 3.33325H1.25C0.918479 3.33325 0.600537 3.46495 0.366116 3.69937C0.131696 3.93379 0 4.25173 0 4.58325L0 15.4166C0 15.7481 0.131696 16.066 0.366116 16.3005C0.600537 16.5349 0.918479 16.6666 1.25 16.6666H4.58333C4.58333 16.9981 4.71503 17.316 4.94945 17.5505C5.18387 17.7849 5.50181 17.9166 5.83333 17.9166H14.1667C14.4982 17.9166 14.8161 17.7849 15.0505 17.5505C15.285 17.316 15.4167 16.9981 15.4167 16.6666H18.75C19.0815 16.6666 19.3995 16.5349 19.6339 16.3005C19.8683 16.066 20 15.7481 20 15.4166V4.58325C20 4.25173 19.8683 3.93379 19.6339 3.69937C19.3995 3.46495 19.0815 3.33325 18.75 3.33325ZM1.25 15.8333C1.13949 15.8333 1.03351 15.7894 0.955372 15.7112C0.877232 15.6331 0.833333 15.5271 0.833333 15.4166V4.58325C0.833333 4.47274 0.877232 4.36676 0.955372 4.28862C1.03351 4.21048 1.13949 4.16659 1.25 4.16659H4.58333V9.99992H3.75C3.63949 9.99992 3.53351 10.0438 3.45537 10.122C3.37723 10.2001 3.33333 10.3061 3.33333 10.4166C3.33333 10.5271 3.37723 10.6331 3.45537 10.7112C3.53351 10.7894 3.63949 10.8333 3.75 10.8333H4.58333V11.6666H3.75C3.63949 11.6666 3.53351 11.7105 3.45537 11.7886C3.37723 11.8668 3.33333 11.9727 3.33333 12.0833C3.33333 12.1938 3.37723 12.2997 3.45537 12.3779C3.53351 12.456 3.63949 12.4999 3.75 12.4999H4.58333V13.3333H3.75C3.63949 13.3333 3.53351 13.3771 3.45537 13.4553C3.37723 13.5334 3.33333 13.6394 3.33333 13.7499C3.33333 13.8604 3.37723 13.9664 3.45537 14.0445C3.53351 14.1227 3.63949 14.1666 3.75 14.1666H4.58333V15.8333H1.25ZM14.5833 16.6666C14.5833 16.7771 14.5394 16.8831 14.4613 16.9612C14.3832 17.0394 14.2772 17.0833 14.1667 17.0833H5.83333C5.72283 17.0833 5.61685 17.0394 5.53871 16.9612C5.46057 16.8831 5.41667 16.7771 5.41667 16.6666V3.33325C5.41667 3.22275 5.46057 3.11676 5.53871 3.03862C5.61685 2.96048 5.72283 2.91659 5.83333 2.91659H14.1667C14.2772 2.91659 14.3832 2.96048 14.4613 3.03862C14.5394 3.11676 14.5833 3.22275 14.5833 3.33325V16.6666ZM19.1667 15.4166C19.1667 15.5271 19.1228 15.6331 19.0446 15.7112C18.9665 15.7894 18.8605 15.8333 18.75 15.8333H15.4167V14.1666H17.9167C18.0272 14.1666 18.1332 14.1227 18.2113 14.0445C18.2894 13.9664 18.3333 13.8604 18.3333 13.7499C18.3333 13.6394 18.2894 13.5334 18.2113 13.4553C18.1332 13.3771 18.0272 13.3333 17.9167 13.3333H15.4167V12.4999H17.9167C18.0272 12.4999 18.1332 12.456 18.2113 12.3779C18.2894 12.2997 18.3333 12.1938 18.3333 12.0833C18.3333 11.9727 18.2894 11.8668 18.2113 11.7886C18.1332 11.7105 18.0272 11.6666 17.9167 11.6666H15.4167V10.8333H17.9167C18.0272 10.8333 18.1332 10.7894 18.2113 10.7112C18.2894 10.6331 18.3333 10.5271 18.3333 10.4166C18.3333 10.3061 18.2894 10.2001 18.2113 10.122C18.1332 10.0438 18.0272 9.99992 17.9167 9.99992H15.4167V4.16659H18.75C18.8605 4.16659 18.9665 4.21048 19.0446 4.28862C19.1228 4.36676 19.1667 4.47274 19.1667 4.58325V15.4166Z" fill="black"/>
</svg>
