<svg width="20" height="20" viewBox="0 0 20 20" fill="none" xmlns="http://www.w3.org/2000/svg">
<g clip-path="url(#clip0_2_10807)">
<path d="M14.9998 19.3332C13.8331 19.3332 12.4998 18.9998 10.9998 18.2498C9.16645 17.3332 7.33311 15.9998 5.58311 14.2498C3.91645 12.5832 2.49978 10.6665 1.58311 8.83317C0.166446 5.9165 0.0831126 3.49984 1.49978 2.1665C1.83311 1.83317 2.33311 1.83317 2.66645 2.1665C2.99978 2.49984 2.99978 2.99984 2.66645 3.33317C1.83311 4.1665 1.99978 5.99984 3.08311 8.1665C3.91645 9.83317 5.16645 11.5832 6.74978 13.1665C8.33311 14.7498 10.0831 15.9998 11.7498 16.8332C13.9164 17.9165 15.7498 18.0832 16.5831 17.2498C16.9164 16.9165 17.4164 16.9165 17.7498 17.2498C18.0831 17.5832 18.0831 18.0832 17.7498 18.4165C17.0831 18.9998 16.1664 19.3332 14.9998 19.3332Z" fill="black"/>
<path d="M6.5 8.91663C6.16667 8.91663 5.91667 8.74996 5.75 8.41663C5.5 7.99996 5.66667 7.49996 6.08333 7.33329L8 6.41663C8.33333 6.24996 8.75 5.83329 8.66667 5.33329C8.66667 5.08329 8.5 4.91663 8.33333 4.74996L5.58333 1.91663C5.33333 1.66663 4.91667 1.58329 4.5 1.66663L4 1.91663L2.66667 3.33329C2.33333 3.66663 1.83333 3.66663 1.5 3.33329C1.16667 2.99996 1.16667 2.49996 1.5 2.16663L2.83333 0.833294C3.16667 0.499961 3.58333 0.249961 4 0.166628C5 -0.0833723 6 0.166628 6.75 0.833294L9.5 3.58329C9.91667 3.99996 10.1667 4.58329 10.25 5.16663C10.4167 6.24996 9.75 7.41663 8.66667 7.99996L6.75 8.91663C6.75 8.83329 6.58333 8.91663 6.5 8.91663ZM17.0833 18.5833C16.8333 18.5833 16.6667 18.5 16.5 18.3333C16.1667 18 16.1667 17.5 16.5 17.1666L17.8333 15.8333C18 15.6666 18.0833 15.5833 18.0833 15.3333C18.1667 14.9166 18.0833 14.5 17.8333 14.25L15.0833 11.5C14.9167 11.3333 14.6667 11.25 14.5 11.1666C14 11.0833 13.5833 11.4166 13.4167 11.8333L12.5 13.75C12.3333 14.1666 11.8333 14.3333 11.4167 14.0833C11 13.9166 10.8333 13.4166 11.0833 13L12 11.0833C12.5833 9.99996 13.6667 9.33329 14.8333 9.49996C15.4167 9.58329 15.9167 9.83329 16.3333 10.25L19.0833 13C19.8333 13.75 20.0833 14.75 19.75 15.75C19.5833 16.1666 19.4167 16.5833 19.0833 16.9166L17.6667 18.3333C17.5 18.5 17.3333 18.5833 17.0833 18.5833Z" fill="black"/>
<path d="M11.75 14.1667C11.5833 14.1667 11.4167 14.0833 11.25 14C10.25 13.25 9.25 12.4167 8.25 11.5C7.25 10.5 6.41667 9.50002 5.75 8.50002C5.5 8.16668 5.58333 7.66668 6 7.33335C6.41667 7.08335 6.91667 7.16668 7.16667 7.50002C7.83333 8.41668 8.58333 9.41668 9.5 10.25C10.4167 11.0833 11.3333 11.9167 12.25 12.5833C12.6667 12.8333 12.75 13.3333 12.4167 13.75C12.3333 14.0833 12.0833 14.1667 11.75 14.1667Z" fill="black"/>
</g>
<defs>
<clipPath id="clip0_2_10807">
<rect width="20" height="20" fill="white"/>
</clipPath>
</defs>
</svg>
