<svg width="24" height="24" viewBox="0 0 24 24" fill="none" xmlns="http://www.w3.org/2000/svg">
<path d="M12.0002 1.63086C10.5469 1.63089 9.14974 2.19265 8.10088 3.19872C7.05202 4.2048 6.4326 5.57733 6.37208 7.02944C6.31156 8.48155 6.81462 9.90086 7.77612 10.9907C8.73762 12.0806 10.0831 12.7567 11.5315 12.8776V21.9003C11.5315 22.0246 11.5809 22.1439 11.6688 22.2318C11.7567 22.3197 11.8759 22.3691 12.0002 22.3691C12.1245 22.3691 12.2438 22.3197 12.3317 22.2318C12.4196 22.1439 12.469 22.0246 12.469 21.9003V12.8809C13.7913 12.7832 15.0347 12.2145 15.9734 11.2781C16.764 10.4897 17.3032 9.48478 17.523 8.39012C17.7427 7.29547 17.633 6.16025 17.2079 5.12788C16.7827 4.09552 16.0611 3.21233 15.1342 2.58991C14.2073 1.96748 13.1167 1.63374 12.0002 1.63086ZM10.3422 5.40336C9.68217 6.26145 9.50315 7.44542 9.87487 8.49336C9.89545 8.55138 9.90441 8.61288 9.90122 8.67436C9.89804 8.73584 9.88278 8.79609 9.85631 8.85167C9.82984 8.90725 9.79268 8.95707 9.74696 8.99829C9.70124 9.03951 9.64784 9.07132 9.58982 9.09191C9.5318 9.11249 9.4703 9.12145 9.40882 9.11826C9.34734 9.11508 9.28709 9.09981 9.23151 9.07335C9.17593 9.04688 9.12611 9.00972 9.08489 8.964C9.04367 8.91827 9.01186 8.86488 8.99128 8.80686C8.51428 7.46239 8.7472 5.93923 9.59915 4.83186C9.67495 4.73332 9.7868 4.66894 9.91007 4.65286C10.0334 4.63679 10.158 4.67034 10.2565 4.74615C10.355 4.82195 10.4194 4.9338 10.4355 5.05707C10.4516 5.18035 10.418 5.30496 10.3422 5.4035V5.40336Z" fill="#2C2E43"/>
</svg>
