<svg width="20" height="20" viewBox="0 0 20 20" fill="none" xmlns="http://www.w3.org/2000/svg">
<path d="M9.99998 18.553C9.93746 18.5529 9.87531 18.5434 9.8156 18.5249C9.26248 18.353 5.92498 16.6499 4.2406 14.3342C2.60935 12.0936 2.64373 7.37798 2.81248 4.02486C2.81457 3.98083 2.82596 3.93774 2.84588 3.89843C2.86581 3.85911 2.89383 3.82445 2.9281 3.79673C2.96193 3.76944 3.00108 3.74951 3.04306 3.73821C3.08503 3.72691 3.12889 3.72449 3.17185 3.73111C3.20935 3.73111 7.06248 4.26861 9.7781 1.54361C9.80715 1.51432 9.84171 1.49107 9.8798 1.47521C9.91788 1.45934 9.95872 1.45117 9.99998 1.45117C10.0412 1.45117 10.0821 1.45934 10.1202 1.47521C10.1582 1.49107 10.1928 1.51432 10.2219 1.54361C12.9375 4.27486 16.7844 3.73111 16.8281 3.73111C16.8711 3.72449 16.9149 3.72691 16.9569 3.73821C16.9989 3.74951 17.038 3.76944 17.0719 3.79673C17.1061 3.82445 17.1341 3.85911 17.1541 3.89843C17.174 3.93774 17.1854 3.98083 17.1875 4.02486C17.3562 7.37798 17.3906 12.0936 15.7594 14.3374C14.0625 16.6467 10.7375 18.353 10.1844 18.5249C10.1246 18.5434 10.0625 18.5529 9.99998 18.553ZM3.43748 4.37486C3.28748 7.60611 3.29685 11.9467 4.75935 13.9561C6.34998 16.1436 9.56248 17.778 10.0156 17.9186C10.4687 17.778 13.6812 16.1374 15.2719 13.9561C16.7187 11.9561 16.7281 7.61548 16.5781 4.37486C15.55 4.45298 12.4531 4.46861 10.0156 2.18736C7.54685 4.47486 4.44685 4.46236 3.43748 4.37486Z" fill="#3E8D7A"/>
<path d="M3.43748 4.37486C3.28748 7.60611 3.29685 11.9467 4.75935 13.9561C6.34998 16.1436 9.56248 17.778 10.0156 17.9186C10.4687 17.778 13.6812 16.1374 15.2719 13.9561C16.7187 11.9561 16.7281 7.61548 16.5781 4.37486C15.55 4.45298 12.4531 4.46861 10.0156 2.18736C7.54685 4.47486 4.44685 4.46236 3.43748 4.37486Z" fill="#3E8D7A"/>
<path d="M9.22812 12.0591C9.18603 12.0589 9.1444 12.0503 9.10573 12.0336C9.06707 12.017 9.03217 11.9927 9.00312 11.9622L7.36562 10.2872C7.33689 10.2579 7.31423 10.2232 7.29892 10.1851C7.28361 10.147 7.27595 10.1062 7.27638 10.0652C7.27682 10.0241 7.28534 9.98352 7.30145 9.94576C7.31757 9.90799 7.34097 9.87376 7.37031 9.84503C7.39965 9.81631 7.43436 9.79364 7.47247 9.77833C7.51057 9.76302 7.55131 9.75536 7.59237 9.7558C7.63343 9.75623 7.67401 9.76475 7.71178 9.78087C7.74954 9.79698 7.78377 9.82038 7.8125 9.84972L9.21875 11.2903L12.1875 8.04347C12.2152 8.0131 12.2486 7.98849 12.2858 7.97103C12.323 7.95358 12.3633 7.94362 12.4044 7.94174C12.4454 7.93985 12.4865 7.94607 12.5251 7.96004C12.5638 7.97401 12.5993 7.99546 12.6297 8.02316C12.6601 8.05086 12.6847 8.08427 12.7021 8.12149C12.7196 8.1587 12.7295 8.19899 12.7314 8.24005C12.7333 8.28111 12.7271 8.32214 12.7131 8.36079C12.6991 8.39945 12.6777 8.43498 12.65 8.46535L9.45937 11.956C9.40071 12.0184 9.31996 12.0554 9.23437 12.0591H9.22812Z" fill="#FAFAFA"/>
</svg>
