<svg width="25" height="25" viewBox="0 0 25 25" fill="none" xmlns="http://www.w3.org/2000/svg">
<path d="M12.5 4C11.9067 4 11.3266 4.17595 10.8333 4.50559C10.3399 4.83524 9.95542 5.30377 9.72836 5.85195C9.5013 6.40013 9.44189 7.00333 9.55764 7.58527C9.6734 8.16722 9.95912 8.70177 10.3787 9.12132C10.7982 9.54088 11.3328 9.8266 11.9147 9.94236C12.4967 10.0581 13.0999 9.9987 13.6481 9.77164C14.1962 9.54458 14.6648 9.16006 14.9944 8.66671C15.3241 8.17337 15.5 7.59335 15.5 7C15.5 6.20435 15.1839 5.44129 14.6213 4.87868C14.0587 4.31607 13.2956 4 12.5 4Z" fill="#8D8D8D"/>
<path fill-rule="evenodd" clip-rule="evenodd" d="M10.2777 10.3259C10.9355 10.7654 11.7089 11 12.5 11C13.5609 11 14.5783 10.5786 15.3284 9.82843C16.0786 9.07828 16.5 8.06087 16.5 7C16.5 6.20888 16.2654 5.43552 15.8259 4.77772C15.3864 4.11992 14.7616 3.60723 14.0307 3.30448C13.2998 3.00173 12.4956 2.92252 11.7196 3.07686C10.9437 3.2312 10.231 3.61216 9.67157 4.17157C9.11216 4.73098 8.7312 5.44372 8.57686 6.21964C8.42252 6.99556 8.50173 7.79983 8.80448 8.53074C9.10723 9.26164 9.61992 9.88635 10.2777 10.3259ZM10.8333 4.50559C11.3266 4.17595 11.9067 4 12.5 4C13.2956 4 14.0587 4.31607 14.6213 4.87868C15.1839 5.44129 15.5 6.20435 15.5 7C15.5 7.59335 15.3241 8.17337 14.9944 8.66671C14.6648 9.16006 14.1962 9.54458 13.6481 9.77164C13.0999 9.9987 12.4967 10.0581 11.9147 9.94236C11.3328 9.8266 10.7982 9.54088 10.3787 9.12132C9.95912 8.70177 9.6734 8.16722 9.55764 7.58527C9.44189 7.00333 9.5013 6.40013 9.72836 5.85195C9.95542 5.30377 10.3399 4.83524 10.8333 4.50559Z" fill="#8D8D8D"/>
<path d="M22 22H21V21.5C21 19.2457 20.1045 17.0837 18.5104 15.4896C16.9163 13.8955 14.7543 13 12.5 13C10.2457 13 8.08365 13.8955 6.48959 15.4896C4.89553 17.0837 4 19.2457 4 21.5V22H3V21.5C3 18.9804 4.00089 16.5641 5.78249 14.7825C7.56408 13.0009 9.98044 12 12.5 12C15.0196 12 17.4359 13.0009 19.2175 14.7825C20.9991 16.5641 22 18.9804 22 21.5V22Z" fill="#8D8D8D"/>
</svg>
