<svg width="20" height="20" viewBox="0 0 20 20" fill="none" xmlns="http://www.w3.org/2000/svg">
<path d="M17.3125 16.4376L13.9625 13.0751C14.9257 11.9254 15.4564 10.4749 15.4625 8.97505C15.4625 7.69195 15.082 6.43765 14.3691 5.37079C13.6563 4.30393 12.6431 3.47241 11.4577 2.98138C10.2722 2.49036 8.96779 2.36189 7.70934 2.61221C6.45089 2.86253 5.29493 3.4804 4.38764 4.3877C3.48034 5.29499 2.86247 6.45095 2.61215 7.7094C2.36182 8.96786 2.4903 10.2723 2.98132 11.4577C3.47235 12.6431 4.30386 13.6564 5.37073 14.3692C6.43759 15.0821 7.69188 15.4626 8.97499 15.4626C10.4748 15.4564 11.9253 14.9258 13.075 13.9626L16.4375 17.3126C16.4936 17.3723 16.5614 17.42 16.6366 17.4526C16.7119 17.4851 16.793 17.5019 16.875 17.5019C16.957 17.5019 17.0381 17.4851 17.1134 17.4526C17.1886 17.42 17.2564 17.3723 17.3125 17.3126C17.3723 17.2564 17.4199 17.1887 17.4525 17.1134C17.4851 17.0382 17.5019 16.957 17.5019 16.8751C17.5019 16.7931 17.4851 16.7119 17.4525 16.6367C17.4199 16.5614 17.3723 16.4937 17.3125 16.4376ZM3.74999 8.97505C3.74999 7.93864 4.05749 6.92553 4.63354 6.06396C5.2096 5.20239 6.02833 4.53109 6.98608 4.13505C7.94384 3.739 8.99757 3.63602 10.0139 3.83912C11.0302 4.04223 11.9634 4.54229 12.6954 5.27602C13.4274 6.00975 13.9252 6.94415 14.1259 7.96095C14.3265 8.97775 14.221 10.0312 13.8227 10.988C13.4244 11.9448 12.7511 12.762 11.8882 13.336C11.0252 13.91 10.0114 14.215 8.97499 14.2126C7.58809 14.2092 6.25912 13.656 5.2796 12.6741C4.30008 11.6922 3.74999 10.362 3.74999 8.97505Z" fill="#6D6D6D"/>
</svg>
