<svg width="20" height="20" viewBox="0 0 20 20" fill="none" xmlns="http://www.w3.org/2000/svg">
<path d="M18.0885 9.41066L11.4218 2.74399C11.3053 2.62748 11.1568 2.54814 10.9952 2.516C10.8336 2.48386 10.6661 2.50037 10.5138 2.56342C10.3616 2.62648 10.2314 2.73327 10.1398 2.87027C10.0483 3.00728 9.99938 3.16836 9.99935 3.33316V6.28732C7.72292 6.49798 5.60704 7.55054 4.06576 9.23901C2.52448 10.9275 1.66874 13.1303 1.66602 15.4165V16.6665C1.66615 16.8395 1.72011 17.0081 1.82041 17.1491C1.92071 17.29 2.06239 17.3962 2.22579 17.453C2.38918 17.5098 2.5662 17.5143 2.73229 17.466C2.89838 17.4176 3.0453 17.3188 3.15268 17.1832C3.9691 16.2123 4.97081 15.4139 6.0993 14.8345C7.22779 14.2552 8.46043 13.9065 9.72518 13.809C9.76685 13.804 9.87102 13.7957 9.99935 13.7873V16.6665C9.99938 16.8313 10.0483 16.9924 10.1398 17.1294C10.2314 17.2664 10.3616 17.3732 10.5138 17.4362C10.6661 17.4993 10.8336 17.5158 10.9952 17.4836C11.1568 17.4515 11.3053 17.3722 11.4218 17.2557L18.0885 10.589C18.2447 10.4327 18.3325 10.2208 18.3325 9.99982C18.3325 9.77885 18.2447 9.56693 18.0885 9.41066ZM11.666 14.6548V12.9165C11.666 12.6955 11.5782 12.4835 11.4219 12.3272C11.2657 12.171 11.0537 12.0832 10.8327 12.0832C10.6202 12.0832 9.75268 12.1248 9.53102 12.154C7.28507 12.3609 5.1472 13.2142 3.37602 14.6107C3.57705 12.7727 4.44897 11.0734 5.82481 9.83829C7.20066 8.60313 8.98375 7.91886 10.8327 7.91649C11.0537 7.91649 11.2657 7.82869 11.4219 7.67241C11.5782 7.51613 11.666 7.30417 11.666 7.08316V5.34482L16.321 9.99982L11.666 14.6548Z" fill="#3E8D7A"/>
<path d="M11.666 14.6548V12.9165C11.666 12.6955 11.5782 12.4835 11.4219 12.3272C11.2657 12.171 11.0537 12.0832 10.8327 12.0832C10.6202 12.0832 9.75268 12.1248 9.53102 12.154C7.28507 12.3609 5.1472 13.2142 3.37602 14.6107C3.57705 12.7727 4.44897 11.0734 5.82481 9.83829C7.20066 8.60313 8.98375 7.91886 10.8327 7.91649C11.0537 7.91649 11.2657 7.82869 11.4219 7.67241C11.5782 7.51613 11.666 7.30417 11.666 7.08316V5.34482L16.321 9.99982L11.666 14.6548Z" fill="#3E8D7A"/>
</svg>
