<svg width="20" height="20" viewBox="0 0 20 20" fill="none" xmlns="http://www.w3.org/2000/svg">
<g clip-path="url(#clip0_361_1836)">
<path d="M9.98795 -0.0125365C10.0257 -0.0124653 10.0635 -0.0123941 10.1025 -0.0123208C10.6623 -0.0105462 11.2071 0.00933218 11.758 0.116858C11.8105 0.12629 11.8105 0.12629 11.8642 0.135912C14.2005 0.55867 16.4471 1.88905 17.8908 3.78873C17.9071 3.80984 17.9233 3.83094 17.9401 3.85269C18.2402 4.24312 18.5036 4.65171 18.7502 5.0778C18.7656 5.10425 18.781 5.1307 18.7968 5.15796C19.3118 6.05322 19.6479 7.05224 19.8561 8.06119C19.8619 8.08895 19.8676 8.11672 19.8736 8.14532C19.9902 8.75635 20.0148 9.36712 20.0124 9.98746C20.0123 10.0441 20.0123 10.0441 20.0121 10.102C20.0104 10.6619 19.9905 11.2066 19.883 11.7575C19.8767 11.7925 19.8704 11.8276 19.8639 11.8637C19.4412 14.2 18.1108 16.4466 16.2111 17.8903C16.19 17.9066 16.1689 17.9228 16.1471 17.9396C15.7567 18.2397 15.3481 18.5031 14.922 18.7497C14.8956 18.7651 14.8691 18.7805 14.8419 18.7963C13.9466 19.3113 12.9476 19.6474 11.9386 19.8556C11.9109 19.8614 11.8831 19.8671 11.8545 19.8731C11.2435 19.9897 10.6327 20.0143 10.0124 20.0119C9.97458 20.0118 9.93679 20.0117 9.89785 20.0117C9.33797 20.0099 8.79322 19.99 8.24235 19.8825C8.20731 19.8762 8.17227 19.8699 8.13616 19.8634C5.79983 19.4407 3.55319 18.1103 2.10953 16.2106C2.09326 16.1895 2.07698 16.1684 2.06021 16.1467C1.76008 15.7562 1.4967 15.3476 1.25016 14.9215C1.23476 14.8951 1.21935 14.8686 1.20349 14.8414C0.688553 13.9461 0.352401 12.9471 0.144202 11.9381C0.138443 11.9104 0.132683 11.8826 0.12675 11.854C0.0101339 11.243 -0.0144822 10.6322 -0.0120483 10.0119C-0.0119771 9.97409 -0.0119058 9.9363 -0.0118325 9.89737C-0.010058 9.33749 0.00982046 8.79273 0.117346 8.24186C0.126778 8.1893 0.126778 8.1893 0.136401 8.13568C0.559158 5.79934 1.88954 3.5527 3.78922 2.10905C3.81033 2.09277 3.83143 2.07649 3.85317 2.05972C4.2436 1.75959 4.65219 1.49622 5.07828 1.24967C5.10474 1.23427 5.13119 1.21887 5.15845 1.203C6.05371 0.688065 7.05273 0.351912 8.06168 0.143713C8.08944 0.137954 8.1172 0.132195 8.14581 0.126261C8.75684 0.00964557 9.36761 -0.0149705 9.98795 -0.0125365ZM3.89512 3.29954C3.80709 3.38147 3.7176 3.45985 3.62565 3.53727C2.05405 4.90878 1.12153 7.15789 0.946528 9.19866C0.79295 11.57 1.44047 13.9888 3.0238 15.8048C3.11457 15.906 3.20698 16.0056 3.30002 16.1047C3.38196 16.1927 3.46034 16.2822 3.53776 16.3742C4.90927 17.9458 7.15838 18.8783 9.19915 19.0533C11.5705 19.2069 13.9893 18.5594 15.8053 16.976C15.9065 16.8853 16.0061 16.7928 16.1052 16.6998C16.1932 16.6179 16.2827 16.5395 16.3747 16.4621C17.9463 15.0906 18.8788 12.8415 19.0538 10.8007C19.2074 8.42931 18.5598 6.01057 16.9765 4.19452C16.8857 4.09332 16.7933 3.99374 16.7003 3.89463C16.6184 3.8066 16.54 3.71712 16.4626 3.62516C15.091 2.05356 12.8419 1.12104 10.8012 0.94604C8.26624 0.78187 5.76534 1.5438 3.89512 3.29954Z" fill="#1E1E1E"/>
<path d="M9.80088 8.31452C10.3057 8.29958 10.7639 8.44459 11.1395 8.78693C11.3635 9.0401 11.4507 9.33262 11.4526 9.66355C11.4532 9.70655 11.4537 9.74955 11.4543 9.79386C11.4365 10.2815 11.3123 10.7328 11.1743 11.1972C11.1205 11.3788 11.068 11.5607 11.0155 11.7426C11.0052 11.778 10.9949 11.8135 10.9843 11.8501C10.6479 12.852 10.6479 12.852 10.6885 13.8791C10.7775 13.9896 10.8793 13.9967 11.0156 14.0239C11.129 14.0348 11.2411 14.0369 11.355 14.0361C11.3856 14.0361 11.4162 14.036 11.4477 14.036C11.7055 14.0317 11.9422 13.9875 12.1875 13.9067C12.1764 13.9743 12.1649 14.0418 12.1533 14.1094C12.147 14.147 12.1406 14.1846 12.1341 14.2233C12.1259 14.2606 12.1178 14.298 12.1094 14.3364C12.1023 14.3704 12.0952 14.4045 12.0879 14.4396C11.9981 14.5857 11.8639 14.616 11.7065 14.6709C11.6748 14.6825 11.6431 14.6941 11.6104 14.7061C11.5166 14.74 11.4225 14.7728 11.3281 14.8052C11.2814 14.8215 11.2347 14.8378 11.1865 14.8546C10.4904 15.0832 9.77307 15.1423 9.09424 14.8369C8.73491 14.6461 8.52512 14.3649 8.39844 13.9848C8.39143 13.8801 8.38759 13.7772 8.38623 13.6723C8.3851 13.6456 8.38397 13.6188 8.3828 13.5912C8.37502 12.9066 8.64323 12.2064 8.83301 11.5581C8.87026 11.4302 8.90743 11.3023 8.94448 11.1743C8.9673 11.0955 8.99025 11.0168 9.01334 10.9381C9.23885 10.2118 9.23885 10.2118 9.14505 9.48014C9.10146 9.40344 9.10146 9.40344 8.9917 9.35349C8.9164 9.34043 8.9164 9.34043 8.82813 9.3364C8.788 9.33333 8.74786 9.33026 8.70652 9.32709C8.40525 9.31536 8.15693 9.35872 7.87293 9.45847C7.77344 9.49265 7.77344 9.49265 7.69532 9.49265C7.69504 9.25584 7.70758 9.02526 7.85157 8.82859C8.13875 8.63632 8.49669 8.56011 8.82813 8.47703C8.87083 8.46589 8.91353 8.45476 8.95752 8.44329C9.24139 8.37026 9.50863 8.33065 9.80088 8.31452Z" fill="#1E1E1E"/>
<path d="M11.7187 5.15604C12.0181 5.37649 12.2211 5.60954 12.3047 5.97636C12.3509 6.28943 12.2585 6.57985 12.0937 6.84611C11.8905 7.10636 11.5972 7.24082 11.2891 7.34354C10.8188 7.38433 10.4353 7.32372 10.0586 7.0164C9.82044 6.78862 9.68704 6.50991 9.67529 6.17899C9.68627 5.81166 9.80598 5.58737 10.0594 5.3216C10.489 4.93391 11.2179 4.84404 11.7187 5.15604Z" fill="#1E1E1E"/>
</g>
<defs>
<clipPath id="clip0_361_1836">
<rect width="20" height="20" fill="white"/>
</clipPath>
</defs>
</svg>
