<svg width="20" height="20" viewBox="0 0 20 20" fill="none" xmlns="http://www.w3.org/2000/svg">
<path fill-rule="evenodd" clip-rule="evenodd" d="M10.2441 16.4227C9.91867 16.0972 9.91867 15.5696 10.2441 15.2442L14.6548 10.8334L3.33333 10.8334C2.87308 10.8334 2.5 10.4603 2.5 10.0001C2.5 9.53983 2.87308 9.16675 3.33333 9.16675L14.6548 9.16675L10.2441 4.756C9.91867 4.43058 9.91867 3.90292 10.2441 3.5775C10.5695 3.25208 11.0972 3.25208 11.4226 3.5775L17.2559 9.41083C17.4122 9.56708 17.5 9.77908 17.5 10.0001C17.5 10.2211 17.4122 10.4331 17.2559 10.5893L11.4226 16.4227C11.0972 16.7481 10.5695 16.7481 10.2441 16.4227Z" fill="#433E3F"/>
</svg>
