<svg width="24" height="24" viewBox="0 0 24 24" fill="none" xmlns="http://www.w3.org/2000/svg">
<path fill-rule="evenodd" clip-rule="evenodd" d="M20.5221 10.6634C20.2247 10.9518 19.7499 10.9445 19.4616 10.6471L16.75 7.8508V18C16.75 18.4142 16.4142 18.75 16 18.75C15.5858 18.75 15.25 18.4142 15.25 18V7.8508L12.5384 10.6471C12.2501 10.9445 11.7753 10.9518 11.4779 10.6634C11.1805 10.3751 11.1732 9.90025 11.4616 9.60289L15.4616 5.47789C15.6028 5.33222 15.7971 5.25 16 5.25C16.2029 5.25 16.3972 5.33222 16.5384 5.47789L20.5384 9.60289C20.8268 9.90026 20.8195 10.3751 20.5221 10.6634Z" fill="#686868"/>
<path fill-rule="evenodd" clip-rule="evenodd" d="M12.5221 13.3366C12.2247 13.0482 11.7499 13.0555 11.4616 13.3529L8.75 16.1492V6C8.75 5.58579 8.41421 5.25 8 5.25C7.58579 5.25 7.25 5.58579 7.25 6V16.1492L4.53843 13.3529C4.25007 13.0555 3.77525 13.0482 3.47789 13.3366C3.18053 13.6249 3.17322 14.0997 3.46157 14.3971L7.46157 18.5221C7.60283 18.6678 7.79709 18.75 8 18.75C8.20291 18.75 8.39717 18.6678 8.53842 18.5221L12.5384 14.3971C12.8268 14.0997 12.8195 13.6249 12.5221 13.3366Z" fill="#686868"/>
</svg>
