<svg width="20" height="20" viewBox="0 0 20 20" fill="none" xmlns="http://www.w3.org/2000/svg">
<path d="M9.68555 2.74512C9.8168 2.53761 10.0186 2.51039 10.1592 2.59473L10.1748 2.60449L10.1924 2.61328C10.2456 2.63987 10.2586 2.65315 10.2607 2.65527C10.2634 2.6579 10.2759 2.67185 10.3018 2.72363L12.4688 7.05664L12.5859 7.29199L12.8467 7.32812L17.5967 7.99512L17.6309 8H17.666C17.6673 8.00007 17.7179 8.0043 17.7783 8.08984C17.8387 8.1754 17.853 8.26746 17.8428 8.31836L17.833 8.36719V8.39844L17.7891 8.4209L17.7334 8.47461L14.3164 11.8086L14.1279 11.9932L14.1738 12.2529L15.0059 16.9971V16.998C15.0408 17.2075 14.9142 17.3691 14.7656 17.416H14.666C14.6229 17.416 14.5895 17.416 14.5586 17.415C14.5456 17.4146 14.5346 17.4127 14.5254 17.4121L14.4834 17.3906L10.2334 15.1406L9.99902 15.0176L9.76562 15.1406L5.51562 17.3906L5.49219 17.4043C5.35286 17.4879 5.15476 17.4614 5.02344 17.2588C5.00761 17.2191 5.00093 17.1676 5 17.0381L5.8252 12.3359L5.87109 12.0762L5.68164 11.8916L2.26855 8.56152C2.13166 8.42364 2.13202 8.24119 2.26953 8.10352L2.32715 8.0459L2.34668 8.00488C2.36093 8.00235 2.38331 8 2.41602 8H2.45117L2.48535 7.99512L7.23535 7.32812L7.50098 7.29102L7.61621 7.0498L9.68555 2.74512Z" fill="#3E8D7A" stroke="#3E8D7A"/>
</svg>
