<svg width="10" height="10" viewBox="0 0 10 10" fill="none" xmlns="http://www.w3.org/2000/svg">
<path d="M10 3.82048C10.05 3.57048 9.85 3.27048 9.6 3.27048L6.75 2.87048L5.45 0.270477C5.4 0.170477 5.35 0.120477 5.25 0.070477C5 -0.079523 4.7 0.020477 4.55 0.270477L3.3 2.87048L0.45 3.27048C0.3 3.27048 0.2 3.32048 0.15 3.42048C-0.05 3.62048 -0.05 3.92048 0.15 4.12048L2.2 6.12048L1.7 8.97048C1.7 9.07048 1.7 9.17048 1.75 9.27048C1.9 9.52048 2.2 9.62048 2.45 9.47048L5 8.12048L7.55 9.47048C7.6 9.52048 7.7 9.52048 7.8 9.52048C7.85 9.52048 7.85 9.52048 7.9 9.52048C8.15 9.47048 8.35 9.22048 8.3 8.92048L7.8 6.07048L9.85 4.07048C9.95 4.02048 10 3.92048 10 3.82048Z" fill="#1C443A"/>
</svg>
