<svg width="24" height="24" viewBox="0 0 24 24" fill="none" xmlns="http://www.w3.org/2000/svg">
<g clip-path="url(#clip0_361_1845)">
<path d="M7.31263 -0.00628439C7.36255 -0.00649336 7.41247 -0.00670232 7.46391 -0.00691761C7.51919 -0.00690897 7.57447 -0.00690033 7.63143 -0.00689142C7.71901 -0.00714994 7.71901 -0.00714994 7.80836 -0.00741368C7.97097 -0.00788412 8.13357 -0.00805771 8.29618 -0.00818193C8.47135 -0.00836467 8.64653 -0.00881367 8.8217 -0.00922316C9.24505 -0.0101503 9.66841 -0.0106216 10.0918 -0.0110385C10.2911 -0.0112439 10.4904 -0.0114955 10.6897 -0.0117411C11.3521 -0.0125387 12.0145 -0.0132181 12.677 -0.0135575C12.849 -0.013647 13.0209 -0.013737 13.1929 -0.0138287C13.2357 -0.0138514 13.2784 -0.013874 13.3224 -0.0138974C14.0148 -0.0142864 14.7072 -0.015474 15.3995 -0.0169965C16.1102 -0.0185466 16.8208 -0.019391 17.5315 -0.0195408C17.9305 -0.0196423 18.3296 -0.0200527 18.7287 -0.0212499C19.0686 -0.0222672 19.4085 -0.0226449 19.7484 -0.022189C19.9218 -0.0219759 20.0952 -0.0220652 20.2686 -0.0229747C20.4567 -0.0239527 20.6448 -0.023474 20.8329 -0.0228559C20.8875 -0.0233701 20.9422 -0.0238843 20.9985 -0.0244141C21.359 -0.0215513 21.6072 0.0304068 21.8917 0.266059C21.9126 0.291377 21.9335 0.316695 21.9551 0.342781C21.9875 0.380214 21.9875 0.380214 22.0206 0.418403C22.2167 0.750027 22.1852 1.11889 22.1841 1.49171C22.1842 1.55811 22.1844 1.62451 22.1846 1.69092C22.1851 1.87295 22.185 2.05498 22.1848 2.23701C22.1847 2.43349 22.1851 2.62997 22.1855 2.82645C22.1861 3.21117 22.1862 3.59589 22.1861 3.98061C22.186 4.29326 22.1861 4.6059 22.1863 4.91855C22.1863 4.96305 22.1863 5.00754 22.1863 5.05339C22.1864 5.14378 22.1865 5.23418 22.1865 5.32457C22.187 6.17215 22.1869 7.01972 22.1866 7.8673C22.1864 8.64292 22.1869 9.41854 22.1878 10.1942C22.1887 10.9905 22.1891 11.7869 22.1889 12.5832C22.1888 13.0303 22.189 13.4775 22.1896 13.9246C22.1902 14.3051 22.1902 14.6856 22.1897 15.0662C22.1894 15.2604 22.1893 15.4545 22.1899 15.6487C22.1904 15.8265 22.1903 16.0042 22.1896 16.1819C22.1894 16.2767 22.1899 16.3715 22.1905 16.4663C22.1901 16.5227 22.1898 16.579 22.1894 16.6371C22.1895 16.6856 22.1895 16.7342 22.1895 16.7842C22.1609 17.0082 22.0611 17.1907 21.9027 17.3499C21.8652 17.388 21.8652 17.388 21.827 17.4269C21.8 17.4538 21.773 17.4806 21.7451 17.5082C21.7164 17.5373 21.6876 17.5664 21.658 17.5963C21.5633 17.6919 21.4681 17.7869 21.3728 17.8819C21.3065 17.9484 21.2402 18.0149 21.174 18.0815C21.0352 18.2207 20.8962 18.3596 20.7569 18.4984C20.5788 18.6759 20.4015 18.8542 20.2244 19.0327C20.0877 19.1702 19.9507 19.3073 19.8135 19.4442C19.7479 19.5097 19.6825 19.5754 19.6172 19.6413C19.5258 19.7334 19.4338 19.8249 19.3417 19.9162C19.315 19.9433 19.2884 19.9704 19.2609 19.9984C18.8987 20.354 18.5768 20.3645 18.0851 20.3627C17.9925 20.3632 17.9925 20.3632 17.8979 20.3637C17.7292 20.3645 17.5605 20.3645 17.3918 20.3642C17.2508 20.364 17.1097 20.3643 16.9686 20.3646C16.6358 20.3653 16.303 20.3652 15.9701 20.3647C15.6271 20.3641 15.2842 20.3648 14.9412 20.366C14.6462 20.3671 14.3513 20.3674 14.0563 20.3671C13.8804 20.367 13.7044 20.3671 13.5285 20.3679C13.3323 20.3687 13.1362 20.3681 12.9401 20.3673C12.882 20.3677 12.8239 20.3682 12.764 20.3686C12.4669 20.3661 12.2693 20.3636 12.0469 20.1563C11.9658 19.9942 11.9771 19.8178 12 19.6406C12.0841 19.5061 12.1398 19.4301 12.2813 19.3594C12.3537 19.3545 12.4264 19.3525 12.499 19.352C12.5678 19.3513 12.5678 19.3513 12.638 19.3506C12.6885 19.3503 12.739 19.35 12.791 19.3498C12.8441 19.3493 12.8971 19.3488 12.9518 19.3484C13.1278 19.3469 13.3038 19.3457 13.4799 19.3446C13.6016 19.3436 13.7234 19.3426 13.8452 19.3416C14.1334 19.3393 14.4216 19.3372 14.7098 19.3351C15.0378 19.3328 15.3659 19.3302 15.694 19.3276C16.3689 19.3223 17.0438 19.3173 17.7188 19.3125C17.719 19.2749 17.7192 19.2372 17.7194 19.1985C17.7211 18.8815 17.7238 18.5646 17.7274 18.2477C17.7292 18.0829 17.7307 17.9181 17.7315 17.7532C17.7323 17.5634 17.7347 17.3737 17.7371 17.1839C17.7371 17.1251 17.7372 17.0663 17.7372 17.0057C17.7437 16.6193 17.7799 16.3874 18.0645 16.1104C18.8942 15.5769 20.6619 15.9375 21.1406 15.9375C21.1406 11.003 21.1406 6.06844 21.1406 0.984382C16.6238 0.984382 12.1069 0.984382 7.45313 0.984382C7.4587 4.94968 7.4587 4.94968 7.4658 8.91497C7.46644 9.68115 7.46644 9.68115 7.46655 10.0396C7.46669 10.2905 7.4672 10.5413 7.46798 10.7922C7.46897 11.112 7.46923 11.4318 7.46903 11.7516C7.46907 11.869 7.46935 11.9865 7.4699 12.104C7.47059 12.2625 7.47043 12.421 7.47004 12.5795C7.47045 12.6256 7.47086 12.6717 7.47128 12.7192C7.46955 12.9838 7.4432 13.1739 7.31251 13.4063C7.11442 13.5383 6.93581 13.5375 6.70313 13.5C6.57075 13.3973 6.49618 13.3205 6.42188 13.1719C6.41736 13.1044 6.41574 13.0367 6.41559 12.9691C6.41538 12.9263 6.41517 12.8834 6.41496 12.8393C6.41497 12.7919 6.41497 12.7446 6.41498 12.6957C6.41481 12.6456 6.41464 12.5956 6.41446 12.5439C6.41394 12.375 6.41376 12.206 6.41359 12.037C6.41329 11.9163 6.41298 11.7956 6.41265 11.6749C6.41172 11.3117 6.41125 10.9486 6.41084 10.5854C6.41063 10.4144 6.41038 10.2433 6.41013 10.0723C6.40934 9.50364 6.40866 8.93497 6.40832 8.36631C6.40823 8.21868 6.40814 8.07105 6.40805 7.92342C6.40802 7.88672 6.408 7.85003 6.40798 7.81223C6.40759 7.21828 6.4064 6.62434 6.40488 6.0304C6.40333 5.42051 6.40248 4.81062 6.40233 4.20072C6.40223 3.85833 6.40182 3.51596 6.40063 3.17357C6.3995 2.85131 6.39934 2.52906 6.39982 2.20679C6.39984 2.08862 6.39954 1.97044 6.3989 1.85227C6.39807 1.69067 6.3984 1.52912 6.39902 1.36752C6.3985 1.32098 6.39799 1.27444 6.39746 1.22649C6.40074 0.868901 6.47224 0.538798 6.70643 0.259101C6.73821 0.234509 6.76999 0.209916 6.80274 0.184578C6.85078 0.146057 6.85078 0.146057 6.89979 0.106758C7.04624 0.00309728 7.13472 -0.00594018 7.31263 -0.00628439ZM18.75 16.9219C18.75 17.6025 18.75 18.2831 18.75 18.9844C19.0194 18.7544 19.0194 18.7544 19.2746 18.5127C19.3093 18.4782 19.344 18.4436 19.3797 18.408C19.416 18.3717 19.4522 18.3354 19.4896 18.2979C19.5276 18.2599 19.5656 18.2219 19.6048 18.1828C19.6846 18.1031 19.7643 18.0233 19.8439 17.9435C19.9664 17.8207 20.0892 17.6982 20.212 17.5757C20.2896 17.4981 20.3671 17.4205 20.4446 17.3428C20.4816 17.306 20.5185 17.2692 20.5565 17.2313C20.5902 17.1975 20.6238 17.1637 20.6585 17.1288C20.6883 17.099 20.7181 17.0691 20.7489 17.0383C20.8178 16.9787 20.8178 16.9787 20.8125 16.9219C20.1319 16.9219 19.4513 16.9219 18.75 16.9219Z" fill="black"/>
<path d="M10.1251 15.4219C11.1036 16.2746 11.6348 17.5281 11.7262 18.8059C11.7855 20.0829 11.3686 21.3819 10.5209 22.3488C9.6579 23.2925 8.50347 23.918 7.21352 24.0105C5.72851 24.0643 4.4824 23.6647 3.3533 22.6805C2.38981 21.7695 1.88182 20.4578 1.82986 19.1503C1.80231 17.8097 2.34458 16.5842 3.25483 15.6178C5.13542 13.6771 8.11828 13.7354 10.1251 15.4219ZM3.76576 16.5671C3.07797 17.3754 2.79372 18.3835 2.84996 19.4312C2.93305 20.443 3.4414 21.3407 4.17196 22.0283C5.00619 22.7357 6.0186 23.0907 7.1125 23.0255C8.18587 22.9255 9.15076 22.3784 9.84384 21.5625C10.5004 20.6919 10.8386 19.6598 10.6926 18.5678C10.5288 17.5225 9.97761 16.5502 9.11919 15.9197C8.50484 15.4833 7.78851 15.192 7.03134 15.1406C6.98257 15.137 6.98257 15.137 6.93283 15.1333C5.71383 15.0844 4.57065 15.6818 3.76576 16.5671Z" fill="black"/>
<path d="M9.11793 1.9925C9.18479 1.99216 9.18479 1.99216 9.25301 1.99182C9.40221 1.99129 9.55137 1.9921 9.70057 1.99291C9.8076 1.99281 9.91464 1.99263 10.0217 1.99237C10.3123 1.99191 10.603 1.99263 10.8936 1.99358C11.1978 1.99441 11.502 1.99424 11.8061 1.99421C12.3171 1.99429 12.828 1.9951 13.3389 1.99639C13.8642 1.99771 14.3894 1.99837 14.9147 1.99831C14.9632 1.9983 14.9632 1.9983 15.0127 1.9983C15.045 1.9983 15.0773 1.99829 15.1105 1.99829C15.7393 1.99822 16.3681 1.99888 16.9968 1.99974C17.1779 1.99994 17.359 2 17.5401 2.00004C17.8249 2.00013 18.1097 2.00071 18.3945 2.00165C18.499 2.00192 18.6034 2.00204 18.7079 2.00198C18.8506 2.00194 18.9933 2.00247 19.136 2.00315C19.1772 2.003 19.2185 2.00286 19.2609 2.00271C19.552 2.00499 19.8333 2.02468 20.0861 2.18267C20.1938 2.3577 20.1913 2.51898 20.1564 2.71881C20.0708 2.87346 20.0109 2.93483 19.8494 3.00534C19.642 3.05865 19.4504 3.06005 19.2372 3.05915C19.1921 3.05933 19.1471 3.05951 19.1006 3.0597C18.9498 3.06018 18.799 3.05999 18.6482 3.05981C18.54 3.06001 18.4318 3.06025 18.3236 3.06053C18.0299 3.06116 17.7362 3.06119 17.4424 3.06107C17.1973 3.06102 16.9522 3.06125 16.7071 3.06147C16.096 3.06202 15.4849 3.06198 14.8737 3.06168C14.343 3.06144 13.8123 3.06197 13.2815 3.06286C12.7364 3.06377 12.1913 3.06414 11.6462 3.06398C11.3402 3.06389 11.0342 3.06402 10.7282 3.06467C10.4406 3.06525 10.153 3.06517 9.86544 3.06455C9.75979 3.06444 9.65413 3.06457 9.54849 3.06496C9.40447 3.06545 9.26049 3.06507 9.11648 3.06447C9.0535 3.06499 9.0535 3.06499 8.98925 3.06552C8.76684 3.06358 8.61755 3.05184 8.43762 2.90631C8.34119 2.77567 8.29557 2.68364 8.29956 2.51959C8.33089 2.32521 8.35169 2.23636 8.5068 2.10459C8.70187 1.98021 8.89252 1.98988 9.11793 1.9925Z" fill="black"/>
<path d="M9.0695 10.3995C9.11058 10.3993 9.15165 10.3992 9.19397 10.3991C9.33216 10.3987 9.47034 10.3986 9.60852 10.3985C9.70737 10.3983 9.80623 10.3981 9.90508 10.3978C10.174 10.3972 10.443 10.3969 10.7119 10.3967C10.8799 10.3965 11.0478 10.3964 11.2158 10.3961C11.741 10.3955 12.2663 10.395 12.7915 10.3949C13.3983 10.3947 14.005 10.3938 14.6118 10.3925C15.0805 10.3915 15.5492 10.391 16.0179 10.3909C16.298 10.3909 16.5781 10.3906 16.8581 10.3898C17.1216 10.389 17.385 10.3889 17.6484 10.3893C17.7451 10.3893 17.8419 10.3891 17.9386 10.3887C18.0706 10.3881 18.2025 10.3883 18.3345 10.3888C18.392 10.3883 18.392 10.3883 18.4506 10.3877C18.6785 10.3897 18.8327 10.4226 19.0313 10.5467C19.1439 10.685 19.1449 10.8418 19.1397 11.0171C19.1154 11.1695 19.0506 11.2423 18.9375 11.3436C18.7046 11.4434 18.4977 11.4507 18.2492 11.4495C18.2088 11.4497 18.1684 11.4499 18.1267 11.4501C17.9917 11.4506 17.8567 11.4504 17.7216 11.4502C17.6247 11.4504 17.5277 11.4506 17.4307 11.4509C17.1676 11.4515 16.9045 11.4516 16.6413 11.4515C16.4216 11.4514 16.2019 11.4516 15.9822 11.4519C15.4639 11.4524 14.9456 11.4524 14.4273 11.4521C13.8927 11.4518 13.358 11.4524 12.8233 11.4534C12.3642 11.4542 11.9051 11.4545 11.446 11.4544C11.1718 11.4543 10.8976 11.4544 10.6234 11.455C10.3656 11.4556 10.1078 11.4555 9.84997 11.4549C9.7554 11.4548 9.66082 11.455 9.56625 11.4553C9.43705 11.4558 9.30788 11.4555 9.17868 11.4549C9.14134 11.4552 9.10401 11.4555 9.06554 11.4559C8.82285 11.4536 8.65191 11.4134 8.4375 11.2967C8.34253 11.1499 8.29076 11.0461 8.30475 10.8688C8.34181 10.6968 8.38238 10.5542 8.53125 10.4529C8.71158 10.3928 8.88158 10.3993 9.0695 10.3995Z" fill="black"/>
<path d="M8.97519 4.10696C9.0106 4.10674 9.046 4.10652 9.08248 4.1063C9.2012 4.10574 9.3199 4.10618 9.43862 4.10662C9.5237 4.10643 9.60878 4.10618 9.69387 4.10588C9.92505 4.10523 10.1562 4.10548 10.3874 4.10593C10.6292 4.10629 10.871 4.10596 11.1128 4.10573C11.519 4.10548 11.9251 4.10582 12.3313 4.10649C12.8009 4.10725 13.2706 4.107 13.7402 4.10623C14.1433 4.10559 14.5464 4.1055 14.9494 4.10587C15.1902 4.10609 15.431 4.10612 15.6718 4.10565C15.8983 4.10525 16.1247 4.10553 16.3511 4.10634C16.4342 4.10653 16.5173 4.10647 16.6005 4.10616C16.7139 4.10578 16.8273 4.10626 16.9407 4.10696C16.9901 4.10649 16.9901 4.10649 17.0405 4.10601C17.2435 4.10845 17.3687 4.1434 17.5312 4.26544C17.6611 4.4126 17.6825 4.52322 17.6719 4.71369C17.6594 4.86338 17.6349 4.91163 17.528 5.02033C17.3585 5.12995 17.2247 5.13557 17.0295 5.13332C16.9754 5.13381 16.9754 5.13381 16.9203 5.13431C16.7998 5.13516 16.6793 5.13468 16.5588 5.1342C16.4723 5.13453 16.3858 5.13494 16.2993 5.13542C16.0646 5.13648 15.8298 5.13634 15.5951 5.13592C15.3991 5.13568 15.2032 5.13603 15.0073 5.13637C14.5451 5.13717 14.0829 5.137 13.6207 5.13621C13.1437 5.13542 12.6668 5.13616 12.1898 5.13768C11.7804 5.13893 11.3709 5.13927 10.9615 5.13887C10.7169 5.13864 10.4724 5.13875 10.2278 5.13971C9.99785 5.14057 9.76794 5.14029 9.53801 5.13913C9.4536 5.1389 9.36919 5.13906 9.28478 5.13966C9.16958 5.1404 9.05448 5.1397 8.93929 5.13864C8.88912 5.13947 8.88912 5.13947 8.83794 5.14032C8.65609 5.13691 8.5832 5.11337 8.44075 4.99621C8.29754 4.81699 8.29688 4.72779 8.29688 4.49982C8.43515 4.17232 8.6385 4.10377 8.97519 4.10696Z" fill="black"/>
<path d="M9.03567 8.28464C9.08844 8.28431 9.1412 8.28397 9.19556 8.28363C9.28137 8.28381 9.28137 8.28381 9.36892 8.28398C9.46009 8.28362 9.46009 8.28362 9.5531 8.28326C9.71929 8.28263 9.88548 8.2826 10.0517 8.28272C10.1906 8.28277 10.3296 8.28254 10.4686 8.28232C10.7965 8.2818 11.1245 8.28178 11.4524 8.28206C11.7903 8.28234 12.1281 8.28177 12.4659 8.28077C12.7565 8.27994 13.047 8.27966 13.3376 8.27981C13.5109 8.2799 13.6842 8.27978 13.8575 8.27912C14.0508 8.27842 14.2441 8.27886 14.4375 8.27941C14.5231 8.27887 14.5231 8.27887 14.6105 8.27832C14.9008 8.28012 15.121 8.29123 15.375 8.43748C15.4905 8.57169 15.5135 8.65752 15.539 8.83299C15.5078 9.05586 15.4409 9.12524 15.2812 9.28123C15.135 9.32998 15.0331 9.33424 14.8797 9.33469C14.7983 9.33509 14.7983 9.33509 14.7152 9.3355C14.6556 9.33556 14.596 9.33561 14.5345 9.33566C14.4712 9.33588 14.4078 9.33611 14.3444 9.33637C14.1722 9.33698 14 9.33728 13.8278 9.33749C13.7202 9.33763 13.6127 9.33782 13.5051 9.33803C13.1685 9.33867 12.8319 9.33913 12.4953 9.33931C12.1067 9.33952 11.7181 9.34034 11.3296 9.3417C11.0292 9.34271 10.7289 9.34318 10.4285 9.34325C10.2491 9.34329 10.0697 9.34357 9.89032 9.34441C9.72156 9.34518 9.55282 9.34528 9.38407 9.34487C9.2927 9.34482 9.20133 9.34546 9.10996 9.34613C9.05541 9.34586 9.00087 9.3456 8.94467 9.34533C8.89736 9.3454 8.85006 9.34547 8.80132 9.34554C8.59971 9.31839 8.47689 9.23777 8.35251 9.07908C8.28492 8.92612 8.27316 8.83768 8.29685 8.67186C8.38289 8.49977 8.43533 8.41092 8.61505 8.33644C8.76248 8.29768 8.88372 8.28496 9.03567 8.28464Z" fill="black"/>
<path d="M9 17.0152C9.15798 17.1135 9.27615 17.2083 9.32812 17.3902C9.34249 17.7421 9.11677 17.972 8.90625 18.234C8.88346 18.2624 8.86067 18.2908 8.8372 18.32C8.70927 18.4788 8.58046 18.6368 8.45123 18.7945C8.31156 18.9653 8.17475 19.1381 8.03906 19.3121C7.82841 19.582 7.61306 19.8478 7.39619 20.1128C7.19175 20.3634 6.99561 20.6195 6.80255 20.879C6.68731 21.0188 6.59627 21.1193 6.41821 21.1655C6.21497 21.1736 6.08599 21.1557 5.93427 21.0157C5.90199 20.986 5.86972 20.9562 5.83646 20.9256C5.60134 20.699 5.36832 20.4704 5.13742 20.2395C5.04749 20.1496 4.95718 20.0602 4.86685 19.9708C4.80918 19.9132 4.75153 19.8557 4.69391 19.7981C4.6671 19.7716 4.64029 19.7451 4.61267 19.7179C4.42735 19.5315 4.27946 19.3739 4.24512 19.1041C4.27006 18.901 4.31575 18.8073 4.45312 18.6559C4.64533 18.5652 4.73614 18.547 4.93873 18.6149C5.11915 18.698 5.25116 18.8205 5.38751 18.9626C5.41202 18.9873 5.43652 19.0121 5.46177 19.0376C5.5391 19.116 5.61574 19.195 5.69238 19.274C5.74504 19.3276 5.79775 19.3812 5.85049 19.4347C5.97896 19.5652 6.10682 19.6963 6.23438 19.8277C6.36871 19.6954 6.49884 19.5632 6.61871 19.4176C6.64515 19.3855 6.67159 19.3535 6.69883 19.3204C6.74011 19.2699 6.74011 19.2699 6.78223 19.2184C6.82573 19.1654 6.82573 19.1654 6.87011 19.1113C7.07623 18.859 7.27579 18.6026 7.47308 18.3433C7.61541 18.1577 7.76263 17.9761 7.91016 17.7945C7.9475 17.7485 7.9475 17.7485 7.98561 17.7016C8.05775 17.6131 8.13041 17.5251 8.20312 17.4371C8.22763 17.4068 8.25213 17.3764 8.27737 17.3452C8.30145 17.3159 8.32553 17.2867 8.35034 17.2566C8.38227 17.2174 8.38227 17.2174 8.41484 17.1774C8.58896 17.0062 8.762 16.9902 9 17.0152Z" fill="black"/>
<path d="M8.96466 6.22148C9.02379 6.22112 9.02379 6.22112 9.08411 6.22076C9.21462 6.22011 9.34512 6.22015 9.47564 6.22026C9.56631 6.22008 9.65698 6.21987 9.74765 6.21965C9.93782 6.2193 10.128 6.21931 10.3182 6.21956C10.5618 6.21983 10.8054 6.21904 11.0491 6.21795C11.2364 6.21726 11.4237 6.21722 11.611 6.21737C11.7008 6.21734 11.7906 6.2171 11.8804 6.21662C12.0061 6.21605 12.1318 6.21636 12.2574 6.21691C12.2945 6.21655 12.3316 6.21619 12.3698 6.21582C12.5831 6.21786 12.7205 6.24344 12.8906 6.37498C13.0108 6.53526 12.9982 6.69609 12.9843 6.89061C12.9431 7.03879 12.9026 7.07067 12.7705 7.15232C12.5814 7.23022 12.4171 7.23919 12.2161 7.23842C12.1776 7.23881 12.1392 7.23921 12.0996 7.23962C11.9731 7.24071 11.8466 7.24076 11.7201 7.24071C11.6319 7.24104 11.5436 7.2414 11.4554 7.24179C11.2707 7.24242 11.0859 7.24249 10.9012 7.24222C10.6648 7.24194 10.4284 7.24338 10.1919 7.24527C10.0098 7.24648 9.82762 7.24662 9.64545 7.24645C9.55828 7.24653 9.47112 7.24698 9.38396 7.24781C9.26199 7.24885 9.14011 7.2484 9.01815 7.24757C8.98234 7.24819 8.94654 7.24882 8.90965 7.24946C8.63769 7.24519 8.52638 7.17222 8.34368 6.98436C8.26647 6.79084 8.27456 6.61475 8.3554 6.42479C8.53599 6.21194 8.70493 6.22067 8.96466 6.22148Z" fill="black"/>
</g>
<defs>
<clipPath id="clip0_361_1845">
<rect width="24" height="24" fill="white"/>
</clipPath>
</defs>
</svg>
