<svg width="20" height="20" viewBox="0 0 20 20" fill="none" xmlns="http://www.w3.org/2000/svg">
<path fill-rule="evenodd" clip-rule="evenodd" d="M4.6875 1.875L3.75 1.25V3.125H3.125C2.08947 3.125 1.25 3.96447 1.25 5V16.875C1.25 17.9106 2.08947 18.75 3.125 18.75H16.875C17.9106 18.75 18.75 17.9106 18.75 16.875V5C18.75 3.96447 17.9106 3.125 16.875 3.125H16.25V1.25L15.3125 1.875L14.6875 1.25L14.0625 1.875L13.4375 1.25L12.8125 1.875L11.875 1.25V3.125H8.125V1.25L7.1875 1.875L6.5625 1.25L5.9375 1.875L5.3125 1.25L4.6875 1.875ZM7.5 2.41782L7.10787 2.67925L6.5625 2.13388L5.9375 2.75888L5.3125 2.13388L4.76714 2.67925L4.375 2.41782V5.08217L4.76714 4.82075L5.3125 5.36612L5.9375 4.74112L6.5625 5.36612L7.10787 4.82075L7.5 5.08217V2.41782ZM3.75 3.75V6.25L4.6875 5.625L5.3125 6.25L5.9375 5.625L6.5625 6.25L7.1875 5.625L8.125 6.25V3.75H11.875V6.25L12.8125 5.625L13.4375 6.25L14.0625 5.625L14.6875 6.25L15.3125 5.625L16.25 6.25V3.75H16.875C17.5654 3.75 18.125 4.30964 18.125 5V16.875C18.125 17.5654 17.5654 18.125 16.875 18.125H3.125C2.43464 18.125 1.875 17.5654 1.875 16.875V5C1.875 4.30964 2.43464 3.75 3.125 3.75H3.75ZM15.625 2.41782L15.2329 2.67925L14.6875 2.13388L14.0625 2.75888L13.4375 2.13388L12.8921 2.67925L12.5 2.41782V5.08217L12.8921 4.82075L13.4375 5.36612L14.0625 4.74112L14.6875 5.36612L15.2329 4.82075L15.625 5.08217V2.41782Z" fill="#3E8D7A"/>
<path d="M3.75 3.75V6.25L4.6875 5.625L5.3125 6.25L5.9375 5.625L6.5625 6.25L7.1875 5.625L8.125 6.25V3.75H11.875V6.25L12.8125 5.625L13.4375 6.25L14.0625 5.625L14.6875 6.25L15.3125 5.625L16.25 6.25V3.75H16.875C17.5654 3.75 18.125 4.30964 18.125 5V16.875C18.125 17.5654 17.5654 18.125 16.875 18.125H3.125C2.43464 18.125 1.875 17.5654 1.875 16.875V5C1.875 4.30964 2.43464 3.75 3.125 3.75H3.75Z" fill="#3E8D7A"/>
<path fill-rule="evenodd" clip-rule="evenodd" d="M5.9375 9.375C6.45525 9.375 6.875 8.95525 6.875 8.4375C6.875 7.91975 6.45525 7.5 5.9375 7.5C5.41973 7.5 5 7.91975 5 8.4375C5 8.95525 5.41973 9.375 5.9375 9.375ZM5.9375 8.75C6.11009 8.75 6.25 8.61006 6.25 8.4375C6.25 8.26494 6.11009 8.125 5.9375 8.125C5.76491 8.125 5.625 8.26494 5.625 8.4375C5.625 8.61006 5.76491 8.75 5.9375 8.75ZM6.875 12.1875C6.875 12.7052 6.45525 13.125 5.9375 13.125C5.41973 13.125 5 12.7052 5 12.1875C5 11.6698 5.41973 11.25 5.9375 11.25C6.45525 11.25 6.875 11.6698 6.875 12.1875ZM6.25 12.1875C6.25 12.3601 6.11009 12.5 5.9375 12.5C5.76491 12.5 5.625 12.3601 5.625 12.1875C5.625 12.0149 5.76491 11.875 5.9375 11.875C6.11009 11.875 6.25 12.0149 6.25 12.1875ZM5.9375 16.875C6.45525 16.875 6.875 16.4552 6.875 15.9375C6.875 15.4198 6.45525 15 5.9375 15C5.41973 15 5 15.4198 5 15.9375C5 16.4552 5.41973 16.875 5.9375 16.875ZM5.9375 16.25C6.11009 16.25 6.25 16.1101 6.25 15.9375C6.25 15.7649 6.11009 15.625 5.9375 15.625C5.76491 15.625 5.625 15.7649 5.625 15.9375C5.625 16.1101 5.76491 16.25 5.9375 16.25Z" fill="#FAFAFA"/>
<path d="M8.75 8.125C8.57744 8.125 8.4375 8.26494 8.4375 8.4375C8.4375 8.61006 8.57744 8.75 8.75 8.75H16.25C16.4226 8.75 16.5625 8.61006 16.5625 8.4375C16.5625 8.26494 16.4226 8.125 16.25 8.125H8.75ZM8.75 15.625C8.57744 15.625 8.4375 15.7649 8.4375 15.9375C8.4375 16.1101 8.57744 16.25 8.75 16.25H16.25C16.4226 16.25 16.5625 16.1101 16.5625 15.9375C16.5625 15.7649 16.4226 15.625 16.25 15.625H8.75ZM8.4375 12.1875C8.4375 12.0149 8.57744 11.875 8.75 11.875H16.25C16.4226 11.875 16.5625 12.0149 16.5625 12.1875C16.5625 12.3601 16.4226 12.5 16.25 12.5H8.75C8.57744 12.5 8.4375 12.3601 8.4375 12.1875Z" fill="#FAFAFA"/>
</svg>
