<svg width="20" height="20" viewBox="0 0 20 20" fill="none" xmlns="http://www.w3.org/2000/svg">
<path d="M11.25 18.7504C9.07899 18.7557 6.98354 17.9537 5.37081 16.5003C3.75808 15.0469 2.74325 13.0458 2.52353 10.886C2.3038 8.72612 2.89486 6.5617 4.18187 4.81329C5.46887 3.06489 7.3599 1.85737 9.4875 1.42538C9.61636 1.39944 9.75012 1.41479 9.86976 1.46924C9.9894 1.5237 10.0888 1.61449 10.1539 1.72871C10.219 1.84292 10.2464 1.97475 10.2322 2.10543C10.218 2.23611 10.163 2.359 10.075 2.45663C9.09801 3.53182 8.45432 4.86761 8.22213 6.3017C7.98995 7.7358 8.17926 9.20646 8.76708 10.535C9.35489 11.8635 10.3159 12.9928 11.5333 13.7855C12.7508 14.5782 14.1722 15.0002 15.625 15.0004C16.1329 15.0003 16.6395 14.9501 17.1375 14.8504C17.267 14.8242 17.4015 14.8397 17.5217 14.8947C17.6419 14.9497 17.7415 15.0414 17.8062 15.1566C17.8703 15.2708 17.897 15.4021 17.8824 15.5322C17.8678 15.6623 17.8128 15.7845 17.725 15.8816C16.9052 16.7846 15.9058 17.5063 14.7907 18.0004C13.6756 18.4944 12.4696 18.7499 11.25 18.7504ZM7.975 3.25038C7.05234 3.69965 6.2317 4.33349 5.56386 5.11267C4.89602 5.89186 4.39519 6.79982 4.09237 7.78035C3.78955 8.76088 3.69118 9.79312 3.80334 10.8132C3.91551 11.8333 4.23582 12.8195 4.74447 13.7108C5.25311 14.6021 5.93926 15.3795 6.76045 15.995C7.58164 16.6105 8.5204 17.0508 9.51864 17.2889C10.5169 17.5269 11.5533 17.5576 12.5639 17.379C13.5745 17.2003 14.5376 16.8162 15.3937 16.2504C13.8895 16.2111 12.4209 15.7847 11.1296 15.0121C9.83831 14.2396 8.76808 13.1471 8.02227 11.8402C7.27647 10.5333 6.88029 9.05621 6.87201 7.55151C6.86372 6.04681 7.24362 4.5654 7.975 3.25038Z" fill="#3E8D7A"/>
<path d="M7.975 3.25038C7.05234 3.69965 6.2317 4.33349 5.56386 5.11267C4.89602 5.89186 4.39519 6.79982 4.09237 7.78035C3.78955 8.76088 3.69118 9.79312 3.80334 10.8132C3.91551 11.8333 4.23582 12.8195 4.74447 13.7108C5.25311 14.6021 5.93926 15.3795 6.76045 15.995C7.58164 16.6105 8.5204 17.0508 9.51864 17.2889C10.5169 17.5269 11.5533 17.5576 12.5639 17.379C13.5745 17.2003 14.5376 16.8162 15.3937 16.2504C13.8895 16.2111 12.4209 15.7847 11.1296 15.0121C9.83831 14.2396 8.76808 13.1471 8.02227 11.8402C7.27647 10.5333 6.88029 9.05621 6.87201 7.55151C6.86372 6.04681 7.24362 4.5654 7.975 3.25038Z" fill="#3E8D7A"/>
</svg>
