<svg width="14" height="14" viewBox="0 0 14 14" fill="none" xmlns="http://www.w3.org/2000/svg">
<path d="M10.6749 5.01075L11.2057 4.48575C11.3156 4.37591 11.3773 4.22693 11.3773 4.07159C11.3773 3.91624 11.3156 3.76726 11.2057 3.65742C11.0959 3.54757 10.9469 3.48587 10.7915 3.48587C10.6362 3.48587 10.4872 3.54757 10.3774 3.65742L9.85237 4.18825C9.03486 3.55583 8.03053 3.21271 6.99696 3.21271C5.96338 3.21271 4.95905 3.55583 4.14154 4.18825L3.61071 3.65159C3.50009 3.54174 3.35037 3.48034 3.19448 3.48089C3.03859 3.48143 2.8893 3.54388 2.77946 3.6545C2.66961 3.76512 2.60821 3.91484 2.60876 4.07073C2.6093 4.22662 2.67176 4.37591 2.78237 4.48575L3.31904 5.01659C2.67913 5.83182 2.33192 6.83854 2.33321 7.87492C2.3313 8.61892 2.50731 9.35259 2.84655 10.0147C3.1858 10.6769 3.67844 11.2483 4.2834 11.6814C4.88836 12.1145 5.5881 12.3967 6.32426 12.5044C7.06042 12.6121 7.81167 12.5422 8.51534 12.3006C9.21902 12.059 9.85473 11.6526 10.3695 11.1154C10.8842 10.5782 11.263 9.92573 11.4743 9.21237C11.6856 8.49902 11.7233 7.74547 11.5843 7.01459C11.4452 6.2837 11.1334 5.59665 10.6749 5.01075ZM6.99987 11.3749C6.30764 11.3749 5.63095 11.1696 5.05538 10.7851C4.4798 10.4005 4.0312 9.85385 3.76629 9.21431C3.50139 8.57477 3.43208 7.87104 3.56712 7.1921C3.70217 6.51317 4.03552 5.88953 4.525 5.40005C5.01448 4.91056 5.63812 4.57722 6.31706 4.44217C6.99599 4.30712 7.69972 4.37643 8.33927 4.64134C8.97881 4.90625 9.52543 5.35485 9.91002 5.93042C10.2946 6.50599 10.4999 7.18268 10.4999 7.87492C10.4999 8.80318 10.1311 9.69342 9.47475 10.3498C8.81837 11.0062 7.92813 11.3749 6.99987 11.3749ZM5.83321 2.62492H8.16654C8.32125 2.62492 8.46962 2.56346 8.57902 2.45406C8.68842 2.34467 8.74987 2.19629 8.74987 2.04159C8.74987 1.88688 8.68842 1.7385 8.57902 1.62911C8.46962 1.51971 8.32125 1.45825 8.16654 1.45825H5.83321C5.6785 1.45825 5.53012 1.51971 5.42073 1.62911C5.31133 1.7385 5.24987 1.88688 5.24987 2.04159C5.24987 2.19629 5.31133 2.34467 5.42073 2.45406C5.53012 2.56346 5.6785 2.62492 5.83321 2.62492ZM7.58321 6.12492C7.58321 5.97021 7.52175 5.82184 7.41235 5.71244C7.30296 5.60304 7.15458 5.54159 6.99987 5.54159C6.84516 5.54159 6.69679 5.60304 6.58739 5.71244C6.478 5.82184 6.41654 5.97021 6.41654 6.12492V7.22742C6.28446 7.34556 6.19136 7.50102 6.14956 7.67323C6.10776 7.84544 6.11924 8.02628 6.18247 8.19182C6.2457 8.35737 6.35771 8.49981 6.50367 8.60031C6.64963 8.7008 6.82266 8.75461 6.99987 8.75461C7.17708 8.75461 7.35012 8.7008 7.49608 8.60031C7.64204 8.49981 7.75404 8.35737 7.81727 8.19182C7.88051 8.02628 7.89198 7.84544 7.85019 7.67323C7.80839 7.50102 7.71529 7.34556 7.58321 7.22742V6.12492Z" fill="#433E3F"/>
</svg>
