<svg width="16" height="16" viewBox="0 0 16 16" fill="none" xmlns="http://www.w3.org/2000/svg">
<path fill-rule="evenodd" clip-rule="evenodd" d="M8 1.25C4.2745 1.25 1.25 4.2745 1.25 8C1.25 11.7255 4.2745 14.75 8 14.75C11.7255 14.75 14.75 11.7255 14.75 8C14.75 4.2745 11.7255 1.25 8 1.25ZM8 1.75C11.4495 1.75 14.25 4.5505 14.25 8C14.25 11.4495 11.4495 14.25 8 14.25C4.5505 14.25 1.75 11.4495 1.75 8C1.75 4.5505 4.5505 1.75 8 1.75Z" fill="#6D6D6D"/>
<path fill-rule="evenodd" clip-rule="evenodd" d="M8 2.25C4.8265 2.25 2.25 4.8265 2.25 8C2.25 11.1735 4.8265 13.75 8 13.75C11.1735 13.75 13.75 11.1735 13.75 8C13.75 4.8265 11.1735 2.25 8 2.25ZM8 2.75C10.8975 2.75 13.25 5.1025 13.25 8C13.25 10.8975 10.8975 13.25 8 13.25C5.1025 13.25 2.75 10.8975 2.75 8C2.75 5.1025 5.1025 2.75 8 2.75Z" fill="#6D6D6D"/>
<path fill-rule="evenodd" clip-rule="evenodd" d="M13.5 7.75H12.125C11.987 7.75 11.875 7.862 11.875 8C11.875 8.138 11.987 8.25 12.125 8.25H13.5C13.638 8.25 13.75 8.138 13.75 8C13.75 7.862 13.638 7.75 13.5 7.75ZM8.25 13.375V12C8.25 11.862 8.138 11.75 8 11.75C7.862 11.75 7.75 11.862 7.75 12V13.375C7.75 13.513 7.862 13.625 8 13.625C8.138 13.625 8.25 13.513 8.25 13.375ZM3.875 7.75H2.5C2.362 7.75 2.25 7.862 2.25 8C2.25 8.138 2.362 8.25 2.5 8.25H3.875C4.013 8.25 4.125 8.138 4.125 8C4.125 7.862 4.013 7.75 3.875 7.75ZM8.25 4V2.625C8.25 2.487 8.138 2.375 8 2.375C7.862 2.375 7.75 2.487 7.75 2.625V4C7.75 4.138 7.862 4.25 8 4.25C8.138 4.25 8.25 4.138 8.25 4ZM10.8448 12.5778L10.5997 12.1538C10.5307 12.0343 10.3778 11.9932 10.2583 12.0623C10.1388 12.1313 10.0978 12.2843 10.1667 12.4038L10.4117 12.8278C10.4805 12.9473 10.6337 12.9882 10.7533 12.9192C10.8728 12.8502 10.9138 12.6973 10.8448 12.5778ZM5.67675 12.8278L5.9215 12.4038C5.9905 12.2843 5.9495 12.1313 5.83 12.0623C5.7105 11.9932 5.5575 12.0343 5.4885 12.1538L5.24375 12.5778C5.17475 12.6973 5.21575 12.8502 5.33525 12.9192C5.45475 12.9882 5.60775 12.9473 5.67675 12.8278ZM12.8278 10.4117L12.4038 10.1667C12.2843 10.0978 12.1313 10.1388 12.0623 10.2583C11.9932 10.3778 12.0343 10.5307 12.1538 10.5997L12.5778 10.8448C12.6973 10.9138 12.8502 10.8728 12.9192 10.7533C12.9882 10.6337 12.9473 10.4805 12.8278 10.4117ZM3.51075 10.8448L3.93475 10.5997C4.05425 10.5307 4.09525 10.3778 4.02625 10.2583C3.95725 10.1388 3.80425 10.0978 3.68475 10.1667L3.26075 10.4117C3.14125 10.4805 3.10025 10.6337 3.16925 10.7533C3.23825 10.8728 3.39125 10.9138 3.51075 10.8448ZM5.9325 3.7035L5.67675 3.26075C5.60775 3.14125 5.45475 3.10025 5.33525 3.16925C5.21575 3.23825 5.17475 3.39125 5.24375 3.51075L5.4995 3.9535C5.5685 4.073 5.7215 4.114 5.841 4.045C5.9605 3.976 6.0015 3.823 5.9325 3.7035ZM10.589 3.9535L10.8448 3.51075C10.9138 3.39125 10.8728 3.23825 10.7533 3.16925C10.6337 3.10025 10.4805 3.14125 10.4117 3.26075L10.156 3.7035C10.087 3.823 10.128 3.976 10.2475 4.045C10.367 4.114 10.52 4.073 10.589 3.9535ZM3.9535 5.4995L3.51075 5.24375C3.39125 5.17475 3.23825 5.21575 3.16925 5.33525C3.10025 5.45475 3.14125 5.60775 3.26075 5.67675L3.7035 5.9325C3.823 6.0015 3.976 5.9605 4.045 5.841C4.114 5.7215 4.073 5.5685 3.9535 5.4995ZM12.3848 5.9325L12.8278 5.67675C12.9473 5.60775 12.9882 5.45475 12.9192 5.33525C12.8502 5.21575 12.6973 5.17475 12.5778 5.24375L12.1348 5.4995C12.0153 5.5685 11.9742 5.7215 12.0433 5.841C12.1123 5.9605 12.2653 6.0015 12.3848 5.9325ZM8.12725 8.90175L8.7715 10.3515C8.8275 10.4775 8.9755 10.5345 9.1015 10.4785C9.2275 10.4225 9.2845 10.2745 9.2285 10.1485L8.584 8.69875C8.528 8.57275 8.38025 8.51575 8.25425 8.57175C8.128 8.62775 8.07125 8.77575 8.12725 8.90175ZM8.81425 7.59275L11.169 5.43425C11.2708 5.341 11.2775 5.18275 11.1842 5.081C11.091 4.97925 10.9328 4.9725 10.831 5.06575L8.47625 7.22425C8.37475 7.3175 8.36775 7.47575 8.461 7.5775C8.55425 7.67925 8.7125 7.686 8.81425 7.59275Z" fill="#6D6D6D"/>
<path fill-rule="evenodd" clip-rule="evenodd" d="M8 7C7.448 7 7 7.448 7 8C7 8.552 7.448 9 8 9C8.552 9 9 8.552 9 8C9 7.448 8.552 7 8 7ZM8 7.5C8.276 7.5 8.5 7.724 8.5 8C8.5 8.276 8.276 8.5 8 8.5C7.724 8.5 7.5 8.276 7.5 8C7.5 7.724 7.724 7.5 8 7.5Z" fill="#6D6D6D"/>
</svg>
