<svg width="24" height="24" viewBox="0 0 24 24" fill="none" xmlns="http://www.w3.org/2000/svg">
<g clip-path="url(#clip0_312_1770)">
<path d="M5.19035 6.357C5.2461 6.35678 5.30184 6.35656 5.35927 6.35634C5.51363 6.35587 5.66796 6.35604 5.82231 6.35648C5.98892 6.3568 6.15552 6.3563 6.32213 6.35592C6.64836 6.35529 6.97458 6.35543 7.30081 6.35583C7.56595 6.35615 7.83109 6.3562 8.09623 6.35604C8.13396 6.35602 8.1717 6.356 8.21059 6.35598C8.28725 6.35593 8.36392 6.35589 8.44058 6.35584C9.15944 6.35544 9.8783 6.3559 10.5972 6.35666C11.2139 6.35728 11.8307 6.35718 12.4475 6.35653C13.1638 6.35577 13.8801 6.35548 14.5964 6.35591C14.6728 6.35595 14.7492 6.356 14.8255 6.35604C14.8819 6.35607 14.8819 6.35607 14.9394 6.35611C15.2042 6.35623 15.4691 6.35602 15.7339 6.35569C16.0566 6.3553 16.3793 6.35541 16.702 6.35615C16.8667 6.35652 17.0314 6.35667 17.196 6.3562C17.3745 6.35571 17.5529 6.3563 17.7314 6.357C17.7835 6.35669 17.8355 6.35638 17.8892 6.35605C18.2217 6.3586 18.4275 6.40252 18.6884 6.62095C18.9405 6.92075 18.9571 7.18829 18.9503 7.5654C18.95 7.61331 18.9497 7.66122 18.9494 7.71058C18.9488 7.81419 18.9479 7.9178 18.9467 8.02141C18.9449 8.18557 18.9444 8.34969 18.9441 8.51386C18.9434 8.98046 18.9418 9.44702 18.9367 9.91359C18.9336 10.1994 18.9328 10.4851 18.9335 10.7709C18.9333 10.8796 18.9323 10.9883 18.9304 11.0969C18.8962 11.6734 18.8962 11.6734 19.0874 12.1946C19.2059 12.2903 19.3162 12.3563 19.4531 12.4217C20.1474 13.0267 20.6248 13.9254 20.7127 14.8503C20.7814 16.0192 20.4678 16.9968 19.7021 17.8915C19.0221 18.6141 18.0652 19.0391 17.0771 19.0837C16.0488 19.1064 15.115 18.7721 14.3437 18.0936C14.2901 18.0468 14.2901 18.0468 14.2355 17.9989C14.019 17.7967 13.8484 17.579 13.6874 17.3319C13.6693 17.3042 13.6512 17.2765 13.6326 17.248C13.5349 17.0918 13.4837 16.9614 13.4531 16.7811C13.4092 16.7812 13.3653 16.7813 13.3202 16.7814C12.2525 16.7835 11.1848 16.785 10.1172 16.786C9.60084 16.7865 9.08452 16.7871 8.56821 16.7882C8.11815 16.7891 7.66809 16.7897 7.21803 16.7899C6.97976 16.7901 6.7415 16.7903 6.50323 16.791C6.27885 16.7917 6.05447 16.7919 5.83009 16.7917C5.74785 16.7917 5.66562 16.7919 5.58339 16.7923C5.47082 16.7928 5.35827 16.7926 5.2457 16.7924C5.21342 16.7927 5.18113 16.7929 5.14787 16.7932C4.83277 16.7913 4.53215 16.7509 4.29487 16.5292C4.26454 16.5017 4.2342 16.4743 4.20295 16.446C3.96955 16.1863 3.97733 15.864 3.97774 15.5303C3.9776 15.4949 3.97746 15.4596 3.97732 15.4231C3.97691 15.3052 3.97684 15.1872 3.97677 15.0692C3.97655 14.9844 3.97632 14.8996 3.97607 14.8148C3.97545 14.5848 3.97515 14.3548 3.97494 14.1248C3.9748 13.9809 3.97461 13.8371 3.9744 13.6933C3.97376 13.2431 3.97331 12.7929 3.97313 12.3426C3.97292 11.8234 3.97209 11.3042 3.97073 10.785C3.96972 10.3833 3.96925 9.98161 3.96919 9.57989C3.96914 9.34013 3.96886 9.10037 3.96802 8.86061C3.96725 8.63503 3.96715 8.40946 3.96756 8.18388C3.9676 8.10129 3.96739 8.0187 3.96693 7.9361C3.96198 6.99962 3.96198 6.99962 4.23335 6.63853C4.52682 6.35188 4.80044 6.35465 5.19035 6.357ZM4.82807 7.17174C4.75895 7.30999 4.77443 7.4499 4.77462 7.60147C4.77448 7.63648 4.77434 7.67149 4.77419 7.70756C4.77379 7.82549 4.77372 7.94341 4.77365 8.06134C4.77343 8.14564 4.77319 8.22994 4.77294 8.31424C4.77232 8.54367 4.77202 8.7731 4.77181 9.00253C4.77168 9.14574 4.77149 9.28895 4.77128 9.43215C4.77063 9.87983 4.77018 10.3275 4.77 10.7752C4.76979 11.2927 4.76897 11.8102 4.76761 12.3277C4.7666 12.7273 4.76612 13.1268 4.76606 13.5264C4.76601 13.7653 4.76573 14.0041 4.7649 14.243C4.76413 14.4676 4.76402 14.6921 4.76444 14.9167C4.76447 14.9993 4.76427 15.0818 4.7638 15.1644C4.76321 15.2768 4.76348 15.3892 4.76397 15.5017C4.76359 15.5346 4.76322 15.5675 4.76283 15.6014C4.76412 15.7273 4.76979 15.8232 4.83196 15.9342C4.9716 16.0119 5.09301 16.0015 5.25194 16.0011C5.28575 16.0013 5.31956 16.0014 5.35439 16.0015C5.46797 16.0017 5.58153 16.001 5.69511 16.0002C5.77641 16.0002 5.85771 16.0002 5.93901 16.0003C6.16001 16.0003 6.381 15.9995 6.602 15.9985C6.83284 15.9976 7.06369 15.9975 7.29454 15.9974C7.73182 15.9969 8.16909 15.9958 8.60636 15.9944C9.10412 15.9928 9.60188 15.992 10.0996 15.9913C11.1237 15.9898 12.1478 15.9873 13.1718 15.9842C13.1564 15.7213 13.1409 15.4583 13.1249 15.1874C13.0391 15.1851 12.9533 15.1828 12.8649 15.1804C12.7524 15.1769 12.6398 15.1733 12.5273 15.1698C12.4707 15.1683 12.4142 15.1669 12.3559 15.1654C12.2743 15.1627 12.2743 15.1627 12.1911 15.1599C12.141 15.1584 12.091 15.1569 12.0394 15.1554C11.9081 15.1407 11.8286 15.1185 11.7187 15.0467C11.6462 14.9018 11.6581 14.7845 11.6718 14.6249C11.7748 14.4839 11.832 14.4421 12.0054 14.4118C12.0614 14.4108 12.1173 14.4098 12.175 14.4088C12.2357 14.4073 12.2965 14.4058 12.359 14.4042C12.4229 14.4035 12.4868 14.4029 12.5507 14.4022C12.6154 14.4009 12.68 14.3995 12.7446 14.398C12.9027 14.3947 13.0607 14.3922 13.2187 14.3905C13.2357 14.3423 13.2528 14.2942 13.2703 14.2445C13.6696 13.1347 14.2576 12.3697 15.3339 11.841C15.59 11.7208 15.8467 11.6321 16.1249 11.578C16.166 11.5695 16.207 11.5609 16.2493 11.5522C16.4651 11.5232 16.678 11.5206 16.8955 11.5194C16.9375 11.5184 16.9795 11.5175 17.0228 11.5165C17.2918 11.5149 17.5439 11.5469 17.8068 11.6024C17.839 11.609 17.8713 11.6157 17.9045 11.6225C17.9832 11.6387 18.0619 11.6552 18.1406 11.6717C18.1417 11.0919 18.1425 10.5121 18.143 9.93232C18.1432 9.66312 18.1436 9.39392 18.1441 9.12473C18.1446 8.86517 18.1449 8.60561 18.145 8.34606C18.1451 8.24679 18.1453 8.14753 18.1455 8.04827C18.1459 7.90975 18.1459 7.77123 18.1459 7.63271C18.1461 7.59124 18.1462 7.54977 18.1464 7.50704C18.1642 7.32477 18.1642 7.32477 18.0937 7.17174C18.0228 7.1672 17.9518 7.16594 17.8808 7.16597C17.8345 7.16587 17.7882 7.16578 17.7404 7.16568C17.689 7.16582 17.6375 7.16596 17.5844 7.1661C17.5302 7.16606 17.476 7.16602 17.4202 7.16598C17.269 7.16591 17.1179 7.16606 16.9667 7.16629C16.804 7.1665 16.6413 7.16643 16.4785 7.16639C16.1964 7.16637 15.9142 7.16652 15.632 7.16678C15.224 7.16716 14.816 7.16728 14.408 7.16734C13.7462 7.16744 13.0843 7.16776 12.4225 7.1682C11.7794 7.16863 11.1363 7.16896 10.4932 7.16916C10.4536 7.16917 10.414 7.16918 10.3731 7.1692C10.1744 7.16926 9.97572 7.16932 9.77701 7.16938C8.12736 7.16986 6.47772 7.17069 4.82807 7.17174ZM14.5722 13.3759C14.0453 14.0176 13.8582 14.7795 13.9112 15.5951C13.9904 16.3971 14.4039 17.085 15.0029 17.6102C15.6652 18.1263 16.4794 18.3608 17.3148 18.2624C18.1818 18.1231 18.8491 17.6848 19.3798 16.992C19.8125 16.3565 20.0167 15.6048 19.8966 14.8387C19.7876 14.2833 19.6132 13.8533 19.2656 13.4061C19.2387 13.3703 19.2118 13.3346 19.1841 13.2977C18.7315 12.7395 18.0441 12.4005 17.3437 12.2811C16.2193 12.1803 15.3225 12.5442 14.5722 13.3759Z" fill="#3E8D7A"/>
<path d="M22.9689 11.6253C23.0853 11.72 23.1488 11.7772 23.1807 11.9259C23.181 11.9889 23.181 11.9889 23.1813 12.0532C23.1817 12.1011 23.1821 12.149 23.1825 12.1983C23.1816 12.2499 23.1808 12.3016 23.1799 12.3548C23.1793 12.4087 23.1787 12.4626 23.1782 12.5182C23.1431 14.0853 22.7253 15.6876 21.9839 17.0696C21.9377 17.1566 21.8931 17.2444 21.8489 17.3325C21.1862 18.6375 20.174 19.8122 19.0314 20.7191C18.9635 20.7742 18.9635 20.7742 18.8941 20.8304C18.4625 21.173 18.0039 21.4673 17.5314 21.7503C17.5019 21.7681 17.4723 21.7858 17.4418 21.8041C15.8184 22.7627 13.9003 23.1781 12.0324 23.1741C11.9871 23.1741 11.9419 23.1741 11.8952 23.1741C11.1501 23.1721 10.4335 23.1291 9.70331 22.9691C9.65634 22.9588 9.60936 22.9485 9.56097 22.9379C8.93422 22.7955 8.3296 22.6018 7.73456 22.3597C7.69961 22.3456 7.66466 22.3314 7.62865 22.3169C6.78047 21.9694 6.016 21.5019 5.27829 20.9607C5.20762 20.9097 5.13519 20.8612 5.06268 20.8128C5.07459 20.8588 5.08649 20.9048 5.09875 20.9522C5.44235 22.293 5.44235 22.293 5.39081 22.6409C5.27022 22.8163 5.20151 22.8665 4.99237 22.9075C4.81816 22.8733 4.75794 22.834 4.65029 22.6958C4.52233 22.4648 4.48628 22.1973 4.43445 21.9407C4.42095 21.8766 4.40739 21.8126 4.39379 21.7485C4.36557 21.6146 4.33794 21.4807 4.31075 21.3466C4.27594 21.1752 4.23973 21.0041 4.20307 20.8331C4.17491 20.701 4.14745 20.5688 4.12021 20.4365C4.10713 20.3733 4.09384 20.3102 4.08034 20.2472C4.06156 20.159 4.04382 20.0705 4.02613 19.9821C4.01581 19.9319 4.00548 19.8818 3.99484 19.8301C3.98039 19.6302 4.0245 19.4846 4.13807 19.3199C4.25416 19.2424 4.34263 19.2477 4.48149 19.247C4.53531 19.2464 4.58913 19.2458 4.64457 19.2452C4.73181 19.2454 4.73181 19.2454 4.8208 19.2456C4.91035 19.2452 4.91035 19.2452 5.00172 19.2449C5.1281 19.2446 5.25444 19.2446 5.38082 19.245C5.5426 19.2456 5.70435 19.2446 5.86613 19.2433C6.02061 19.2422 6.1751 19.2425 6.32959 19.2427C6.38765 19.2422 6.44571 19.2416 6.50553 19.2411C6.55949 19.2415 6.61346 19.242 6.66906 19.2424C6.74024 19.2424 6.74024 19.2424 6.81287 19.2424C6.97115 19.2722 7.02586 19.3293 7.12518 19.4534C7.17501 19.5922 7.17693 19.6674 7.14276 19.8109C7.06098 19.9521 6.98998 19.991 6.84393 20.0628C6.70114 20.0831 6.70114 20.0831 6.54419 20.0868C6.48784 20.0885 6.4315 20.0901 6.37344 20.0918C6.31504 20.0929 6.25664 20.094 6.19647 20.095C6.13717 20.0966 6.07786 20.0982 6.01675 20.0999C5.87061 20.1038 5.72448 20.107 5.57831 20.1097C7.57679 21.7632 10.2788 22.5487 12.8566 22.3256C15.1785 22.0935 17.359 21.1762 19.0521 19.5589C19.1721 19.4534 19.1721 19.4534 19.2759 19.4036C19.3858 19.3459 19.402 19.2832 19.4533 19.1722C19.505 19.1175 19.559 19.0649 19.6144 19.014C21.3434 17.3226 22.2826 14.7222 22.3328 12.3418C22.3423 12.0861 22.3782 11.8987 22.5002 11.6722C22.6469 11.5988 22.8101 11.5926 22.9689 11.6253Z" fill="#3E8D7A"/>
<path d="M11.9677 0.826241C12.013 0.826266 12.0583 0.826292 12.1049 0.826318C12.8503 0.828241 13.5662 0.872154 14.2968 1.03132C14.3425 1.04112 14.3883 1.05091 14.4354 1.061C15.4175 1.27858 16.3662 1.62952 17.2499 2.10944C17.2801 2.12537 17.3102 2.14129 17.3413 2.15769C17.8279 2.4148 18.2756 2.71348 18.7196 3.03823C18.7911 3.08967 18.8642 3.13873 18.9374 3.18757C18.9255 3.14159 18.9136 3.0956 18.9014 3.04823C18.5578 1.70734 18.5578 1.70734 18.6093 1.35944C18.7299 1.18404 18.7986 1.13392 19.0078 1.09284C19.182 1.12706 19.2422 1.16642 19.3498 1.30457C19.4778 1.53558 19.5138 1.80312 19.5657 2.05964C19.5792 2.12373 19.5927 2.18782 19.6063 2.25189C19.6346 2.38574 19.6622 2.5197 19.6894 2.65377C19.7242 2.82517 19.7604 2.99624 19.7971 3.16726C19.8252 3.29937 19.8527 3.43162 19.8799 3.56393C19.893 3.62707 19.9063 3.69016 19.9198 3.7532C19.9386 3.84143 19.9563 3.92987 19.974 4.01832C19.9843 4.06848 19.9947 4.11863 20.0053 4.17031C20.0197 4.37015 19.9756 4.51576 19.8621 4.68053C19.746 4.75793 19.6575 4.75264 19.5186 4.75338C19.4379 4.75428 19.4379 4.75428 19.3556 4.75519C19.2974 4.75505 19.2392 4.75491 19.1793 4.75477C19.0898 4.75514 19.0898 4.75514 18.9984 4.75551C18.872 4.75581 18.7457 4.75582 18.6193 4.75535C18.4575 4.75481 18.2958 4.75576 18.134 4.75713C17.9795 4.7582 17.825 4.75787 17.6705 4.7577C17.6125 4.75822 17.5544 4.75875 17.4946 4.75929C17.4406 4.75885 17.3867 4.75841 17.3311 4.75796C17.2599 4.75795 17.2599 4.75795 17.1873 4.75794C17.029 4.72814 16.9743 4.67112 16.8749 4.54694C16.8251 4.40815 16.8232 4.33303 16.8574 4.18952C16.9392 4.04826 17.0102 4.00938 17.1562 3.93757C17.299 3.9173 17.299 3.9173 17.4559 3.91358C17.5123 3.91192 17.5686 3.91026 17.6267 3.90855C17.6851 3.90749 17.7435 3.90643 17.8037 3.90534C17.8926 3.90294 17.8926 3.90294 17.9834 3.90049C18.1295 3.89663 18.2757 3.89339 18.4218 3.89069C16.4233 2.23723 13.7213 1.4517 11.1435 1.67477C8.82164 1.90692 6.6411 2.82419 4.94801 4.44148C4.82807 4.54694 4.82807 4.54694 4.72425 4.59675C4.6143 4.65449 4.59818 4.71717 4.54682 4.82819C4.49511 4.88289 4.44111 4.93547 4.38569 4.9864C2.66631 6.6717 1.70335 9.2764 1.6559 11.653C1.65056 11.8787 1.62718 12.0691 1.54682 12.2813C1.39615 12.3818 1.30428 12.3891 1.12659 12.3967C0.987303 12.3651 0.934013 12.2962 0.843697 12.1876C0.819435 12.0745 0.819435 12.0745 0.818794 11.9472C0.818409 11.8993 0.818024 11.8514 0.817627 11.8021C0.818496 11.7504 0.819364 11.6988 0.820259 11.6456C0.820826 11.5917 0.821392 11.5377 0.821976 11.4822C0.857043 9.91511 1.27479 8.31276 2.01619 6.93082C2.06248 6.84376 2.10702 6.75598 2.15125 6.66785C2.63169 5.72176 3.29875 4.88762 4.0312 4.12507C4.07132 4.08301 4.11144 4.04096 4.15278 3.99763C4.42333 3.72023 4.70923 3.47153 5.01557 3.23444C5.05407 3.20464 5.05407 3.20464 5.09335 3.17423C5.78354 2.64389 6.52148 2.19191 7.31245 1.82819C7.36286 1.80492 7.36286 1.80492 7.4143 1.78118C8.30745 1.3745 9.2485 1.08825 10.2187 0.937569C10.2714 0.929291 10.3241 0.921012 10.3784 0.912483C10.9083 0.837369 11.433 0.825104 11.9677 0.826241Z" fill="#3E8D7A"/>
<path d="M17.1093 12.9842C17.2206 13.0574 17.2206 13.0574 17.2968 13.1717C17.3026 13.234 17.3064 13.2966 17.3085 13.3592C17.3124 13.4581 17.3124 13.4581 17.3436 13.5467C17.43 13.6098 17.5164 13.6445 17.6154 13.6847C17.8308 13.7879 17.9895 13.9701 18.1141 14.1707C18.1654 14.4158 18.2025 14.6677 18.0643 14.8855C17.9262 14.9691 17.8336 14.9965 17.6718 14.9998C17.5487 14.9588 17.5487 14.9588 17.4374 14.8592C17.3845 14.7525 17.3409 14.646 17.301 14.5338C17.237 14.413 17.1912 14.3859 17.0624 14.3435C16.9561 14.337 16.9561 14.337 16.8485 14.3523C16.8127 14.3559 16.7768 14.3595 16.7399 14.3631C16.6201 14.396 16.57 14.4284 16.4999 14.531C16.4949 14.6311 16.4949 14.6311 16.5468 14.7185C16.6359 14.7676 16.6359 14.7676 16.7489 14.7918C16.7912 14.8032 16.8335 14.8145 16.8771 14.8262C16.9701 14.8484 17.0634 14.8693 17.1569 14.8892C17.5425 14.9743 17.8654 15.0854 18.0966 15.4217C18.192 15.7173 18.2011 16.0878 18.101 16.3813C17.946 16.653 17.6917 16.8748 17.3905 16.9627C17.3596 16.9646 17.3286 16.9666 17.2968 16.9685C17.304 17.0541 17.304 17.0541 17.3114 17.1414C17.3108 17.3053 17.2983 17.3412 17.2001 17.4842C17.0275 17.6017 16.9391 17.6115 16.7343 17.5779C16.6234 17.4904 16.5627 17.4223 16.4999 17.2967C16.498 17.1873 16.4979 17.0779 16.4999 16.9685C16.4419 16.9555 16.4419 16.9555 16.3827 16.9422C16.0656 16.812 15.8223 16.584 15.6856 16.2676C15.6325 16.0947 15.6294 15.978 15.6561 15.7967C15.7528 15.656 15.7528 15.656 15.8905 15.5623C16.0546 15.533 16.0546 15.533 16.2186 15.5623C16.418 15.7129 16.47 15.8475 16.5468 16.0779C16.6849 16.1948 16.8463 16.1851 17.0199 16.1812C17.128 16.1697 17.2065 16.1381 17.2968 16.0779C17.2968 16.0006 17.2968 15.9232 17.2968 15.8435C17.0815 15.7538 16.8715 15.6896 16.6437 15.6379C15.9777 15.4852 15.9777 15.4852 15.783 15.1888C15.617 14.867 15.6033 14.5572 15.7118 14.2146C15.8793 13.9142 16.0536 13.7407 16.3593 13.5935C16.4057 13.5935 16.4521 13.5935 16.4999 13.5935C16.4941 13.508 16.4941 13.508 16.4882 13.4207C16.4876 13.262 16.498 13.2214 16.5878 13.0809C16.7658 12.9081 16.8708 12.9307 17.1093 12.9842Z" fill="#3E8D7A"/>
<path d="M6.42716 8.05419C6.4669 8.05359 6.50664 8.05298 6.54759 8.05236C6.59061 8.05202 6.63362 8.05167 6.67794 8.05132C6.72211 8.05094 6.76627 8.05056 6.81177 8.05017C6.90531 8.04952 6.99886 8.04902 7.0924 8.04865C7.23552 8.04784 7.37859 8.04578 7.52169 8.04372C7.61251 8.04324 7.70333 8.04284 7.79415 8.04253C7.8584 8.04129 7.8584 8.04129 7.92394 8.04004C8.22141 8.04106 8.22141 8.04106 8.3694 8.15162C8.50575 8.34832 8.49282 8.52217 8.49398 8.75481C8.49425 8.79574 8.49452 8.83666 8.49479 8.87883C8.49524 8.96556 8.49554 9.05229 8.49572 9.13902C8.49618 9.27143 8.49763 9.40381 8.49911 9.53621C8.49942 9.62047 8.49966 9.70473 8.49984 9.78899C8.50042 9.8285 8.501 9.86801 8.5016 9.90871C8.50077 10.1263 8.49343 10.2818 8.34384 10.4531C8.1474 10.5708 7.93813 10.5605 7.71542 10.5593C7.65901 10.5594 7.65901 10.5594 7.60145 10.5596C7.52219 10.5596 7.44292 10.5595 7.36365 10.5591C7.24268 10.5586 7.12173 10.5591 7.00076 10.5597C6.92355 10.5596 6.84634 10.5595 6.76913 10.5593C6.73314 10.5595 6.69715 10.5597 6.66006 10.5599C6.41878 10.5578 6.24216 10.5411 6.05692 10.3804C5.96882 10.2025 5.98003 10.0311 5.98141 9.83513C5.98128 9.79329 5.98114 9.75145 5.981 9.70835C5.98091 9.61997 5.98117 9.5316 5.98175 9.44323C5.98251 9.30824 5.98176 9.17333 5.98086 9.03835C5.98095 8.95238 5.98113 8.86641 5.98141 8.78044C5.98113 8.7402 5.98084 8.69996 5.98055 8.6585C5.98313 8.43761 5.9962 8.2882 6.14071 8.10936C6.24738 8.05602 6.3086 8.05575 6.42716 8.05419ZM6.79696 8.85936C6.79696 9.15327 6.79696 9.44717 6.79696 9.74998C7.09087 9.74998 7.38477 9.74998 7.68759 9.74998C7.68759 9.45608 7.68759 9.16217 7.68759 8.85936C7.39368 8.85936 7.09978 8.85936 6.79696 8.85936Z" fill="#3E8D7A"/>
<path d="M13.0168 8.38197C13.0726 8.38139 13.0726 8.38139 13.1295 8.38081C13.2529 8.37964 13.3763 8.37887 13.4996 8.37819C13.5417 8.37794 13.5838 8.37769 13.6272 8.37744C13.8499 8.37618 14.0726 8.37527 14.2952 8.3746C14.5255 8.37382 14.7557 8.37172 14.986 8.36933C15.1628 8.36776 15.3397 8.36721 15.5165 8.36695C15.6014 8.36663 15.6863 8.36592 15.7712 8.3648C15.8899 8.36332 16.0086 8.36331 16.1274 8.36366C16.1625 8.36289 16.1976 8.36212 16.2338 8.36133C16.4113 8.36346 16.485 8.37669 16.6156 8.50112C16.7041 8.6541 16.7165 8.73249 16.6875 8.90663C16.6155 9.03081 16.6155 9.03081 16.5 9.14101C16.3669 9.1642 16.2618 9.17221 16.1288 9.16985C16.0916 9.17011 16.0544 9.17037 16.0161 9.17064C15.8932 9.17119 15.7704 9.17005 15.6475 9.16884C15.562 9.16876 15.4765 9.16876 15.3911 9.16885C15.212 9.16877 15.033 9.16789 14.8539 9.16642C14.6244 9.16456 14.3949 9.16435 14.1654 9.1647C13.989 9.16485 13.8125 9.16428 13.6361 9.16348C13.5514 9.16315 13.4668 9.163 13.3822 9.16304C13.2639 9.16296 13.1457 9.16196 13.0274 9.16069C12.9924 9.16083 12.9575 9.16097 12.9214 9.16111C12.7758 9.15871 12.6713 9.14913 12.542 9.07935C12.4245 8.95275 12.4248 8.84102 12.4219 8.67226C12.5595 8.37081 12.712 8.38369 13.0168 8.38197Z" fill="#3E8D7A"/>
<path d="M14.8518 9.39979C14.8967 9.39943 14.9417 9.39908 14.988 9.39871C15.083 9.3982 15.178 9.39807 15.273 9.39828C15.4182 9.39832 15.5633 9.39637 15.7084 9.3943C15.8008 9.39405 15.8932 9.39393 15.9856 9.39393C16.0289 9.39316 16.0722 9.39239 16.1168 9.3916C16.3287 9.39387 16.4238 9.39982 16.5978 9.53025C16.7152 9.69518 16.7199 9.78594 16.6874 9.98426C16.5999 10.0951 16.5318 10.1558 16.4062 10.2186C16.3435 10.2233 16.2806 10.2251 16.2178 10.2254C16.179 10.2257 16.1402 10.226 16.1002 10.2264C16.0582 10.2264 16.0162 10.2265 15.9729 10.2265C15.9082 10.2267 15.9082 10.2267 15.8423 10.227C15.7509 10.2272 15.6596 10.2273 15.5682 10.2273C15.4285 10.2274 15.2888 10.2283 15.1491 10.2292C15.0605 10.2293 14.9718 10.2294 14.8831 10.2294C14.8413 10.2298 14.7995 10.2301 14.7564 10.2305C14.7173 10.2303 14.6782 10.2302 14.6379 10.23C14.6037 10.2301 14.5694 10.2302 14.5341 10.2302C14.3861 10.2125 14.2823 10.1649 14.1884 10.0487C14.141 9.88498 14.1454 9.72359 14.203 9.56239C14.3784 9.36716 14.6088 9.39984 14.8518 9.39979Z" fill="#3E8D7A"/>
<path d="M9.51446 14.3654C9.55947 14.3652 9.60447 14.365 9.65084 14.3649C9.74575 14.3647 9.84066 14.3651 9.93557 14.3659C10.0809 14.3669 10.226 14.3659 10.3713 14.3647C10.4636 14.3648 10.5559 14.365 10.6483 14.3654C10.6917 14.365 10.7351 14.3646 10.7798 14.3643C11.08 14.3686 11.08 14.3686 11.2295 14.4785C11.3093 14.596 11.3369 14.6701 11.3439 14.8122C11.3096 14.943 11.2716 15.0232 11.1801 15.1227C10.9992 15.222 10.825 15.2073 10.6219 15.2059C10.579 15.206 10.5361 15.2061 10.492 15.2063C10.4014 15.2064 10.3108 15.2061 10.2202 15.2055C10.0818 15.2048 9.94352 15.2055 9.80514 15.2064C9.71704 15.2063 9.62893 15.2061 9.54083 15.2059C9.47893 15.2063 9.47893 15.2063 9.41578 15.2067C9.19269 15.2042 9.03978 15.1933 8.85949 15.0466C8.78604 14.8997 8.7727 14.7357 8.81262 14.5778C9.02098 14.3491 9.22503 14.3629 9.51446 14.3654Z" fill="#3E8D7A"/>
<path d="M6.64886 14.3658C6.69382 14.3657 6.73878 14.3655 6.7851 14.3653C6.88009 14.3652 6.97509 14.3655 7.07008 14.3663C7.21527 14.3673 7.36034 14.3663 7.50552 14.3651C7.5979 14.3652 7.69027 14.3655 7.78265 14.3658C7.82597 14.3655 7.86928 14.3651 7.91391 14.3647C8.1132 14.3676 8.22199 14.3733 8.39478 14.4802C8.48449 14.5782 8.48449 14.5782 8.51232 14.672C8.50317 14.8672 8.49521 15.0006 8.34387 15.1407C8.21722 15.183 8.14062 15.1941 8.01027 15.1959C7.9523 15.1968 7.9523 15.1968 7.89315 15.1977C7.85155 15.1981 7.80995 15.1984 7.76708 15.1988C7.70267 15.1994 7.70267 15.1994 7.63695 15.1999C7.54609 15.2006 7.45523 15.2011 7.36437 15.2015C7.22557 15.2023 7.08683 15.2043 6.94805 15.2064C6.85974 15.2069 6.77142 15.2073 6.6831 15.2076C6.62098 15.2088 6.62098 15.2088 6.55761 15.2101C6.36255 15.2094 6.26062 15.2037 6.09111 15.0991C5.98712 14.986 5.96934 14.9407 5.97375 14.7892C5.97369 14.7539 5.97363 14.7186 5.97357 14.6822C6.06222 14.335 6.35209 14.3632 6.64886 14.3658Z" fill="#3E8D7A"/>
</g>
<defs>
<clipPath id="clip0_312_1770">
<rect width="24" height="24" fill="white"/>
</clipPath>
</defs>
</svg>
