<svg width="20" height="20" viewBox="0 0 20 20" fill="none" xmlns="http://www.w3.org/2000/svg">
<path fill-rule="evenodd" clip-rule="evenodd" d="M9.50042 9.49998C8.05938 9.49998 6.88808 8.33389 6.88808 6.89999C6.88808 5.46609 8.05938 4.29999 9.50042 4.29999C10.9415 4.29999 12.1128 5.46609 12.1128 6.89999C12.1128 8.33389 10.9415 9.49998 9.50042 9.49998ZM11.9548 9.93742C12.4919 9.50977 12.9061 8.94746 13.1552 8.30774C13.4043 7.66801 13.4795 6.97368 13.3731 6.29545C13.1151 4.5905 11.6903 3.22618 9.96972 3.02728C7.59593 2.75234 5.58223 4.59184 5.58223 6.89999C5.58223 8.12849 6.15423 9.22307 7.04603 9.93742C4.85423 10.7571 3.25393 12.6817 3.00303 15.2791C2.99426 15.3702 3.00459 15.4622 3.03337 15.5491C3.06215 15.6359 3.10873 15.7158 3.17016 15.7837C3.23158 15.8515 3.30648 15.9058 3.39007 15.943C3.47367 15.9803 3.56411 15.9997 3.65563 16C3.81605 16.0013 3.97116 15.9426 4.09056 15.8355C4.20996 15.7284 4.28504 15.5805 4.30108 15.4208C4.56303 12.5199 6.79448 10.8 9.50042 10.8C12.2064 10.8 14.4378 12.5199 14.6998 15.4208C14.7158 15.5805 14.7909 15.7284 14.9103 15.8355C15.0297 15.9426 15.1848 16.0013 15.3452 16C15.7326 16 16.0342 15.6633 15.9972 15.2791C15.7469 12.6817 14.1466 10.7571 11.9542 9.93742" fill="#2C2C2C"/>
</svg>
