<svg width="24" height="24" viewBox="0 0 24 24" fill="none" xmlns="http://www.w3.org/2000/svg">
<path d="M19.8678 15.75H16.8828C15.8493 15.75 15.0078 14.9093 15.0078 13.875C15.0078 12.8408 15.8493 12 16.8828 12H19.8671C19.9665 12 20.0619 12.0395 20.1322 12.1098C20.2026 12.1802 20.2421 12.2755 20.2421 12.375C20.2421 12.4745 20.2026 12.5698 20.1322 12.6402C20.0619 12.7105 19.9665 12.75 19.8671 12.75H16.8828C16.2626 12.75 15.7578 13.2548 15.7578 13.875C15.7578 14.4952 16.2626 15 16.8828 15H19.8671C19.9665 14.9999 20.0619 15.0393 20.1323 15.1096C20.2027 15.1798 20.2423 15.2752 20.2424 15.3746C20.2425 15.4741 20.2031 15.5695 20.1329 15.6399C20.0626 15.7103 19.9673 15.7499 19.8678 15.75Z" fill="#FEFACD"/>
<path d="M16.875 14.25C17.0821 14.25 17.25 14.0821 17.25 13.875C17.25 13.6679 17.0821 13.5 16.875 13.5C16.6679 13.5 16.5 13.6679 16.5 13.875C16.5 14.0821 16.6679 14.25 16.875 14.25Z" fill="#FEFACD"/>
<path d="M18.375 17.25H5.625C5.1279 17.2494 4.65133 17.0517 4.29983 16.7002C3.94833 16.3487 3.7506 15.8721 3.75 15.375C3.75 15.2755 3.78951 15.1802 3.85984 15.1098C3.93016 15.0395 4.02554 15 4.125 15C4.22446 15 4.31984 15.0395 4.39016 15.1098C4.46049 15.1802 4.5 15.2755 4.5 15.375C4.5 15.9953 5.00475 16.5 5.625 16.5H18.375C18.9952 16.5 19.5 15.9953 19.5 15.375C19.5 15.2755 19.5395 15.1802 19.6098 15.1098C19.6802 15.0395 19.7755 15 19.875 15C19.9745 15 20.0698 15.0395 20.1402 15.1098C20.2105 15.1802 20.25 15.2755 20.25 15.375C20.25 16.4093 19.4085 17.25 18.375 17.25ZM19.875 12C19.7755 12 19.6802 11.9605 19.6098 11.8902C19.5395 11.8198 19.5 11.7245 19.5 11.625C19.5 11.0048 18.9952 10.5 18.375 10.5H5.625C5.1279 10.4994 4.65133 10.3017 4.29983 9.95017C3.94833 9.59867 3.7506 9.1221 3.75 8.625C3.75 8.52554 3.78951 8.43016 3.85984 8.35983C3.93016 8.28951 4.02554 8.25 4.125 8.25C4.22446 8.25 4.31984 8.28951 4.39016 8.35983C4.46049 8.43016 4.5 8.52554 4.5 8.625C4.5 9.24525 5.00475 9.75 5.625 9.75H18.375C19.4085 9.75 20.25 10.5915 20.25 11.625C20.25 11.7245 20.2105 11.8198 20.1402 11.8902C20.0698 11.9605 19.9745 12 19.875 12Z" fill="#FEFACD"/>
<path d="M18.375 18.75H5.625C5.1279 18.7494 4.65133 18.5517 4.29983 18.2002C3.94833 17.8487 3.7506 17.3721 3.75 16.875V7.125C3.75 7.02554 3.78951 6.93016 3.85984 6.85983C3.93016 6.78951 4.02554 6.75 4.125 6.75C4.22446 6.75 4.31984 6.78951 4.39016 6.85983C4.46049 6.93016 4.5 7.02554 4.5 7.125V16.875C4.5 17.4952 5.00475 18 5.625 18H18.375C18.9952 18 19.5 17.4952 19.5 16.875V10.125C19.5 9.50475 18.9952 9 18.375 9H10.5C10.4005 9 10.3052 8.96049 10.2348 8.89017C10.1645 8.81984 10.125 8.72446 10.125 8.625C10.125 8.52554 10.1645 8.43016 10.2348 8.35983C10.3052 8.28951 10.4005 8.25 10.5 8.25H18.375C19.4085 8.25 20.25 9.0915 20.25 10.125V16.875C20.25 17.9093 19.4085 18.75 18.375 18.75Z" fill="#2C2C2C"/>
<path d="M17.625 9H5.625C4.5915 9 3.75 8.1585 3.75 7.125C3.75 6.0915 4.5915 5.25 5.625 5.25H16.125C17.1585 5.25 18 6.0915 18 7.125V8.625C18 8.72446 17.9605 8.81984 17.8902 8.89017C17.8198 8.96049 17.7245 9 17.625 9ZM5.625 6C5.00475 6 4.5 6.50475 4.5 7.125C4.5 7.74525 5.00475 8.25 5.625 8.25H17.25V7.125C17.25 6.50475 16.7452 6 16.125 6H5.625Z" fill="#2C2C2C"/>
</svg>
