<svg width="24" height="24" viewBox="0 0 24 24" fill="none" xmlns="http://www.w3.org/2000/svg">
<g clip-path="url(#clip0_18_249)">
<path fill-rule="evenodd" clip-rule="evenodd" d="M11.892 9.67978C11.254 10.7578 10.37 11.4278 9.39604 11.4278C7.45204 11.4278 5.86804 8.76378 5.86804 5.49978C5.86804 5.09578 5.89204 4.70178 5.93804 4.32178H6.36204L6.29204 4.91578C5.84404 8.79778 7.26604 10.7938 9.19804 11.1218C10.788 11.3898 11.38 10.1718 11.892 9.67978Z" fill="#8D8D8D"/>
<path fill-rule="evenodd" clip-rule="evenodd" d="M14.204 2.69C19.192 3.14 21.75 4.592 21.75 5.484C21.75 6.374 17.792 7.236 11.472 7.236C5.154 7.236 0 6.45 0 5.484C0 4.89 1.92 3.922 4.87 3.264C5.652 1.434 7.624 0 9.682 0C11.728 0 13.314 1.168 14.204 2.69ZM7.336 23.028C7.634 23.028 10.634 20.802 10.716 17.986C10.814 14.592 12.66 10.416 13.568 10.534C14.326 10.63 12.752 12.09 13.49 12.516C14.926 13.344 18.026 13.812 19.018 15.304C17.684 20.974 14.9 26.236 15.26 31.95C15.392 34.052 17.12 36.262 19.108 38.718C20.498 40.434 22.226 42.218 24.108 44.036H1.036C3.10617 39.89 4.86437 35.5954 6.296 31.188C6.85 29.454 6.746 26.272 6.544 25.746C5.836 23.878 3.09 22.576 3.73 19.962C4.01 18.802 4.772 16.026 5.432 14.54C6.238 12.726 7.25 12.032 8.184 11.766C8.514 11.674 5.552 15.87 5.428 18.698C5.346 20.634 7.158 23.028 7.336 23.028ZM18.338 37.536L17.796 36.834C17.952 37.044 18.134 37.286 18.338 37.536Z" fill="#8D8D8D"/>
</g>
<defs>
<clipPath id="clip0_18_249">
<rect width="24" height="24" fill="white"/>
</clipPath>
</defs>
</svg>
